<svg width="147" height="29" viewBox="0 0 147 29" fill="none" xmlns="http://www.w3.org/2000/svg">
<path d="M35.7557 14.265C36.5072 14.265 37.1415 14.4589 37.6586 14.8468C38.1815 15.243 38.5467 15.7975 38.6934 16.4184H41.3016C41.0665 15.1207 40.4717 14.0947 39.5173 13.3402C38.5629 12.5857 37.3332 12.2088 35.8281 12.2095C34.6211 12.2095 33.5597 12.4521 32.6437 12.9373C31.7407 13.4088 31.0015 14.1206 30.5163 14.9858C30.0146 15.8669 29.7641 16.8893 29.7648 18.053C29.7655 19.2167 30.0121 20.2465 30.5047 21.1422C30.9741 22.0149 31.7046 22.7354 32.6038 23.2127C33.5135 23.6986 34.563 23.9412 35.7525 23.9405C37.2723 23.9405 38.5178 23.5636 39.489 22.8098C40.4602 22.056 41.0634 21.0153 41.2985 19.6876H38.7165C38.5861 20.3169 38.2285 20.8828 37.7058 21.2872C37.1894 21.6824 36.5394 21.88 35.7557 21.88C34.7362 21.88 33.9176 21.5258 33.2997 20.8173C32.6819 20.1088 32.3722 19.1871 32.3708 18.052C32.3708 16.9323 32.6805 16.0218 33.2997 15.3207C33.919 14.6195 34.7376 14.2676 35.7557 14.265Z" fill="#3A485A"/>
<path d="M52.0303 12.9422C51.0983 12.4503 50.0291 12.204 48.8228 12.2034C47.6165 12.2027 46.547 12.449 45.6143 12.9422C44.6979 13.4201 43.9468 14.1411 43.4522 15.0177C42.9428 15.9054 42.6881 16.9238 42.6881 18.0729C42.6881 19.2373 42.9428 20.2633 43.4522 21.1511C43.9456 22.0245 44.6974 22.7406 45.6143 23.2106C46.5463 23.6965 47.6158 23.9391 48.8228 23.9384C50.0298 23.9377 51.099 23.6951 52.0303 23.2106C52.9472 22.7406 53.699 22.0245 54.1924 21.1511C54.7011 20.2633 54.9558 19.2373 54.9565 18.0729C54.9565 16.9238 54.7018 15.9054 54.1924 15.0177C53.6978 14.1411 52.9467 13.4201 52.0303 12.9422ZM51.3953 20.8162C50.7453 21.5254 49.8878 21.8796 48.8228 21.8789C47.7579 21.8783 46.9039 21.524 46.2608 20.8162C45.6185 20.1064 45.2973 19.1919 45.2973 18.0729C45.2973 16.9538 45.6185 16.0397 46.2608 15.3306C46.9032 14.6214 47.7572 14.2672 48.8228 14.2679C49.8885 14.2685 50.746 14.6228 51.3953 15.3306C52.046 16.0397 52.3714 16.9538 52.3714 18.0729C52.3714 19.1919 52.046 20.1064 51.3953 20.8162Z" fill="#3A485A"/>
<path d="M66.3779 12.9105C65.4812 12.4316 64.4671 12.188 63.4392 12.2047C61.7941 12.2047 60.4857 12.8168 59.5138 14.0412L59.2084 12.3416H57.0043V28.2786H59.5421V22.1901C59.9446 22.7358 60.4865 23.1749 61.1165 23.4658C61.7742 23.7797 62.5498 23.9364 63.4434 23.9357C64.4743 23.9528 65.4905 23.7011 66.3821 23.2079C67.2482 22.7189 67.9496 22.0044 68.4036 21.1484C68.8892 20.2606 69.132 19.2346 69.132 18.0702C69.132 16.8765 68.8892 15.8357 68.4036 14.948C67.9522 14.0947 67.2479 13.3863 66.3779 12.9105ZM65.5677 20.8245C64.917 21.5403 64.0668 21.8982 63.0172 21.8982C61.9677 21.8982 61.1217 21.5403 60.4794 20.8245C59.837 20.108 59.5155 19.1749 59.5148 18.0252C59.5148 16.9055 59.8364 15.9987 60.4794 15.3049C61.1224 14.6111 61.9684 14.2641 63.0172 14.2641C64.0668 14.2641 64.917 14.6147 65.5677 15.3159C66.2184 16.017 66.5434 16.9351 66.5427 18.0702C66.5427 19.1899 66.2177 20.108 65.5677 20.8245Z" fill="#3A485A"/>
<path d="M75.0511 12.7973C74.5001 13.1051 74.0392 13.54 73.7108 14.0619L73.4285 12.3384H71.173V23.8005H73.7108V18.0469C73.7108 17.0472 73.9459 16.2227 74.4161 15.5736C74.8863 14.9244 75.6462 14.5998 76.6958 14.5998H77.8241V12.3384H77.2594C76.3358 12.3384 75.5997 12.4913 75.0511 12.7973Z" fill="#3A485A"/>
<path d="M87.7758 12.9422C86.8438 12.4503 85.7743 12.204 84.5673 12.2034C83.3603 12.2027 82.2911 12.449 81.3598 12.9422C80.4432 13.4198 79.692 14.1409 79.1977 15.0177C78.6876 15.9054 78.4329 16.9238 78.4336 18.0729C78.4336 19.2373 78.6883 20.2633 79.1977 21.1511C79.6908 22.0247 80.4427 22.7409 81.3598 23.2106C82.2918 23.6965 83.361 23.9391 84.5673 23.9384C85.7736 23.9377 86.8431 23.6951 87.7758 23.2106C88.6927 22.7406 89.4445 22.0245 89.9379 21.1511C90.4466 20.2633 90.7013 19.2373 90.702 18.0729C90.702 16.9238 90.4473 15.9054 89.9379 15.0177C89.4433 14.1411 88.6922 13.4201 87.7758 12.9422ZM87.146 20.8122C86.4946 21.5214 85.635 21.8756 84.5673 21.8749C83.4995 21.8743 82.6459 21.5214 82.0063 20.8162C81.3626 20.1064 81.0411 19.1919 81.0418 18.0729C81.0425 16.9538 81.364 16.0397 82.0063 15.3306C82.6487 14.6214 83.5023 14.2672 84.5673 14.2679C85.6322 14.2685 86.4901 14.6228 87.1408 15.3306C87.7915 16.0397 88.1169 16.9538 88.1169 18.0729C88.1169 19.1919 87.7915 20.1064 87.1408 20.8162L87.146 20.8122Z" fill="#3A485A"/>
<path d="M102.123 12.9105C101.226 12.4316 100.212 12.188 99.1839 12.2047C97.5382 12.2047 96.2297 12.8168 95.2585 14.0412L94.9531 12.3416H92.7458V28.2786H95.2848V22.1901C95.6873 22.7358 96.2291 23.1749 96.8591 23.4658C97.5168 23.7797 98.2925 23.9364 99.186 23.9357C100.217 23.9528 101.233 23.7011 102.125 23.2079C102.991 22.7189 103.692 22.0044 104.146 21.1484C104.631 20.2606 104.874 19.2346 104.875 18.0702C104.875 16.8765 104.632 15.8357 104.146 14.948C103.695 14.0949 102.992 13.3866 102.123 12.9105ZM101.311 20.8245C100.663 21.5403 99.8136 21.8982 98.7641 21.8982C97.7145 21.8982 96.8678 21.5403 96.2241 20.8245C95.5818 20.108 95.2606 19.1749 95.2606 18.0252C95.2606 16.9055 95.5818 15.9987 96.2241 15.3049C96.8665 14.6111 97.7131 14.2645 98.7641 14.2651C99.8136 14.2651 100.663 14.6157 101.313 15.3169C101.963 16.018 102.289 16.9358 102.29 18.0702C102.289 19.1899 101.963 20.108 101.312 20.8245H101.311Z" fill="#3A485A"/>
<path d="M115.391 12.8752C114.505 12.4273 113.483 12.2034 112.324 12.2034C111.18 12.2034 110.165 12.446 109.28 12.9312C108.397 13.414 107.679 14.129 107.211 14.9907C106.718 15.8798 106.471 16.9128 106.471 18.0899C106.471 19.2536 106.726 20.276 107.235 21.1571C107.732 22.0252 108.483 22.7366 109.398 23.2046C110.33 23.6905 111.422 23.9331 112.676 23.9324C114.118 23.9324 115.32 23.5595 116.284 22.8137C117.227 22.1002 117.859 21.079 118.059 19.9474H115.52C115.374 20.552 114.997 21.0829 114.462 21.436C113.929 21.7866 113.271 21.9622 112.488 21.9629C111.5 21.9629 110.709 21.6716 110.114 21.0891C109.52 20.5066 109.19 19.7158 109.127 18.7167V18.5818H118.199C118.246 18.2778 118.269 17.9711 118.269 17.664C118.254 16.5603 117.992 15.5978 117.482 14.7767C116.986 13.9688 116.261 13.31 115.391 12.8752ZM109.221 16.8172C109.314 16.0114 109.664 15.3659 110.271 14.8807C110.871 14.3971 111.635 14.1386 112.421 14.1539C113.314 14.1539 114.054 14.3872 114.642 14.8537C115.23 15.3202 115.58 15.9731 115.692 16.8122L109.221 16.8172Z" fill="#3A485A"/>
<path d="M124.191 12.7973C123.641 13.1055 123.18 13.5403 122.852 14.0619L122.57 12.3384H120.314V23.8005H122.852V18.0469C122.852 17.0472 123.087 16.2227 123.557 15.5736C124.028 14.9244 124.787 14.5998 125.837 14.5998H126.965V12.3384H126.401C125.477 12.3384 124.741 12.4913 124.191 12.7973Z" fill="#3A485A"/>
<path d="M131.406 21.3943C131.219 21.207 131.125 20.8898 131.125 20.4426V14.4651H134.039V12.3386H131.125V9.1394H128.586V20.6885C128.586 21.7482 128.845 22.532 129.362 23.0399C129.879 23.5478 130.709 23.8014 131.853 23.8007H134.298V21.6742H132.37C131.915 21.6742 131.595 21.5803 131.406 21.3943Z" fill="#3A485A"/>
<path d="M144.285 12.3384L141.018 21.1811L137.659 12.3384H134.956L139.657 23.8905L139.163 24.9902C138.959 25.4821 138.764 25.8 138.575 25.9409C138.386 26.0819 138.05 26.1539 137.566 26.1539H135.781V28.2804H138.51C139.091 28.2804 139.553 28.1874 139.898 28.0014C140.257 27.8005 140.556 27.5151 140.767 27.1726C141.071 26.6679 141.33 26.1399 141.542 25.594L147 12.3414L144.285 12.3384Z" fill="#3A485A"/>
<path d="M20.0131 16.5481C20.012 18.1039 19.3628 19.5957 18.2081 20.6959C17.0534 21.7962 15.4876 22.4151 13.8543 22.4167H12.8278V25.3459H10.7769V21.192C10.7769 21.142 10.7769 21.092 10.7769 21.041C10.7769 20.8491 10.7633 20.6551 10.7455 20.4612H13.8543C14.9317 20.4447 15.9592 20.0255 16.7151 19.2939C17.4709 18.5624 17.8945 17.5771 17.8945 16.5506C17.8945 15.5242 17.4709 14.5389 16.7151 13.8073C15.9592 13.0758 14.9317 12.6565 13.8543 12.6401H2.0519V28.2782H0V10.6826H13.8543C15.487 10.6842 17.0524 11.3027 18.207 12.4023C19.3616 13.5019 20.0112 14.9929 20.0131 16.5481Z" fill="#3062FF"/>
<path d="M23.6048 0.421387V28.2774H9.75058C8.11858 28.276 6.55376 27.6582 5.39937 26.5593C4.24498 25.4605 3.59527 23.9704 3.59277 22.4158C3.59277 22.4158 3.59277 18.9037 4.24875 17.5001V17.4921C4.29178 17.4021 4.33901 17.3131 4.38834 17.2262C4.76786 16.5466 5.34752 15.9875 6.0561 15.6176C6.77401 15.2377 7.60491 15.0477 8.54882 15.0477C9.61728 15.0477 10.5087 15.291 11.2231 15.7775C11.2966 15.8255 11.368 15.8775 11.433 15.9325C12.181 16.5223 12.647 17.3255 12.8311 18.3419H10.7928C10.6773 17.8578 10.3918 17.4258 9.98358 17.1172C9.84557 17.0139 9.69468 16.9273 9.53437 16.8592C9.2061 16.7231 8.85121 16.6549 8.4932 16.6593C7.69623 16.6593 7.05564 16.9336 6.57144 17.4821C6.48853 17.5761 6.4203 17.682 6.34474 17.782C5.6961 18.6308 5.64572 20.5323 5.64572 21.1922V22.4158C5.64518 22.7989 5.70425 23.18 5.821 23.5466C6.07694 24.3497 6.59696 25.0533 7.30443 25.5537C8.0119 26.0541 8.8694 26.3248 9.75058 26.3259H21.5519V3.34765L12.829 6.78878V9.70405H10.7771V5.48211L23.6048 0.421387Z" fill="#3062FF"/>
</svg>
