<svg width="147" height="32" viewBox="0 0 147 32" fill="none" xmlns="http://www.w3.org/2000/svg">
<path d="M35.7556 15.855C36.5071 15.855 37.1414 16.0771 37.6584 16.5214C38.1814 16.9751 38.5465 17.6102 38.6933 18.3213H41.3015C41.0664 16.8351 40.4716 15.66 39.5172 14.7959C38.5628 13.9318 37.3331 13.5001 35.828 13.5009C34.621 13.5009 33.5595 13.7787 32.6436 14.3344C31.7406 14.8744 31.0013 15.6896 30.5161 16.6805C30.0144 17.6897 29.764 18.8606 29.7646 20.1934C29.7653 21.5262 30.012 22.7056 30.5046 23.7315C30.974 24.731 31.7045 25.5562 32.6037 26.1028C33.5134 26.6593 34.5629 26.9371 35.7524 26.9364C37.2722 26.9364 38.5177 26.5047 39.4889 25.6414C40.4601 24.778 41.0632 23.5861 41.2983 22.0655H38.7164C38.586 22.7862 38.2284 23.4344 37.7057 23.8975C37.1893 24.3502 36.5393 24.5765 35.7556 24.5765C34.7361 24.5765 33.9174 24.1708 33.2996 23.3594C32.6817 22.5479 32.3721 21.4922 32.3707 20.1923C32.3707 18.9099 32.6803 17.8672 33.2996 17.0641C33.9188 16.2611 34.7375 15.858 35.7556 15.855Z" fill="white"/>
<path d="M52.0302 14.3401C51.0981 13.7767 50.029 13.4947 48.8227 13.4939C47.6164 13.4931 46.5469 13.7752 45.6142 14.3401C44.6978 14.8874 43.9467 15.7131 43.4521 16.7171C42.9427 17.7339 42.688 18.9002 42.688 20.2162C42.688 21.5498 42.9427 22.7249 43.4521 23.7417C43.9455 24.742 44.6973 25.5621 45.6142 26.1004C46.5462 26.6569 47.6157 26.9348 48.8227 26.934C50.0297 26.9332 51.0988 26.6554 52.0302 26.1004C52.947 25.5621 53.6989 24.742 54.1923 23.7417C54.7009 22.7249 54.9556 21.5498 54.9563 20.2162C54.9563 18.9002 54.7016 17.7339 54.1923 16.7171C53.6977 15.7131 52.9466 14.8874 52.0302 14.3401ZM51.3952 23.3581C50.7451 24.1703 49.8876 24.576 48.8227 24.5753C47.7577 24.5745 46.9037 24.1688 46.2607 23.3581C45.6184 22.5452 45.2972 21.4979 45.2972 20.2162C45.2972 18.9346 45.6184 17.8877 46.2607 17.0755C46.903 16.2633 47.757 15.8576 48.8227 15.8583C49.8883 15.8591 50.7458 16.2648 51.3952 17.0755C52.0459 17.8877 52.3713 18.9346 52.3713 20.2162C52.3713 21.4979 52.0459 22.5452 51.3952 23.3581Z" fill="white"/>
<path d="M66.3776 14.3037C65.4808 13.7552 64.4667 13.4762 63.4388 13.4953C61.7938 13.4953 60.4853 14.1964 59.5134 15.5987L59.208 13.6522H57.0039V31.9047H59.5418V24.9316C59.9443 25.5566 60.4861 26.0594 61.1161 26.3927C61.7738 26.7522 62.5495 26.9316 63.443 26.9308C64.4739 26.9504 65.4901 26.6621 66.3818 26.0972C67.2479 25.5372 67.9492 24.7189 68.4032 23.7385C68.8888 22.7218 69.1316 21.5466 69.1316 20.2131C69.1316 18.8459 68.8888 17.654 68.4032 16.6372C67.9518 15.6599 67.2475 14.8486 66.3776 14.3037ZM65.5673 23.3675C64.9166 24.1874 64.0664 24.5973 63.0169 24.5973C61.9673 24.5973 61.1214 24.1874 60.479 23.3675C59.8367 22.547 59.5152 21.4783 59.5145 20.1615C59.5145 18.8791 59.836 17.8406 60.479 17.046C61.1221 16.2513 61.968 15.854 63.0169 15.854C64.0664 15.854 64.9166 16.2555 65.5673 17.0586C66.218 17.8616 66.5431 18.9131 66.5424 20.2131C66.5424 21.4955 66.2173 22.547 65.5673 23.3675Z" fill="white"/>
<path d="M75.051 14.1741C74.5 14.5267 74.0391 15.0248 73.7107 15.6226L73.4284 13.6486H71.1729V26.7761H73.7107V20.1865C73.7107 19.0415 73.9458 18.0973 74.416 17.3538C74.8862 16.6103 75.6461 16.2386 76.6957 16.2386H77.824V13.6486H77.2593C76.3357 13.6486 75.5996 13.8237 75.051 14.1741Z" fill="white"/>
<path d="M87.7758 14.3401C86.8438 13.7767 85.7743 13.4947 84.5673 13.4939C83.3603 13.4931 82.2911 13.7752 81.3598 14.3401C80.4432 14.8871 79.692 15.7129 79.1977 16.7171C78.6876 17.7339 78.4329 18.9002 78.4336 20.2162C78.4336 21.5498 78.6883 22.7249 79.1977 23.7417C79.6908 24.7422 80.4427 25.5625 81.3598 26.1004C82.2918 26.6569 83.361 26.9348 84.5673 26.934C85.7736 26.9332 86.8431 26.6554 87.7758 26.1004C88.6927 25.5621 89.4445 24.742 89.9379 23.7417C90.4466 22.7249 90.7013 21.5498 90.702 20.2162C90.702 18.9002 90.4473 17.7339 89.9379 16.7171C89.4433 15.7131 88.6922 14.8874 87.7758 14.3401ZM87.146 23.3536C86.4946 24.1657 85.635 24.5715 84.5673 24.5707C83.4995 24.5699 82.6459 24.1657 82.0063 23.3581C81.3626 22.5452 81.0411 21.4979 81.0418 20.2162C81.0425 18.9346 81.364 17.8877 82.0063 17.0755C82.6487 16.2633 83.5023 15.8576 84.5673 15.8583C85.6322 15.8591 86.4901 16.2648 87.1408 17.0755C87.7915 17.8877 88.1169 18.9346 88.1169 20.2162C88.1169 21.4979 87.7915 22.5452 87.1408 23.3581L87.146 23.3536Z" fill="white"/>
<path d="M102.122 14.3037C101.226 13.7552 100.212 13.4762 99.1837 13.4953C97.5379 13.4953 96.2295 14.1964 95.2583 15.5987L94.9528 13.6522H92.7456V31.9047H95.2845V24.9316C95.687 25.5566 96.2288 26.0594 96.8589 26.3927C97.5166 26.7522 98.2922 26.9316 99.1858 26.9308C100.217 26.9504 101.233 26.6621 102.125 26.0972C102.991 25.5372 103.692 24.7189 104.146 23.7385C104.631 22.7218 104.874 21.5466 104.874 20.2131C104.874 18.8459 104.632 17.654 104.146 16.6372C103.695 15.6602 102.992 14.8489 102.122 14.3037ZM101.311 23.3675C100.662 24.1874 99.8134 24.5973 98.7638 24.5973C97.7143 24.5973 96.8676 24.1874 96.2239 23.3675C95.5815 22.547 95.2604 21.4783 95.2604 20.1615C95.2604 18.8791 95.5815 17.8406 96.2239 17.046C96.8662 16.2513 97.7129 15.8544 98.7638 15.8552C99.8134 15.8552 100.663 16.2567 101.313 17.0597C101.963 17.8627 102.289 18.9139 102.289 20.2131C102.289 21.4955 101.963 22.547 101.312 23.3675H101.311Z" fill="white"/>
<path d="M115.39 14.2633C114.505 13.7504 113.483 13.4939 112.324 13.4939C111.18 13.4939 110.165 13.7718 109.28 14.3275C108.397 14.8804 107.679 15.6993 107.211 16.6862C106.718 17.7045 106.471 18.8876 106.471 20.2357C106.471 21.5685 106.726 22.7394 107.235 23.7486C107.732 24.7427 108.483 25.5576 109.397 26.0935C110.329 26.65 111.422 26.9279 112.676 26.9271C114.118 26.9271 115.32 26.5 116.284 25.6458C117.227 24.8286 117.859 23.6591 118.058 22.3631H115.519C115.374 23.0555 114.997 23.6636 114.462 24.068C113.929 24.4695 113.271 24.6707 112.488 24.6714C111.5 24.6714 110.709 24.3379 110.114 23.6707C109.519 23.0036 109.19 22.0979 109.127 20.9536V20.799H118.199C118.245 20.4509 118.269 20.0997 118.269 19.7479C118.254 18.4838 117.992 17.3816 117.482 16.4411C116.986 15.5158 116.261 14.7613 115.39 14.2633ZM109.221 18.7781C109.314 17.8552 109.664 17.1159 110.271 16.5602C110.871 16.0063 111.635 15.7103 112.421 15.7278C113.314 15.7278 114.054 15.995 114.642 16.5293C115.23 17.0636 115.58 17.8113 115.692 18.7724L109.221 18.7781Z" fill="white"/>
<path d="M124.191 14.1741C123.641 14.5271 123.18 15.0251 122.852 15.6226L122.569 13.6486H120.314V26.7761H122.852V20.1865C122.852 19.0415 123.087 18.0973 123.557 17.3538C124.027 16.6103 124.787 16.2386 125.837 16.2386H126.965V13.6486H126.4C125.477 13.6486 124.74 13.8237 124.191 14.1741Z" fill="white"/>
<path d="M131.406 24.0202C131.219 23.8057 131.125 23.4424 131.125 22.9302V16.0842H134.038V13.6488H131.125V9.98474H128.586V23.2119C128.586 24.4256 128.844 25.3233 129.362 25.9049C129.879 26.4866 130.709 26.777 131.853 26.7763H134.298V24.3408H132.37C131.915 24.3408 131.595 24.2332 131.406 24.0202Z" fill="white"/>
<path d="M144.285 13.6486L141.017 23.7761L137.659 13.6486H134.956L139.657 26.8791L139.163 28.1386C138.959 28.702 138.764 29.0661 138.575 29.2275C138.386 29.389 138.05 29.4714 137.565 29.4714H135.781V31.9068H138.51C139.091 31.9068 139.553 31.8003 139.897 31.5874C140.257 31.3572 140.556 31.0304 140.766 30.6382C141.071 30.0601 141.33 29.4553 141.542 28.8302L147 13.652L144.285 13.6486Z" fill="white"/>
<path d="M20.0131 18.47C20.012 20.2518 19.3628 21.9603 18.2081 23.2204C17.0534 24.4805 15.4876 25.1893 13.8543 25.1911H12.8278V28.546H10.7769V23.7885C10.7769 23.7313 10.7769 23.674 10.7769 23.6156C10.7769 23.3958 10.7633 23.1736 10.7455 22.9515H13.8543C14.9317 22.9327 15.9592 22.4526 16.7151 21.6147C17.4709 20.7768 17.8945 19.6484 17.8945 18.4728C17.8945 17.2972 17.4709 16.1688 16.7151 15.3309C15.9592 14.493 14.9317 14.0129 13.8543 13.9941H2.0519V31.9043H0V11.7522H13.8543C15.487 11.754 17.0524 12.4623 18.207 13.7217C19.3616 14.9811 20.0112 16.6887 20.0131 18.47Z" fill="white"/>
<path d="M23.6048 0V31.9033H9.75058C8.11858 31.9018 6.55376 31.1942 5.39937 29.9357C4.24498 28.6772 3.59527 26.9705 3.59277 25.1901C3.59277 25.1901 3.59277 21.1677 4.24875 19.5602V19.551C4.29178 19.4479 4.33901 19.346 4.38834 19.2464C4.76786 18.4682 5.34752 17.8278 6.0561 17.4041C6.77401 16.969 7.60491 16.7514 8.54882 16.7514C9.61728 16.7514 10.5087 17.0301 11.2231 17.5873C11.2966 17.6423 11.368 17.7018 11.433 17.7648C12.181 18.4403 12.647 19.3602 12.8311 20.5242H10.7928C10.6773 19.9698 10.3918 19.475 9.98358 19.1216C9.84557 19.0033 9.69468 18.9041 9.53437 18.8262C9.2061 18.6702 8.85121 18.5922 8.4932 18.5972C7.69623 18.5972 7.05564 18.9113 6.57144 19.5395C6.48853 19.6472 6.4203 19.7685 6.34474 19.883C5.6961 20.8552 5.64572 23.033 5.64572 23.7887V25.1901C5.64518 25.6289 5.70425 26.0653 5.821 26.4851C6.07694 27.405 6.59696 28.2109 7.30443 28.7839C8.0119 29.357 8.8694 29.667 9.75058 29.6683H21.5519V3.35143L12.829 7.29255V10.6314H10.7771V5.79602L23.6048 0Z" fill="white"/>
</svg>
