<svg width="146" height="38" viewBox="0 0 146 38" fill="none" xmlns="http://www.w3.org/2000/svg">
<path d="M0 6C0 2.68629 2.68629 0 6 0H140C143.314 0 146 2.68629 146 6V32C146 35.3137 143.314 38 140 38H6C2.68629 38 0 35.3137 0 32V6Z" fill="white"/>
<rect x="12" y="8" width="22" height="22" rx="11" fill="#0046FE"/>
<path d="M26.8513 19.4338H23.7717V22.3023C23.7717 22.4544 23.7068 22.6004 23.5913 22.708C23.4758 22.8155 23.3191 22.876 23.1558 22.876C22.9924 22.876 22.8357 22.8155 22.7202 22.708C22.6047 22.6004 22.5398 22.4544 22.5398 22.3023V19.4338H19.4602C19.2968 19.4338 19.1402 19.3734 19.0246 19.2658C18.9091 19.1582 18.8442 19.0123 18.8442 18.8601C18.8442 18.708 18.9091 18.562 19.0246 18.4544C19.1402 18.3469 19.2968 18.2864 19.4602 18.2864H22.5398V15.4179C22.5398 15.2658 22.6047 15.1199 22.7202 15.0123C22.8357 14.9047 22.9924 14.8442 23.1558 14.8442C23.3191 14.8442 23.4758 14.9047 23.5913 15.0123C23.7068 15.1199 23.7717 15.2658 23.7717 15.4179V18.2864H26.8513C27.0147 18.2864 27.1714 18.3469 27.2869 18.4544C27.4024 18.562 27.4673 18.708 27.4673 18.8601C27.4673 19.0123 27.4024 19.1582 27.2869 19.2658C27.1714 19.3734 27.0147 19.4338 26.8513 19.4338Z" fill="white"/>
<path d="M50.6514 21.4023H46.4814L45.5449 24H44.1914L47.9922 14.0469H49.1406L52.9482 24H51.6016L50.6514 21.4023ZM46.8779 20.3223H50.2617L48.5664 15.667L46.8779 20.3223ZM53.7822 20.2402C53.7822 19.1055 54.0511 18.194 54.5889 17.5059C55.1266 16.8132 55.8307 16.4668 56.7012 16.4668C57.5671 16.4668 58.2529 16.763 58.7588 17.3555V13.5H60.0234V24H58.8613L58.7998 23.207C58.2939 23.8268 57.5898 24.1367 56.6875 24.1367C55.8307 24.1367 55.1312 23.7858 54.5889 23.084C54.0511 22.3822 53.7822 21.4661 53.7822 20.3359V20.2402ZM55.0469 20.3838C55.0469 21.2223 55.2201 21.8786 55.5664 22.3525C55.9128 22.8265 56.3913 23.0635 57.002 23.0635C57.804 23.0635 58.3896 22.7035 58.7588 21.9834V18.5859C58.3805 17.8887 57.7995 17.54 57.0156 17.54C56.3958 17.54 55.9128 17.7793 55.5664 18.2578C55.2201 18.7363 55.0469 19.445 55.0469 20.3838ZM61.6846 20.2402C61.6846 19.1055 61.9535 18.194 62.4912 17.5059C63.029 16.8132 63.7331 16.4668 64.6035 16.4668C65.4694 16.4668 66.1553 16.763 66.6611 17.3555V13.5H67.9258V24H66.7637L66.7021 23.207C66.1963 23.8268 65.4922 24.1367 64.5898 24.1367C63.7331 24.1367 63.0335 23.7858 62.4912 23.084C61.9535 22.3822 61.6846 21.4661 61.6846 20.3359V20.2402ZM62.9492 20.3838C62.9492 21.2223 63.1224 21.8786 63.4688 22.3525C63.8151 22.8265 64.2936 23.0635 64.9043 23.0635C65.7064 23.0635 66.292 22.7035 66.6611 21.9834V18.5859C66.2829 17.8887 65.7018 17.54 64.918 17.54C64.2982 17.54 63.8151 17.7793 63.4688 18.2578C63.1224 18.7363 62.9492 19.445 62.9492 20.3838ZM79.0547 19.6045H74.8779V24H73.5654V14.0469H79.7314V15.127H74.8779V18.5312H79.0547V19.6045ZM80.6201 20.2334C80.6201 19.5088 80.7614 18.8571 81.0439 18.2783C81.3311 17.6995 81.7275 17.2529 82.2334 16.9385C82.7438 16.624 83.3249 16.4668 83.9766 16.4668C84.9837 16.4668 85.7972 16.8154 86.417 17.5127C87.0413 18.21 87.3535 19.1374 87.3535 20.2949V20.3838C87.3535 21.1038 87.2145 21.751 86.9365 22.3252C86.6631 22.8949 86.2689 23.3392 85.7539 23.6582C85.2435 23.9772 84.6556 24.1367 83.9902 24.1367C82.9876 24.1367 82.1742 23.7881 81.5498 23.0908C80.93 22.3936 80.6201 21.4707 80.6201 20.3223V20.2334ZM81.8916 20.3838C81.8916 21.2041 82.0807 21.8626 82.459 22.3594C82.8418 22.8561 83.3522 23.1045 83.9902 23.1045C84.6328 23.1045 85.1432 22.8538 85.5215 22.3525C85.8997 21.8467 86.0889 21.1403 86.0889 20.2334C86.0889 19.4222 85.8952 18.766 85.5078 18.2646C85.125 17.7588 84.6146 17.5059 83.9766 17.5059C83.3522 17.5059 82.8486 17.7542 82.4658 18.251C82.083 18.7477 81.8916 19.4587 81.8916 20.3838ZM90.3135 24H89.0488V13.5H90.3135V24ZM93.7178 24H92.4531V13.5H93.7178V24ZM95.4131 20.2334C95.4131 19.5088 95.5544 18.8571 95.8369 18.2783C96.124 17.6995 96.5205 17.2529 97.0264 16.9385C97.5368 16.624 98.1178 16.4668 98.7695 16.4668C99.7767 16.4668 100.59 16.8154 101.21 17.5127C101.834 18.21 102.146 19.1374 102.146 20.2949V20.3838C102.146 21.1038 102.007 21.751 101.729 22.3252C101.456 22.8949 101.062 23.3392 100.547 23.6582C100.036 23.9772 99.4486 24.1367 98.7832 24.1367C97.7806 24.1367 96.9671 23.7881 96.3428 23.0908C95.723 22.3936 95.4131 21.4707 95.4131 20.3223V20.2334ZM96.6846 20.3838C96.6846 21.2041 96.8737 21.8626 97.252 22.3594C97.6348 22.8561 98.1452 23.1045 98.7832 23.1045C99.4258 23.1045 99.9362 22.8538 100.314 22.3525C100.693 21.8467 100.882 21.1403 100.882 20.2334C100.882 19.4222 100.688 18.766 100.301 18.2646C99.918 17.7588 99.4076 17.5059 98.7695 17.5059C98.1452 17.5059 97.6416 17.7542 97.2588 18.251C96.876 18.7477 96.6846 19.4587 96.6846 20.3838ZM110.281 22.2568L111.703 16.6035H112.968L110.814 24H109.789L107.991 18.3945L106.241 24H105.216L103.069 16.6035H104.327L105.783 22.1406L107.506 16.6035H108.524L110.281 22.2568ZM124.938 14.0469V20.8145C124.933 21.7533 124.637 22.5212 124.049 23.1182C123.465 23.7152 122.673 24.0501 121.67 24.123L121.321 24.1367C120.232 24.1367 119.364 23.8428 118.717 23.2549C118.07 22.667 117.742 21.8581 117.732 20.8281V14.0469H119.031V20.7871C119.031 21.5072 119.229 22.0677 119.626 22.4688C120.022 22.8652 120.588 23.0635 121.321 23.0635C122.064 23.0635 122.632 22.8652 123.023 22.4688C123.42 22.0723 123.618 21.514 123.618 20.7939V14.0469H124.938ZM133.059 20.3838C133.059 21.5094 132.801 22.4163 132.286 23.1045C131.771 23.7926 131.074 24.1367 130.194 24.1367C129.297 24.1367 128.59 23.8519 128.075 23.2822V26.8438H126.811V16.6035H127.966L128.027 17.4238C128.542 16.7858 129.258 16.4668 130.174 16.4668C131.062 16.4668 131.764 16.8018 132.279 17.4717C132.799 18.1416 133.059 19.0736 133.059 20.2676V20.3838ZM131.794 20.2402C131.794 19.4062 131.616 18.7477 131.261 18.2646C130.905 17.7816 130.418 17.54 129.798 17.54C129.032 17.54 128.458 17.8796 128.075 18.5586V22.0928C128.453 22.7673 129.032 23.1045 129.812 23.1045C130.418 23.1045 130.898 22.8652 131.254 22.3867C131.614 21.9036 131.794 21.1882 131.794 20.2402Z" fill="#3A485A"/>
<path d="M6 1H140V-1H6V1ZM145 6V32H147V6H145ZM140 37H6V39H140V37ZM1 32V6H-1V32H1ZM6 37C3.23858 37 1 34.7614 1 32H-1C-1 35.866 2.13401 39 6 39V37ZM145 32C145 34.7614 142.761 37 140 37V39C143.866 39 147 35.866 147 32H145ZM140 1C142.761 1 145 3.23858 145 6H147C147 2.13401 143.866 -1 140 -1V1ZM6 -1C2.13401 -1 -1 2.13401 -1 6H1C1 3.23858 3.23858 1 6 1V-1Z" fill="#ECEEF3"/>
</svg>
