<svg width="22" height="22" viewBox="0 0 22 22" fill="none" xmlns="http://www.w3.org/2000/svg">
<rect width="22" height="22" rx="11" fill="#0046FE"/>
<path d="M14.8516 11.4341H11.7719V14.3025C11.7719 14.4547 11.707 14.6006 11.5915 14.7082C11.476 14.8158 11.3194 14.8762 11.156 14.8762C10.9926 14.8762 10.836 14.8158 10.7205 14.7082C10.605 14.6006 10.5401 14.4547 10.5401 14.3025V11.4341H7.46041C7.29706 11.4341 7.14039 11.3736 7.02488 11.266C6.90938 11.1584 6.84448 11.0125 6.84448 10.8604C6.84448 10.7082 6.90938 10.5623 7.02488 10.4547C7.14039 10.3471 7.29706 10.2867 7.46041 10.2867H10.5401V7.41818C10.5401 7.26602 10.605 7.1201 10.7205 7.01251C10.836 6.90493 10.9926 6.84448 11.156 6.84448C11.3194 6.84448 11.476 6.90493 11.5915 7.01251C11.707 7.1201 11.7719 7.26602 11.7719 7.41818V10.2867H14.8516C15.0149 10.2867 15.1716 10.3471 15.2871 10.4547C15.4026 10.5623 15.4675 10.7082 15.4675 10.8604C15.4675 11.0125 15.4026 11.1584 15.2871 11.266C15.1716 11.3736 15.0149 11.4341 14.8516 11.4341Z" fill="white"/>
</svg>
