<svg width="24" height="24" viewBox="0 0 24 24" fill="none" xmlns="http://www.w3.org/2000/svg">
<path d="M14.811 12.1875C14.5523 12.1875 14.3423 12.3976 14.3423 12.6563C14.3423 12.915 14.5523 13.125 14.811 13.125C15.0698 13.125 15.2798 12.915 15.2798 12.6563C15.2798 12.3976 15.0698 12.1875 14.811 12.1875Z" fill="#3A485A"/>
<path d="M4.78909 17.3337L0.101593 23.2399C-0.0102846 23.3807 -0.0315249 23.5732 0.0466611 23.735C0.124847 23.8971 0.288909 24 0.468719 24H23.5312C23.711 24 23.8751 23.8971 23.9533 23.735C24.0316 23.5732 24.0102 23.3807 23.8983 23.2399L19.2108 17.3337C19.122 17.2216 18.9867 17.1562 18.8437 17.1562H14.7376L18.2431 11.658C19.0654 10.4251 19.5 8.98737 19.5 7.5C19.5 3.36456 16.1356 0 12 0C7.86434 0 4.49997 3.36456 4.49997 7.5C4.49997 8.98737 4.93447 10.4249 5.7568 11.658L9.26235 17.1562H5.15622C5.01321 17.1562 4.87808 17.2216 4.78909 17.3337ZM3.03897 21.0469H5.87326L4.27365 23.0625H1.43918L3.03897 21.0469ZM9.86019 18.0938L11.1452 20.1094H7.81417L9.41396 18.0938H9.86019ZM14.1399 18.0938H14.5861L16.1857 20.1094H12.8549L14.1399 18.0938ZM16.9299 21.0469L18.5295 23.0625H5.47042L7.07022 21.0469H16.9299ZM19.7265 23.0625L18.1267 21.0469H20.9611L22.5607 23.0625H19.7265ZM20.217 20.1094H17.3827L15.7829 18.0938H18.6174L20.217 20.1094ZM6.53939 11.1416C5.81851 10.0624 5.43747 8.80316 5.43747 7.5C5.43747 3.88147 8.38143 0.9375 12 0.9375C15.6185 0.9375 18.5625 3.88147 18.5625 7.5C18.5625 8.80316 18.1814 10.0624 17.4607 11.1416C17.4587 11.1443 17.4571 11.1471 17.4552 11.1498C17.1474 11.6327 12.2371 19.3345 12 19.7062C11.4036 18.7707 7.15206 12.1024 6.5447 11.1498C6.54306 11.1471 6.54122 11.1443 6.53939 11.1416ZM8.217 18.0938L6.6174 20.1094H3.78293L5.38272 18.0938H8.217Z" fill="#3A485A"/>
<path d="M11.9985 12.1875C14.5719 12.1875 16.686 10.1036 16.686 7.50003C16.686 4.91531 14.5832 2.81253 11.9985 2.81253C9.41382 2.81253 7.31104 4.91531 7.31104 7.50003C7.31104 10.1043 9.4259 12.1875 11.9985 12.1875ZM11.9985 3.75003C14.0663 3.75003 15.7485 5.43222 15.7485 7.50003C15.7485 9.58707 14.0528 11.25 11.9985 11.25C9.94372 11.25 8.24853 9.58707 8.24853 7.50003C8.24853 5.43222 9.93072 3.75003 11.9985 3.75003Z" fill="#3A485A"/>
<path d="M13.9731 13.7871C13.7516 13.6535 13.4634 13.7249 13.3297 13.9466L11.5972 16.821C11.4635 17.0427 11.5349 17.3308 11.7566 17.4644C11.9793 17.5987 12.267 17.5258 12.4001 17.3049L14.1326 14.4306C14.2663 14.2088 14.1949 13.9208 13.9731 13.7871Z" fill="#3A485A"/>
</svg>
