<svg width="114" height="38" viewBox="0 0 114 38" fill="none" xmlns="http://www.w3.org/2000/svg">
<path d="M0 6C0 2.68629 2.68629 0 6 0H108C111.314 0 114 2.68629 114 6V32C114 35.3137 111.314 38 108 38H6C2.68629 38 0 35.3137 0 32V6Z" fill="white"/>
<rect x="12" y="8" width="22" height="22" rx="11" fill="#0046FE"/>
<path d="M26.8515 19.434H23.7719V22.3025C23.7719 22.4546 23.707 22.6005 23.5915 22.7081C23.476 22.8157 23.3193 22.8762 23.1559 22.8762C22.9926 22.8762 22.8359 22.8157 22.7204 22.7081C22.6049 22.6005 22.54 22.4546 22.54 22.3025V19.434H19.4604C19.297 19.434 19.1403 19.3735 19.0248 19.266C18.9093 19.1584 18.8444 19.0124 18.8444 18.8603C18.8444 18.7081 18.9093 18.5622 19.0248 18.4546C19.1403 18.347 19.297 18.2866 19.4604 18.2866H22.54V15.4181C22.54 15.266 22.6049 15.12 22.7204 15.0125C22.8359 14.9049 22.9926 14.8444 23.1559 14.8444C23.3193 14.8444 23.476 14.9049 23.5915 15.0125C23.707 15.12 23.7719 15.266 23.7719 15.4181V18.2866H26.8515C27.0149 18.2866 27.1715 18.347 27.2871 18.4546C27.4026 18.5622 27.4675 18.7081 27.4675 18.8603C27.4675 19.0124 27.4026 19.1584 27.2871 19.266C27.1715 19.3735 27.0149 19.434 26.8515 19.434Z" fill="white"/>
<path d="M50.6514 21.4023H46.4814L45.5449 24H44.1914L47.9922 14.0469H49.1406L52.9482 24H51.6016L50.6514 21.4023ZM46.8779 20.3223H50.2617L48.5664 15.667L46.8779 20.3223ZM53.7822 20.2402C53.7822 19.1055 54.0511 18.194 54.5889 17.5059C55.1266 16.8132 55.8307 16.4668 56.7012 16.4668C57.5671 16.4668 58.2529 16.763 58.7588 17.3555V13.5H60.0234V24H58.8613L58.7998 23.207C58.2939 23.8268 57.5898 24.1367 56.6875 24.1367C55.8307 24.1367 55.1312 23.7858 54.5889 23.084C54.0511 22.3822 53.7822 21.4661 53.7822 20.3359V20.2402ZM55.0469 20.3838C55.0469 21.2223 55.2201 21.8786 55.5664 22.3525C55.9128 22.8265 56.3913 23.0635 57.002 23.0635C57.804 23.0635 58.3896 22.7035 58.7588 21.9834V18.5859C58.3805 17.8887 57.7995 17.54 57.0156 17.54C56.3958 17.54 55.9128 17.7793 55.5664 18.2578C55.2201 18.7363 55.0469 19.445 55.0469 20.3838ZM61.6846 20.2402C61.6846 19.1055 61.9535 18.194 62.4912 17.5059C63.029 16.8132 63.7331 16.4668 64.6035 16.4668C65.4694 16.4668 66.1553 16.763 66.6611 17.3555V13.5H67.9258V24H66.7637L66.7021 23.207C66.1963 23.8268 65.4922 24.1367 64.5898 24.1367C63.7331 24.1367 63.0335 23.7858 62.4912 23.084C61.9535 22.3822 61.6846 21.4661 61.6846 20.3359V20.2402ZM62.9492 20.3838C62.9492 21.2223 63.1224 21.8786 63.4688 22.3525C63.8151 22.8265 64.2936 23.0635 64.9043 23.0635C65.7064 23.0635 66.292 22.7035 66.6611 21.9834V18.5859C66.2829 17.8887 65.7018 17.54 64.918 17.54C64.2982 17.54 63.8151 17.7793 63.4688 18.2578C63.1224 18.7363 62.9492 19.445 62.9492 20.3838ZM80.1689 15.127H76.9697V24H75.6641V15.127H72.4717V14.0469H80.1689V15.127ZM85.2344 24C85.1615 23.8542 85.1022 23.5944 85.0566 23.2207C84.4688 23.8314 83.7669 24.1367 82.9512 24.1367C82.222 24.1367 81.6227 23.9316 81.1533 23.5215C80.6885 23.1068 80.4561 22.5827 80.4561 21.9492C80.4561 21.179 80.7477 20.582 81.3311 20.1582C81.9189 19.7298 82.7438 19.5156 83.8057 19.5156H85.0361V18.9346C85.0361 18.4925 84.904 18.1416 84.6396 17.8818C84.3753 17.6175 83.9857 17.4854 83.4707 17.4854C83.0195 17.4854 82.6413 17.5993 82.3359 17.8271C82.0306 18.055 81.8779 18.3307 81.8779 18.6543H80.6064C80.6064 18.2852 80.7363 17.9297 80.9961 17.5879C81.2604 17.2415 81.6159 16.9681 82.0625 16.7676C82.5137 16.5671 83.0081 16.4668 83.5459 16.4668C84.3981 16.4668 85.0658 16.681 85.5488 17.1094C86.0319 17.5332 86.2826 18.1188 86.3008 18.8662V22.2705C86.3008 22.9495 86.3874 23.4896 86.5605 23.8906V24H85.2344ZM83.1357 23.0361C83.5322 23.0361 83.9082 22.9336 84.2637 22.7285C84.6191 22.5234 84.8766 22.2568 85.0361 21.9287V20.4111H84.0449C82.4954 20.4111 81.7207 20.8646 81.7207 21.7715C81.7207 22.168 81.8529 22.4779 82.1172 22.7012C82.3815 22.9245 82.721 23.0361 83.1357 23.0361ZM92.5898 22.0381C92.5898 21.6963 92.46 21.432 92.2002 21.2451C91.945 21.0537 91.4961 20.8896 90.8535 20.7529C90.2155 20.6162 89.7074 20.4521 89.3291 20.2607C88.9554 20.0693 88.6774 19.8415 88.4951 19.5771C88.3174 19.3128 88.2285 18.9984 88.2285 18.6338C88.2285 18.0277 88.4837 17.515 88.9941 17.0957C89.5091 16.6764 90.1654 16.4668 90.9629 16.4668C91.8014 16.4668 92.4805 16.6833 93 17.1162C93.5241 17.5492 93.7861 18.1029 93.7861 18.7773H92.5146C92.5146 18.431 92.3665 18.1325 92.0703 17.8818C91.7786 17.6312 91.4095 17.5059 90.9629 17.5059C90.5026 17.5059 90.1426 17.6061 89.8828 17.8066C89.623 18.0072 89.4932 18.2692 89.4932 18.5928C89.4932 18.8981 89.6139 19.1283 89.8555 19.2832C90.097 19.4382 90.5322 19.5863 91.1611 19.7275C91.7946 19.8688 92.3073 20.0374 92.6992 20.2334C93.0911 20.4294 93.3805 20.6663 93.5674 20.9443C93.7588 21.2178 93.8545 21.5527 93.8545 21.9492C93.8545 22.61 93.5902 23.141 93.0615 23.542C92.5329 23.9385 91.847 24.1367 91.0039 24.1367C90.4115 24.1367 89.8874 24.0319 89.4316 23.8223C88.9759 23.6126 88.6182 23.321 88.3584 22.9473C88.1032 22.569 87.9756 22.1611 87.9756 21.7236H89.2402C89.263 22.1475 89.4316 22.4847 89.7461 22.7354C90.0651 22.9814 90.4844 23.1045 91.0039 23.1045C91.4824 23.1045 91.8652 23.0088 92.1523 22.8174C92.444 22.6214 92.5898 22.3617 92.5898 22.0381ZM97.5664 20.5752L96.7734 21.4023V24H95.5088V13.5H96.7734V19.8506L97.4502 19.0371L99.7539 16.6035H101.292L98.4141 19.6934L101.627 24H100.144L97.5664 20.5752Z" fill="#3A485A"/>
<path d="M6 1H108V-1H6V1ZM113 6V32H115V6H113ZM108 37H6V39H108V37ZM1 32V6H-1V32H1ZM6 37C3.23857 37 1 34.7614 1 32H-1C-1 35.866 2.134 39 6 39V37ZM113 32C113 34.7614 110.761 37 108 37V39C111.866 39 115 35.866 115 32H113ZM108 1C110.761 1 113 3.23858 113 6H115C115 2.13401 111.866 -1 108 -1V1ZM6 -1C2.13401 -1 -1 2.13401 -1 6H1C1 3.23858 3.23858 1 6 1V-1Z" fill="#ECEEF3"/>
</svg>
