<svg width="18" height="19" viewBox="0 0 18 19" fill="none" xmlns="http://www.w3.org/2000/svg">
<g clip-path="url(#clip0)">
<path d="M9.00005 0.5C13.9706 0.5 18 4.5294 18 9.49995C18 14.4705 13.9706 18.5001 9.00005 18.5001C4.02951 18.5001 -5.53131e-05 14.4705 -5.53131e-05 9.49995C0.00554848 4.53171 4.03165 0.505603 9.00005 0.5V0.5ZM9.00005 17.5999C13.4736 17.5999 17.1001 13.9735 17.1001 9.49995C17.1001 5.02642 13.4736 1.39995 9.00005 1.39995C4.52653 1.39995 0.900055 5.02642 0.900055 9.49995C0.905163 13.9713 4.52867 17.5948 9.00005 17.5999Z" fill="white"/>
<path d="M10.0538 6.01116C10.241 5.84752 10.5253 5.86664 10.6889 6.05368C10.8524 6.24089 10.8333 6.52516 10.6463 6.6888L7.43342 9.49987L10.6464 12.3111C10.8336 12.4748 10.8526 12.759 10.6891 12.9461C10.5255 13.1333 10.2412 13.1524 10.054 12.9887L6.45404 9.83869C6.35632 9.75333 6.30029 9.62973 6.30029 9.49987C6.30029 9.37001 6.35632 9.24658 6.45404 9.16105L10.0538 6.01116Z" fill="white"/>
</g>
<defs>
<clipPath id="clip0">
<rect width="18" height="18" fill="white" transform="matrix(-1 0 0 1 18 0.5)"/>
</clipPath>
</defs>
</svg>
