<svg width="18" height="19" viewBox="0 0 18 19" fill="none" xmlns="http://www.w3.org/2000/svg">
<g clip-path="url(#clip0)">
<path d="M8.99995 0.5C4.0294 0.5 0 4.5294 0 9.49995C0 14.4705 4.0294 18.5001 8.99995 18.5001C13.9705 18.5001 18.0001 14.4705 18.0001 9.49995C17.9945 4.53171 13.9683 0.505603 8.99995 0.5V0.5ZM8.99995 17.5999C4.52642 17.5999 0.899945 13.9735 0.899945 9.49995C0.899945 5.02642 4.52642 1.39995 8.99995 1.39995C13.4735 1.39995 17.0999 5.02642 17.0999 9.49995C17.0948 13.9713 13.4713 17.5948 8.99995 17.5999Z" fill="white"/>
<path d="M7.94617 6.01116C7.75896 5.84752 7.47469 5.86664 7.31105 6.05368C7.14757 6.24089 7.16669 6.52516 7.35373 6.6888L10.5666 9.49987L7.35357 12.3111C7.16636 12.4748 7.14741 12.759 7.31089 12.9461C7.47453 13.1333 7.7588 13.1524 7.94601 12.9887L11.546 9.83869C11.6437 9.75333 11.6997 9.62973 11.6997 9.49987C11.6997 9.37001 11.6437 9.24658 11.546 9.16105L7.94617 6.01116Z" fill="white"/>
</g>
<defs>
<clipPath id="clip0">
<rect width="18" height="18" fill="white" transform="translate(0 0.5)"/>
</clipPath>
</defs>
</svg>
