<svg width="25" height="25" viewBox="0 0 25 25" fill="none" xmlns="http://www.w3.org/2000/svg">
<path d="M13.8902 2.81445H12.4862C12.2368 2.81445 12.0339 3.01733 12.0339 3.26675V4.95156C12.0339 5.20093 12.2368 5.40381 12.4862 5.40381H13.8902C14.1396 5.40381 14.3425 5.20093 14.3425 4.95151V3.26675C14.3425 3.01738 14.1396 2.81445 13.8902 2.81445ZM13.6282 4.6895H12.7482V3.52876H13.6282V4.6895Z" fill="white"/>
<path d="M16.6817 2.81445H15.2777C15.0283 2.81445 14.8254 3.01733 14.8254 3.26675V4.95156C14.8254 5.20093 15.0283 5.40381 15.2777 5.40381H16.6817C16.9311 5.40381 17.134 5.20093 17.134 4.95151V3.26675C17.134 3.01738 16.9311 2.81445 16.6817 2.81445ZM16.4196 4.6895H15.5397V3.52876H16.4196V4.6895Z" fill="white"/>
<path d="M19.4735 2.81445H18.0694C17.8201 2.81445 17.6172 3.01733 17.6172 3.26675V4.95156C17.6172 5.20093 17.8201 5.40381 18.0694 5.40381H19.4735C19.7229 5.40381 19.9258 5.20093 19.9258 4.95151V3.26675C19.9258 3.01738 19.7229 2.81445 19.4735 2.81445ZM19.2115 4.6895H18.3315V3.52876H19.2115V4.6895Z" fill="white"/>
<path d="M13.8902 6.99805H12.4862C12.2368 6.99805 12.0339 7.20093 12.0339 7.45034V9.13516C12.0339 9.38457 12.2368 9.58745 12.4862 9.58745H13.8902C14.1396 9.58745 14.3425 9.38457 14.3425 9.13516V7.45034C14.3425 7.20098 14.1396 6.99805 13.8902 6.99805ZM13.6282 8.87319H12.7482V7.71245H13.6282V8.87319Z" fill="white"/>
<path d="M16.6817 6.99805H15.2777C15.0283 6.99805 14.8254 7.20093 14.8254 7.45034V9.13516C14.8254 9.38457 15.0283 9.58745 15.2777 9.58745H16.6817C16.9311 9.58745 17.134 9.38457 17.134 9.13516V7.45034C17.134 7.20098 16.9311 6.99805 16.6817 6.99805ZM16.4196 8.87319H15.5397V7.71245H16.4196V8.87319Z" fill="white"/>
<path d="M19.4735 6.99805H18.0694C17.8201 6.99805 17.6172 7.20093 17.6172 7.45034V9.13516C17.6172 9.38457 17.8201 9.58745 18.0694 9.58745H19.4735C19.7229 9.58745 19.9258 9.38457 19.9258 9.13516V7.45034C19.9258 7.20098 19.7229 6.99805 19.4735 6.99805ZM19.2115 8.87319H18.3315V7.71245H19.2115V8.87319Z" fill="white"/>
<path d="M13.8902 11.1816H12.4862C12.2368 11.1816 12.0339 11.3845 12.0339 11.6339V13.3187C12.0339 13.5681 12.2368 13.771 12.4862 13.771H13.8902C14.1396 13.771 14.3425 13.5682 14.3425 13.3187V11.6339C14.3425 11.3846 14.1396 11.1816 13.8902 11.1816ZM13.6282 13.0567H12.7482V11.896H13.6282V13.0567Z" fill="white"/>
<path d="M16.6817 11.1816H15.2777C15.0283 11.1816 14.8254 11.3845 14.8254 11.6339V13.3187C14.8254 13.5681 15.0283 13.771 15.2777 13.771H16.6817C16.9311 13.771 17.134 13.5682 17.134 13.3187V11.6339C17.134 11.3846 16.9311 11.1816 16.6817 11.1816ZM16.4196 13.0567H15.5397V11.896H16.4196V13.0567Z" fill="white"/>
<path d="M19.4735 11.1816H18.0694C17.8201 11.1816 17.6172 11.3845 17.6172 11.6339V13.3187C17.6172 13.5681 17.8201 13.771 18.0694 13.771H19.4735C19.7229 13.771 19.9258 13.5682 19.9258 13.3187V11.6339C19.9258 11.3846 19.7229 11.1816 19.4735 11.1816ZM19.2115 13.0567H18.3315V11.896H19.2115V13.0567Z" fill="white"/>
<path d="M19.4735 15.3657H18.0694C17.8201 15.3657 17.6172 15.5686 17.6172 15.818V17.5028C17.6172 17.7521 17.8201 17.9551 18.0694 17.9551H19.4735C19.7229 17.9551 19.9258 17.7522 19.9258 17.5028V15.818C19.9258 15.5686 19.7229 15.3657 19.4735 15.3657ZM19.2115 17.2407H18.3315V16.08H19.2115V17.2407Z" fill="white"/>
<path d="M24.1489 16.9574C23.6912 16.2848 22.7695 16.1067 22.0947 16.5602L21.1127 17.2173V1.85366H21.1839C21.4425 1.85366 21.6529 1.64331 21.6529 1.38472V0.468945C21.6529 0.210352 21.4425 0 21.1839 0H18.9033C18.706 0 18.5461 0.159912 18.5461 0.357129C18.5461 0.554346 18.7061 0.714258 18.9033 0.714258H20.9386V1.13931H10.9107V0.714258H16.6668C16.8641 0.714258 17.0239 0.554346 17.0239 0.357129C17.0239 0.159912 16.864 0 16.6667 0H10.6654C10.4068 0 10.1964 0.210352 10.1964 0.468945V1.38472C10.1964 1.64331 10.4068 1.85366 10.6654 1.85366H10.8467V6.44111H10.1134V5.55957C10.1134 5.25264 9.86367 5.00293 9.55679 5.00293H6.86011C6.55317 5.00293 6.30347 5.25264 6.30347 5.55957V6.44106H5.79028C5.47134 6.44106 5.21186 6.70054 5.21186 7.01948V15.2102C5.06069 15.2005 4.90908 15.1954 4.75713 15.1954H4.19424V15.0097C4.19424 14.3168 3.63052 13.7531 2.93755 13.7531H1.85166C1.15874 13.7531 0.594971 14.3168 0.594971 15.0097V20.1098C0.594971 20.3071 0.754883 20.4669 0.9521 20.4669C1.14932 20.4669 1.30923 20.307 1.30923 20.1098V15.0097C1.30923 14.7107 1.55254 14.4674 1.85161 14.4674H2.9375C3.23657 14.4674 3.47988 14.7107 3.47988 15.0097V23.0457C3.47988 23.3447 3.23657 23.588 2.9375 23.588H1.85166C1.55259 23.588 1.30928 23.3447 1.30928 23.0457V22.345C1.30928 22.1477 1.14937 21.9878 0.952148 21.9878C0.754932 21.9878 0.59502 22.1478 0.59502 22.345V23.0457C0.59502 23.7386 1.15874 24.3023 1.85171 24.3023H2.9376C3.63052 24.3023 4.19429 23.7386 4.19429 23.0457V23.0253L9.13974 24.8981C9.14941 24.9018 9.15923 24.905 9.16919 24.9078C9.38647 24.9692 9.60366 25 9.8189 25C9.93589 25 10.0523 24.9909 10.1678 24.9727C10.1679 24.9727 10.1682 24.9726 10.1685 24.9726L17.4684 23.9203C17.4702 23.9201 17.4719 23.9198 17.4737 23.9195C18.0978 23.8198 18.6864 23.5561 19.1761 23.1567C19.1805 23.1531 19.1849 23.1494 19.1892 23.1455L23.9073 18.902C24.4633 18.4082 24.5672 17.5723 24.1489 16.9574ZM11.561 1.85366H20.3985V17.6954L17.4269 19.6841L16.4306 19.6282L16.4052 19.3731C16.3866 19.1858 16.3446 19.0056 16.2821 18.8355C16.2613 18.7788 16.2382 18.7232 16.2129 18.6689C16.175 18.5874 16.1322 18.5087 16.0849 18.4331C15.973 18.2545 15.8358 18.0937 15.6781 17.9552H16.6818C16.9312 17.9552 17.1341 17.7523 17.1341 17.5029V15.8181C17.1341 15.5687 16.9312 15.3658 16.6818 15.3658H15.2778C15.0284 15.3658 14.8255 15.5687 14.8255 15.8181V17.4949C14.7353 17.47 14.6427 17.4505 14.5479 17.4371C14.5449 17.4366 14.5418 17.4362 14.5387 17.4359L14.3424 17.4133V15.818C14.3424 15.5687 14.1396 15.3657 13.8901 15.3657H12.4861C12.2367 15.3657 12.0338 15.5686 12.0338 15.818V17.1475L11.561 17.0931V1.85366ZM15.5397 17.2409V16.0802H16.4197V17.2409H15.5397ZM13.6281 16.0801V17.2409H12.844L12.7481 17.2298V16.0801H13.6281ZM7.01777 5.71724H9.39907V6.44106H7.01777V5.71724ZM5.92607 7.15537H10.8467V8.27227H6.81323C6.58232 8.27227 6.39448 8.46011 6.39448 8.69102V9.76938C6.39448 10.0003 6.58232 10.1881 6.81323 10.1881H10.8467V11.1929H6.81323C6.58232 11.1929 6.39448 11.3808 6.39448 11.6117V12.69C6.39448 12.9209 6.58232 13.1087 6.81323 13.1087H10.8467V14.1135H6.81323C6.58232 14.1135 6.39448 14.3014 6.39448 14.5323V15.385C6.33384 15.3709 6.27295 15.3577 6.21182 15.3451C6.18301 15.3391 6.1542 15.3334 6.12529 15.3278C6.0915 15.3213 6.05757 15.3151 6.02363 15.3091C5.99111 15.3032 5.95869 15.297 5.92607 15.2916V7.15537ZM10.8467 8.98657V9.47383H7.10879V8.98657H10.8467ZM10.8467 11.9072V12.3944H7.10879V11.9072H10.8467ZM7.10879 15.3151V14.8278H10.8467V15.3151H7.10879ZM10.8467 16.0294V17.0109L10.7367 16.9982C10.506 16.9654 10.2786 16.9201 10.0548 16.8634C9.62099 16.7535 9.20098 16.5994 8.79839 16.4015C8.74487 16.3752 8.6918 16.3479 8.63892 16.3201C8.55259 16.2746 8.46704 16.2274 8.38242 16.1779C8.32012 16.1414 8.25723 16.1063 8.19409 16.0719C8.18042 16.0644 8.16675 16.057 8.15303 16.0497C8.14048 16.043 8.12798 16.036 8.11543 16.0294H10.8467ZM23.4313 18.3694L18.7181 22.6084C18.3278 22.9248 17.8598 23.134 17.3636 23.2137L10.0637 24.2659C10.0621 24.2662 10.0555 24.2672 10.0539 24.2674C9.8355 24.302 9.60801 24.2875 9.37754 24.2244L4.19424 22.2615V15.9097H4.75708C5.01606 15.9097 5.27402 15.9262 5.52983 15.957C5.58179 15.9633 5.63354 15.9702 5.6852 15.9776C5.69272 15.9787 5.70019 15.9799 5.70767 15.981C5.83818 16.0003 5.96753 16.0238 6.0958 16.0508C6.13569 16.0592 6.17563 16.0677 6.21538 16.0769C6.23525 16.0815 6.25503 16.0863 6.27485 16.0911C6.32666 16.1036 6.37837 16.1166 6.42988 16.1304C6.43916 16.1329 6.44849 16.1353 6.45776 16.1378C6.86128 16.2478 7.25415 16.397 7.63032 16.5835C7.64155 16.5891 7.65273 16.5948 7.66391 16.6004C7.71177 16.6245 7.75928 16.6493 7.80654 16.6746C7.82095 16.6823 7.8354 16.6898 7.84976 16.6977C7.90664 16.7287 7.96323 16.7603 8.01924 16.7931C8.02007 16.7936 8.0209 16.794 8.02173 16.7945C8.17353 16.8833 8.32783 16.9662 8.48452 17.0432C9.16343 17.3769 9.88667 17.5994 10.6411 17.7062C10.6442 17.7066 10.6472 17.707 10.6503 17.7073L11.163 17.7664L11.5806 17.8145L12.5437 17.9253L12.7826 17.9529C12.7827 17.9529 12.7827 17.9529 12.7828 17.9529L14.452 18.1451C15.1172 18.2412 15.6278 18.7747 15.6944 19.4439L15.7068 19.5684L9.0124 18.9159C8.81548 18.8967 8.64141 19.0404 8.62226 19.2368C8.60317 19.4331 8.74678 19.6078 8.94311 19.6269L16.0399 20.3186C16.0548 20.3214 16.0699 20.3236 16.0854 20.3244L17.5062 20.4042C17.5128 20.4045 17.5195 20.4047 17.5262 20.4047C17.5333 20.4047 17.5402 20.4036 17.5473 20.4031C17.5554 20.4026 17.5634 20.4023 17.5714 20.4013C17.5817 20.4 17.5917 20.3978 17.6019 20.3956C17.6098 20.3938 17.6177 20.3925 17.6254 20.3902C17.6362 20.3871 17.6466 20.3829 17.657 20.3788C17.6636 20.3762 17.6703 20.3741 17.6767 20.3711C17.6933 20.3634 17.7094 20.3545 17.7248 20.3443L20.9542 18.183L20.9543 18.183L22.4926 17.1535C22.8428 16.9181 23.3209 17.0105 23.5583 17.3593C23.7753 17.6782 23.7214 18.1118 23.4313 18.3694Z" fill="white"/>
</svg>
