<svg width="26" height="21" viewBox="0 0 26 21" fill="none" xmlns="http://www.w3.org/2000/svg">
<path d="M18.2097 4.69287H14.3141C14.1098 4.69287 13.9443 4.85843 13.9443 5.06271C13.9443 5.26698 14.1098 5.43254 14.3141 5.43254H18.2097C22.0705 5.43254 25.2116 8.57357 25.2116 12.4344C25.2116 16.2953 22.0705 19.4365 18.2097 19.4365H9.87627V17.7105H14.0738C14.2779 17.7105 14.4436 17.545 14.4436 17.3409C14.4436 17.1366 14.2779 16.9711 14.0738 16.9711H9.50643C9.30215 16.9711 9.1366 17.1366 9.1366 17.3409V19.8063C9.1366 20.0106 9.30215 20.1762 9.50643 20.1762H18.2097C22.4783 20.1762 25.9512 16.7033 25.9512 12.4344C25.9512 8.16578 22.4783 4.69287 18.2097 4.69287Z" fill="#3A485A"/>
<path d="M6.92747 7.898H18.2096C20.7109 7.898 22.7461 9.93314 22.7461 12.4344C22.7461 14.9359 20.7109 16.9709 18.2096 16.9709H15.818C15.6137 16.9709 15.4482 17.1364 15.4482 17.3407C15.4482 17.545 15.6137 17.7106 15.818 17.7106H18.2096C21.1189 17.7106 23.4858 15.3437 23.4858 12.4344C23.4858 9.52516 21.1189 7.15833 18.2096 7.15833H6.03464C5.88511 7.15833 5.75026 7.24836 5.69304 7.38664C5.63582 7.52492 5.66729 7.684 5.77314 7.78966L7.629 9.64552L6.40886 10.8658L1.84362 6.29545L6.40886 1.72505L7.629 2.94518L5.77314 4.80104C5.66729 4.9069 5.63582 5.06597 5.69304 5.20406C5.75026 5.34234 5.88511 5.43237 6.03464 5.43237H12.5801C12.7844 5.43237 12.9499 5.26681 12.9499 5.06273C12.9499 4.85845 12.7844 4.69289 12.5801 4.69289H6.92747L8.41349 3.20668C8.55807 3.0623 8.55807 2.82807 8.41349 2.68369L6.67017 0.940369C6.60074 0.870941 6.50671 0.832031 6.40867 0.832031H6.40848C6.31045 0.832031 6.21641 0.871132 6.14699 0.940559L1.05932 6.03414C0.915123 6.17853 0.915123 6.41237 1.05932 6.55675L6.14699 11.6503C6.21641 11.7198 6.31045 11.7587 6.40848 11.7589H6.40867C6.50671 11.7589 6.60074 11.7198 6.67017 11.6505L8.41349 9.9072C8.48292 9.83778 8.52183 9.74374 8.52183 9.64571C8.52183 9.54748 8.48292 9.45345 8.41349 9.38421L6.92747 7.898Z" fill="#3A485A"/>
</svg>
