<svg width="21" height="21" viewBox="0 0 21 21" fill="none" xmlns="http://www.w3.org/2000/svg">
<path d="M20.284 9.40612C19.8888 9.40612 19.5681 9.11212 19.5681 8.74987C19.5681 6.23685 18.5011 3.87524 16.5633 2.0981C16.2836 1.84175 16.2836 1.42615 16.5633 1.1698C16.8429 0.913452 17.2963 0.913452 17.5761 1.1698C19.784 3.19447 20.9999 5.88694 20.9999 8.74987C20.9999 9.11212 20.6792 9.40612 20.284 9.40612Z" fill="white"/>
<path d="M0.715911 9.4063C0.320727 9.4063 0 9.1123 0 8.75005C0 5.88711 1.21614 3.19465 3.42487 1.17078C3.70453 0.914428 4.15809 0.914428 4.43774 1.17078C4.71739 1.42713 4.71739 1.84289 4.43774 2.09924C2.49905 3.87542 1.43182 6.23703 1.43182 8.75005C1.43182 9.1123 1.1111 9.4063 0.715911 9.4063Z" fill="white"/>
<path d="M10.4997 21C8.52572 21 6.92017 19.5283 6.92017 17.7188C6.92017 17.3565 7.24089 17.0625 7.63608 17.0625C8.03126 17.0625 8.35199 17.3565 8.35199 17.7188C8.35199 18.8047 9.31504 19.6875 10.4997 19.6875C11.6842 19.6875 12.6475 18.8047 12.6475 17.7188C12.6475 17.3565 12.9682 17.0625 13.3634 17.0625C13.7586 17.0625 14.0793 17.3565 14.0793 17.7188C14.0793 19.5283 12.4737 21 10.4997 21Z" fill="white"/>
<path d="M18.375 18.3751H2.62492C1.70364 18.3751 0.954346 17.6882 0.954346 16.8439C0.954346 16.3957 1.16723 15.9715 1.53865 15.68C2.99039 14.5556 3.81799 12.9212 3.81799 11.1896V8.74997C3.81799 5.37258 6.81535 2.625 10.4999 2.625C14.1844 2.625 17.1817 5.37258 17.1817 8.74997V11.1896C17.1817 12.9212 18.0093 14.5556 19.4516 15.6739C19.8325 15.9715 20.0454 16.3957 20.0454 16.8439C20.0454 17.6882 19.2961 18.3751 18.375 18.3751ZM10.4999 3.93751C7.60467 3.93751 5.24981 6.09612 5.24981 8.74997V11.1896C5.24981 13.3078 4.23712 15.3082 2.47216 16.6758C2.43878 16.7021 2.38617 16.7564 2.38617 16.8439C2.38617 16.9627 2.49506 17.0626 2.62492 17.0626H18.375C18.5047 17.0626 18.6136 16.9627 18.6136 16.8439C18.6136 16.7564 18.5611 16.7021 18.5295 16.6776C16.7626 15.3082 15.7499 13.3078 15.7499 11.1896V8.74997C15.7499 6.09612 13.3951 3.93751 10.4999 3.93751Z" fill="white"/>
<path d="M10.5001 3.93752C10.1049 3.93752 9.78418 3.64352 9.78418 3.28126V0.656253C9.78418 0.294 10.1049 0 10.5001 0C10.8953 0 11.216 0.294 11.216 0.656253V3.28126C11.216 3.64352 10.8953 3.93752 10.5001 3.93752Z" fill="white"/>
</svg>
