<svg width="20" height="18" viewBox="0 0 20 18" fill="none" xmlns="http://www.w3.org/2000/svg">
<path d="M19.9976 16.3553C20.0312 16.753 19.6952 17.103 19.2751 17.103L7.73208 17.1666C7.34564 17.1666 7.02639 16.8803 6.99279 16.5144C6.95919 16.1485 6.95919 15.6713 7.0936 15.1941C7.63127 13.142 8.33696 13.1738 8.87463 12.8715C9.4123 12.5534 11.9158 11.6148 11.9158 11.6148L12.6215 14.7168H12.9912L13.1592 13.317L12.7727 12.9511L13.512 12.2512L14.2009 12.9193L13.7809 13.3329L13.9993 14.7327H14.4025L14.9402 11.4717C17.3765 12.3784 18.1326 12.6329 18.9559 13.3329C19.6784 13.9374 19.9136 15.4486 19.9976 16.3553Z" fill="#3062FF"/>
<path d="M16.1154 6.81138C16.1154 8.17943 15.2921 11.5996 13.5111 11.5996C11.5284 11.5996 10.9067 8.16353 10.9067 6.81138C10.9067 5.45923 12.0829 4.3457 13.5111 4.3457C14.9392 4.3457 16.1154 5.45923 16.1154 6.81138Z" fill="#3062FF"/>
<path d="M11.4444 4.31385C11.0075 4.72744 10.8899 4.87061 10.3859 5.34784L6.99183 2.21404L1.29591 7.5749C1.14469 7.71807 0.959867 7.7817 0.758241 7.7817C0.556616 7.7817 0.371792 7.71807 0.220573 7.5749C-0.0818654 7.28857 -0.0650633 6.84315 0.220573 6.55682L2.74089 4.18659V1.73682H4.3707V2.65946L6.45416 0.702822C6.7398 0.432393 7.21026 0.432393 7.5127 0.702822L11.4444 4.31385Z" fill="#3062FF"/>
<path d="M10.1997 6.28584L7.46097 3.78835C7.19214 3.54973 6.77208 3.54973 6.52005 3.80426L2.2019 7.97205V11.7581C2.2019 12.108 2.50434 12.3944 2.87399 12.3944H7.83062L11.1574 11.0581C11.1574 11.0581 9.69565 8.95832 10.1997 6.28584ZM8.25067 10.04H5.86477V7.78116H8.25067V10.04Z" fill="#3062FF"/>
</svg>
