<svg width="22" height="21" viewBox="0 0 22 21" fill="none" xmlns="http://www.w3.org/2000/svg">
<g clip-path="url(#clip0)">
<path d="M19.2836 6.86415H17.6977V3.88523C17.6977 3.37511 17.4852 2.89966 17.1374 2.55205L16.1127 1.52855C15.2431 0.673293 15.1334 0.431669 14.6154 0.191687C14.3748 0.0770483 14.0577 -6.10352e-05 13.738 -6.10352e-05H6.25321C5.13822 -6.10352e-05 4.23145 0.865902 4.23145 1.92981V12.337H3.80507C3.16183 12.337 2.63868 12.8364 2.63868 13.4504C2.63868 13.756 2.76828 14.0327 2.97736 14.2339C2.76828 14.4351 2.63868 14.7118 2.63868 15.0174C2.63868 15.132 2.65553 15.2 2.66159 15.2376C0.130468 15.4833 -0.877837 18.4738 0.974589 20.0969C1.53404 20.5872 2.27663 20.8651 3.08186 20.8337C3.34797 20.8337 8.82657 20.8317 8.83349 20.8317C9.4763 20.8317 9.99987 20.3323 9.99987 19.7183C9.99987 19.4128 9.87028 19.1361 9.66119 18.9348C9.85778 18.7456 9.98389 18.4903 9.99815 18.2066H10.4358V18.4297C10.4358 19.847 11.6436 20.9999 13.1284 20.9999H19.2836C20.7684 20.9999 21.9762 19.847 21.9762 18.4297V9.43439C21.9763 8.0171 20.7684 6.86415 19.2836 6.86415ZM16.5322 2.90298C16.5322 2.90298 16.5326 2.90298 16.5331 2.9038C16.5335 2.9038 16.5335 2.9038 16.5335 2.9038C16.5339 2.90462 16.5348 2.90544 16.5352 2.90585L16.5356 2.90627C16.5365 2.9075 16.5374 2.90832 16.5382 2.90873C16.5386 2.90914 16.5391 2.90955 16.5395 2.91037C16.5399 2.91078 16.5404 2.91078 16.5404 2.91119C16.5408 2.9116 16.5412 2.9116 16.5417 2.91242C16.5425 2.91283 16.5429 2.91365 16.5434 2.91406H14.8115V1.16651C16.1689 2.53598 16.4747 2.84482 16.5322 2.90298ZM3.80507 12.9968H8.83353C9.09534 12.9968 9.30872 13.2005 9.30872 13.4504C9.30872 13.7007 9.0953 13.904 8.83353 13.904H3.80507C3.54326 13.904 3.32988 13.7007 3.32988 13.4504C3.32984 13.2005 3.54326 12.9968 3.80507 12.9968ZM3.80507 14.5638H8.83353C9.09534 14.5638 9.30872 14.7675 9.30872 15.0174C9.30872 15.2677 9.0953 15.471 8.83353 15.471H5.36024C5.21896 15.4091 5.07252 15.3588 4.9226 15.32C4.69882 15.2619 4.46726 15.2289 4.23141 15.2231C4.1636 15.2215 4.09575 15.2219 4.02795 15.2247H3.38299C3.34887 15.1625 3.32984 15.092 3.32984 15.0173C3.32984 14.7675 3.54326 14.5638 3.80507 14.5638ZM9.30872 16.5844C9.30872 16.8347 9.0953 17.038 8.83353 17.038H6.89946C6.76815 16.7043 6.57028 16.3971 6.31281 16.1308H8.83353C9.0953 16.1308 9.30872 16.3345 9.30872 16.5844ZM2.1237 15.9922C1.91333 16.1827 1.72624 16.4091 1.57937 16.6586H1.17676C1.43985 16.3472 1.76689 16.1258 2.1237 15.9922ZM0.809116 17.2771H1.31241C1.30119 17.3233 1.24413 17.501 1.21822 17.7716H0.686441C0.707195 17.6017 0.74823 17.4359 0.809116 17.2771ZM0.864847 18.9122C0.788406 18.7464 0.733534 18.5712 0.702425 18.3901H1.23034C1.32496 18.9023 1.33011 18.814 1.35387 18.9122H0.864847ZM1.296 19.5307C1.50809 19.5303 1.63124 19.5315 1.66016 19.5299C1.78932 19.7245 1.94482 19.9047 2.12499 20.0668C1.81179 19.9492 1.53318 19.7699 1.296 19.5307ZM4.24481 20.2156C2.98037 20.2676 1.90985 19.3328 1.85626 18.1229C1.76942 16.1968 4.17954 15.0875 5.69715 16.4173C7.19324 17.7282 6.28256 20.1356 4.24481 20.2156ZM8.83353 20.1719H6.04413C6.35299 19.9224 6.60659 19.6136 6.78671 19.2647H8.83353C9.09534 19.2647 9.30872 19.4685 9.30872 19.7183C9.30872 19.9686 9.0953 20.1719 8.83353 20.1719ZM9.30485 18.2066C9.27632 18.4309 9.07587 18.605 8.83353 18.605H7.02519C7.08784 18.3188 7.10554 18.0103 7.06708 17.6978H8.83353C9.12469 17.6977 9.34198 17.9464 9.30485 18.2066ZM10.4358 17.5468H9.81197C9.76836 17.4821 9.71778 17.4223 9.66119 17.3678C10.1126 16.9332 10.1131 16.2355 9.66119 15.8009C9.87028 15.5997 9.99987 15.323 9.99987 15.0174C9.99987 14.7118 9.87028 14.4351 9.66119 14.2339C10.3878 13.5346 9.86856 12.3371 8.83349 12.3371H4.9226V1.92981C4.9226 1.22963 5.51961 0.659716 6.25317 0.659716H14.1203V3.24399C14.1203 3.42626 14.275 3.57388 14.4659 3.57388H16.9655C17.0376 3.84109 16.9931 3.75283 17.0065 6.86411H13.1284C11.6436 6.86411 10.4358 8.01706 10.4358 9.43435V17.5468ZM21.3282 18.4297C21.3282 19.5059 20.4111 20.3814 19.2836 20.3814H13.1285C12.0014 20.3814 11.0838 19.506 11.0838 18.4297V9.43439C11.0838 8.35814 12.0014 7.48267 13.1285 7.48267H19.2836C20.4111 7.48267 21.3283 8.3581 21.3283 9.43439V18.4297H21.3282Z" fill="white"/>
<path d="M19.2611 8.18414H13.1517C12.551 8.18414 12.064 8.64901 12.064 9.22245V10.3544C12.064 10.9278 12.551 11.3927 13.1517 11.3927H14.3272C14.5061 11.3927 14.6512 11.2542 14.6512 11.0835C14.6512 10.9127 14.5061 10.7742 14.3272 10.7742H13.1517C12.9098 10.7742 12.7119 10.5853 12.7119 10.3544V9.22245C12.7119 8.99158 12.9098 8.80266 13.1517 8.80266H19.2611C19.5038 8.80266 19.7008 8.99113 19.7008 9.22245V10.3544C19.7008 10.5857 19.5038 10.7742 19.2611 10.7742H15.7243C15.5454 10.7742 15.4003 10.9127 15.4003 11.0835C15.4003 11.2542 15.5454 11.3927 15.7243 11.3927H19.2611C19.8611 11.3927 20.3488 10.9267 20.3488 10.3544V9.22245C20.3488 8.65012 19.8611 8.18414 19.2611 8.18414Z" fill="white"/>
<path d="M13.8494 14.7011H12.7422C12.3685 14.7011 12.064 14.9914 12.064 15.3485V16.405C12.064 16.7621 12.3685 17.0524 12.7422 17.0524H13.8494C14.2235 17.0524 14.5276 16.7621 14.5276 16.405V15.3485C14.5276 14.9914 14.2235 14.7011 13.8494 14.7011ZM13.8796 16.405C13.8796 16.4211 13.8658 16.4339 13.8494 16.4339H12.7421C12.7257 16.4339 12.7119 16.4211 12.7119 16.405V15.3485C12.7119 15.3324 12.7257 15.3196 12.7421 15.3196H13.8494C13.8658 15.3196 13.8796 15.3324 13.8796 15.3485V16.405Z" fill="white"/>
<path d="M19.7054 11.9383H18.5986C18.2245 11.9383 17.9204 12.2286 17.9204 12.5857V13.6422C17.9204 13.9993 18.2245 14.2896 18.5986 14.2896H19.7054C20.0795 14.2896 20.3836 13.9992 20.3836 13.6422V12.5857C20.3836 12.2286 20.0795 11.9383 19.7054 11.9383ZM19.7357 13.6422C19.7357 13.6582 19.7223 13.671 19.7054 13.671H18.5986C18.5822 13.671 18.5684 13.6582 18.5684 13.6422C18.5818 12.5968 18.5403 12.5568 18.5986 12.5568H19.7054C19.7223 12.5568 19.7357 12.5696 19.7357 12.5857V13.6422Z" fill="white"/>
<path d="M13.8494 11.9383H12.7422C12.3685 11.9383 12.064 12.2286 12.064 12.5857V13.6422C12.064 13.9993 12.3685 14.2896 12.7422 14.2896H13.8494C14.2235 14.2896 14.5276 13.9992 14.5276 13.6422V12.5857C14.5276 12.2286 14.2235 11.9383 13.8494 11.9383ZM13.8796 13.6422C13.8796 13.6582 13.8658 13.671 13.8494 13.671H12.7421C12.7257 13.671 12.7119 13.6582 12.7119 13.6422V12.5857C12.7119 12.5696 12.7257 12.5568 12.7421 12.5568H13.8494C13.8658 12.5568 13.8796 12.5696 13.8796 12.5857V13.6422Z" fill="white"/>
<path d="M14.3567 17.5468C14.2322 17.4132 14.0508 17.3287 13.8491 17.3287H12.7419C12.5401 17.3287 12.3587 17.4132 12.2347 17.5468C11.9993 17.7988 12.0792 18.0734 12.0637 18.2066V19.0325C12.0637 19.3897 12.3682 19.6799 12.7419 19.6799H13.8491C14.2232 19.6799 14.5273 19.3896 14.5273 19.0325V18.2066C14.5118 18.0763 14.5908 17.7988 14.3567 17.5468ZM13.8491 19.0614C12.7553 19.0486 12.7116 19.0882 12.7116 19.0325C12.7116 17.9138 12.6986 17.9472 12.7419 17.9472H13.8491C13.9022 17.9472 13.8694 18.0177 13.8793 18.2066C13.8793 18.2066 13.9074 19.0614 13.8491 19.0614Z" fill="white"/>
<path d="M19.5335 14.7011H18.7706C18.3019 14.7011 17.9204 15.0652 17.9204 15.5126V18.7938C17.9204 19.2825 18.3369 19.68 18.8484 19.68H19.4558C19.9677 19.68 20.3837 19.2825 20.3837 18.7938V15.5126C20.3837 15.0652 20.0027 14.7011 19.5335 14.7011ZM19.4558 19.0614H18.8484C18.6941 19.0614 18.5684 18.9414 18.5684 18.7938V15.5126C18.5684 15.4063 18.6591 15.3197 18.7706 15.3197H19.5335C19.645 15.3197 19.7357 15.4063 19.7357 15.5126V18.7938C19.7357 18.9414 19.6104 19.0614 19.4558 19.0614Z" fill="white"/>
<path d="M8.36363 8.98348C7.96858 8.84493 7.68318 8.74485 7.68318 8.39548C7.68318 8.07707 7.90473 7.91563 8.34159 7.91563C8.80535 7.91563 8.93022 8.1105 9.09359 8.1105C9.27139 8.1105 9.36975 7.9304 9.36975 7.80584C9.36975 7.54818 8.92944 7.42041 8.53585 7.3867V7.15438C8.53585 6.99278 8.39814 6.86133 8.22884 6.86133C8.05954 6.86133 7.92183 6.99278 7.92183 7.15438V7.42373C7.38364 7.54572 7.08793 7.90054 7.08793 8.42628C7.08793 9.1461 7.64309 9.34524 8.08928 9.50532C8.5261 9.662 8.87118 9.78578 8.87118 10.2619C8.87118 10.6551 8.64246 10.8544 8.19124 10.8544C7.5309 10.8544 7.52471 10.4289 7.27283 10.4289C7.11685 10.4289 6.99121 10.5956 6.99121 10.7335C6.99121 10.9772 7.37144 11.2976 7.92183 11.3807V11.6052C7.92183 11.7668 8.05954 11.8983 8.22884 11.8983C8.39814 11.8983 8.53585 11.7668 8.53585 11.6052V11.3747C9.12787 11.2683 9.46647 10.8534 9.46647 10.231C9.46643 9.37025 8.85498 9.15582 8.36363 8.98348Z" fill="white"/>
<path d="M17.2302 17.5101C17.1084 17.398 16.9425 17.3287 16.7601 17.3287H15.6529C15.4512 17.3287 15.2697 17.4132 15.1453 17.5468C14.9108 17.7992 14.9903 18.0734 14.9747 18.2066V19.0325C14.9747 19.3897 15.2788 19.6799 15.6529 19.6799H16.7601C17.1338 19.6799 17.4379 19.3896 17.4379 19.0325V17.9757C17.4379 17.793 17.358 17.6276 17.2302 17.5101ZM16.7601 19.0614C15.6663 19.0486 15.6227 19.0882 15.6227 19.0325V17.9757C15.6227 17.96 15.6365 17.9472 15.6529 17.9472H16.7601C16.7766 17.9472 16.79 17.96 16.79 17.9757C16.777 19.0222 16.8176 19.0614 16.7601 19.0614Z" fill="white"/>
<path d="M16.76 11.9383H15.6528C15.2787 11.9383 14.9746 12.2286 14.9746 12.5857V13.6422C14.9746 13.9993 15.2787 14.2896 15.6528 14.2896H16.76C16.8473 14.2896 16.9302 14.2739 17.0067 14.245C17.259 14.1506 17.4379 13.9159 17.4379 13.6421V12.5856C17.4378 12.2273 17.132 11.9383 16.76 11.9383ZM16.76 13.671H15.6528C15.6364 13.671 15.6226 13.6582 15.6226 13.6422V12.5857C15.6226 12.53 15.6628 12.5692 16.76 12.5568C16.7765 12.5568 16.7899 12.5696 16.7899 12.5857V13.6422C16.7899 13.6582 16.7765 13.671 16.76 13.671Z" fill="white"/>
<path d="M17.0067 14.7457C16.9303 14.7168 16.8473 14.7011 16.76 14.7011H15.6528C15.2787 14.7011 14.9746 14.9914 14.9746 15.3485V16.405C14.9746 16.7621 15.2787 17.0524 15.6528 17.0524H16.76C17.1337 17.0524 17.4378 16.7621 17.4378 16.405V15.3485C17.4378 15.0747 17.259 14.8401 17.0067 14.7457ZM16.7899 16.405C16.7899 16.4211 16.7765 16.4339 16.76 16.4339H15.6528C15.6364 16.4339 15.6226 16.4211 15.6226 16.405V15.3485C15.6226 15.3324 15.6364 15.3196 15.6528 15.3196H16.76C16.7765 15.3196 16.7899 15.3324 16.7899 15.3485V16.405Z" fill="white"/>
<path d="M14.8898 4.22626H14.0759C13.8971 4.22626 13.752 4.36481 13.752 4.53552C13.752 4.70663 13.8971 4.84477 14.0759 4.84477H14.8898C15.0686 4.84477 15.2138 4.70663 15.2138 4.53552C15.2138 4.36481 15.0686 4.22626 14.8898 4.22626Z" fill="white"/>
<path d="M12.78 4.22626H7.03443C6.8556 4.22626 6.71045 4.36481 6.71045 4.53552C6.71045 4.70663 6.8556 4.84477 7.03443 4.84477H12.78C12.9589 4.84477 13.104 4.70663 13.104 4.53552C13.104 4.36481 12.9589 4.22626 12.78 4.22626Z" fill="white"/>
<path d="M8.06431 5.76147H7.03443C6.8556 5.76147 6.71045 5.90003 6.71045 6.07073C6.71045 6.24144 6.8556 6.37999 7.03443 6.37999H8.06431C8.24315 6.37999 8.38829 6.24144 8.38829 6.07073C8.38829 5.90003 8.24315 5.76147 8.06431 5.76147Z" fill="white"/>
<path d="M14.8897 5.76147H9.36012C9.18128 5.76147 9.03613 5.90003 9.03613 6.07073C9.03613 6.24144 9.18128 6.37999 9.36012 6.37999H14.8897C15.0686 6.37999 15.2137 6.24144 15.2137 6.07073C15.2138 5.90003 15.0686 5.76147 14.8897 5.76147Z" fill="white"/>
<path d="M3.96325 17.4381C3.96325 17.3604 3.99324 17.3381 4.0213 17.3232C4.10836 17.2772 4.30807 17.2637 4.49104 17.3535C4.53963 17.3773 4.59472 17.4044 4.66639 17.4044C4.98595 17.4044 5.23869 16.8376 4.47535 16.7123V16.6928C4.47535 16.52 4.32805 16.3794 4.14703 16.3794C3.966 16.3794 3.8187 16.52 3.8187 16.6928V16.7523C3.49884 16.863 3.3179 17.1148 3.3179 17.4566C3.3179 17.984 3.71936 18.1281 4.01258 18.2332C4.29218 18.3335 4.38886 18.3773 4.38886 18.5589C4.38886 18.6724 4.35684 18.7774 4.12443 18.7774C3.78575 18.7774 3.82631 18.5219 3.57284 18.5219C3.3937 18.5219 3.25977 18.691 3.25977 18.8422C3.25977 19.0565 3.49317 19.2598 3.8187 19.3423V19.3657C3.8187 19.5385 3.966 19.6791 4.14703 19.6791C4.32805 19.6791 4.47535 19.5386 4.47535 19.3657V19.3341C4.82761 19.226 5.03425 18.9365 5.03425 18.5404C5.03425 17.6006 3.96325 17.7418 3.96325 17.4381Z" fill="white"/>
</g>
<defs>
<clipPath id="clip0">
<rect width="22" height="21" fill="white"/>
</clipPath>
</defs>
</svg>
