<svg width="24" height="24" viewBox="0 0 24 24" fill="none" xmlns="http://www.w3.org/2000/svg">
<path d="M9.1875 6C9.06422 6 8.94328 6.05011 8.85609 6.13734C8.76891 6.22453 8.71875 6.34547 8.71875 6.46875C8.71875 6.59203 8.76891 6.71297 8.85609 6.80011C8.94328 6.8873 9.06422 6.9375 9.1875 6.9375C9.31078 6.9375 9.43172 6.88734 9.51891 6.80011C9.60609 6.71297 9.65625 6.59203 9.65625 6.46875C9.65625 6.34547 9.60609 6.22453 9.51891 6.13734C9.43172 6.05016 9.31078 6 9.1875 6Z" fill="#B1BAC9"/>
<path d="M8.30357 10.9012C8.30357 9.81505 7.41993 8.93146 6.33379 8.93146C5.39461 8.93146 4.58179 9.59952 4.401 10.52C4.35112 10.774 4.51659 11.0204 4.77061 11.0703C5.02453 11.1201 5.271 10.9546 5.32092 10.7007C5.41556 10.2187 5.84156 9.86896 6.33379 9.86896C6.90299 9.86896 7.36607 10.332 7.36607 10.9012C7.36607 11.4704 6.90299 11.9335 6.33379 11.9335C6.0749 11.9335 5.86504 12.1434 5.86504 12.4022C5.86504 12.6611 6.0749 12.871 6.33379 12.871C6.90299 12.871 7.36607 13.3341 7.36607 13.9032C7.36607 14.4724 6.90299 14.9354 6.33379 14.9354C5.82159 14.9354 5.38214 14.5538 5.3115 14.0477C5.30489 14.0002 5.30151 13.9516 5.30151 13.9032C5.30151 13.6443 5.09165 13.4344 4.83276 13.4344C4.57387 13.4344 4.36401 13.6443 4.36401 13.9032C4.36401 13.9948 4.37039 14.087 4.383 14.1773C4.51786 15.1439 5.35654 15.8729 6.33379 15.8729C7.41993 15.8729 8.30357 14.9893 8.30357 13.9032C8.30357 13.3023 8.03282 12.7638 7.60724 12.4022C8.03282 12.0406 8.30357 11.502 8.30357 10.9012Z" fill="#B1BAC9"/>
<path d="M18.375 11.8304V4.21875C18.375 2.92641 17.3236 1.875 16.0312 1.875H14.8125V1.5C14.8125 0.672891 14.1396 0 13.3125 0C12.4854 0 11.8125 0.672891 11.8125 1.5V1.875H6.5625V1.5C6.5625 0.672891 5.88961 0 5.0625 0C4.23539 0 3.5625 0.672891 3.5625 1.5V1.875H2.34375C1.05141 1.875 0 2.92641 0 4.21875V17.3856C0 18.678 1.05141 19.7294 2.34375 19.7294H12.0912C12.8679 22.2016 15.181 24 17.9062 24C21.2663 24 24 21.2664 24 17.9062C24 14.7038 21.5169 12.0705 18.375 11.8304ZM12.75 1.5C12.75 1.18983 13.0023 0.9375 13.3125 0.9375C13.6227 0.9375 13.875 1.18983 13.875 1.5V3.1875C13.875 3.49767 13.6227 3.75 13.3125 3.75C13.0023 3.75 12.75 3.49767 12.75 3.1875V1.5ZM5.0625 0.9375C5.37267 0.9375 5.625 1.18983 5.625 1.5V3.1875C5.625 3.49767 5.37267 3.75 5.0625 3.75C4.75233 3.75 4.5 3.49767 4.5 3.1875V1.5C4.5 1.18983 4.75233 0.9375 5.0625 0.9375ZM2.34375 18.7919C1.56834 18.7919 0.9375 18.161 0.9375 17.3856V6.9375H7.07812C7.33702 6.9375 7.54688 6.72759 7.54688 6.46875C7.54688 6.20991 7.33702 6 7.07812 6H0.9375V4.21875C0.9375 3.44334 1.56834 2.8125 2.34375 2.8125H3.5625V3.1875C3.5625 4.01461 4.23539 4.6875 5.0625 4.6875C5.88961 4.6875 6.5625 4.01461 6.5625 3.1875V2.8125H11.8125V3.1875C11.8125 4.01461 12.4854 4.6875 13.3125 4.6875C14.1396 4.6875 14.8125 4.01461 14.8125 3.1875V2.8125H16.0312C16.8067 2.8125 17.4375 3.44334 17.4375 4.21875V6H11.2969C11.038 6 10.8281 6.20991 10.8281 6.46875C10.8281 6.72759 11.038 6.9375 11.2969 6.9375H17.4375V11.8304C16.1401 11.9295 14.9552 12.437 14.0109 13.2238V11.0684C14.0109 9.89006 13.0523 8.93147 11.874 8.93147C10.6958 8.93147 9.73716 9.89006 9.73716 11.0684V13.7362C9.73716 14.9145 10.6958 15.873 11.874 15.873C11.9742 15.873 12.0726 15.8656 12.1691 15.8522C11.9385 16.4943 11.8125 17.1858 11.8125 17.9062C11.8125 18.207 11.8348 18.5026 11.877 18.7919H2.34375ZM11.874 14.9355C11.2127 14.9355 10.6747 14.3975 10.6747 13.7362V11.0684C10.6747 10.407 11.2127 9.86897 11.874 9.86897C12.5354 9.86897 13.0734 10.407 13.0734 11.0684V13.7362C13.0734 14.3975 12.5354 14.9355 11.874 14.9355ZM17.9062 23.0625C15.0631 23.0625 12.75 20.7494 12.75 17.9062C12.75 15.0631 15.0631 12.75 17.9062 12.75C20.7494 12.75 23.0625 15.0631 23.0625 17.9062C23.0625 20.7494 20.7494 23.0625 17.9062 23.0625Z" fill="#B1BAC9"/>
<path d="M18.6676 17.4306C18.5713 17.3966 18.4731 17.3612 18.3749 17.3247V15.4996C18.6203 15.5814 18.7814 15.6958 18.7893 15.7015C18.9955 15.8557 19.2879 15.8147 19.4436 15.6091C19.5999 15.4028 19.5594 15.1087 19.353 14.9524C19.3282 14.9336 18.9432 14.648 18.3748 14.5301V14.1457C18.3748 13.8868 18.165 13.6769 17.9061 13.6769C17.6472 13.6769 17.4373 13.8868 17.4373 14.1457V14.527C17.3761 14.5398 17.3143 14.555 17.2517 14.5738C16.6395 14.7576 16.1821 15.2806 16.0578 15.9385C15.9441 16.5407 16.138 17.1223 16.564 17.4563C16.7855 17.6301 17.0605 17.7888 17.4373 17.9562V20.3324C17.1245 20.3068 16.9218 20.2277 16.5794 20.0038C16.3627 19.8619 16.0722 19.9228 15.9305 20.1394C15.7888 20.3561 15.8495 20.6466 16.0662 20.7883C16.6015 21.1384 16.9678 21.2447 17.4373 21.2725V21.6669C17.4373 21.9258 17.6472 22.1357 17.9061 22.1357C18.165 22.1357 18.3748 21.9258 18.3748 21.6669V21.2192C19.2473 21.0044 19.8068 20.2621 19.9299 19.5301C20.0893 18.5821 19.5938 17.7581 18.6676 17.4306ZM17.1426 16.7187C16.9955 16.6033 16.9313 16.3654 16.9791 16.1125C17.0212 15.8894 17.1637 15.6238 17.4373 15.5032V16.9109C17.3272 16.8491 17.2272 16.7851 17.1426 16.7187ZM19.0054 19.3746C18.9499 19.7047 18.7361 20.0537 18.3749 20.2288V18.3221C19.0795 18.5828 19.036 19.1925 19.0054 19.3746Z" fill="#B1BAC9"/>
</svg>
