<svg width="24" height="16" viewBox="0 0 24 16" fill="none" xmlns="http://www.w3.org/2000/svg">
<path d="M22.9529 15.3176H22.5647V12.7411C22.5647 12.5527 22.4119 12.3999 22.2235 12.3999H18.1883V9.09412C18.1883 8.90567 18.0355 8.7529 17.8471 8.7529H16V7.63532C16 7.44688 15.8473 7.2941 15.6588 7.2941H12.353V3.9883C12.353 3.79985 12.2002 3.64707 12.0118 3.64707H11.5912C11.4526 2.92764 10.8842 2.35966 10.1648 2.22104V0.341222C10.1648 0.152777 10.012 0 9.82356 0C9.63511 0 9.48234 0.152777 9.48234 0.341222V2.22099C8.76295 2.35962 8.19456 2.9276 8.05594 3.64703H7.63532C7.44688 3.64703 7.2941 3.7998 7.2941 3.98825V6.56466H4.71769C4.52925 6.56466 4.37647 6.71744 4.37647 6.90588V9.48229H1.07062C0.882173 9.48229 0.729396 9.63507 0.729396 9.82351V15.3176H0.341222C0.152777 15.3176 0 15.4703 0 15.6588C0 15.8472 0.152777 16 0.341222 16H22.9529C23.1413 16 23.2941 15.8472 23.2941 15.6588C23.2941 15.4703 23.1413 15.3176 22.9529 15.3176ZM5.05887 7.2471H8.75289V8.02345H5.05887V7.2471ZM6.56466 15.3176H5.78827V14.9294C5.78827 14.741 5.63549 14.5882 5.44704 14.5882C5.2586 14.5882 5.10582 14.741 5.10582 14.9294V15.3176H4.32947V14.9294C4.32947 14.741 4.1767 14.5882 3.98825 14.5882C3.7998 14.5882 3.64703 14.741 3.64703 14.9294V15.3176H2.87068V14.9294C2.87068 14.741 2.7179 14.5882 2.52946 14.5882C2.34101 14.5882 2.18824 14.741 2.18824 14.9294V15.3176H1.41184V10.1648H6.56466V15.3176ZM5.05887 9.48225V8.7059H8.75289V9.48225H6.90588H5.05887ZM8.0235 15.3176H7.24715V14.5412H8.0235V15.3176ZM8.0235 13.8587H7.24715V13.0824H8.0235V13.8587ZM8.0235 12.3999H7.24715V11.6236H8.0235V12.3999ZM7.24715 10.9411V10.1647H8.75289V10.9411H8.36472H7.24715ZM15.3175 8.75285H14.1999C14.0115 8.75285 13.8587 8.90563 13.8587 9.09407C13.8587 9.28252 14.0115 9.43529 14.1999 9.43529H15.3175V10.2116H14.1999C14.0115 10.2116 13.8587 10.3644 13.8587 10.5529C13.8587 10.7413 14.0115 10.8941 14.1999 10.8941H15.3175V11.6704H14.1999C14.0115 11.6704 13.8587 11.8232 13.8587 12.0117C13.8587 12.2001 14.0115 12.3529 14.1999 12.3529H15.3175V13.1292H14.1999C14.0115 13.1292 13.8587 13.282 13.8587 13.4705C13.8587 13.6589 14.0115 13.8117 14.1999 13.8117H15.3175V15.3175H13.0823V14.9293C13.0823 14.7408 12.9295 14.5881 12.7411 14.5881C12.5527 14.5881 12.3999 14.7408 12.3999 14.9293V15.3175H11.6235V14.5646C11.6235 14.3762 11.4708 14.2234 11.2823 14.2234C11.0939 14.2234 10.9411 14.3762 10.9411 14.5646V15.3176H10.1647V14.5646C10.1647 14.3762 10.012 14.2234 9.82351 14.2234C9.63507 14.2234 9.48229 14.3762 9.48229 14.5646V15.3176H8.70594V11.6235H12.3999V13.4705C12.3999 13.659 12.5527 13.8118 12.7411 13.8118C12.9296 13.8118 13.0824 13.659 13.0824 13.4705V11.2823C13.0824 11.0939 12.9296 10.9411 12.7411 10.9411H12.353V9.82356C12.353 9.63511 12.2002 9.48234 12.0117 9.48234C11.8233 9.48234 11.6705 9.63511 11.6705 9.82356V10.9411H9.43534V6.90588C9.43534 6.71744 9.28256 6.56466 9.09412 6.56466H7.97655V4.32947H8.36472C8.55317 4.32947 8.70594 4.1767 8.70594 3.98825C8.70594 3.372 9.20731 2.87063 9.82351 2.87063C10.4397 2.87063 10.9411 3.372 10.9411 3.98825C10.9411 4.1767 11.0939 4.32947 11.2823 4.32947H11.6705V8.36477C11.6705 8.55321 11.8233 8.70599 12.0117 8.70599C12.2001 8.70599 12.3529 8.55321 12.3529 8.36477V7.9765H15.3175V8.75285ZM16.7763 12.7411V15.3176H16V9.43534H17.5058V12.3999H17.1176C16.9291 12.3999 16.7763 12.5527 16.7763 12.7411ZM21.8823 15.3176H20.7412V14.2C20.7412 14.0116 20.5884 13.8588 20.3999 13.8588C20.2115 13.8588 20.0587 14.0116 20.0587 14.2V15.3176H19.2824V14.2C19.2824 14.0116 19.1296 13.8588 18.9412 13.8588C18.7528 13.8588 18.6 14.0116 18.6 14.2V15.3176H17.4588V13.0824H21.8823V15.3176Z" fill="#3A485A"/>
<path d="M10.5574 5.10608H10.5538C10.3653 5.10608 10.2144 5.25886 10.2144 5.4473C10.2144 5.63575 10.369 5.78852 10.5574 5.78852C10.7458 5.78852 10.8986 5.63575 10.8986 5.4473C10.8986 5.2589 10.7458 5.10608 10.5574 5.10608Z" fill="#3A485A"/>
<path d="M10.5574 9.48248H10.5538C10.3653 9.48248 10.2144 9.63526 10.2144 9.82371C10.2144 10.0122 10.369 10.1649 10.5574 10.1649C10.7458 10.1649 10.8986 10.0122 10.8986 9.82371C10.8986 9.63521 10.7458 9.48248 10.5574 9.48248Z" fill="#3A485A"/>
<path d="M10.5574 8.02368H10.5538C10.3653 8.02368 10.2144 8.17646 10.2144 8.3649C10.2144 8.55335 10.369 8.70613 10.5574 8.70613C10.7458 8.70613 10.8986 8.55335 10.8986 8.3649C10.8986 8.17641 10.7458 8.02368 10.5574 8.02368Z" fill="#3A485A"/>
<path d="M10.5574 6.56488H10.5538C10.3653 6.56488 10.2144 6.71766 10.2144 6.9061C10.2144 7.09455 10.369 7.24732 10.5574 7.24732C10.7458 7.24732 10.8986 7.09455 10.8986 6.9061C10.8986 6.7177 10.7458 6.56488 10.5574 6.56488Z" fill="#3A485A"/>
<path d="M9.09695 5.10608H9.09331C8.90486 5.10608 8.75391 5.25886 8.75391 5.4473C8.75391 5.63575 8.9085 5.78852 9.09695 5.78852C9.28539 5.78852 9.43817 5.63575 9.43817 5.4473C9.43817 5.2589 9.28539 5.10608 9.09695 5.10608Z" fill="#3A485A"/>
<path d="M2.5297 12.7646C2.34125 12.7646 2.18848 12.9174 2.18848 13.1058V13.4705C2.18848 13.659 2.34125 13.8117 2.5297 13.8117C2.71814 13.8117 2.87092 13.659 2.87092 13.4705V13.1058C2.87092 12.9174 2.71814 12.7646 2.5297 12.7646Z" fill="#3A485A"/>
<path d="M3.98795 12.7646C3.79951 12.7646 3.64673 12.9174 3.64673 13.1058V13.4705C3.64673 13.659 3.79951 13.8117 3.98795 13.8117C4.1764 13.8117 4.32917 13.659 4.32917 13.4705V13.1058C4.32917 12.9174 4.1764 12.7646 3.98795 12.7646Z" fill="#3A485A"/>
<path d="M5.4462 12.7646C5.25776 12.7646 5.10498 12.9174 5.10498 13.1058V13.4705C5.10498 13.659 5.25776 13.8117 5.4462 13.8117C5.63465 13.8117 5.78742 13.659 5.78742 13.4705V13.1058C5.78742 12.9174 5.63465 12.7646 5.4462 12.7646Z" fill="#3A485A"/>
<path d="M2.5297 10.9413C2.34125 10.9413 2.18848 11.0941 2.18848 11.2825V11.6472C2.18848 11.8356 2.34125 11.9884 2.5297 11.9884C2.71814 11.9884 2.87092 11.8356 2.87092 11.6472V11.2825C2.87092 11.0941 2.71814 10.9413 2.5297 10.9413Z" fill="#3A485A"/>
<path d="M3.98795 10.9413C3.79951 10.9413 3.64673 11.0941 3.64673 11.2825V11.6472C3.64673 11.8356 3.79951 11.9884 3.98795 11.9884C4.1764 11.9884 4.32917 11.8356 4.32917 11.6472V11.2825C4.32917 11.0941 4.1764 10.9413 3.98795 10.9413Z" fill="#3A485A"/>
<path d="M5.4462 10.9413C5.25776 10.9413 5.10498 11.0941 5.10498 11.2825V11.6472C5.10498 11.8356 5.25776 11.9884 5.4462 11.9884C5.63465 11.9884 5.78742 11.8356 5.78742 11.6472V11.2825C5.78742 11.0941 5.63465 10.9413 5.4462 10.9413Z" fill="#3A485A"/>
<path d="M9.82316 12.3995C9.63471 12.3995 9.48193 12.5523 9.48193 12.7407V13.1054C9.48193 13.2938 9.63471 13.4466 9.82316 13.4466C10.0116 13.4466 10.1644 13.2938 10.1644 13.1054V12.7407C10.1644 12.5522 10.0116 12.3995 9.82316 12.3995Z" fill="#3A485A"/>
<path d="M11.2814 12.3995C11.093 12.3995 10.9402 12.5523 10.9402 12.7407V13.1054C10.9402 13.2938 11.093 13.4466 11.2814 13.4466C11.4699 13.4466 11.6226 13.2938 11.6226 13.1054V12.7407C11.6226 12.5522 11.4699 12.3995 11.2814 12.3995Z" fill="#3A485A"/>
</svg>
