<svg width="24" height="24" viewBox="0 0 24 24" fill="none" xmlns="http://www.w3.org/2000/svg">
<path d="M23.5862 21.5172H23.1724V10.3448C23.1724 10.2351 23.1288 10.1298 23.0512 10.0522C22.9736 9.97463 22.8684 9.93104 22.7586 9.93104H20.2759V2.06897C20.2759 1.95922 20.2323 1.85397 20.1547 1.77637C20.0771 1.69877 19.9718 1.65517 19.8621 1.65517H17.3793V0.413793C17.3793 0.304048 17.3357 0.198798 17.2581 0.121197C17.1805 0.0435959 17.0753 0 16.9655 0H7.03448C6.92474 0 6.81949 0.0435959 6.74189 0.121197C6.66429 0.198798 6.62069 0.304048 6.62069 0.413793V1.65517H4.13793C4.02819 1.65517 3.92294 1.69877 3.84534 1.77637C3.76773 1.85397 3.72414 1.95922 3.72414 2.06897V9.93104H1.24138C1.13163 9.93104 1.02638 9.97463 0.948784 10.0522C0.871182 10.1298 0.827586 10.2351 0.827586 10.3448V21.5172H0.413793C0.304048 21.5172 0.198798 21.5608 0.121197 21.6384C0.0435959 21.716 0 21.8213 0 21.931V23.5862C0 23.696 0.0435959 23.8012 0.121197 23.8788C0.198798 23.9564 0.304048 24 0.413793 24H23.5862C23.696 24 23.8012 23.9564 23.8788 23.8788C23.9564 23.8012 24 23.696 24 23.5862V21.931C24 21.8213 23.9564 21.716 23.8788 21.6384C23.8012 21.5608 23.696 21.5172 23.5862 21.5172ZM22.3448 10.7586V21.5172H20.2759V10.7586H22.3448ZM7.44828 0.827586H16.5517V1.65517H7.44828V0.827586ZM4.55172 2.48276H19.4483V21.5172H18.6207V17.7931C18.6207 17.6834 18.5771 17.5781 18.4995 17.5005C18.4219 17.4229 18.3166 17.3793 18.2069 17.3793H13.2414C13.1316 17.3793 13.0264 17.4229 12.9488 17.5005C12.8712 17.5781 12.8276 17.6834 12.8276 17.7931V21.5172H11.1724V17.7931C11.1724 17.6834 11.1288 17.5781 11.0512 17.5005C10.9736 17.4229 10.8684 17.3793 10.7586 17.3793H5.7931C5.68336 17.3793 5.57811 17.4229 5.50051 17.5005C5.42291 17.5781 5.37931 17.6834 5.37931 17.7931V21.5172H4.55172V2.48276ZM15.3103 21.5172H13.6552V18.2069H15.3103V21.5172ZM16.1379 18.2069H17.7931V21.5172H16.1379V18.2069ZM7.86207 21.5172H6.2069V18.2069H7.86207V21.5172ZM8.68966 18.2069H10.3448V21.5172H8.68966V18.2069ZM1.65517 10.7586H3.72414V21.5172H1.65517V10.7586ZM23.1724 23.1724H0.827586V22.3448H23.1724V23.1724Z" fill="#818C9B"/>
<path d="M5.79307 16.5519H18.2069C18.3166 16.5519 18.4219 16.5083 18.4995 16.4307C18.5771 16.3531 18.6207 16.2479 18.6207 16.1381V3.72434C18.6207 3.6146 18.5771 3.50935 18.4995 3.43174C18.4219 3.35414 18.3166 3.31055 18.2069 3.31055H5.79307C5.68332 3.31055 5.57807 3.35414 5.50047 3.43174C5.42287 3.50935 5.37927 3.6146 5.37927 3.72434V16.1381C5.37927 16.2479 5.42287 16.3531 5.50047 16.4307C5.57807 16.5083 5.68332 16.5519 5.79307 16.5519ZM6.20686 11.5864H7.86203V13.2416H6.20686V11.5864ZM6.20686 9.10365H7.86203V10.7588H6.20686V9.10365ZM17.7931 10.7588H16.1379V9.10365H17.7931V10.7588ZM15.3103 10.7588H13.6551V9.10365H15.3103V10.7588ZM12.8275 10.7588H11.1724V9.10365H12.8275V10.7588ZM10.3448 10.7588H8.68962V9.10365H10.3448V10.7588ZM8.68962 11.5864H10.3448V13.2416H8.68962V11.5864ZM11.1724 11.5864H12.8275V13.2416H11.1724V11.5864ZM13.6551 11.5864H15.3103V13.2416H13.6551V11.5864ZM16.1379 11.5864H17.7931V13.2416H16.1379V11.5864ZM17.7931 8.27606H16.1379V6.62089H17.7931V8.27606ZM15.3103 8.27606H13.6551V6.62089H15.3103V8.27606ZM12.8275 8.27606H11.1724V6.62089H12.8275V8.27606ZM10.3448 8.27606H8.68962V6.62089H10.3448V8.27606ZM7.86203 8.27606H6.20686V6.62089H7.86203V8.27606ZM6.20686 14.0692H7.86203V15.7243H6.20686V14.0692ZM8.68962 14.0692H10.3448V15.7243H8.68962V14.0692ZM11.1724 14.0692H12.8275V15.7243H11.1724V14.0692ZM13.6551 14.0692H15.3103V15.7243H13.6551V14.0692ZM17.7931 15.7243H16.1379V14.0692H17.7931V15.7243ZM17.7931 5.79331H16.1379V4.13813H17.7931V5.79331ZM15.3103 5.79331H13.6551V4.13813H15.3103V5.79331ZM12.8275 5.79331H11.1724V4.13813H12.8275V5.79331ZM10.3448 5.79331H8.68962V4.13813H10.3448V5.79331ZM6.20686 4.13813H7.86203V5.79331H6.20686V4.13813Z" fill="#818C9B"/>
</svg>
