<svg width="101" height="24" viewBox="0 0 101 24" fill="none" xmlns="http://www.w3.org/2000/svg">
<path d="M0 4C0 1.79086 1.79086 0 4 0H97C99.2091 0 101 1.79086 101 4V20C101 22.2091 99.2091 24 97 24H4C1.79086 24 0 22.2091 0 20V4Z" fill="#26BF6C"/>
<path d="M18.8711 13.0674C18.7568 14.0449 18.395 14.8003 17.7856 15.3335C17.1805 15.8625 16.3743 16.127 15.3672 16.127C14.2754 16.127 13.3994 15.7355 12.7393 14.9526C12.0833 14.1698 11.7554 13.1224 11.7554 11.8105V10.9219C11.7554 10.0628 11.9077 9.30745 12.2124 8.65576C12.5213 8.00407 12.9572 7.50472 13.52 7.15771C14.0828 6.80648 14.7345 6.63086 15.4751 6.63086C16.4569 6.63086 17.244 6.90592 17.8364 7.45605C18.4289 8.00195 18.7738 8.75944 18.8711 9.72852H17.646C17.5402 8.99219 17.3096 8.45898 16.9541 8.12891C16.6029 7.79883 16.1099 7.63379 15.4751 7.63379C14.6965 7.63379 14.085 7.92155 13.6406 8.49707C13.2005 9.07259 12.9805 9.89144 12.9805 10.9536V11.8486C12.9805 12.8516 13.1899 13.6493 13.6089 14.2417C14.0278 14.8341 14.6139 15.1304 15.3672 15.1304C16.0443 15.1304 16.5627 14.978 16.9224 14.6733C17.2863 14.3644 17.5275 13.8291 17.646 13.0674H18.8711ZM20.0454 12.5024C20.0454 11.8296 20.1766 11.2244 20.439 10.687C20.7056 10.1496 21.0737 9.73486 21.5435 9.44287C22.0174 9.15088 22.557 9.00488 23.1621 9.00488C24.0973 9.00488 24.8527 9.32861 25.4282 9.97607C26.008 10.6235 26.2979 11.4847 26.2979 12.5596V12.6421C26.2979 13.3107 26.1688 13.9116 25.9106 14.4448C25.6567 14.9738 25.2907 15.3864 24.8125 15.6826C24.3385 15.9788 23.7926 16.127 23.1748 16.127C22.2438 16.127 21.4884 15.8032 20.9087 15.1558C20.3332 14.5083 20.0454 13.6514 20.0454 12.585V12.5024ZM21.2261 12.6421C21.2261 13.4038 21.4017 14.0153 21.7529 14.4766C22.1084 14.9378 22.5824 15.1685 23.1748 15.1685C23.7715 15.1685 24.2454 14.9357 24.5967 14.4702C24.9479 14.0005 25.1235 13.3446 25.1235 12.5024C25.1235 11.7492 24.9437 11.1398 24.584 10.6743C24.2285 10.2046 23.7546 9.96973 23.1621 9.96973C22.5824 9.96973 22.1147 10.2004 21.7593 10.6616C21.4038 11.1229 21.2261 11.783 21.2261 12.6421ZM28.875 9.13184L28.9067 9.89355C29.4103 9.30111 30.0895 9.00488 30.9443 9.00488C31.9049 9.00488 32.5588 9.37305 32.9058 10.1094C33.1343 9.7793 33.4305 9.5127 33.7944 9.30957C34.1626 9.10645 34.5964 9.00488 35.0957 9.00488C36.6022 9.00488 37.3682 9.80257 37.3936 11.3979V16H36.2192V11.4678C36.2192 10.9769 36.1071 10.6108 35.8828 10.3696C35.6585 10.1242 35.2819 10.0015 34.7529 10.0015C34.3171 10.0015 33.9552 10.1326 33.6675 10.395C33.3797 10.6532 33.2126 11.0023 33.166 11.4424V16H31.9854V11.4995C31.9854 10.5008 31.4966 10.0015 30.519 10.0015C29.7489 10.0015 29.222 10.3294 28.9385 10.9854V16H27.7642V9.13184H28.875ZM44.9727 12.6421C44.9727 13.6873 44.7336 14.5295 44.2554 15.1685C43.7772 15.8075 43.1297 16.127 42.313 16.127C41.4793 16.127 40.8234 15.8625 40.3452 15.3335V18.6406H39.1709V9.13184H40.2437L40.3008 9.89355C40.779 9.30111 41.4434 9.00488 42.2939 9.00488C43.1191 9.00488 43.7708 9.31592 44.249 9.93799C44.7314 10.5601 44.9727 11.4255 44.9727 12.5342V12.6421ZM43.7983 12.5088C43.7983 11.7344 43.6333 11.1229 43.3032 10.6743C42.9731 10.2257 42.5203 10.0015 41.9448 10.0015C41.2339 10.0015 40.7007 10.3167 40.3452 10.9473V14.229C40.6965 14.8553 41.2339 15.1685 41.9575 15.1685C42.5203 15.1685 42.9668 14.9463 43.2969 14.502C43.6312 14.0534 43.7983 13.389 43.7983 12.5088ZM47.7466 16H46.5723V6.25H47.7466V16ZM52.4819 16.127C51.5509 16.127 50.7935 15.8223 50.2095 15.2129C49.6255 14.5993 49.3335 13.7804 49.3335 12.7563V12.5405C49.3335 11.8592 49.4626 11.252 49.7207 10.7188C49.9831 10.1813 50.347 9.76237 50.8125 9.46191C51.2822 9.15723 51.79 9.00488 52.3359 9.00488C53.2288 9.00488 53.9229 9.29899 54.418 9.88721C54.9131 10.4754 55.1606 11.3175 55.1606 12.4136V12.9023H50.5078C50.5247 13.5794 50.7215 14.1274 51.0981 14.5464C51.479 14.9611 51.9614 15.1685 52.5454 15.1685C52.9601 15.1685 53.3114 15.0838 53.5991 14.9146C53.8869 14.7453 54.1387 14.521 54.3545 14.2417L55.0718 14.8003C54.4963 15.6847 53.633 16.127 52.4819 16.127ZM52.3359 9.96973C51.862 9.96973 51.4642 10.1432 51.1426 10.4902C50.821 10.833 50.6221 11.3154 50.5459 11.9375H53.9863V11.8486C53.9525 11.252 53.7917 10.7907 53.5039 10.4648C53.2161 10.1348 52.8268 9.96973 52.3359 9.96973ZM58.1187 7.46875V9.13184H59.4009V10.0396H58.1187V14.2988C58.1187 14.5739 58.1758 14.7812 58.29 14.9209C58.4043 15.0563 58.599 15.124 58.874 15.124C59.0094 15.124 59.1956 15.0986 59.4326 15.0479V16C59.1237 16.0846 58.8232 16.127 58.5312 16.127C58.0065 16.127 57.6108 15.9683 57.3442 15.6509C57.0776 15.3335 56.9443 14.8828 56.9443 14.2988V10.0396H55.6938V9.13184H56.9443V7.46875H58.1187ZM63.6284 16.127C62.6974 16.127 61.9399 15.8223 61.356 15.2129C60.772 14.5993 60.48 13.7804 60.48 12.7563V12.5405C60.48 11.8592 60.609 11.252 60.8672 10.7188C61.1296 10.1813 61.4935 9.76237 61.959 9.46191C62.4287 9.15723 62.9365 9.00488 63.4824 9.00488C64.3753 9.00488 65.0693 9.29899 65.5645 9.88721C66.0596 10.4754 66.3071 11.3175 66.3071 12.4136V12.9023H61.6543C61.6712 13.5794 61.868 14.1274 62.2446 14.5464C62.6255 14.9611 63.1079 15.1685 63.6919 15.1685C64.1066 15.1685 64.4578 15.0838 64.7456 14.9146C65.0334 14.7453 65.2852 14.521 65.501 14.2417L66.2183 14.8003C65.6427 15.6847 64.7795 16.127 63.6284 16.127ZM63.4824 9.96973C63.0085 9.96973 62.6107 10.1432 62.2891 10.4902C61.9674 10.833 61.7686 11.3154 61.6924 11.9375H65.1328V11.8486C65.099 11.252 64.9382 10.7907 64.6504 10.4648C64.3626 10.1348 63.9733 9.96973 63.4824 9.96973Z" fill="#F7F8FC"/>
<path fill-rule="evenodd" clip-rule="evenodd" d="M89 12C89 13.8565 88.2625 15.637 86.9497 16.9497C85.637 18.2625 83.8565 19 82 19C80.1435 19 78.363 18.2625 77.0503 16.9497C75.7375 15.637 75 13.8565 75 12C75 10.1435 75.7375 8.36301 77.0503 7.05025C78.363 5.7375 80.1435 5 82 5C83.8565 5 85.637 5.7375 86.9497 7.05025C88.2625 8.36301 89 10.1435 89 12ZM85.5262 9.34875C85.4637 9.28647 85.3893 9.23743 85.3074 9.20456C85.2256 9.1717 85.1379 9.15569 85.0497 9.15749C84.9614 9.15928 84.8745 9.17885 84.794 9.21502C84.7135 9.25119 84.6412 9.30322 84.5813 9.368L81.5424 13.2399L79.711 11.4076C79.5866 11.2917 79.4221 11.2286 79.252 11.2316C79.082 11.2346 78.9198 11.3035 78.7996 11.4237C78.6793 11.5439 78.6105 11.7062 78.6075 11.8762C78.6045 12.0462 78.6676 12.2107 78.7835 12.3351L81.0987 14.6512C81.1611 14.7135 81.2354 14.7626 81.3171 14.7955C81.3989 14.8284 81.4864 14.8446 81.5745 14.8429C81.6626 14.8413 81.7495 14.8219 81.83 14.786C81.9104 14.7501 81.9829 14.6983 82.0429 14.6337L85.5359 10.2675C85.655 10.1437 85.7207 9.97812 85.7191 9.80634C85.7175 9.63456 85.6485 9.47027 85.5271 9.34875H85.5262Z" fill="white"/>
</svg>
