<svg width="24" height="24" viewBox="0 0 24 24" fill="none" xmlns="http://www.w3.org/2000/svg">
<path d="M23.5862 21.5172H23.1724V10.3448C23.1724 10.2351 23.1288 10.1298 23.0512 10.0522C22.9736 9.97463 22.8684 9.93104 22.7586 9.93104H20.2759V2.06897C20.2759 1.95922 20.2323 1.85397 20.1547 1.77637C20.0771 1.69877 19.9718 1.65517 19.8621 1.65517H17.3793V0.413793C17.3793 0.304048 17.3357 0.198798 17.2581 0.121197C17.1805 0.0435959 17.0753 0 16.9655 0H7.03448C6.92474 0 6.81949 0.0435959 6.74189 0.121197C6.66429 0.198798 6.62069 0.304048 6.62069 0.413793V1.65517H4.13793C4.02819 1.65517 3.92294 1.69877 3.84534 1.77637C3.76773 1.85397 3.72414 1.95922 3.72414 2.06897V9.93104H1.24138C1.13163 9.93104 1.02638 9.97463 0.948784 10.0522C0.871182 10.1298 0.827586 10.2351 0.827586 10.3448V21.5172H0.413793C0.304048 21.5172 0.198798 21.5608 0.121197 21.6384C0.0435959 21.716 0 21.8213 0 21.931V23.5862C0 23.696 0.0435959 23.8012 0.121197 23.8788C0.198798 23.9564 0.304048 24 0.413793 24H23.5862C23.696 24 23.8012 23.9564 23.8788 23.8788C23.9564 23.8012 24 23.696 24 23.5862V21.931C24 21.8213 23.9564 21.716 23.8788 21.6384C23.8012 21.5608 23.696 21.5172 23.5862 21.5172ZM22.3448 10.7586V21.5172H20.2759V10.7586H22.3448ZM7.44828 0.827586H16.5517V1.65517H7.44828V0.827586ZM4.55172 2.48276H19.4483V21.5172H18.6207V17.7931C18.6207 17.6834 18.5771 17.5781 18.4995 17.5005C18.4219 17.4229 18.3166 17.3793 18.2069 17.3793H13.2414C13.1316 17.3793 13.0264 17.4229 12.9488 17.5005C12.8712 17.5781 12.8276 17.6834 12.8276 17.7931V21.5172H11.1724V17.7931C11.1724 17.6834 11.1288 17.5781 11.0512 17.5005C10.9736 17.4229 10.8684 17.3793 10.7586 17.3793H5.7931C5.68336 17.3793 5.57811 17.4229 5.50051 17.5005C5.42291 17.5781 5.37931 17.6834 5.37931 17.7931V21.5172H4.55172V2.48276ZM15.3103 21.5172H13.6552V18.2069H15.3103V21.5172ZM16.1379 18.2069H17.7931V21.5172H16.1379V18.2069ZM7.86207 21.5172H6.2069V18.2069H7.86207V21.5172ZM8.68966 18.2069H10.3448V21.5172H8.68966V18.2069ZM1.65517 10.7586H3.72414V21.5172H1.65517V10.7586ZM23.1724 23.1724H0.827586V22.3448H23.1724V23.1724Z" fill="white"/>
<path d="M5.79294 16.5517H18.2067C18.3165 16.5517 18.4217 16.5081 18.4993 16.4305C18.5769 16.3529 18.6205 16.2476 18.6205 16.1379V3.7241C18.6205 3.61435 18.5769 3.5091 18.4993 3.4315C18.4217 3.3539 18.3165 3.3103 18.2067 3.3103H5.79294C5.6832 3.3103 5.57795 3.3539 5.50035 3.4315C5.42275 3.5091 5.37915 3.61435 5.37915 3.7241V16.1379C5.37915 16.2476 5.42275 16.3529 5.50035 16.4305C5.57795 16.5081 5.6832 16.5517 5.79294 16.5517ZM6.20674 11.5862H7.86191V13.2413H6.20674V11.5862ZM6.20674 9.10341H7.86191V10.7586H6.20674V9.10341ZM17.7929 10.7586H16.1378V9.10341H17.7929V10.7586ZM15.3102 10.7586H13.655V9.10341H15.3102V10.7586ZM12.8274 10.7586H11.1723V9.10341H12.8274V10.7586ZM10.3447 10.7586H8.6895V9.10341H10.3447V10.7586ZM8.6895 11.5862H10.3447V13.2413H8.6895V11.5862ZM11.1723 11.5862H12.8274V13.2413H11.1723V11.5862ZM13.655 11.5862H15.3102V13.2413H13.655V11.5862ZM16.1378 11.5862H17.7929V13.2413H16.1378V11.5862ZM17.7929 8.27582H16.1378V6.62065H17.7929V8.27582ZM15.3102 8.27582H13.655V6.62065H15.3102V8.27582ZM12.8274 8.27582H11.1723V6.62065H12.8274V8.27582ZM10.3447 8.27582H8.6895V6.62065H10.3447V8.27582ZM7.86191 8.27582H6.20674V6.62065H7.86191V8.27582ZM6.20674 14.0689H7.86191V15.7241H6.20674V14.0689ZM8.6895 14.0689H10.3447V15.7241H8.6895V14.0689ZM11.1723 14.0689H12.8274V15.7241H11.1723V14.0689ZM13.655 14.0689H15.3102V15.7241H13.655V14.0689ZM17.7929 15.7241H16.1378V14.0689H17.7929V15.7241ZM17.7929 5.79306H16.1378V4.13789H17.7929V5.79306ZM15.3102 5.79306H13.655V4.13789H15.3102V5.79306ZM12.8274 5.79306H11.1723V4.13789H12.8274V5.79306ZM10.3447 5.79306H8.6895V4.13789H10.3447V5.79306ZM6.20674 4.13789H7.86191V5.79306H6.20674V4.13789Z" fill="white"/>
</svg>
