<svg width="24" height="24" viewBox="0 0 24 24" fill="none" xmlns="http://www.w3.org/2000/svg">
<path d="M6.80034 13.1997C6.13882 13.1997 5.60034 13.7382 5.60034 14.3997C5.60034 15.0612 6.13882 15.5997 6.80034 15.5997C7.46186 15.5997 8.00034 15.0612 8.00034 14.3997C8.00034 13.7382 7.46186 13.1997 6.80034 13.1997ZM6.80034 14.7997C6.58003 14.7997 6.40034 14.6204 6.40034 14.3997C6.40034 14.179 6.58003 13.9997 6.80034 13.9997C7.02065 13.9997 7.20034 14.179 7.20034 14.3997C7.20034 14.6204 7.02065 14.7997 6.80034 14.7997Z" fill="#818C9B"/>
<path d="M2.00043 22.3999H11.6004C11.8211 22.3999 12.0004 22.2211 12.0004 21.9999V20.3999C12.0004 20.1786 11.8211 19.9999 11.6004 19.9999H11.2004V16.7999H11.6004C11.762 16.7999 11.908 16.7026 11.97 16.553C12.0321 16.4034 11.9977 16.2315 11.8832 16.117L7.08324 11.317C6.9268 11.1606 6.67406 11.1606 6.51762 11.317L1.71762 16.117C1.60316 16.2315 1.56879 16.4034 1.6309 16.553C1.69281 16.7026 1.83891 16.7999 2.00043 16.7999H2.40043V19.9999H2.00043C1.77973 19.9999 1.60043 20.1786 1.60043 20.3999V21.9999C1.60043 22.2211 1.77973 22.3999 2.00043 22.3999ZM6.80043 12.1655L10.6348 15.9999H2.96606L6.80043 12.1655ZM10.4004 16.7999V19.9999H9.20043V16.7999H10.4004ZM8.40043 16.7999V19.9999H7.20043V16.7999H8.40043ZM6.40043 16.7999V19.9999H5.20043V16.7999H6.40043ZM4.40043 16.7999V19.9999H3.20043V16.7999H4.40043ZM2.40043 20.7999H11.2004V21.5999H2.40043V20.7999Z" fill="#818C9B"/>
<path d="M17.2 3.6001C16.5385 3.6001 16 4.13857 16 4.8001C16 5.46162 16.5385 6.0001 17.2 6.0001C17.8615 6.0001 18.4 5.46162 18.4 4.8001C18.4 4.13857 17.8615 3.6001 17.2 3.6001ZM17.2 5.2001C16.9797 5.2001 16.8 5.0208 16.8 4.8001C16.8 4.57939 16.9797 4.4001 17.2 4.4001C17.4203 4.4001 17.6 4.57939 17.6 4.8001C17.6 5.0208 17.4203 5.2001 17.2 5.2001Z" fill="#818C9B"/>
<path d="M12.4001 12.7997H22.0001C22.2208 12.7997 22.4001 12.621 22.4001 12.3997V10.7997C22.4001 10.5784 22.2208 10.3997 22.0001 10.3997H21.6001V7.1997H22.0001C22.1616 7.1997 22.3077 7.10243 22.3696 6.95282C22.4317 6.80321 22.3974 6.63134 22.2829 6.51688L17.4829 1.71688C17.3265 1.56044 17.0737 1.56044 16.9173 1.71688L12.1173 6.51688C12.0028 6.63134 11.9684 6.80321 12.0306 6.95282C12.0925 7.10243 12.2386 7.1997 12.4001 7.1997H12.8001V10.3997H12.4001C12.1794 10.3997 12.0001 10.5784 12.0001 10.7997V12.3997C12.0001 12.621 12.1794 12.7997 12.4001 12.7997ZM17.2001 2.56532L21.0345 6.3997H13.3657L17.2001 2.56532ZM20.8001 7.1997V10.3997H19.6001V7.1997H20.8001ZM18.8001 7.1997V10.3997H17.6001V7.1997H18.8001ZM16.8001 7.1997V10.3997H15.6001V7.1997H16.8001ZM14.8001 7.1997V10.3997H13.6001V7.1997H14.8001ZM12.8001 11.1997H21.6001V11.9997H12.8001V11.1997Z" fill="#818C9B"/>
<path d="M23.6 0H0.4C0.179297 0 0 0.178711 0 0.4V23.6C0 23.8213 0.179297 24 0.4 24H23.6C23.8207 24 24 23.8213 24 23.6V0.4C24 0.178711 23.8207 0 23.6 0ZM23.2 23.2H0.8V0.8H23.2V23.2Z" fill="#818C9B"/>
<path d="M1.60034 1.6001H2.40034V2.4001H1.60034V1.6001Z" fill="#818C9B"/>
<path d="M2.79956 2.79974H3.59956V3.59974H2.79956V2.79974Z" fill="#818C9B"/>
<path d="M4.00049 4H4.80049V4.8H4.00049V4Z" fill="#818C9B"/>
<path d="M5.2002 5.2002H6.0002V6.0002H5.2002V5.2002Z" fill="#818C9B"/>
<path d="M6.39941 6.3999H7.19941V7.1999H6.39941V6.3999Z" fill="#818C9B"/>
<path d="M7.99951 6.3999H8.79951V7.1999H7.99951V6.3999Z" fill="#818C9B"/>
<path d="M9.59985 6.3999H10.3999V7.1999H9.59985V6.3999Z" fill="#818C9B"/>
<path d="M9.59985 7.99994H10.3999V8.79994H9.59985V7.99994Z" fill="#818C9B"/>
<path d="M9.59985 9.6001H10.3999V10.4001H9.59985V9.6001Z" fill="#818C9B"/>
<path d="M9.59985 11.2002H10.3999V12.0002H9.59985V11.2002Z" fill="#818C9B"/>
<path d="M10.3999 12.3999H11.1999V13.1999H10.3999V12.3999Z" fill="#818C9B"/>
<path d="M11.6003 13.6001H12.4003V14.4001H11.6003V13.6001Z" fill="#818C9B"/>
<path d="M12.8 14.7998H13.6V15.5998H12.8V14.7998Z" fill="#818C9B"/>
<path d="M13.9998 16H14.7998V16.8H13.9998V16Z" fill="#818C9B"/>
<path d="M15.5999 16H16.3999V16.8H15.5999V16Z" fill="#818C9B"/>
<path d="M17.1997 16H17.9997V16.8H17.1997V16Z" fill="#818C9B"/>
<path d="M18.8 16H19.6001V16.8H18.8V16Z" fill="#818C9B"/>
<path d="M21.2002 21.6H22.0002V22.4H21.2002V21.6Z" fill="#818C9B"/>
<path d="M19.9998 20.4H20.7998V21.2H19.9998V20.4Z" fill="#818C9B"/>
<path d="M19.9998 18.7998H20.7998V19.5998H19.9998V18.7998Z" fill="#818C9B"/>
<path d="M19.9998 17.2002H20.7998V18.0002H19.9998V17.2002Z" fill="#818C9B"/>
</svg>
