<svg width="24" height="27" viewBox="0 0 24 27" fill="none" xmlns="http://www.w3.org/2000/svg">
<path d="M22.1955 2H4.61865C4.1743 2 3.81426 2.36015 3.81426 2.80438V7.44289H2.80438C2.36004 7.44289 2 7.80304 2 8.24728C2 8.69151 2.36004 9.05166 2.80438 9.05166H3.81426V12.8859H2.80438C2.36004 12.8859 2 13.246 2 13.6903C2 14.1345 2.36004 14.4947 2.80438 14.4947H3.81426V18.3288H2.80438C2.36004 18.3288 2 18.6889 2 19.1332C2 19.5774 2.36004 19.9376 2.80438 19.9376H3.81426V24.5761C3.81426 25.0203 4.1743 25.3804 4.61865 25.3804H22.1956C22.64 25.3804 23 25.0203 23 24.5761V2.80438C22.9999 2.36015 22.6399 2 22.1955 2ZM21.3911 23.7717H5.42303V19.9376H6.43291C6.87725 19.9376 7.23729 19.5774 7.23729 19.1332C7.23729 18.6889 6.87725 18.3288 6.43291 18.3288H5.42303V14.4947H6.43291C6.87725 14.4947 7.23729 14.1345 7.23729 13.6903C7.23729 13.246 6.87725 12.8859 6.43291 12.8859H5.42303V9.05166H6.43291C6.87725 9.05166 7.23729 8.69151 7.23729 8.24728C7.23729 7.80304 6.87725 7.44289 6.43291 7.44289H5.42303V3.60877H21.3912V23.7717H21.3911Z" fill="white"/>
<path d="M10.3002 20.0779C10.7446 20.0779 11.1046 19.7178 11.1046 19.2736V17.8835C11.1046 16.9912 11.8307 16.2653 12.723 16.2653H15.263C16.1553 16.2653 16.8814 16.9911 16.8814 17.8835V19.2736C16.8814 19.7178 17.2414 20.0779 17.6858 20.0779C18.13 20.0779 18.4902 19.7178 18.4902 19.2736V17.8835C18.4902 16.1042 17.0425 14.6565 15.263 14.6565H12.723C10.9435 14.6565 9.49585 16.1041 9.49585 17.8835V19.2736C9.49585 19.7178 9.856 20.0779 10.3002 20.0779Z" fill="white"/>
<path d="M13.9824 14.0602C15.8061 14.0602 17.2899 12.5759 17.2899 10.7516C17.2899 8.92712 15.8061 7.44287 13.9824 7.44287C12.1582 7.44287 10.6741 8.92712 10.6741 10.7516C10.6741 12.5759 12.1582 14.0602 13.9824 14.0602ZM13.9824 9.05175C14.9191 9.05175 15.6811 9.8143 15.6811 10.7517C15.6811 11.6889 14.9192 12.4515 13.9824 12.4515C13.0453 12.4515 12.2828 11.6889 12.2828 10.7517C12.2828 9.8143 13.0453 9.05175 13.9824 9.05175Z" fill="white"/>
</svg>
