<svg width="16" height="17" viewBox="0 0 16 17" fill="none" xmlns="http://www.w3.org/2000/svg">
<path d="M6.16663 0.5H1.16663C0.523315 0.5 0 1.02332 0 1.66663V4.66663C0 5.31006 0.523315 5.83337 1.16663 5.83337H6.16663C6.81006 5.83337 7.33337 5.31006 7.33337 4.66663V1.66663C7.33337 1.02332 6.81006 0.5 6.16663 0.5Z" fill="white"/>
<path d="M6.16663 7.1665H1.16663C0.523315 7.1665 0 7.68982 0 8.33325V15.3333C0 15.9766 0.523315 16.4999 1.16663 16.4999H6.16663C6.81006 16.4999 7.33337 15.9766 7.33337 15.3333V8.33325C7.33337 7.68982 6.81006 7.1665 6.16663 7.1665Z" fill="white"/>
<path d="M14.8333 11.1665H9.83325C9.18982 11.1665 8.6665 11.6898 8.6665 12.3333V15.3333C8.6665 15.9766 9.18982 16.4999 9.83325 16.4999H14.8333C15.4766 16.4999 15.9999 15.9766 15.9999 15.3333V12.3333C15.9999 11.6898 15.4766 11.1665 14.8333 11.1665Z" fill="white"/>
<path d="M14.8333 0.5H9.83325C9.18982 0.5 8.6665 1.02332 8.6665 1.66663V8.66663C8.6665 9.31006 9.18982 9.83337 9.83325 9.83337H14.8333C15.4766 9.83337 15.9999 9.31006 15.9999 8.66663V1.66663C15.9999 1.02332 15.4766 0.5 14.8333 0.5V0.5Z" fill="white"/>
</svg>
