<svg width="24" height="24" viewBox="0 0 24 24" fill="none" xmlns="http://www.w3.org/2000/svg">
<path d="M23.136 0.0189051L15.8367 1.73123C15.2716 1.86379 15.1016 2.58851 15.5499 2.95821L17.0131 4.16485L11.9998 10.4507L6.98657 4.16485L8.44975 2.95821C8.89759 2.58889 8.7287 1.86393 8.16297 1.73123L0.863698 0.0189051C0.417126 -0.0859528 -0.00858698 0.258996 0.000131652 0.716817L0.144973 8.32968C0.156129 8.91735 0.842792 9.23197 1.29532 8.85875L2.796 7.62113L8.4843 14.7312V23.2969C8.4843 23.6852 8.7991 24 9.18741 24H14.8123C15.2006 24 15.5154 23.6852 15.5154 23.2969V14.7312L21.2037 7.62113L22.7044 8.85875C23.1579 9.23272 23.8436 8.91617 23.8548 8.32968L23.9996 0.716817C24.0083 0.258855 23.5826 -0.0858122 23.136 0.0189051ZM22.4764 6.84798L21.5478 6.08215C21.2443 5.83194 20.7958 5.87984 20.5514 6.18537L14.2632 14.0453C14.1635 14.1699 14.1092 14.3249 14.1092 14.4845V22.5938H9.89048V14.4845C9.89048 14.3249 9.83615 14.1699 9.7364 14.0453L3.44821 6.18537C3.20217 5.87782 2.75306 5.83376 2.4518 6.08215L1.52327 6.84798L1.42333 1.59463L6.46021 2.7762L5.55821 3.52C5.26211 3.76421 5.2165 4.2008 5.45584 4.50089L11.4501 12.0167C11.7313 12.3693 12.2682 12.3695 12.5495 12.0167L18.5438 4.50089C18.7832 4.2008 18.7376 3.76421 18.4414 3.52L17.5394 2.77615L22.5763 1.59459L22.4764 6.84798Z" fill="#818C9B"/>
</svg>
