<svg width="20" height="20" viewBox="0 0 20 20" fill="none" xmlns="http://www.w3.org/2000/svg">
<g clip-path="url(#clip0)">
<path d="M19.4847 6.29402C18.7994 5.60863 17.6842 5.60867 16.9986 6.29418C16.7877 6.50523 15.4414 7.85262 15.2358 8.05848V3.41508C15.2358 2.94555 15.0529 2.50414 14.7209 2.17215L13.0637 0.514844C12.7317 0.182813 12.2902 0 11.8207 0H1.75922C0.789959 0 0.00140381 0.788555 0.00140381 1.75781V18.2422C0.00140381 19.2114 0.789959 20 1.75922 20H13.478C14.4472 20 15.2358 19.2114 15.2358 18.2422V13.0325L19.4847 8.77996C20.1717 8.09301 20.1718 6.98105 19.4847 6.29402ZM11.7202 1.17188C11.8309 1.17188 12.0442 1.1527 12.235 1.34348L13.8923 3.00078C14.0782 3.18676 14.0639 3.39055 14.0639 3.51562H11.7202V1.17188ZM14.0639 18.2422C14.0639 18.5653 13.8011 18.8281 13.478 18.8281H1.75922C1.43613 18.8281 1.17328 18.5653 1.17328 18.2422V1.75781C1.17328 1.43473 1.43613 1.17188 1.75922 1.17188H10.5483V4.10156C10.5483 4.42516 10.8106 4.6875 11.1342 4.6875H14.0639V9.23137C14.0639 9.23137 12.3352 10.9615 12.3352 10.9616L11.5069 11.7898C11.4426 11.8541 11.3941 11.9326 11.3654 12.0189L10.5367 14.5048C10.4665 14.7154 10.5213 14.9475 10.6782 15.1044C10.8354 15.2616 11.0676 15.3161 11.2779 15.246L13.7638 14.4173C13.8501 14.3886 13.9285 14.3401 13.9928 14.2758L14.0639 14.2047V18.2422ZM12.7498 12.2042L13.5785 13.0328L13.262 13.3493L12.019 13.7636L12.4333 12.5207L12.7498 12.2042ZM14.407 12.204L13.5783 11.3754C14.0196 10.9338 15.9793 8.97234 16.3949 8.55637L17.2236 9.385L14.407 12.204ZM18.6559 7.95148L18.0519 8.55602L17.2232 7.72738L17.8275 7.12266C18.0561 6.89418 18.4277 6.89422 18.6561 7.12266C18.8845 7.35117 18.8857 7.7216 18.6559 7.95148Z" fill="black"/>
<path d="M11.1336 5.85938H2.93048C2.60689 5.85938 2.34454 6.12172 2.34454 6.44531C2.34454 6.76891 2.60689 7.03125 2.93048 7.03125H11.1336C11.4572 7.03125 11.7195 6.76891 11.7195 6.44531C11.7195 6.12172 11.4572 5.85938 11.1336 5.85938Z" fill="black"/>
<path d="M8.78986 8.20312H2.93048C2.60689 8.20312 2.34454 8.46547 2.34454 8.78906C2.34454 9.11266 2.60689 9.375 2.93048 9.375H8.78986C9.11345 9.375 9.37579 9.11266 9.37579 8.78906C9.37579 8.46547 9.11345 8.20312 8.78986 8.20312Z" fill="black"/>
<path d="M8.78986 10.5469H2.93048C2.60689 10.5469 2.34454 10.8092 2.34454 11.1328C2.34454 11.4564 2.60689 11.7188 2.93048 11.7188H8.78986C9.11345 11.7188 9.37579 11.4564 9.37579 11.1328C9.37579 10.8092 9.11345 10.5469 8.78986 10.5469Z" fill="black"/>
<path d="M8.78986 12.8906H2.93048C2.60689 12.8906 2.34454 13.153 2.34454 13.4766C2.34454 13.8002 2.60689 14.0625 2.93048 14.0625H8.78986C9.11345 14.0625 9.37579 13.8002 9.37579 13.4766C9.37579 13.153 9.11345 12.8906 8.78986 12.8906Z" fill="black"/>
<path d="M11.1336 16.4844H7.61798C7.29439 16.4844 7.03204 16.7467 7.03204 17.0703C7.03204 17.3939 7.29439 17.6562 7.61798 17.6562H11.1336C11.4572 17.6562 11.7196 17.3939 11.7196 17.0703C11.7196 16.7467 11.4572 16.4844 11.1336 16.4844Z" fill="black"/>
</g>
<defs>
<clipPath id="clip0">
<rect width="20" height="20" fill="white"/>
</clipPath>
</defs>
</svg>
