<svg width="24" height="24" viewBox="0 0 24 24" fill="none" xmlns="http://www.w3.org/2000/svg">
<path d="M24 11H22.9541C22.7168 8.44014 21.5919 6.04383 19.774 4.22598C17.9562 2.40812 15.5599 1.28316 13 1.04587V0H11V1.04587C8.44014 1.28316 6.04383 2.40812 4.22598 4.22598C2.40812 6.04383 1.28316 8.44014 1.04587 11H0V13H1.04587C1.28316 15.5599 2.40812 17.9562 4.22598 19.774C6.04383 21.5919 8.44014 22.7168 11 22.9541V24H13V22.9541C15.5599 22.7168 17.9562 21.5919 19.774 19.774C21.5919 17.9562 22.7168 15.5599 22.9541 13H24V11ZM13 20.9431V19H11V20.9431C8.97252 20.7134 7.08292 19.8027 5.6401 18.3599C4.19729 16.9171 3.28659 15.0275 3.05687 13H5V11H3.05687C3.28659 8.97252 4.19729 7.08292 5.6401 5.6401C7.08292 4.19729 8.97252 3.28659 11 3.05687V5H13V3.05687C15.0275 3.28659 16.9171 4.19729 18.3599 5.6401C19.8027 7.08292 20.7134 8.97252 20.9431 11H19V13H20.9431C20.7134 15.0275 19.8027 16.9171 18.3599 18.3599C16.9171 19.8027 15.0275 20.7134 13 20.9431Z" fill="white"/>
<path d="M12.001 13.999C11.5681 14.0001 11.1467 13.8596 10.801 13.599L7.00098 10.749V14.999C7.00098 15.2642 7.10633 15.5186 7.29387 15.7061C7.48141 15.8937 7.73576 15.999 8.00098 15.999H16.001C16.2662 15.999 16.5205 15.8937 16.7081 15.7061C16.8956 15.5186 17.001 15.2642 17.001 14.999V10.749L13.201 13.599C12.8553 13.8596 12.4339 14.0001 12.001 13.999Z" fill="white"/>
<path d="M16.001 8.00098H8.00098C7.79109 8.00098 7.58653 8.06701 7.41627 8.18973C7.246 8.31246 7.11866 8.48564 7.05229 8.68475C6.98592 8.88386 6.98388 9.09881 7.04646 9.29914C7.10904 9.49948 7.23307 9.67505 7.40098 9.80098L11.401 12.801C11.5741 12.9308 11.7846 13.001 12.001 13.001C12.2173 13.001 12.4279 12.9308 12.601 12.801L16.601 9.80098C16.7689 9.67505 16.8929 9.49948 16.9555 9.29914C17.0181 9.09881 17.016 8.88386 16.9497 8.68475C16.8833 8.48564 16.756 8.31246 16.5857 8.18973C16.4154 8.06701 16.2109 8.00098 16.001 8.00098Z" fill="white"/>
</svg>
