<svg width="160" height="41" viewBox="0 0 160 41" fill="none" xmlns="http://www.w3.org/2000/svg">
<path d="M0 6C0 2.68629 2.68629 0 6 0H154C157.314 0 160 2.68629 160 6V35C160 38.3137 157.314 41 154 41H6C2.6863 41 0 38.3137 0 35V6Z" fill="#3062FF"/>
<path d="M65.1553 26V16.0469H67.9648C68.8307 16.0469 69.5964 16.2383 70.2617 16.6211C70.9271 17.0039 71.4398 17.5485 71.7998 18.2549C72.1644 18.9613 72.349 19.7725 72.3535 20.6885V21.3242C72.3535 22.263 72.1712 23.0856 71.8066 23.792C71.4466 24.4984 70.9294 25.0407 70.2549 25.4189C69.585 25.7972 68.8034 25.9909 67.9102 26H65.1553ZM66.4678 17.127V24.9268H67.8486C68.8604 24.9268 69.6465 24.6123 70.207 23.9834C70.7721 23.3545 71.0547 22.459 71.0547 21.2969V20.7158C71.0547 19.5856 70.7881 18.7083 70.2549 18.084C69.7262 17.4551 68.9743 17.1361 67.999 17.127H66.4678ZM75.5186 26H74.2539V18.6035H75.5186V26ZM74.1514 16.6416C74.1514 16.4365 74.2129 16.2633 74.3359 16.1221C74.4635 15.9808 74.6504 15.9102 74.8965 15.9102C75.1426 15.9102 75.3294 15.9808 75.457 16.1221C75.5846 16.2633 75.6484 16.4365 75.6484 16.6416C75.6484 16.8467 75.5846 17.0176 75.457 17.1543C75.3294 17.291 75.1426 17.3594 74.8965 17.3594C74.6504 17.3594 74.4635 17.291 74.3359 17.1543C74.2129 17.0176 74.1514 16.8467 74.1514 16.6416ZM81.124 19.7383C80.9326 19.7064 80.7253 19.6904 80.502 19.6904C79.6725 19.6904 79.1097 20.0436 78.8135 20.75V26H77.5488V18.6035H78.7793L78.7998 19.458C79.2145 18.7972 79.8024 18.4668 80.5635 18.4668C80.8096 18.4668 80.9964 18.4987 81.124 18.5625V19.7383ZM85.2256 26.1367C84.223 26.1367 83.4072 25.8086 82.7783 25.1523C82.1494 24.4915 81.835 23.6097 81.835 22.5068V22.2744C81.835 21.5407 81.974 20.8867 82.252 20.3125C82.5345 19.7337 82.9264 19.2826 83.4277 18.959C83.9336 18.6309 84.4805 18.4668 85.0684 18.4668C86.0299 18.4668 86.7773 18.7835 87.3105 19.417C87.8438 20.0505 88.1104 20.9574 88.1104 22.1377V22.6641H83.0996C83.1178 23.3932 83.3298 23.9834 83.7354 24.4346C84.1455 24.8812 84.665 25.1045 85.2939 25.1045C85.7406 25.1045 86.1188 25.0133 86.4287 24.8311C86.7386 24.6488 87.0098 24.4072 87.2422 24.1064L88.0146 24.708C87.3949 25.6605 86.4652 26.1367 85.2256 26.1367ZM85.0684 19.5059C84.5579 19.5059 84.1296 19.6927 83.7832 20.0664C83.4368 20.4355 83.2227 20.9551 83.1406 21.625H86.8457V21.5293C86.8092 20.8867 86.6361 20.39 86.3262 20.0391C86.0163 19.6836 85.597 19.5059 85.0684 19.5059ZM92.5469 25.1045C92.998 25.1045 93.3923 24.9678 93.7295 24.6943C94.0667 24.4209 94.2536 24.0791 94.29 23.6689H95.4863C95.4635 24.0928 95.3177 24.4961 95.0488 24.8789C94.7799 25.2617 94.4199 25.5671 93.9688 25.7949C93.5221 26.0228 93.0482 26.1367 92.5469 26.1367C91.5397 26.1367 90.7376 25.8018 90.1406 25.1318C89.5482 24.4574 89.252 23.5368 89.252 22.3701V22.1582C89.252 21.4382 89.3841 20.7979 89.6484 20.2373C89.9128 19.6768 90.291 19.2415 90.7832 18.9316C91.2799 18.6217 91.8656 18.4668 92.54 18.4668C93.3695 18.4668 94.0576 18.7152 94.6045 19.2119C95.1559 19.7087 95.4499 20.3535 95.4863 21.1465H94.29C94.2536 20.668 94.0713 20.276 93.7432 19.9707C93.4196 19.6608 93.0186 19.5059 92.54 19.5059C91.8975 19.5059 91.3984 19.7383 91.043 20.2031C90.6921 20.6634 90.5166 21.3311 90.5166 22.2061V22.4453C90.5166 23.2975 90.6921 23.9538 91.043 24.4141C91.3939 24.8743 91.8952 25.1045 92.5469 25.1045ZM98.624 16.8125V18.6035H100.005V19.5811H98.624V24.168C98.624 24.4642 98.6855 24.6875 98.8086 24.8379C98.9316 24.9837 99.1413 25.0566 99.4375 25.0566C99.5833 25.0566 99.7839 25.0293 100.039 24.9746V26C99.7064 26.0911 99.3828 26.1367 99.0684 26.1367C98.5033 26.1367 98.0771 25.9658 97.79 25.624C97.5029 25.2822 97.3594 24.7969 97.3594 24.168V19.5811H96.0127V18.6035H97.3594V16.8125H98.624ZM106.854 16.0469L110.108 24.168L113.362 16.0469H115.064V26H113.752V22.124L113.875 17.9404L110.607 26H109.603L106.342 17.9609L106.472 22.124V26H105.159V16.0469H106.854ZM121.75 26C121.677 25.8542 121.618 25.5944 121.572 25.2207C120.984 25.8314 120.283 26.1367 119.467 26.1367C118.738 26.1367 118.138 25.9316 117.669 25.5215C117.204 25.1068 116.972 24.5827 116.972 23.9492C116.972 23.179 117.263 22.582 117.847 22.1582C118.435 21.7298 119.259 21.5156 120.321 21.5156H121.552V20.9346C121.552 20.4925 121.42 20.1416 121.155 19.8818C120.891 19.6175 120.501 19.4854 119.986 19.4854C119.535 19.4854 119.157 19.5993 118.852 19.8271C118.546 20.055 118.394 20.3307 118.394 20.6543H117.122C117.122 20.2852 117.252 19.9297 117.512 19.5879C117.776 19.2415 118.132 18.9681 118.578 18.7676C119.029 18.5671 119.524 18.4668 120.062 18.4668C120.914 18.4668 121.581 18.681 122.064 19.1094C122.548 19.5332 122.798 20.1188 122.816 20.8662V24.2705C122.816 24.9495 122.903 25.4896 123.076 25.8906V26H121.75ZM119.651 25.0361C120.048 25.0361 120.424 24.9336 120.779 24.7285C121.135 24.5234 121.392 24.2568 121.552 23.9287V22.4111H120.561C119.011 22.4111 118.236 22.8646 118.236 23.7715C118.236 24.168 118.368 24.4779 118.633 24.7012C118.897 24.9245 119.237 25.0361 119.651 25.0361ZM126.173 26H124.908V18.6035H126.173V26ZM124.806 16.6416C124.806 16.4365 124.867 16.2633 124.99 16.1221C125.118 15.9808 125.305 15.9102 125.551 15.9102C125.797 15.9102 125.984 15.9808 126.111 16.1221C126.239 16.2633 126.303 16.4365 126.303 16.6416C126.303 16.8467 126.239 17.0176 126.111 17.1543C125.984 17.291 125.797 17.3594 125.551 17.3594C125.305 17.3594 125.118 17.291 124.99 17.1543C124.867 17.0176 124.806 16.8467 124.806 16.6416ZM129.577 26H128.312V15.5H129.577V26Z" fill="white"/>
<path d="M54 20H52.9541C52.7168 17.4401 51.5919 15.0438 49.774 13.226C47.9562 11.4081 45.5599 10.2832 43 10.0459V9H41V10.0459C38.4401 10.2832 36.0438 11.4081 34.226 13.226C32.4081 15.0438 31.2832 17.4401 31.0459 20H30V22H31.0459C31.2832 24.5599 32.4081 26.9562 34.226 28.774C36.0438 30.5919 38.4401 31.7168 41 31.9541V33H43V31.9541C45.5599 31.7168 47.9562 30.5919 49.774 28.774C51.5919 26.9562 52.7168 24.5599 52.9541 22H54V20ZM43 29.9431V28H41V29.9431C38.9725 29.7134 37.0829 28.8027 35.6401 27.3599C34.1973 25.9171 33.2866 24.0275 33.0569 22H35V20H33.0569C33.2866 17.9725 34.1973 16.0829 35.6401 14.6401C37.0829 13.1973 38.9725 12.2866 41 12.0569V14H43V12.0569C45.0275 12.2866 46.9171 13.1973 48.3599 14.6401C49.8027 16.0829 50.7134 17.9725 50.9431 20H49V22H50.9431C50.7134 24.0275 49.8027 25.9171 48.3599 27.3599C46.9171 28.8027 45.0275 29.7134 43 29.9431Z" fill="white"/>
<path d="M42.0005 22.999C41.5676 23.0001 41.1462 22.8596 40.8005 22.599L37.0005 19.749V23.999C37.0005 24.2642 37.1058 24.5186 37.2934 24.7061C37.4809 24.8937 37.7353 24.999 38.0005 24.999H46.0005C46.2657 24.999 46.5201 24.8937 46.7076 24.7061C46.8951 24.5186 47.0005 24.2642 47.0005 23.999V19.749L43.2005 22.599C42.8548 22.8596 42.4334 23.0001 42.0005 22.999Z" fill="white"/>
<path d="M46.0005 17.001H38.0005C37.7906 17.001 37.586 17.067 37.4158 17.1897C37.2455 17.3125 37.1182 17.4856 37.0518 17.6847C36.9854 17.8839 36.9834 18.0988 37.046 18.2991C37.1086 18.4995 37.2326 18.675 37.4005 18.801L41.4005 21.801C41.5736 21.9308 41.7841 22.001 42.0005 22.001C42.2169 22.001 42.4274 21.9308 42.6005 21.801L46.6005 18.801C46.7684 18.675 46.8924 18.4995 46.955 18.2991C47.0176 18.0988 47.0155 17.8839 46.9492 17.6847C46.8828 17.4856 46.7555 17.3125 46.5852 17.1897C46.4149 17.067 46.2104 17.001 46.0005 17.001Z" fill="white"/>
</svg>
