<svg width="40" height="40" viewBox="0 0 40 40" fill="none" xmlns="http://www.w3.org/2000/svg">
<rect width="40" height="40" rx="20" fill="#F9F9F9"/>
<path d="M30 19.1667H29.1284C28.9307 17.0334 27.9932 15.0365 26.4784 13.5216C24.9635 12.0068 22.9666 11.0693 20.8333 10.8716V10H19.1667V10.8716C17.0334 11.0693 15.0365 12.0068 13.5216 13.5216C12.0068 15.0365 11.0693 17.0334 10.8716 19.1667H10V20.8333H10.8716C11.0693 22.9666 12.0068 24.9635 13.5216 26.4784C15.0365 27.9932 17.0334 28.9307 19.1667 29.1284V30H20.8333V29.1284C22.9666 28.9307 24.9635 27.9932 26.4784 26.4784C27.9932 24.9635 28.9307 22.9666 29.1284 20.8333H30V19.1667ZM20.8333 27.4526V25.8333H19.1667V27.4526C17.4771 27.2612 15.9024 26.5023 14.7001 25.2999C13.4977 24.0976 12.7388 22.5229 12.5474 20.8333H14.1667V19.1667H12.5474C12.7388 17.4771 13.4977 15.9024 14.7001 14.7001C15.9024 13.4977 17.4771 12.7388 19.1667 12.5474V14.1667H20.8333V12.5474C22.5229 12.7388 24.0976 13.4977 25.2999 14.7001C26.5023 15.9024 27.2612 17.4771 27.4526 19.1667H25.8333V20.8333H27.4526C27.2612 22.5229 26.5023 24.0976 25.2999 25.2999C24.0976 26.5023 22.5229 27.2612 20.8333 27.4526Z" fill="#7A9FFF"/>
<path d="M20.0004 21.6659C19.6396 21.6667 19.2885 21.5497 19.0004 21.3325L15.8337 18.9575V22.4992C15.8337 22.7202 15.9215 22.9322 16.0778 23.0884C16.2341 23.2447 16.4461 23.3325 16.6671 23.3325H23.3337C23.5548 23.3325 23.7667 23.2447 23.923 23.0884C24.0793 22.9322 24.1671 22.7202 24.1671 22.4992V18.9575L21.0004 21.3325C20.7123 21.5497 20.3612 21.6667 20.0004 21.6659Z" fill="#7A9FFF"/>
<path d="M23.3337 16.6675H16.6671C16.4922 16.6675 16.3217 16.7225 16.1798 16.8248C16.0379 16.927 15.9318 17.0714 15.8765 17.2373C15.8212 17.4032 15.8195 17.5823 15.8716 17.7493C15.9238 17.9162 16.0272 18.0625 16.1671 18.1675L19.5004 20.6675C19.6447 20.7757 19.8201 20.8341 20.0004 20.8341C20.1807 20.8341 20.3562 20.7757 20.5004 20.6675L23.8337 18.1675C23.9737 18.0625 24.077 17.9162 24.1292 17.7493C24.1813 17.5823 24.1796 17.4032 24.1243 17.2373C24.069 17.0714 23.9629 16.927 23.821 16.8248C23.6791 16.7225 23.5086 16.6675 23.3337 16.6675Z" fill="#7A9FFF"/>
</svg>
