<svg width="20" height="5" viewBox="0 0 20 5" fill="none" xmlns="http://www.w3.org/2000/svg">
<path d="M9.94737 0C8.57961 0 7.46053 1.125 7.46053 2.5C7.46053 3.875 8.57961 5 9.94737 5C11.3151 5 12.4342 3.875 12.4342 2.5C12.4342 1.125 11.3151 0 9.94737 0ZM17.4079 0C16.0401 0 14.9211 1.125 14.9211 2.5C14.9211 3.875 16.0401 5 17.4079 5C18.7757 5 19.8947 3.875 19.8947 2.5C19.8947 1.125 18.7757 0 17.4079 0ZM2.48684 0C1.11908 0 0 1.125 0 2.5C0 3.875 1.11908 5 2.48684 5C3.85461 5 4.97368 3.875 4.97368 2.5C4.97368 1.125 3.85461 0 2.48684 0Z" fill="#8091A9"/>
</svg>
