<svg width="20" height="20" viewBox="0 0 20 20" fill="none" xmlns="http://www.w3.org/2000/svg">
<g clip-path="url(#clip0)">
<path d="M16.2114 8.67174C15.8878 8.67174 15.6255 8.93409 15.6255 9.2577V17.8517C15.6255 18.3902 15.1874 18.8283 14.6489 18.8283H2.1485C1.61001 18.8283 1.17191 18.3902 1.17191 17.8517V5.35132C1.17191 4.81283 1.61001 4.37473 2.1485 4.37473H10.7425C11.0661 4.37473 11.3285 4.11238 11.3285 3.78878C11.3285 3.46517 11.0661 3.20282 10.7425 3.20282H2.1485C0.963819 3.20282 0 4.16664 0 5.35132V17.8517C0 19.0364 0.963819 20.0002 2.1485 20.0002H14.6489C15.8336 20.0002 16.7974 19.0364 16.7974 17.8517V9.2577C16.7974 8.93409 16.535 8.67174 16.2114 8.67174Z" fill="#3062FF"/>
<path d="M19.6002 1.50478L18.4953 0.399859C17.9622 -0.133205 17.0949 -0.133205 16.5617 0.399859L7.72267 9.23896C7.64087 9.32076 7.58513 9.42495 7.56239 9.53839L7.00991 12.3006C6.97151 12.4927 7.03163 12.6913 7.17019 12.8299C7.28117 12.9408 7.43067 13.0015 7.5845 13.0015C7.62275 13.0015 7.66118 12.9978 7.69939 12.9901L10.4616 12.4377C10.5751 12.415 10.6792 12.3592 10.761 12.2774L19.6002 3.43831C19.6002 3.43831 19.6002 3.43831 19.6002 3.43827C20.1333 2.90525 20.1333 2.03788 19.6002 1.50478ZM10.0579 11.3233L8.33148 11.6686L8.6768 9.94223L15.8712 2.74774L17.2523 4.12888L10.0579 11.3233ZM18.7715 2.60965L18.081 3.30022L16.6998 1.91909L17.3904 1.22856C17.4665 1.15238 17.5904 1.15234 17.6666 1.22852L18.7715 2.33343C18.8477 2.40957 18.8477 2.53352 18.7715 2.60965Z" fill="#3062FF"/>
</g>
<defs>
<clipPath id="clip0">
<rect width="20" height="20" fill="white"/>
</clipPath>
</defs>
</svg>
