<svg width="40" height="40" viewBox="0 0 40 40" fill="none" xmlns="http://www.w3.org/2000/svg">
<rect width="40" height="40" rx="20" fill="#F9F9F9"/>
<path d="M28.125 13H11.875C10.8395 13 10 13.8395 10 14.875V26.125C10 27.1605 10.8395 28 11.875 28H28.125C29.1605 28 30 27.1605 30 26.125V14.875C30 13.8395 29.1605 13 28.125 13ZM28.125 14.875V16.4689C27.2491 17.1822 25.8528 18.2913 22.8677 20.6287C22.2098 21.1462 20.9067 22.3893 20 22.3748C19.0934 22.3895 17.7899 21.146 17.1323 20.6287C14.1477 18.2916 12.751 17.1823 11.875 16.4689V14.875H28.125ZM11.875 26.125V18.8749C12.7701 19.5879 14.0394 20.5883 15.9741 22.1033C16.8279 22.7754 18.3231 24.259 20 24.25C21.6686 24.259 23.1449 22.7969 24.0255 22.1036C25.9602 20.5886 27.2299 19.5879 28.125 18.875V26.125H11.875Z" fill="#7A9FFF"/>
</svg>
