<svg width="160" height="41" viewBox="0 0 160 41" fill="none" xmlns="http://www.w3.org/2000/svg">
<path d="M0 6C0 2.68629 2.68629 0 6 0H154C157.314 0 160 2.68629 160 6V35C160 38.3137 157.314 41 154 41H6C2.6863 41 0 38.3137 0 35V6Z" fill="#3062FF"/>
<path d="M86.7812 21.3994H82.4678V24.9268H87.4785V26H81.1553V16.0469H87.4102V17.127H82.4678V20.3262H86.7812V21.3994ZM90.1035 18.6035L90.1377 19.4238C90.68 18.7858 91.4115 18.4668 92.332 18.4668C93.3665 18.4668 94.0706 18.8633 94.4443 19.6562C94.6904 19.3008 95.0094 19.0137 95.4014 18.7949C95.7979 18.5762 96.265 18.4668 96.8027 18.4668C98.4251 18.4668 99.25 19.3258 99.2773 21.0439V26H98.0127V21.1191C98.0127 20.5905 97.8919 20.1963 97.6504 19.9365C97.4089 19.6722 97.0033 19.54 96.4336 19.54C95.9642 19.54 95.5745 19.6813 95.2646 19.9639C94.9548 20.2419 94.7747 20.6178 94.7246 21.0918V26H93.4531V21.1533C93.4531 20.0778 92.9268 19.54 91.874 19.54C91.0446 19.54 90.4772 19.8932 90.1719 20.5996V26H88.9072V18.6035H90.1035ZM105.758 26C105.685 25.8542 105.626 25.5944 105.58 25.2207C104.992 25.8314 104.29 26.1367 103.475 26.1367C102.745 26.1367 102.146 25.9316 101.677 25.5215C101.212 25.1068 100.979 24.5827 100.979 23.9492C100.979 23.179 101.271 22.582 101.854 22.1582C102.442 21.7298 103.267 21.5156 104.329 21.5156H105.56V20.9346C105.56 20.4925 105.427 20.1416 105.163 19.8818C104.899 19.6175 104.509 19.4854 103.994 19.4854C103.543 19.4854 103.165 19.5993 102.859 19.8271C102.554 20.055 102.401 20.3307 102.401 20.6543H101.13C101.13 20.2852 101.26 19.9297 101.52 19.5879C101.784 19.2415 102.139 18.9681 102.586 18.7676C103.037 18.5671 103.532 18.4668 104.069 18.4668C104.922 18.4668 105.589 18.681 106.072 19.1094C106.555 19.5332 106.806 20.1188 106.824 20.8662V24.2705C106.824 24.9495 106.911 25.4896 107.084 25.8906V26H105.758ZM103.659 25.0361C104.056 25.0361 104.432 24.9336 104.787 24.7285C105.143 24.5234 105.4 24.2568 105.56 23.9287V22.4111H104.568C103.019 22.4111 102.244 22.8646 102.244 23.7715C102.244 24.168 102.376 24.4779 102.641 24.7012C102.905 24.9245 103.244 25.0361 103.659 25.0361ZM110.181 26H108.916V18.6035H110.181V26ZM108.813 16.6416C108.813 16.4365 108.875 16.2633 108.998 16.1221C109.126 15.9808 109.312 15.9102 109.559 15.9102C109.805 15.9102 109.992 15.9808 110.119 16.1221C110.247 16.2633 110.311 16.4365 110.311 16.6416C110.311 16.8467 110.247 17.0176 110.119 17.1543C109.992 17.291 109.805 17.3594 109.559 17.3594C109.312 17.3594 109.126 17.291 108.998 17.1543C108.875 17.0176 108.813 16.8467 108.813 16.6416ZM113.585 26H112.32V15.5H113.585V26Z" fill="white"/>
<path d="M67.75 12H48.25C47.0073 12 46 13.0073 46 14.25V27.75C46 28.9927 47.0073 30 48.25 30H67.75C68.9927 30 70 28.9927 70 27.75V14.25C70 13.0073 68.9927 12 67.75 12ZM67.75 14.25V16.1627C66.699 17.0186 65.0234 18.3495 61.4412 21.1545C60.6518 21.7754 59.0881 23.2672 58 23.2498C56.9121 23.2674 55.3479 21.7752 54.5588 21.1545C50.9772 18.3499 49.3012 17.0188 48.25 16.1627V14.25H67.75ZM48.25 27.75V19.0499C49.3241 19.9054 50.8473 21.1059 53.169 22.9239C54.1935 23.7304 55.9878 25.5108 58 25.5C60.0024 25.5108 61.7739 23.7563 62.8306 22.9243C65.1522 21.1064 66.6759 19.9055 67.75 19.05V27.75H48.25Z" fill="white"/>
</svg>
