<svg width="18" height="22" viewBox="0 0 18 22" fill="none" xmlns="http://www.w3.org/2000/svg">
<path d="M5.20166 9.54606C5.39603 10.8095 6.37233 12.4175 7.97594 12.983C8.63417 13.2127 9.35424 13.2171 10.0125 12.9786C11.5896 12.4087 12.5968 10.8051 12.7956 9.54606C13.0076 9.52839 13.2859 9.2324 13.5863 8.16775C13.9972 6.71435 13.5598 6.49788 13.1888 6.53322C13.2594 6.33443 13.3125 6.13122 13.3478 5.93684C13.9751 2.16859 12.1197 2.04048 12.1197 2.04048C12.1197 2.04048 11.8105 1.44851 11.002 1.00233C10.4587 0.679842 9.70324 0.432454 8.70927 0.516389C8.38678 0.529642 8.08196 0.595906 7.79482 0.688677C7.42815 0.812371 7.09241 0.993495 6.78759 1.20554C6.41651 1.43968 6.0631 1.73124 5.75386 2.06256C5.2635 2.56618 4.82616 3.21557 4.6362 4.024C4.47716 4.62922 4.51251 5.26094 4.64504 5.94126C4.68038 6.14005 4.73339 6.33885 4.80407 6.53764C4.43299 6.5023 3.99564 6.71876 4.40648 8.17217C4.7113 9.2324 4.98961 9.52839 5.20166 9.54606Z" fill="white"/>
<path d="M16.2855 14.4894C14.0281 13.9151 12.1947 12.6251 12.1947 12.6251L10.7634 17.1532L10.4939 18.0058L10.4895 17.9926L10.2554 18.7171L9.49996 16.5745C11.3554 13.9858 9.12446 14.0123 9.00077 14.0167C8.87708 14.0123 6.64616 13.9858 8.50158 16.5745L7.74616 18.7171L7.51202 17.9926L7.50761 18.0058L7.23813 17.1532L5.8024 12.6251C5.8024 12.6251 3.96907 13.9151 1.71166 14.4894C0.0285329 14.9179 -0.0509847 16.8616 0.01528 17.8203C0.01528 17.8203 0.112468 19.1235 0.209656 19.6978C0.209656 19.6978 3.49638 21.8315 9.00077 21.8359C14.5052 21.8359 17.7919 19.6978 17.7919 19.6978C17.8891 19.1235 17.9863 17.8203 17.9863 17.8203C18.0481 16.8616 17.9686 14.9179 16.2855 14.4894Z" fill="white"/>
</svg>
