<svg width="26" height="24" viewBox="0 0 26 24" fill="none" xmlns="http://www.w3.org/2000/svg">
<g clip-path="url(#clip0)">
<path d="M13.2619 18.5H10.6096C10.3167 18.5 10.0791 18.276 10.0791 18C10.0791 17.724 10.3167 17.5 10.6096 17.5H13.2619C13.8475 17.5 14.3228 17.052 14.3228 16.5C14.3228 15.948 13.8475 15.5 13.2619 15.5H12.201C11.0308 15.5 10.0791 14.603 10.0791 13.5C10.0791 12.397 11.0308 11.5 12.201 11.5H14.8533C15.1461 11.5 15.3837 11.724 15.3837 12C15.3837 12.276 15.1461 12.5 14.8533 12.5H12.201C11.6153 12.5 11.14 12.948 11.14 13.5C11.14 14.052 11.6153 14.5 12.201 14.5H13.2619C14.4321 14.5 15.3837 15.397 15.3837 16.5C15.3837 17.603 14.4321 18.5 13.2619 18.5Z" fill="white"/>
<path d="M12.7311 20C12.4383 20 12.2007 19.776 12.2007 19.5V18C12.2007 17.724 12.4383 17.5 12.7311 17.5C13.024 17.5 13.2616 17.724 13.2616 18V19.5C13.2616 19.776 13.024 20 12.7311 20Z" fill="white"/>
<path d="M12.7311 12.5C12.4383 12.5 12.2007 12.276 12.2007 12V10.5C12.2007 10.224 12.4383 10 12.7311 10C13.024 10 13.2616 10.224 13.2616 10.5V12C13.2616 12.276 13.024 12.5 12.7311 12.5Z" fill="white"/>
<path d="M24.9318 8.99806H0.530464C0.237648 8.99806 0 8.77406 0 8.49806V6.99806C0 6.81706 0.10291 6.65106 0.269476 6.56206L12.4701 0.0620586C12.6314 -0.0239414 12.8309 -0.0239414 12.9921 0.0620586L25.1928 6.56206C25.3593 6.65106 25.4623 6.81706 25.4623 6.99806V8.49806C25.4623 8.77406 25.2246 8.99806 24.9318 8.99806ZM1.06093 7.99806H24.4013V7.29006L12.7311 1.07206L1.06093 7.29006V7.99806Z" fill="white"/>
<path d="M24.9318 24H0.530464C0.237648 24 0 23.776 0 23.5V21.5C0 21.224 0.237648 21 0.530464 21H24.9318C25.2246 21 25.4623 21.224 25.4623 21.5V23.5C25.4623 23.776 25.2246 24 24.9318 24ZM1.06093 23H24.4013V22H1.06093V23Z" fill="white"/>
<path d="M2.65253 22C2.35972 22 2.12207 21.776 2.12207 21.5V8.5C2.12207 8.224 2.35972 8 2.65253 8C2.94535 8 3.183 8.224 3.183 8.5V21.5C3.183 21.776 2.94535 22 2.65253 22Z" fill="white"/>
<path d="M5.83515 22C5.54234 22 5.30469 21.776 5.30469 21.5V8.5C5.30469 8.224 5.54234 8 5.83515 8C6.12797 8 6.36561 8.224 6.36561 8.5V21.5C6.36561 21.776 6.12797 22 5.83515 22Z" fill="white"/>
<path d="M19.6271 22C19.3343 22 19.0967 21.776 19.0967 21.5V8.5C19.0967 8.224 19.3343 8 19.6271 8C19.92 8 20.1576 8.224 20.1576 8.5V21.5C20.1576 21.776 19.92 22 19.6271 22Z" fill="white"/>
<path d="M22.8098 22C22.5169 22 22.2793 21.776 22.2793 21.5V8.5C22.2793 8.224 22.5169 8 22.8098 8C23.1026 8 23.3402 8.224 23.3402 8.5V21.5C23.3402 21.776 23.1026 22 22.8098 22Z" fill="white"/>
</g>
<defs>
<clipPath id="clip0">
<rect width="25.4623" height="24" fill="white"/>
</clipPath>
</defs>
</svg>
