<svg width="160" height="41" viewBox="0 0 160 41" fill="none" xmlns="http://www.w3.org/2000/svg">
<path d="M0 6C0 2.68629 2.68629 0 6 0H154C157.314 0 160 2.68629 160 6V35C160 38.3137 157.314 41 154 41H6C2.6863 41 0 38.3137 0 35V6Z" fill="#3062FF"/>
<path d="M69.6445 21.6045H65.4678V26H64.1553V16.0469H70.3213V17.127H65.4678V20.5312H69.6445V21.6045ZM71.21 22.2334C71.21 21.5088 71.3512 20.8571 71.6338 20.2783C71.9209 19.6995 72.3174 19.2529 72.8232 18.9385C73.3337 18.624 73.9147 18.4668 74.5664 18.4668C75.5736 18.4668 76.387 18.8154 77.0068 19.5127C77.6312 20.21 77.9434 21.1374 77.9434 22.2949V22.3838C77.9434 23.1038 77.8044 23.751 77.5264 24.3252C77.2529 24.8949 76.8587 25.3392 76.3438 25.6582C75.8333 25.9772 75.2454 26.1367 74.5801 26.1367C73.5775 26.1367 72.764 25.7881 72.1396 25.0908C71.5199 24.3936 71.21 23.4707 71.21 22.3223V22.2334ZM72.4814 22.3838C72.4814 23.2041 72.6706 23.8626 73.0488 24.3594C73.4316 24.8561 73.9421 25.1045 74.5801 25.1045C75.2227 25.1045 75.7331 24.8538 76.1113 24.3525C76.4896 23.8467 76.6787 23.1403 76.6787 22.2334C76.6787 21.4222 76.485 20.766 76.0977 20.2646C75.7148 19.7588 75.2044 19.5059 74.5664 19.5059C73.9421 19.5059 73.4385 19.7542 73.0557 20.251C72.6729 20.7477 72.4814 21.4587 72.4814 22.3838ZM80.9033 26H79.6387V15.5H80.9033V26ZM84.3076 26H83.043V15.5H84.3076V26ZM86.0029 22.2334C86.0029 21.5088 86.1442 20.8571 86.4268 20.2783C86.7139 19.6995 87.1104 19.2529 87.6162 18.9385C88.1266 18.624 88.7077 18.4668 89.3594 18.4668C90.3665 18.4668 91.18 18.8154 91.7998 19.5127C92.4242 20.21 92.7363 21.1374 92.7363 22.2949V22.3838C92.7363 23.1038 92.5973 23.751 92.3193 24.3252C92.0459 24.8949 91.6517 25.3392 91.1367 25.6582C90.6263 25.9772 90.0384 26.1367 89.373 26.1367C88.3704 26.1367 87.557 25.7881 86.9326 25.0908C86.3128 24.3936 86.0029 23.4707 86.0029 22.3223V22.2334ZM87.2744 22.3838C87.2744 23.2041 87.4635 23.8626 87.8418 24.3594C88.2246 24.8561 88.735 25.1045 89.373 25.1045C90.0156 25.1045 90.526 24.8538 90.9043 24.3525C91.2826 23.8467 91.4717 23.1403 91.4717 22.2334C91.4717 21.4222 91.278 20.766 90.8906 20.2646C90.5078 19.7588 89.9974 19.5059 89.3594 19.5059C88.735 19.5059 88.2314 19.7542 87.8486 20.251C87.4658 20.7477 87.2744 21.4587 87.2744 22.3838ZM100.871 24.2568L102.293 18.6035H103.558L101.404 26H100.379L98.5811 20.3945L96.8311 26H95.8057L93.6592 18.6035H94.917L96.373 24.1406L98.0957 18.6035H99.1143L100.871 24.2568ZM115.527 16.0469V22.8145C115.523 23.7533 115.227 24.5212 114.639 25.1182C114.055 25.7152 113.262 26.0501 112.26 26.123L111.911 26.1367C110.822 26.1367 109.954 25.8428 109.307 25.2549C108.66 24.667 108.331 23.8581 108.322 22.8281V16.0469H109.621V22.7871C109.621 23.5072 109.819 24.0677 110.216 24.4688C110.612 24.8652 111.177 25.0635 111.911 25.0635C112.654 25.0635 113.221 24.8652 113.613 24.4688C114.01 24.0723 114.208 23.514 114.208 22.7939V16.0469H115.527ZM123.648 22.3838C123.648 23.5094 123.391 24.4163 122.876 25.1045C122.361 25.7926 121.664 26.1367 120.784 26.1367C119.886 26.1367 119.18 25.8519 118.665 25.2822V28.8438H117.4V18.6035H118.556L118.617 19.4238C119.132 18.7858 119.848 18.4668 120.764 18.4668C121.652 18.4668 122.354 18.8018 122.869 19.4717C123.389 20.1416 123.648 21.0736 123.648 22.2676V22.3838ZM122.384 22.2402C122.384 21.4062 122.206 20.7477 121.851 20.2646C121.495 19.7816 121.007 19.54 120.388 19.54C119.622 19.54 119.048 19.8796 118.665 20.5586V24.0928C119.043 24.7673 119.622 25.1045 120.401 25.1045C121.007 25.1045 121.488 24.8652 121.844 24.3867C122.204 23.9036 122.384 23.1882 122.384 22.2402ZM129.568 24.0381C129.568 23.6963 129.438 23.432 129.179 23.2451C128.924 23.0537 128.475 22.8896 127.832 22.7529C127.194 22.6162 126.686 22.4521 126.308 22.2607C125.934 22.0693 125.656 21.8415 125.474 21.5771C125.296 21.3128 125.207 20.9984 125.207 20.6338C125.207 20.0277 125.462 19.515 125.973 19.0957C126.488 18.6764 127.144 18.4668 127.941 18.4668C128.78 18.4668 129.459 18.6833 129.979 19.1162C130.503 19.5492 130.765 20.1029 130.765 20.7773H129.493C129.493 20.431 129.345 20.1325 129.049 19.8818C128.757 19.6312 128.388 19.5059 127.941 19.5059C127.481 19.5059 127.121 19.6061 126.861 19.8066C126.602 20.0072 126.472 20.2692 126.472 20.5928C126.472 20.8981 126.592 21.1283 126.834 21.2832C127.076 21.4382 127.511 21.5863 128.14 21.7275C128.773 21.8688 129.286 22.0374 129.678 22.2334C130.07 22.4294 130.359 22.6663 130.546 22.9443C130.737 23.2178 130.833 23.5527 130.833 23.9492C130.833 24.61 130.569 25.141 130.04 25.542C129.511 25.9385 128.826 26.1367 127.982 26.1367C127.39 26.1367 126.866 26.0319 126.41 25.8223C125.954 25.6126 125.597 25.321 125.337 24.9473C125.082 24.569 124.954 24.1611 124.954 23.7236H126.219C126.242 24.1475 126.41 24.4847 126.725 24.7354C127.044 24.9814 127.463 25.1045 127.982 25.1045C128.461 25.1045 128.844 25.0088 129.131 24.8174C129.423 24.6214 129.568 24.3617 129.568 24.0381Z" fill="white"/>
<path d="M43.9655 30.8505C43.8676 30.3851 43.4109 30.0873 42.9457 30.1851C42.6903 30.2388 42.429 30.2822 42.1691 30.3142C41.6971 30.3722 41.3616 30.8018 41.4196 31.2738C41.4732 31.7101 41.8444 32.0298 42.2731 32.0298C42.3081 32.0298 42.3436 32.0277 42.3792 32.0233C42.6874 31.9854 42.9972 31.934 43.3001 31.8703C43.7654 31.7724 44.0633 31.3158 43.9655 30.8505Z" fill="white"/>
<path d="M39.0323 30.1717C38.7769 30.1161 38.5208 30.0488 38.2712 29.9717C37.8169 29.8314 37.3348 30.0858 37.1944 30.5401C37.054 30.9945 37.3085 31.4765 37.7628 31.6169C38.0591 31.7084 38.3629 31.7883 38.6659 31.8543C38.7277 31.8678 38.7892 31.8742 38.8499 31.8742C39.246 31.8742 39.6026 31.5991 39.6903 31.1962C39.7915 30.7315 39.4969 30.2729 39.0323 30.1717Z" fill="white"/>
<path d="M47.7153 28.7757C47.4341 28.3924 46.8954 28.3093 46.5118 28.5905C46.3007 28.7453 46.0804 28.8929 45.8574 29.0291C45.4515 29.2768 45.3233 29.8067 45.5711 30.2125C45.7333 30.4783 46.0166 30.6251 46.3067 30.6251C46.4596 30.6251 46.6145 30.5843 46.7545 30.4988C47.0189 30.3375 47.2799 30.1626 47.53 29.9792C47.9135 29.698 47.9965 29.1592 47.7153 28.7757Z" fill="white"/>
<path d="M35.4754 28.5519C35.2655 28.3958 35.0597 28.2286 34.8635 28.0553C34.5072 27.7403 33.9631 27.7739 33.6483 28.1301C33.3333 28.4864 33.3669 29.0306 33.7231 29.3454C33.9553 29.5507 34.199 29.7485 34.4475 29.9334C34.6019 30.0482 34.7821 30.1037 34.9608 30.1037C35.2236 30.1037 35.4832 29.9837 35.6522 29.7566C35.9361 29.3751 35.8569 28.8357 35.4754 28.5519Z" fill="white"/>
<path d="M50.2864 25.3453C49.8729 25.1105 49.3474 25.2556 49.1127 25.6691C48.9837 25.8963 48.8433 26.1209 48.6953 26.3368C48.4265 26.729 48.5265 27.2648 48.9187 27.5337C49.0675 27.6357 49.237 27.6846 49.4047 27.6846C49.6791 27.6846 49.9488 27.5537 50.1156 27.3103C50.291 27.0545 50.4573 26.7883 50.6102 26.519C50.845 26.1055 50.7 25.58 50.2864 25.3453Z" fill="white"/>
<path d="M32.899 25.6122C32.7713 25.3835 32.6521 25.1469 32.5445 24.9087C32.3488 24.4753 31.8388 24.2827 31.4055 24.4784C30.9721 24.6741 30.7795 25.1841 30.9752 25.6174C31.1028 25.8998 31.2442 26.1804 31.3955 26.4514C31.5531 26.7338 31.8461 26.8929 32.148 26.8929C32.2901 26.8929 32.4341 26.8576 32.5669 26.7835C32.9821 26.5519 33.1307 26.0274 32.899 25.6122Z" fill="white"/>
<path d="M51.217 21.1608C50.7428 21.1179 50.3247 21.4667 50.2816 21.9402C50.2579 22.2009 50.2228 22.4636 50.1772 22.7208C50.0942 23.189 50.4065 23.6358 50.8747 23.7188C50.9256 23.7278 50.9761 23.7322 51.0259 23.7322C51.4357 23.7322 51.7988 23.4387 51.8727 23.0212C51.9267 22.7164 51.9684 22.4052 51.9965 22.0963C52.0396 21.6227 51.6906 21.2039 51.217 21.1608Z" fill="white"/>
<path d="M31.7548 21.8737C31.733 21.6137 31.7219 21.3487 31.7219 21.0861C31.7219 20.6106 31.3365 20.2251 30.861 20.2251C30.3855 20.2251 30 20.6106 30 21.0861C30 21.3965 30.0131 21.7099 30.0389 22.0175C30.0766 22.4669 30.4529 22.8067 30.8959 22.8067C30.92 22.8067 30.9443 22.8057 30.9688 22.8036C31.4426 22.7639 31.7946 22.3476 31.7548 21.8737Z" fill="white"/>
<path d="M51.576 18.0726C51.0708 16.2432 50.0905 14.563 48.741 13.2135C46.6555 11.1281 43.8826 9.97949 40.9332 9.97949C37.9838 9.97949 35.2109 11.1281 33.1253 13.2136L32.8406 13.4984V10.8405C32.8406 10.3649 32.4551 9.97949 31.9796 9.97949C31.5041 9.97949 31.1187 10.3649 31.1187 10.8405V13.9896C31.1221 14.6718 31.3874 15.3143 31.866 15.799C32.3463 16.2853 32.9869 16.5576 33.6699 16.5659L36.758 16.5659C37.2335 16.5659 37.6189 16.1804 37.6189 15.7049C37.6189 15.2294 37.2335 14.844 36.758 14.844H33.9301L34.3429 14.4312C36.1032 12.6708 38.4437 11.7014 40.9332 11.7014C43.4226 11.7014 45.7631 12.6708 47.5234 14.4312C48.6627 15.5704 49.4901 16.9881 49.9161 18.531C50.0215 18.9127 50.3679 19.163 50.7455 19.1629C50.8214 19.1629 50.8986 19.1528 50.9753 19.1316C51.4336 19.0051 51.7026 18.531 51.576 18.0726Z" fill="white"/>
</svg>
