<svg width="24" height="24" viewBox="0 0 24 24" fill="none" xmlns="http://www.w3.org/2000/svg">
<path d="M23.7446 14.903C23.2881 14.2321 22.3688 14.0545 21.6959 14.5068L18.633 16.5565L18.6241 10.1764L19.6882 11.1732C19.9145 11.3851 20.2095 11.5017 20.5192 11.5017C20.5198 11.5017 20.5205 11.5017 20.5211 11.5017C20.8555 11.5013 21.1784 11.3611 21.4069 11.1171C21.629 10.8801 21.7455 10.5708 21.7349 10.2461C21.7243 9.92148 21.5879 9.62041 21.3508 9.39836L19.3335 7.50864C19.1955 7.37927 18.9787 7.38634 18.8493 7.52444C18.72 7.66253 18.7271 7.87928 18.8651 8.00866L20.8824 9.89838C20.9859 9.99531 21.0454 10.1267 21.0501 10.2685C21.0547 10.4102 21.0038 10.5452 20.9069 10.6487C20.8056 10.7568 20.6683 10.8164 20.52 10.8166C20.5198 10.8166 20.5195 10.8166 20.5192 10.8166C20.3841 10.8166 20.2553 10.7657 20.1566 10.6731C20.1565 10.6731 20.1565 10.6731 20.1565 10.6731L12.1464 3.16938C12.0144 3.04577 11.809 3.04595 11.6774 3.17003L3.68808 10.6962C3.58491 10.7934 3.45 10.8443 3.30825 10.8404C3.1665 10.8362 3.03492 10.777 2.9377 10.6737C2.84048 10.5705 2.78925 10.4356 2.79352 10.2939C2.79773 10.1522 2.85694 10.0206 2.96011 9.92336L11.5465 1.8347C11.7501 1.64294 12.0694 1.64247 12.2734 1.83372L17.2969 6.53959C17.4349 6.66892 17.6517 6.66189 17.7811 6.5238C17.9104 6.3857 17.9033 6.16895 17.7653 6.03958L12.7419 1.3337C12.2744 0.895704 11.543 0.896689 11.0767 1.336L8.32805 3.92538L8.3273 3.46352C8.32711 3.31792 8.2702 3.18114 8.16712 3.07839C8.06423 2.97578 7.92764 2.9193 7.78233 2.9193C7.78205 2.9193 7.78181 2.9193 7.78153 2.9193L5.81527 2.92206C5.66967 2.92225 5.53294 2.97916 5.43014 3.08224C5.32739 3.18531 5.27086 3.32224 5.27109 3.46788L5.27653 6.80008L2.49033 9.42475C2.25389 9.64745 2.11838 9.94891 2.10867 10.2736C2.09897 10.5982 2.2163 10.9072 2.439 11.1436C2.66166 11.38 2.96311 11.5156 3.28781 11.5253C3.30023 11.5256 3.31266 11.5258 3.32508 11.5258C3.63609 11.5258 3.93061 11.4091 4.15791 11.1949L5.21958 10.1948L5.2238 13.2084C4.8803 13.1584 4.53277 13.1321 4.18364 13.1321H3.59747V12.9267C3.59747 12.2372 3.03642 11.6761 2.34684 11.6761H1.25063C0.561047 11.6761 0 12.2371 0 12.9267V18.2947C0 18.4839 0.153375 18.6373 0.342562 18.6373C0.53175 18.6373 0.685125 18.4839 0.685125 18.2947V12.9267C0.685125 12.6149 0.938812 12.3612 1.25063 12.3612H2.3468C2.65861 12.3612 2.9123 12.6149 2.9123 12.9267V13.4747V20.4963V21.0389C2.9123 21.3507 2.65861 21.6044 2.3468 21.6044H1.25063C0.938812 21.6044 0.685125 21.3507 0.685125 21.0389V20.4395C0.685125 20.2503 0.53175 20.0969 0.342562 20.0969C0.153375 20.0969 0 20.2503 0 20.4395V21.0389C0 21.7285 0.561047 22.2895 1.25063 22.2895H2.3468C3.03638 22.2895 3.59742 21.7285 3.59742 21.0389V20.9924L8.61417 22.8921C8.62345 22.8956 8.63287 22.8987 8.64244 22.9014C8.86055 22.963 9.07856 22.9939 9.29381 22.9939C9.41025 22.9939 9.52589 22.9848 9.64036 22.9667L17.0129 21.904C17.0146 21.9038 17.0163 21.9035 17.0181 21.9032C17.6449 21.8031 18.2362 21.5381 18.7281 21.137C18.7323 21.1335 18.7365 21.1299 18.7406 21.1262L23.5036 16.8424C24.0583 16.35 24.1619 15.5162 23.7446 14.903ZM7.64236 3.60466L7.64395 4.56981L5.96058 6.15559L5.95641 3.60695L7.64236 3.60466ZM11.9129 3.88938L17.9381 9.53369L17.9485 17.0146L16.9786 17.6637L15.9516 17.6061L15.9244 17.3333C15.8288 16.3725 15.1195 15.5995 14.1816 15.4151L14.1754 10.9645C14.175 10.623 13.8969 10.3455 13.5554 10.3455C13.5551 10.3455 13.5549 10.3455 13.5546 10.3455L10.2895 10.3501C10.1239 10.3503 9.9683 10.415 9.85139 10.5323C9.73444 10.6495 9.67017 10.8053 9.67041 10.9709L9.67584 14.8512C9.02911 14.7034 8.41158 14.4592 7.83422 14.1215C7.76217 14.0793 7.68942 14.0387 7.61606 13.9991C7.58747 13.9837 7.55841 13.9692 7.52958 13.9541C7.48495 13.9308 7.44042 13.9074 7.39533 13.885C7.35942 13.8672 7.32309 13.8504 7.28691 13.8332C7.24852 13.8149 7.21017 13.7965 7.1715 13.7789C7.13213 13.7611 7.09242 13.744 7.05277 13.7269C7.01653 13.7112 6.9803 13.6955 6.94383 13.6804C6.90305 13.6636 6.86203 13.6474 6.82097 13.6314C6.78455 13.6171 6.74808 13.603 6.71147 13.5893C6.67083 13.5741 6.63 13.5594 6.58908 13.545C6.55069 13.5315 6.51225 13.5182 6.47363 13.5054C6.43444 13.4923 6.39516 13.4795 6.35569 13.4671C6.31364 13.4538 6.27141 13.4411 6.22913 13.4286C6.1928 13.4179 6.15652 13.4073 6.12 13.3971C6.07233 13.3839 6.02442 13.3714 5.97647 13.3592C5.95402 13.3534 5.9317 13.3469 5.90911 13.3413L5.90381 9.55014L11.9129 3.88938ZM13.4964 15.3294L10.6312 14.9995L10.3612 14.9684L10.3557 11.0351L13.4904 11.0307L13.4964 15.3294ZM23.0472 16.3316L18.2888 20.6112C17.8923 20.9327 17.4167 21.1454 16.9125 21.2263L9.54319 22.2886C9.54164 22.2888 9.54014 22.289 9.53859 22.2893L9.53348 22.2901C9.31022 22.3254 9.07772 22.3105 8.84236 22.2459L3.59747 20.2597V13.8172H4.18364C4.68262 13.8172 5.17823 13.8748 5.66086 13.9867C5.67881 13.9909 5.69672 13.9952 5.71463 13.9995C5.77392 14.0138 5.83308 14.0285 5.89195 14.0444C5.89711 14.0458 5.90222 14.0473 5.90738 14.0487C5.96639 14.0649 6.02517 14.0819 6.08377 14.0996C6.09427 14.1028 6.10481 14.106 6.11527 14.1092C6.17761 14.1285 6.23967 14.1486 6.30141 14.1697C6.30778 14.1719 6.31411 14.1741 6.32048 14.1763C6.44906 14.2207 6.57638 14.2691 6.70209 14.3215C6.70894 14.3244 6.71578 14.3273 6.72262 14.3302C6.7853 14.3565 6.84759 14.3837 6.90947 14.4121C6.91111 14.4128 6.9128 14.4136 6.91444 14.4144C6.97425 14.4419 7.03364 14.4704 7.09266 14.4997C7.09959 14.5031 7.10658 14.5065 7.11352 14.5099C7.17117 14.5388 7.22836 14.5686 7.28522 14.5992C7.29595 14.605 7.30664 14.6109 7.31738 14.6167C7.37475 14.6479 7.4318 14.6798 7.48828 14.7129C8.30348 15.1897 9.19092 15.4986 10.126 15.6309C10.1289 15.6313 10.1318 15.6317 10.1348 15.632L13.973 16.0739C13.9942 16.077 14.0153 16.0805 14.0363 16.0844C14.6013 16.1905 15.0473 16.6081 15.1965 17.1518C15.2186 17.2323 15.2341 17.3156 15.2427 17.4011L15.2579 17.5544L8.06447 16.9241C7.87613 16.9077 7.70981 17.047 7.69331 17.2355C7.67677 17.424 7.81622 17.5901 8.00466 17.6066L15.6097 18.273C15.6116 18.2731 15.6134 18.2731 15.6151 18.2732C15.6169 18.2733 15.6187 18.2736 15.6205 18.2738L17.0547 18.3542C17.0611 18.3546 17.0675 18.3548 17.0739 18.3548C17.0807 18.3548 17.0874 18.3537 17.0941 18.3533C17.1018 18.3528 17.1094 18.3525 17.117 18.3516C17.1272 18.3503 17.1372 18.3481 17.1473 18.3459C17.1544 18.3443 17.1616 18.3431 17.1687 18.341C17.1796 18.3379 17.1902 18.3336 17.2008 18.3294C17.2065 18.3271 17.2125 18.3253 17.2181 18.3227C17.2341 18.3153 17.2496 18.3068 17.2644 18.2968L18.4819 17.4821C18.4819 17.482 18.482 17.482 18.482 17.482L22.0774 15.0758C22.4392 14.8326 22.9329 14.928 23.1781 15.2884C23.4023 15.6177 23.3467 16.0656 23.0472 16.3316Z" fill="#0046FE"/>
</svg>
