<svg width="21" height="24" viewBox="0 0 21 24" fill="none" xmlns="http://www.w3.org/2000/svg">
<path d="M20.1955 0H2.61865C2.1743 0 1.81426 0.36015 1.81426 0.804384V5.44289H0.804384C0.360042 5.44289 0 5.80304 0 6.24728C0 6.69151 0.360042 7.05166 0.804384 7.05166H1.81426V10.8859H0.804384C0.360042 10.8859 0 11.246 0 11.6903C0 12.1345 0.360042 12.4947 0.804384 12.4947H1.81426V16.3288H0.804384C0.360042 16.3288 0 16.6889 0 17.1332C0 17.5774 0.360042 17.9376 0.804384 17.9376H1.81426V22.5761C1.81426 23.0203 2.1743 23.3804 2.61865 23.3804H20.1956C20.64 23.3804 21 23.0203 21 22.5761V0.804384C20.9999 0.36015 20.6399 0 20.1955 0ZM19.3911 21.7717H3.42303V17.9376H4.43291C4.87725 17.9376 5.23729 17.5774 5.23729 17.1332C5.23729 16.6889 4.87725 16.3288 4.43291 16.3288H3.42303V12.4947H4.43291C4.87725 12.4947 5.23729 12.1345 5.23729 11.6903C5.23729 11.246 4.87725 10.8859 4.43291 10.8859H3.42303V7.05166H4.43291C4.87725 7.05166 5.23729 6.69151 5.23729 6.24728C5.23729 5.80304 4.87725 5.44289 4.43291 5.44289H3.42303V1.60877H19.3912V21.7717H19.3911Z" fill="white"/>
<path d="M8.30023 18.0779C8.74458 18.0779 9.10462 17.7178 9.10462 17.2736V15.8835C9.10462 14.9912 9.83071 14.2653 10.723 14.2653H13.263C14.1553 14.2653 14.8814 14.9911 14.8814 15.8835V17.2736C14.8814 17.7178 15.2414 18.0779 15.6858 18.0779C16.13 18.0779 16.4902 17.7178 16.4902 17.2736V15.8835C16.4902 14.1042 15.0425 12.6565 13.263 12.6565H10.723C8.94353 12.6565 7.49585 14.1041 7.49585 15.8835V17.2736C7.49585 17.7178 7.856 18.0779 8.30023 18.0779Z" fill="white"/>
<path d="M11.9826 12.0602C13.8063 12.0602 15.29 10.5759 15.29 8.75157C15.29 6.92712 13.8063 5.44287 11.9826 5.44287C10.1583 5.44287 8.67419 6.92712 8.67419 8.75157C8.67419 10.5759 10.1583 12.0602 11.9826 12.0602ZM11.9826 7.05175C12.9192 7.05175 13.6812 7.8143 13.6812 8.75168C13.6812 9.68895 12.9193 10.4515 11.9826 10.4515C11.0454 10.4515 10.283 9.68895 10.283 8.75168C10.283 7.8143 11.0454 7.05175 11.9826 7.05175Z" fill="white"/>
</svg>
