<svg width="24" height="24" viewBox="0 0 24 24" fill="none" xmlns="http://www.w3.org/2000/svg">
<path d="M1.2 4.61538H5.6V3.23077C5.60175 1.44733 6.85435 0.00201923 8.4 0H15.6C17.1456 0.00201923 18.3983 1.44733 18.4 3.23077V4.61538H22.8C23.4628 4.61538 24 5.23529 24 6V15.2308C23.9979 15.8154 23.6778 16.3356 23.2 16.5305V22.6154C23.2 23.3801 22.6628 24 22 24H2C1.33725 24 0.799999 23.3801 0.799999 22.6154V16.5305C0.32225 16.3356 0.00209999 15.8154 0 15.2308V6C0 5.23529 0.537251 4.61538 1.2 4.61538ZM17.6 3.23077C17.5987 1.95692 16.704 0.924577 15.6 0.923077H8.4C7.296 0.924577 6.4013 1.95692 6.4 3.23077V4.61538H7.216L7.2 3.23077C7.2013 2.46669 7.7378 1.84765 8.4 1.84615H15.6148C16.277 1.84765 16.8135 2.46669 16.8148 3.23077V3.23538L16.804 4.61538H17.6V3.23077ZM8 3.22431L8.016 4.61538H16.004L16.0164 3.23077C16.0164 2.97588 15.8373 2.76923 15.6164 2.76923H8.4C8.18125 2.76923 8.00305 2.9719 8 3.22431ZM1.6 22.6154C1.6 22.8703 1.7791 23.0769 2 23.0769H22C22.2209 23.0769 22.4 22.8703 22.4 22.6154V16.6154H19.6V18C19.6 18.2549 19.4209 18.4615 19.2 18.4615H17.6C17.3791 18.4615 17.2 18.2549 17.2 18V16.6154H6.8V18C6.8 18.2549 6.6209 18.4615 6.4 18.4615H4.8C4.5791 18.4615 4.4 18.2549 4.4 18V16.6154H1.6V22.6154ZM18.8 17.5385V15.2308C18.8002 15.1063 18.7557 14.9874 18.6772 14.9022C18.6044 14.8159 18.5043 14.7678 18.4 14.7692C18.1791 14.7692 18 14.9759 18 15.2308V16.1538V17.5385H18.8ZM6 17.5385V15.2308C6 14.9759 5.8209 14.7692 5.6 14.7692C5.4921 14.7688 5.38885 14.8199 5.3148 14.9105C5.2406 14.995 5.1992 15.1105 5.2 15.2308V16.1538V17.5385H6ZM0.799999 15.2308C0.799999 15.4857 0.979099 15.6923 1.2 15.6923H4.4V15.2308C4.40285 14.4674 4.93845 13.8494 5.6 13.8462C6.26275 13.8462 6.8 14.4661 6.8 15.2308V15.6923H17.2V15.2308C17.2 14.4661 17.7372 13.8462 18.4 13.8462C19.0612 13.8504 19.5963 14.4678 19.6 15.2308V15.6923H22.8C23.0209 15.6923 23.2 15.4857 23.2 15.2308V6C23.2 5.74512 23.0209 5.53846 22.8 5.53846H1.2C0.979099 5.53846 0.799999 5.74512 0.799999 6V15.2308Z" fill="#818C9B"/>
</svg>
