<svg width="20" height="19" viewBox="0 0 20 19" fill="none" xmlns="http://www.w3.org/2000/svg">
<path d="M7.07744 6.17367V18.5949H11.218V12.4523C11.218 10.8315 11.5454 9.26184 13.703 9.26184C15.8309 9.26184 15.8573 11.1149 15.8573 12.5547V18.5959H20V11.7842C20 8.43812 19.2266 5.8667 15.0279 5.8667C13.012 5.8667 11.6607 6.89711 11.1081 7.87227H11.0521V6.17367H7.07744ZM0.329956 6.17367H4.4771V18.5949H0.329956V6.17367Z" fill="#818C9B"/>
<path d="M2.40369 4.47774C3.73122 4.47774 4.80739 3.47536 4.80739 2.23887C4.80739 1.00238 3.73122 0 2.40369 0C1.07617 0 0 1.00238 0 2.23887C0 3.47536 1.07617 4.47774 2.40369 4.47774Z" fill="#818C9B"/>
</svg>
