<svg width="20" height="19" viewBox="0 0 20 19" fill="none" xmlns="http://www.w3.org/2000/svg">
<path d="M6.91668 6.0334V18.1724H10.9632V12.1694C10.9632 10.5854 11.2831 9.0514 13.3917 9.0514C15.4713 9.0514 15.497 10.8624 15.497 12.2694V18.1734H19.5457V11.5164C19.5457 8.2464 18.7898 5.7334 14.6865 5.7334C12.7164 5.7334 11.3958 6.7404 10.8558 7.6934H10.801V6.0334H6.91668ZM0.32251 6.0334H4.37542V18.1724H0.32251V6.0334Z" fill="white"/>
<path d="M2.34908 4.376C3.64644 4.376 4.69816 3.3964 4.69816 2.188C4.69816 0.979601 3.64644 0 2.34908 0C1.05172 0 0 0.979601 0 2.188C0 3.3964 1.05172 4.376 2.34908 4.376Z" fill="white"/>
</svg>
