<svg width="18" height="18" viewBox="0 0 18 18" fill="none" xmlns="http://www.w3.org/2000/svg">
<path d="M11.4253 17.0159C11.3452 16.6364 10.9716 16.3936 10.5909 16.4734C10.382 16.5172 10.1682 16.5526 9.95552 16.5787C9.56934 16.626 9.29475 16.9762 9.34226 17.361C9.38613 17.7167 9.68985 17.9774 10.0406 17.9774C10.0692 17.9774 10.0982 17.9756 10.1274 17.9721C10.3796 17.9412 10.6331 17.8992 10.8809 17.8473C11.2617 17.7675 11.5054 17.3952 11.4253 17.0159Z" fill="white"/>
<path d="M7.3899 16.4621C7.18097 16.4168 6.97141 16.3619 6.76713 16.299C6.39543 16.1846 6.00096 16.392 5.88608 16.7625C5.77121 17.1329 5.97947 17.5259 6.35117 17.6403C6.59361 17.7149 6.84222 17.78 7.09013 17.8339C7.14066 17.8448 7.19102 17.8501 7.24067 17.8501C7.56476 17.8501 7.85654 17.6258 7.92828 17.2973C8.01109 16.9185 7.77006 16.5446 7.3899 16.4621Z" fill="white"/>
<path d="M14.4955 15.3238C14.2654 15.0112 13.8246 14.9435 13.5107 15.1728C13.338 15.299 13.1578 15.4193 12.9753 15.5303C12.6431 15.7323 12.5383 16.1642 12.741 16.4951C12.8738 16.7118 13.1055 16.8315 13.3429 16.8315C13.468 16.8315 13.5947 16.7982 13.7093 16.7285C13.9256 16.597 14.1392 16.4544 14.3439 16.3049C14.6576 16.0757 14.7255 15.6364 14.4955 15.3238Z" fill="white"/>
<path d="M4.48121 15.1415C4.30949 15.0142 4.14105 14.8779 3.98057 14.7366C3.68904 14.4798 3.24384 14.5072 2.98624 14.7976C2.72854 15.088 2.75599 15.5317 3.04745 15.7884C3.23746 15.9557 3.43687 16.117 3.64017 16.2677C3.76646 16.3614 3.91394 16.4066 4.06014 16.4066C4.2752 16.4066 4.48762 16.3087 4.6259 16.1236C4.85816 15.8125 4.79339 15.3728 4.48121 15.1415Z" fill="white"/>
<path d="M16.5992 12.5272C16.2608 12.3358 15.8309 12.454 15.6388 12.7911C15.5332 12.9764 15.4183 13.1595 15.2973 13.3355C15.0773 13.6552 15.1591 14.0921 15.4801 14.3113C15.6018 14.3945 15.7405 14.4343 15.8777 14.4343C16.1022 14.4343 16.3229 14.3276 16.4594 14.1292C16.6029 13.9207 16.739 13.7036 16.8641 13.484C17.0561 13.1469 16.9375 12.7185 16.5992 12.5272Z" fill="white"/>
<path d="M2.37005 12.7445C2.2656 12.5581 2.16806 12.3652 2.08007 12.171C1.91991 11.8177 1.50261 11.6606 1.14807 11.8202C0.793502 11.9797 0.635879 12.3955 0.796004 12.7488C0.900382 12.979 1.01607 13.2078 1.1399 13.4288C1.26884 13.659 1.50857 13.7886 1.75563 13.7886C1.87184 13.7886 1.98968 13.7599 2.09836 13.6995C2.43806 13.5106 2.55971 13.083 2.37005 12.7445Z" fill="white"/>
<path d="M17.3598 9.11545C16.9718 9.08052 16.6297 9.36482 16.5944 9.7509C16.575 9.96343 16.5463 10.1775 16.509 10.3873C16.4411 10.769 16.6966 11.1332 17.0797 11.2009C17.1213 11.2082 17.1626 11.2118 17.2035 11.2118C17.5387 11.2118 17.8358 10.9725 17.8963 10.6322C17.9405 10.3836 17.9746 10.1299 17.9976 9.87815C18.0328 9.49206 17.7473 9.1506 17.3598 9.11545Z" fill="white"/>
<path d="M1.4358 9.69685C1.41797 9.48485 1.40892 9.26877 1.40892 9.0547C1.40892 8.66703 1.09353 8.35278 0.704458 8.35278C0.315387 8.35278 0 8.66703 0 9.0547C0 9.30775 0.0107126 9.56325 0.0318206 9.81409C0.0626545 10.1804 0.370571 10.4574 0.733002 10.4574C0.752771 10.4574 0.772646 10.4566 0.792661 10.4549C1.18039 10.4226 1.46833 10.0832 1.4358 9.69685Z" fill="white"/>
<path d="M17.6545 6.59799C17.2412 5.10659 16.4391 3.73678 15.3349 2.6366C13.6285 0.93639 11.3597 0 8.94641 0C6.53315 0 4.26433 0.93639 2.5579 2.63667L2.32493 2.86879V0.701915C2.32493 0.314248 2.00955 0 1.62047 0C1.2314 0 0.916016 0.314248 0.916016 0.701915V3.26931C0.918799 3.82544 1.13594 4.34927 1.52751 4.74438C1.92046 5.14086 2.44464 5.36291 3.00353 5.36961L5.53018 5.36965C5.91925 5.36965 6.23464 5.0554 6.23464 4.66773C6.23464 4.28006 5.91925 3.96582 5.53018 3.96582H3.2164L3.55417 3.62927C4.99448 2.19416 6.9095 1.4038 8.94641 1.4038C10.9833 1.4038 12.8983 2.19416 14.3386 3.62927C15.2708 4.55808 15.9478 5.71388 16.2964 6.97168C16.3826 7.28288 16.6661 7.48694 16.975 7.48691C17.0371 7.48691 17.1002 7.47866 17.163 7.46138C17.538 7.35826 17.7581 6.97168 17.6545 6.59799Z" fill="white"/>
</svg>
