<svg width="26" height="25" viewBox="0 0 26 25" fill="none" xmlns="http://www.w3.org/2000/svg">
<path d="M24.8947 0.81665H6.73357C6.12343 0.817332 5.62901 1.29098 5.6283 1.87548V6.67429L4.79782 5.48091C4.41768 4.9316 3.65318 4.76679 3.06408 5.10721L1.35548 6.0913C0.795932 6.40584 0.385468 6.91588 0.210331 7.5143C-0.412959 9.68846 0.0495188 13.4342 5.7887 18.9331C10.3528 23.3009 13.7557 24.4772 16.1011 24.4772C16.644 24.4796 17.1849 24.412 17.7091 24.2763C18.3335 24.1085 18.866 23.7158 19.195 23.1805L20.2209 21.542C20.5748 20.9781 20.4029 20.2472 19.8308 19.8831L15.7396 17.2705C15.1783 16.9149 14.4261 17.0318 14.011 17.5392L12.8199 19.0061C12.6954 19.1631 12.4696 19.2089 12.2893 19.1137L12.0626 18.9941C11.3167 18.6046 10.3883 18.1196 8.51323 16.3233C8.31036 16.129 8.12659 15.9472 7.95409 15.7731H24.8947C25.5033 15.7736 25.9976 15.3023 25.9999 14.7193V1.87548C25.9992 1.29098 25.5048 0.817332 24.8947 0.81665ZM11.6479 19.7233L11.8681 19.8391C12.4216 20.1356 13.1183 19.9981 13.5043 19.5161L14.6954 18.0491C14.8308 17.8839 15.0758 17.8458 15.2588 17.9615L19.3501 20.5741C19.5359 20.6928 19.5918 20.9303 19.4771 21.1139L18.4511 22.7524C18.2369 23.1043 17.8888 23.3632 17.4798 23.4749C15.4309 24.0147 11.8451 23.558 6.4028 18.3439C0.960504 13.1299 0.485532 9.69508 1.04767 7.73395C1.16414 7.34219 1.43421 7.00878 1.80139 6.80343L3.51177 5.82017C3.70342 5.71049 3.95124 5.76397 4.07523 5.94182L6.80371 9.86115C6.92471 10.0364 6.88493 10.2714 6.71223 10.4009L5.18045 11.5424C4.67744 11.9121 4.53379 12.5794 4.84323 13.1095L4.96457 13.3204C5.398 14.0819 5.93677 15.0295 7.90071 16.9105C9.8647 18.7915 10.8534 19.308 11.6479 19.7233ZM25.1331 14.7193C25.1317 14.8442 25.0251 14.9445 24.8947 14.9435H7.17217C6.60923 14.3268 6.12379 13.649 5.72577 12.9239L5.60092 12.7059C5.50136 12.5336 5.54901 12.3175 5.71277 12.1985L7.24455 11.057C7.77433 10.6595 7.89639 9.93872 7.52499 9.40108L6.49514 7.92036V1.87548C6.49443 1.81471 6.51932 1.75622 6.56417 1.71325C6.60902 1.67029 6.67008 1.64644 6.73352 1.64712H24.8947C24.9581 1.64644 25.0192 1.67029 25.064 1.71325C25.1089 1.75622 25.1338 1.81471 25.133 1.87548V14.7193H25.1331Z" fill="white"/>
<path d="M23.4019 2.73922L16.1578 8.00224C15.9528 8.14491 15.6753 8.14491 15.4703 8.00224L8.22891 2.73922C8.03813 2.60059 7.76613 2.63641 7.62147 2.81917C7.47676 3.00194 7.51414 3.26251 7.70492 3.40109L14.9472 8.66367C15.4625 9.02832 16.1657 9.02832 16.681 8.66367L23.9255 3.40109C24.0172 3.33452 24.0775 3.23575 24.0931 3.12655C24.1087 3.01736 24.0783 2.90671 24.0087 2.81898C23.864 2.63655 23.5925 2.60088 23.4019 2.73922Z" fill="white"/>
<path d="M12.1151 8.69843L7.67502 13.2535C7.51177 13.4212 7.52137 13.684 7.69645 13.8404C7.87154 13.9968 8.14588 13.9876 8.30913 13.8199L12.7493 9.26278C12.896 9.09325 12.879 8.84348 12.7106 8.69356C12.5422 8.54364 12.2809 8.54578 12.1151 8.69843Z" fill="white"/>
<path d="M19.5417 8.69849C19.3784 8.53076 19.1042 8.52152 18.929 8.67796C18.7539 8.83435 18.7443 9.09711 18.9076 9.26489L23.3465 13.82C23.5097 13.9877 23.784 13.9969 23.9591 13.8405C24.1342 13.6841 24.1439 13.4213 23.9806 13.2536L19.5417 8.69849Z" fill="white"/>
</svg>
