<svg width="24" height="24" viewBox="0 0 24 24" fill="none" xmlns="http://www.w3.org/2000/svg">
<g clip-path="url(#clip0)">
<path d="M14.8223 5.51323H14.8503C14.8503 5.51323 14.8285 5.4584 14.8223 5.51323Z" fill="#818C9B"/>
<path d="M8.05054 5.51323H8.07857C8.07233 5.4584 8.05054 5.51323 8.05054 5.51323Z" fill="#818C9B"/>
<path d="M21.5857 7.23972C21.4284 6.98852 21.1826 6.81362 20.8938 6.74725L19.3724 6.39766L20.0749 6.20101C20.6569 6.03812 21.0076 5.41647 20.8444 4.83334C20.6815 4.25129 20.0599 3.90071 19.4767 4.06379L16.2012 4.98053C16.116 4.82537 15.9947 4.69257 15.8486 4.59376C16.5134 3.35668 17.4711 1.25738 17.4711 0.354237C17.4711 0.133971 17.2629 -0.0364668 17.0468 0.00708021C15.7469 0.269675 14.535 0.390847 13.3432 0.377862C12.1181 0.364409 10.5935 0.212253 9.63558 0.00787709C9.33942 -0.0553105 9.10176 0.276096 9.25795 0.536441C9.49139 0.925504 9.63441 1.33688 9.71302 1.75149C8.51072 1.78833 7.26389 1.64265 6.3202 1.17075C6.06599 1.04363 5.76595 1.26605 5.81245 1.54576C6.10926 3.3264 6.70804 4.3704 7.30837 5.15917H7.29506C6.6832 5.15917 6.18538 5.65698 6.18538 6.26884C6.18538 6.83158 6.60656 7.29747 7.15012 7.36877C6.75388 8.03242 6.18801 8.6621 5.59344 9.32285C4.32908 10.728 2.89597 12.3206 2.41381 14.8921C2.18309 16.1226 2.19078 17.2739 2.43674 18.3141C2.66633 19.2853 3.10363 20.1643 3.73639 20.9268C4.57635 21.9389 5.73037 22.7242 7.16634 23.261C8.45986 23.7445 9.94125 24.0001 11.4504 24.0001C12.9596 24.0001 14.4411 23.7445 15.7345 23.261C17.1705 22.7242 18.3245 21.9389 19.1645 20.9268C19.7973 20.1643 20.2346 19.2853 20.4641 18.3141C20.7101 17.2739 20.7178 16.1225 20.4871 14.8921C20.0049 12.3207 18.5718 10.728 17.3075 9.3229C16.8782 8.84585 16.4699 8.39102 16.1275 7.92939L20.3968 8.9103C20.8491 9.01422 21.3311 8.81636 21.5809 8.42552C21.8096 8.06767 21.811 7.59916 21.5857 7.23972ZM13.3354 1.0861C14.4258 1.098 15.5295 1.00266 16.6952 0.79491C16.4815 1.6688 15.7951 3.22309 15.144 4.4071C14.6928 4.44109 14.3162 4.74587 14.1767 5.15912H13.1934C13.1712 5.11126 13.1466 5.05881 13.1191 5.00054C12.8151 4.35423 12.1824 3.00938 12.1824 1.86526C12.1824 1.64532 11.9747 1.47479 11.7588 1.51801C11.3467 1.60046 10.8932 1.66716 10.4214 1.70897C10.372 1.41347 10.2953 1.1175 10.1837 0.82641C11.1353 0.973692 12.3339 1.07508 13.3354 1.0861ZM15.6294 5.51322V7.02428C15.6294 7.24558 15.4494 7.42567 15.2281 7.42567C15.0067 7.42567 14.8267 7.24563 14.8267 7.02428V5.51322C14.8267 5.29187 15.0067 5.11182 15.2281 5.11182C15.4494 5.11182 15.6294 5.29192 15.6294 5.51322ZM6.63801 2.06752C7.52339 2.36973 8.61253 2.50374 9.78877 2.4624L10.4907 2.41805C10.8218 2.38768 11.1577 2.34394 11.4961 2.28671C11.6065 3.38237 12.107 4.50821 12.4111 5.15912H10.053H9.30797H8.21222C8.20429 5.1467 8.19576 5.13451 8.18615 5.12289C7.59379 4.41025 6.99271 3.58595 6.63801 2.06752ZM16.7809 9.79657C17.983 11.1324 19.3454 12.6465 19.791 15.0225C20.201 17.2094 19.8068 19.0436 18.6194 20.4742C17.1553 22.2384 14.4753 23.2917 11.4505 23.2917C8.42564 23.2917 5.7456 22.2384 4.2815 20.4743C3.09411 19.0436 2.69999 17.2094 3.10996 15.0226C3.5555 12.6465 4.91793 11.1324 6.11999 9.79657C6.83873 8.99777 7.51776 8.24224 7.95295 7.37847H8.81789C9.01355 7.37847 9.17203 7.21989 9.17203 7.02433C9.17203 6.82872 9.0135 6.67019 8.81789 6.67019H7.29501C7.07367 6.67019 6.89362 6.49014 6.89362 6.2688C6.89362 6.04745 7.07367 5.8674 7.29501 5.8674H14.1183V6.67014H10.506C10.3103 6.67014 10.1518 6.82872 10.1518 7.02428C10.1518 7.21984 10.3103 7.37842 10.506 7.37842H14.1766C14.3248 7.81708 14.7399 8.13396 15.228 8.13396C15.2844 8.13396 15.3397 8.12964 15.3939 8.12153C15.7892 8.69327 16.2709 9.22985 16.7809 9.79657ZM16.3378 5.67784L19.6676 4.74592C19.8784 4.68681 20.1034 4.81384 20.1623 5.02426C20.2212 5.23515 20.0944 5.46006 19.8839 5.51894L17.981 6.05153C17.9655 6.05589 17.9507 6.06151 17.9363 6.06775L16.3378 5.70048V5.67784ZM21.0365 7.91857C20.9869 8.13428 20.7715 8.26952 20.5554 8.21988L16.3155 7.24572C16.33 7.17414 16.3377 7.10008 16.3377 7.02424V6.42714L20.7351 7.43749C20.9483 7.48647 21.0855 7.70524 21.0365 7.91857Z" fill="#818C9B"/>
<path d="M13.7173 14.5559C14.225 14.5559 14.6381 14.1428 14.6381 13.6351V13.0685C14.6381 11.7434 13.6498 10.6449 12.3715 10.4716V9.85746C12.3715 9.34976 11.9584 8.93665 11.4507 8.93665C10.943 8.93665 10.5299 9.34971 10.5299 9.85746V10.5184C9.21751 10.8112 8.26328 11.9779 8.26328 13.3518C8.26328 14.9531 9.56603 16.2558 11.1673 16.2558H11.7339C12.3197 16.2558 12.7964 16.7324 12.7964 17.3183C12.7964 17.9042 12.3198 18.3808 11.7339 18.3808H10.884C10.4543 18.3808 10.1048 18.0312 10.1048 17.6016C10.1048 17.0939 9.69175 16.6808 9.184 16.6808C8.67629 16.6808 8.26318 17.0938 8.26318 17.6016C8.26318 18.9267 9.2515 20.0251 10.5298 20.1985V20.8126C10.5298 21.3203 10.9428 21.7334 11.4506 21.7334C11.9583 21.7334 12.3714 21.3203 12.3714 20.8126V20.1516C13.6838 19.8589 14.638 18.6922 14.638 17.3183C14.638 15.717 13.3352 14.4142 11.7339 14.4142H11.1673C10.5815 14.4142 10.1049 13.9377 10.1049 13.3518C10.1049 12.7659 10.5815 12.2893 11.1673 12.2893H12.0173C12.447 12.2893 12.7965 12.6388 12.7965 13.0685V13.6351C12.7965 14.1428 13.2096 14.5559 13.7173 14.5559ZM12.0174 11.581H11.1674C10.191 11.581 9.39662 12.3754 9.39662 13.3518C9.39662 14.3282 10.191 15.1225 11.1674 15.1225H11.734C12.9448 15.1225 13.9298 16.1075 13.9298 17.3183C13.9298 18.4386 13.0907 19.3765 11.9783 19.5001C11.7989 19.52 11.6632 19.6716 11.6632 19.8521V20.8126C11.6632 20.9297 11.5679 21.0251 11.4507 21.0251C11.3336 21.0251 11.2382 20.9297 11.2382 20.8126V19.8682C11.2382 19.6726 11.0797 19.5141 10.8841 19.5141C9.82956 19.5141 8.9717 18.6561 8.9717 17.6016C8.9717 17.4845 9.06704 17.3892 9.18418 17.3892C9.30132 17.3892 9.39667 17.4845 9.39667 17.6016C9.39667 18.4218 10.0639 19.0891 10.8841 19.0891H11.7341C12.7105 19.0891 13.5048 18.2947 13.5048 17.3183C13.5048 16.3419 12.7105 15.5476 11.7341 15.5476H11.1675C9.95668 15.5476 8.9717 14.5625 8.9717 13.3518C8.9717 12.2315 9.81071 11.2936 10.9232 11.17C11.1025 11.1501 11.2382 10.9985 11.2382 10.818V9.85751C11.2382 9.74037 11.3336 9.64502 11.4507 9.64502C11.5679 9.64502 11.6632 9.74037 11.6632 9.85751V10.8019C11.6632 10.9975 11.8217 11.156 12.0174 11.156C13.0719 11.156 13.9298 12.0139 13.9298 13.0685V13.6351C13.9298 13.7522 13.8344 13.8476 13.7173 13.8476C13.6001 13.8476 13.5048 13.7522 13.5048 13.6351V13.0685C13.5048 12.2483 12.8375 11.581 12.0174 11.581Z" fill="#818C9B"/>
</g>
<defs>
<clipPath id="clip0">
<rect width="24" height="24" fill="white"/>
</clipPath>
</defs>
</svg>
