<svg width="24" height="20" viewBox="0 0 24 20" fill="none" xmlns="http://www.w3.org/2000/svg">
<path fill-rule="evenodd" clip-rule="evenodd" d="M20.4 7.8002C20.4 8.13152 20.1313 8.4002 19.8 8.4002H13.2C12.8687 8.4002 12.6 8.13152 12.6 7.8002C12.6 7.46888 12.8687 7.2002 13.2 7.2002H19.8C20.1313 7.2002 20.4 7.46888 20.4 7.8002Z" fill="white"/>
<path fill-rule="evenodd" clip-rule="evenodd" d="M20.4 11.3998C20.4 11.7311 20.1313 11.9998 19.8 11.9998H13.2C12.8687 11.9998 12.6 11.7311 12.6 11.3998C12.6 11.0685 12.8687 10.7998 13.2 10.7998H19.8C20.1313 10.7998 20.4 11.0685 20.4 11.3998Z" fill="white"/>
<path fill-rule="evenodd" clip-rule="evenodd" d="M20.4 14.9999C20.4 15.3312 20.1313 15.5999 19.8 15.5999H13.2C12.8687 15.5999 12.6 15.3312 12.6 14.9999C12.6 14.6686 12.8687 14.3999 13.2 14.3999H19.8C20.1313 14.3999 20.4 14.6686 20.4 14.9999Z" fill="white"/>
<path fill-rule="evenodd" clip-rule="evenodd" d="M8.4 0C7.40588 0 6.6 0.805884 6.6 1.8H3C1.34315 1.8 0 3.14315 0 4.8V16.2C0 17.8568 1.34315 19.2 3 19.2H21C22.6568 19.2 24 17.8568 24 16.2V4.8C24 3.14315 22.6568 1.8 21 1.8H17.4C17.4 0.805884 16.5941 0 15.6 0H8.4ZM17.4 3C17.4 3.99412 16.5941 4.8 15.6 4.8H8.4C7.40588 4.8 6.6 3.99412 6.6 3H3C2.00588 3 1.2 3.80588 1.2 4.8V16.2C1.2 17.1941 2.00588 18 3 18H21C21.9941 18 22.8 17.1941 22.8 16.2V4.8C22.8 3.80588 21.9941 3 21 3H17.4ZM7.8 1.8C7.8 1.46863 8.06863 1.2 8.4 1.2H15.6C15.9313 1.2 16.2 1.46863 16.2 1.8V3C16.2 3.33137 15.9313 3.6 15.6 3.6H8.4C8.06863 3.6 7.8 3.33137 7.8 3V1.8Z" fill="white"/>
</svg>
