<svg width="24" height="24" viewBox="0 0 24 24" fill="none" xmlns="http://www.w3.org/2000/svg">
<path fill-rule="evenodd" clip-rule="evenodd" d="M9.36774 12.1696C9.36774 13.627 8.18627 14.8085 6.72885 14.8085C5.27143 14.8085 4.08997 13.627 4.08997 12.1696C4.08997 10.7122 5.27143 9.53076 6.72885 9.53076C8.18627 9.53076 9.36774 10.7122 9.36774 12.1696ZM8.18024 12.1696C8.18024 12.9712 7.53044 13.621 6.72885 13.621C5.92728 13.621 5.27747 12.9712 5.27747 12.1696C5.27747 11.3681 5.92728 10.7183 6.72885 10.7183C7.53044 10.7183 8.18024 11.3681 8.18024 12.1696Z" fill="#818C9B"/>
<path d="M4.15625 19.0315C4.15625 17.6105 5.30818 16.4585 6.72917 16.4585C8.15014 16.4585 9.30208 17.6105 9.30208 19.0315H10.4895C10.4895 16.9546 8.80599 15.271 6.72917 15.271C4.65234 15.271 2.96875 16.9546 2.96875 19.0315H4.15625Z" fill="#818C9B"/>
<path fill-rule="evenodd" clip-rule="evenodd" d="M20.1873 10.7183C20.1873 11.0461 19.9214 11.312 19.5935 11.312H13.0623C12.7344 11.312 12.4685 11.0461 12.4685 10.7183C12.4685 10.3904 12.7344 10.1245 13.0623 10.1245H19.5935C19.9214 10.1245 20.1873 10.3904 20.1873 10.7183Z" fill="#818C9B"/>
<path fill-rule="evenodd" clip-rule="evenodd" d="M20.1873 14.2817C20.1873 14.6096 19.9214 14.8755 19.5935 14.8755H13.0623C12.7344 14.8755 12.4685 14.6096 12.4685 14.2817C12.4685 13.9539 12.7344 13.688 13.0623 13.688H19.5935C19.9214 13.688 20.1873 13.9539 20.1873 14.2817Z" fill="#818C9B"/>
<path fill-rule="evenodd" clip-rule="evenodd" d="M20.1873 17.8442C20.1873 18.1721 19.9214 18.438 19.5935 18.438H13.0623C12.7344 18.438 12.4685 18.1721 12.4685 17.8442C12.4685 17.5164 12.7344 17.2505 13.0623 17.2505H19.5935C19.9214 17.2505 20.1873 17.5164 20.1873 17.8442Z" fill="#818C9B"/>
<path fill-rule="evenodd" clip-rule="evenodd" d="M8.3125 3C7.32874 3 6.53125 3.79749 6.53125 4.78125H2.96875C1.32916 4.78125 0 6.11041 0 7.75V19.0312C0 20.6708 1.32916 22 2.96875 22H20.7812C22.4208 22 23.75 20.6708 23.75 19.0312V7.75C23.75 6.11041 22.4208 4.78125 20.7812 4.78125H17.2187C17.2187 3.79749 16.4212 3 15.4375 3H8.3125ZM17.2187 5.96875C17.2187 6.95251 16.4212 7.75 15.4375 7.75H8.3125C7.32874 7.75 6.53125 6.95251 6.53125 5.96875H2.96875C1.98499 5.96875 1.1875 6.76624 1.1875 7.75V19.0312C1.1875 20.015 1.98499 20.8125 2.96875 20.8125H20.7812C21.765 20.8125 22.5625 20.015 22.5625 19.0312V7.75C22.5625 6.76624 21.765 5.96875 20.7812 5.96875H17.2187ZM7.71875 4.78125C7.71875 4.45333 7.98458 4.1875 8.3125 4.1875H15.4375C15.7654 4.1875 16.0312 4.45333 16.0312 4.78125V5.96875C16.0312 6.29667 15.7654 6.5625 15.4375 6.5625H8.3125C7.98458 6.5625 7.71875 6.29667 7.71875 5.96875V4.78125Z" fill="#818C9B"/>
</svg>
