<svg width="18" height="20" viewBox="0 0 18 20" fill="none" xmlns="http://www.w3.org/2000/svg">
<path d="M9.03394 20C10.2479 20 11.2411 19.0769 11.2411 17.9487H6.82672C6.82672 18.4928 7.05927 19.0145 7.4732 19.3992C7.88713 19.7839 8.44855 20 9.03394 20ZM15.6556 13.8462V8.71795C15.6556 5.56923 13.8457 2.93333 10.6893 2.2359V1.53846C10.6893 0.68718 9.94993 0 9.03394 0C8.11794 0 7.37852 0.68718 7.37852 1.53846V2.2359C4.21117 2.93333 2.41229 5.55897 2.41229 8.71795V13.8462L0.205078 15.8974V16.9231H17.8628V15.8974L15.6556 13.8462Z" fill="#B1BAC9"/>
</svg>
