<svg width="20" height="20" viewBox="0 0 20 20" fill="none" xmlns="http://www.w3.org/2000/svg">
<path d="M14.5837 20.0001C11.597 20.0001 9.16699 17.5701 9.16699 14.5834C9.16699 11.5967 11.597 9.16675 14.5837 9.16675C17.5703 9.16675 20.0003 11.5967 20.0003 14.5834C20.0003 17.5701 17.5703 20.0001 14.5837 20.0001ZM14.5837 10.0001C12.0562 10.0001 10.0003 12.0559 10.0003 14.5834C10.0003 17.1109 12.0562 19.1668 14.5837 19.1668C17.1112 19.1668 19.167 17.1109 19.167 14.5834C19.167 12.0559 17.1112 10.0001 14.5837 10.0001Z" fill="#3A485A"/>
<path d="M13.7505 16.6667C13.6405 16.6667 13.5339 16.6225 13.4555 16.545L11.7889 14.8784C11.6264 14.7159 11.6264 14.4517 11.7889 14.2892C11.9514 14.1267 12.2155 14.1267 12.378 14.2892L13.7297 15.6408L16.353 12.6425C16.5047 12.4683 16.768 12.4508 16.9414 12.6033C17.1147 12.755 17.1322 13.0183 16.9805 13.1917L14.0639 16.525C13.988 16.6117 13.8789 16.6634 13.7639 16.6667C13.7597 16.6667 13.7547 16.6667 13.7505 16.6667Z" fill="#3A485A"/>
<path d="M7.08333 17.5H2.08333C0.935 17.5 0 16.565 0 15.4167V2.08333C0 0.935 0.935 0 2.08333 0H11.25C12.3983 0 13.3333 0.935 13.3333 2.08333V7.08333C13.3333 7.31333 13.1467 7.5 12.9167 7.5C12.6867 7.5 12.5 7.31333 12.5 7.08333V2.08333C12.5 1.39417 11.9392 0.833333 11.25 0.833333H2.08333C1.39417 0.833333 0.833333 1.39417 0.833333 2.08333V15.4167C0.833333 16.1058 1.39417 16.6667 2.08333 16.6667H7.08333C7.31333 16.6667 7.5 16.8533 7.5 17.0833C7.5 17.3133 7.31333 17.5 7.08333 17.5Z" fill="#3A485A"/>
<path d="M7.91667 11.5751C7.68667 11.5751 7.5 11.3884 7.5 11.1584V4.58341C7.5 4.35341 7.68667 4.16675 7.91667 4.16675H10.4167C10.6467 4.16675 10.8333 4.35341 10.8333 4.58341V8.35008C10.8333 8.58008 10.6467 8.76675 10.4167 8.76675C10.1867 8.76675 10 8.58008 10 8.35008V5.00008H8.33333V11.1584C8.33333 11.3892 8.14667 11.5751 7.91667 11.5751Z" fill="#3A485A"/>
<path d="M5.41666 12.5H2.91667C2.68667 12.5 2.5 12.3133 2.5 12.0833V7.91667C2.5 7.68667 2.68667 7.5 2.91667 7.5H5.41666C5.64666 7.5 5.83333 7.68667 5.83333 7.91667V12.0833C5.83333 12.3133 5.64666 12.5 5.41666 12.5ZM3.33333 11.6667H5V8.33333H3.33333V11.6667Z" fill="#3A485A"/>
<path d="M7.51699 12.5001H2.08366C1.85366 12.5001 1.66699 12.3134 1.66699 12.0834C1.66699 11.8534 1.85366 11.6667 2.08366 11.6667H7.51699C7.74699 11.6667 7.93366 11.8534 7.93366 12.0834C7.93366 12.3134 7.74699 12.5001 7.51699 12.5001Z" fill="#3A485A"/>
</svg>
