<svg width="146" height="37" viewBox="0 0 146 37" fill="none" xmlns="http://www.w3.org/2000/svg">
<rect x="0.5" y="0.5" width="145" height="36" rx="5.5" fill="white"/>
<path d="M43.6455 21.2568L46.4893 13.0469H47.9248L44.2334 23H43.0713L39.3867 13.0469H40.8154L43.6455 21.2568ZM50.4404 23H49.1758V15.6035H50.4404V23ZM49.0732 13.6416C49.0732 13.4365 49.1348 13.2633 49.2578 13.1221C49.3854 12.9808 49.5723 12.9102 49.8184 12.9102C50.0645 12.9102 50.2513 12.9808 50.3789 13.1221C50.5065 13.2633 50.5703 13.4365 50.5703 13.6416C50.5703 13.8467 50.5065 14.0176 50.3789 14.1543C50.2513 14.291 50.0645 14.3594 49.8184 14.3594C49.5723 14.3594 49.3854 14.291 49.2578 14.1543C49.1348 14.0176 49.0732 13.8467 49.0732 13.6416ZM55.54 23.1367C54.5374 23.1367 53.7217 22.8086 53.0928 22.1523C52.4639 21.4915 52.1494 20.6097 52.1494 19.5068V19.2744C52.1494 18.5407 52.2884 17.8867 52.5664 17.3125C52.849 16.7337 53.2409 16.2826 53.7422 15.959C54.248 15.6309 54.7949 15.4668 55.3828 15.4668C56.3444 15.4668 57.0918 15.7835 57.625 16.417C58.1582 17.0505 58.4248 17.9574 58.4248 19.1377V19.6641H53.4141C53.4323 20.3932 53.6442 20.9834 54.0498 21.4346C54.46 21.8812 54.9795 22.1045 55.6084 22.1045C56.055 22.1045 56.4333 22.0133 56.7432 21.8311C57.0531 21.6488 57.3242 21.4072 57.5566 21.1064L58.3291 21.708C57.7093 22.6605 56.7796 23.1367 55.54 23.1367ZM55.3828 16.5059C54.8724 16.5059 54.444 16.6927 54.0977 17.0664C53.7513 17.4355 53.5371 17.9551 53.4551 18.625H57.1602V18.5293C57.1237 17.8867 56.9505 17.39 56.6406 17.0391C56.3307 16.6836 55.9115 16.5059 55.3828 16.5059ZM66.4434 21.2568L67.8652 15.6035H69.1299L66.9766 23H65.9512L64.1533 17.3945L62.4033 23H61.3779L59.2314 15.6035H60.4893L61.9453 21.1406L63.668 15.6035H64.6865L66.4434 21.2568ZM75.4053 19.1035V23H74.0928V13.0469H77.7637C78.8529 13.0469 79.7051 13.3249 80.3203 13.8809C80.9401 14.4368 81.25 15.1729 81.25 16.0889C81.25 17.055 80.9469 17.8001 80.3408 18.3242C79.7393 18.8438 78.8757 19.1035 77.75 19.1035H75.4053ZM75.4053 18.0303H77.7637C78.4655 18.0303 79.0033 17.8662 79.377 17.5381C79.7507 17.2054 79.9375 16.7269 79.9375 16.1025C79.9375 15.5101 79.7507 15.0361 79.377 14.6807C79.0033 14.3252 78.4906 14.1406 77.8389 14.127H75.4053V18.0303ZM87.2109 23C87.138 22.8542 87.0788 22.5944 87.0332 22.2207C86.4453 22.8314 85.7435 23.1367 84.9277 23.1367C84.1986 23.1367 83.5993 22.9316 83.1299 22.5215C82.665 22.1068 82.4326 21.5827 82.4326 20.9492C82.4326 20.179 82.7243 19.582 83.3076 19.1582C83.8955 18.7298 84.7204 18.5156 85.7822 18.5156H87.0127V17.9346C87.0127 17.4925 86.8805 17.1416 86.6162 16.8818C86.3519 16.6175 85.9622 16.4854 85.4473 16.4854C84.9961 16.4854 84.6178 16.5993 84.3125 16.8271C84.0072 17.055 83.8545 17.3307 83.8545 17.6543H82.583C82.583 17.2852 82.7129 16.9297 82.9727 16.5879C83.237 16.2415 83.5924 15.9681 84.0391 15.7676C84.4902 15.5671 84.9847 15.4668 85.5225 15.4668C86.3747 15.4668 87.0423 15.681 87.5254 16.1094C88.0085 16.5332 88.2591 17.1188 88.2773 17.8662V21.2705C88.2773 21.9495 88.3639 22.4896 88.5371 22.8906V23H87.2109ZM85.1123 22.0361C85.5088 22.0361 85.8848 21.9336 86.2402 21.7285C86.5957 21.5234 86.8532 21.2568 87.0127 20.9287V19.4111H86.0215C84.472 19.4111 83.6973 19.8646 83.6973 20.7715C83.6973 21.168 83.8294 21.4779 84.0938 21.7012C84.3581 21.9245 84.6976 22.0361 85.1123 22.0361ZM94.5664 21.0381C94.5664 20.6963 94.4365 20.432 94.1768 20.2451C93.9215 20.0537 93.4727 19.8896 92.8301 19.7529C92.1921 19.6162 91.6839 19.4521 91.3057 19.2607C90.932 19.0693 90.654 18.8415 90.4717 18.5771C90.2939 18.3128 90.2051 17.9984 90.2051 17.6338C90.2051 17.0277 90.4603 16.515 90.9707 16.0957C91.4857 15.6764 92.1419 15.4668 92.9395 15.4668C93.778 15.4668 94.457 15.6833 94.9766 16.1162C95.5007 16.5492 95.7627 17.1029 95.7627 17.7773H94.4912C94.4912 17.431 94.3431 17.1325 94.0469 16.8818C93.7552 16.6312 93.3861 16.5059 92.9395 16.5059C92.4792 16.5059 92.1191 16.6061 91.8594 16.8066C91.5996 17.0072 91.4697 17.2692 91.4697 17.5928C91.4697 17.8981 91.5905 18.1283 91.832 18.2832C92.0736 18.4382 92.5088 18.5863 93.1377 18.7275C93.7712 18.8688 94.2839 19.0374 94.6758 19.2334C95.0677 19.4294 95.3571 19.6663 95.5439 19.9443C95.7354 20.2178 95.8311 20.5527 95.8311 20.9492C95.8311 21.61 95.5667 22.141 95.0381 22.542C94.5094 22.9385 93.8236 23.1367 92.9805 23.1367C92.388 23.1367 91.8639 23.0319 91.4082 22.8223C90.9525 22.6126 90.5947 22.321 90.335 21.9473C90.0798 21.569 89.9521 21.1611 89.9521 20.7236H91.2168C91.2396 21.1475 91.4082 21.4847 91.7227 21.7354C92.0417 21.9814 92.4609 22.1045 92.9805 22.1045C93.459 22.1045 93.8418 22.0088 94.1289 21.8174C94.4206 21.6214 94.5664 21.3617 94.5664 21.0381ZM99.1943 13.8125V15.6035H100.575V16.5811H99.1943V21.168C99.1943 21.4642 99.2559 21.6875 99.3789 21.8379C99.502 21.9837 99.7116 22.0566 100.008 22.0566C100.154 22.0566 100.354 22.0293 100.609 21.9746V23C100.277 23.0911 99.9531 23.1367 99.6387 23.1367C99.0736 23.1367 98.6475 22.9658 98.3604 22.624C98.0732 22.2822 97.9297 21.7969 97.9297 21.168V16.5811H96.583V15.6035H97.9297V13.8125H99.1943ZM112.333 14.127H109.134V23H107.828V14.127H104.636V13.0469H112.333V14.127ZM117.398 23C117.326 22.8542 117.266 22.5944 117.221 22.2207C116.633 22.8314 115.931 23.1367 115.115 23.1367C114.386 23.1367 113.787 22.9316 113.317 22.5215C112.853 22.1068 112.62 21.5827 112.62 20.9492C112.62 20.179 112.912 19.582 113.495 19.1582C114.083 18.7298 114.908 18.5156 115.97 18.5156H117.2V17.9346C117.2 17.4925 117.068 17.1416 116.804 16.8818C116.539 16.6175 116.15 16.4854 115.635 16.4854C115.184 16.4854 114.805 16.5993 114.5 16.8271C114.195 17.055 114.042 17.3307 114.042 17.6543H112.771C112.771 17.2852 112.9 16.9297 113.16 16.5879C113.424 16.2415 113.78 15.9681 114.227 15.7676C114.678 15.5671 115.172 15.4668 115.71 15.4668C116.562 15.4668 117.23 15.681 117.713 16.1094C118.196 16.5332 118.447 17.1188 118.465 17.8662V21.2705C118.465 21.9495 118.551 22.4896 118.725 22.8906V23H117.398ZM115.3 22.0361C115.696 22.0361 116.072 21.9336 116.428 21.7285C116.783 21.5234 117.041 21.2568 117.2 20.9287V19.4111H116.209C114.66 19.4111 113.885 19.8646 113.885 20.7715C113.885 21.168 114.017 21.4779 114.281 21.7012C114.546 21.9245 114.885 22.0361 115.3 22.0361ZM124.754 21.0381C124.754 20.6963 124.624 20.432 124.364 20.2451C124.109 20.0537 123.66 19.8896 123.018 19.7529C122.38 19.6162 121.871 19.4521 121.493 19.2607C121.119 19.0693 120.841 18.8415 120.659 18.5771C120.481 18.3128 120.393 17.9984 120.393 17.6338C120.393 17.0277 120.648 16.515 121.158 16.0957C121.673 15.6764 122.329 15.4668 123.127 15.4668C123.965 15.4668 124.645 15.6833 125.164 16.1162C125.688 16.5492 125.95 17.1029 125.95 17.7773H124.679C124.679 17.431 124.531 17.1325 124.234 16.8818C123.943 16.6312 123.574 16.5059 123.127 16.5059C122.667 16.5059 122.307 16.6061 122.047 16.8066C121.787 17.0072 121.657 17.2692 121.657 17.5928C121.657 17.8981 121.778 18.1283 122.02 18.2832C122.261 18.4382 122.696 18.5863 123.325 18.7275C123.959 18.8688 124.471 19.0374 124.863 19.2334C125.255 19.4294 125.545 19.6663 125.731 19.9443C125.923 20.2178 126.019 20.5527 126.019 20.9492C126.019 21.61 125.754 22.141 125.226 22.542C124.697 22.9385 124.011 23.1367 123.168 23.1367C122.576 23.1367 122.051 23.0319 121.596 22.8223C121.14 22.6126 120.782 22.321 120.522 21.9473C120.267 21.569 120.14 21.1611 120.14 20.7236H121.404C121.427 21.1475 121.596 21.4847 121.91 21.7354C122.229 21.9814 122.648 22.1045 123.168 22.1045C123.646 22.1045 124.029 22.0088 124.316 21.8174C124.608 21.6214 124.754 21.3617 124.754 21.0381ZM129.73 19.5752L128.938 20.4023V23H127.673V12.5H128.938V18.8506L129.614 18.0371L131.918 15.6035H133.456L130.578 18.6934L133.791 23H132.308L129.73 19.5752Z" fill="#3A485A"/>
<path d="M19.5 11.3077L16.0909 13.359L19.5 15.4102V14.0427C22.8784 14.0427 25.6364 16.8085 25.6364 20.1966C25.6364 23.5846 22.8784 26.3504 19.5 26.3504C16.1216 26.3504 13.3636 23.5846 13.3636 20.1966C13.3636 18.5193 13.9657 17.0718 15.0682 15.9655L14.1095 15.0048C12.7568 16.3607 12 18.1815 12 20.1966C12 24.3299 15.3784 27.7179 19.5 27.7179C23.6216 27.7179 27 24.3299 27 20.1966C27 16.0632 23.6216 12.6752 19.5 12.6752V11.3077ZM18.0723 15.7952L16.8368 16.3935L18.5625 19.8123C18.5102 19.9339 18.4813 20.0642 18.4773 20.1966V20.2396L16.2825 22.4393L17.2636 23.4239L19.4584 21.2229H19.5C19.7712 21.2229 20.0314 21.1148 20.2232 20.9225C20.415 20.7301 20.5227 20.4693 20.5227 20.1973C20.5227 19.7255 20.2098 19.3337 19.7768 19.214L18.0723 15.7952Z" fill="#3A485A"/>
<rect x="0.5" y="0.5" width="145" height="36" rx="5.5" stroke="#ECEEF3"/>
</svg>
