<svg width="101" height="24" viewBox="0 0 101 24" fill="none" xmlns="http://www.w3.org/2000/svg">
<path d="M0 4C0 1.79086 1.79086 0 4 0H97C99.2091 0 101 1.79086 101 4V20C101 22.2091 99.2091 24 97 24H4C1.79086 24 0 22.2091 0 20V4Z" fill="#0085FF"/>
<path d="M69.4603 18H68.1905C67.5332 18 67 17.4721 67 16.8214V8.17857C67 7.5279 67.5332 7 68.1905 7H69.4603C70.1176 7 70.6508 7.5279 70.6508 8.17857V16.8214C70.6508 17.4721 70.1176 18 69.4603 18ZM77 16.8214V8.17857C77 7.5279 76.4668 7 75.8095 7H74.5397C73.8824 7 73.3492 7.5279 73.3492 8.17857V16.8214C73.3492 17.4721 73.8824 18 74.5397 18H75.8095C76.4668 18 77 17.4721 77 16.8214Z" fill="white"/>
<path d="M25.2915 12.3818V16H24.0728V6.75781H27.4814C28.4928 6.75781 29.2842 7.01595 29.8555 7.53223C30.431 8.0485 30.7188 8.73193 30.7188 9.58252C30.7188 10.4797 30.4373 11.1715 29.8745 11.6582C29.3159 12.1406 28.514 12.3818 27.4688 12.3818H25.2915ZM25.2915 11.3853H27.4814C28.1331 11.3853 28.6325 11.2329 28.9795 10.9282C29.3265 10.6193 29.5 10.175 29.5 9.59521C29.5 9.04508 29.3265 8.60498 28.9795 8.2749C28.6325 7.94482 28.1564 7.77344 27.5513 7.76074H25.2915V11.3853ZM36.2539 16C36.1862 15.8646 36.1312 15.6234 36.0889 15.2764C35.543 15.8434 34.8913 16.127 34.1338 16.127C33.4567 16.127 32.9002 15.9365 32.4644 15.5557C32.0327 15.1706 31.8169 14.6839 31.8169 14.0957C31.8169 13.3805 32.0877 12.8262 32.6294 12.4326C33.1753 12.0348 33.9412 11.8359 34.9272 11.8359H36.0698V11.2964C36.0698 10.8859 35.9471 10.5601 35.7017 10.3188C35.4562 10.0734 35.0944 9.95068 34.6162 9.95068C34.1973 9.95068 33.846 10.0565 33.5625 10.2681C33.279 10.4797 33.1372 10.7357 33.1372 11.0361H31.9565C31.9565 10.6934 32.0771 10.3633 32.3184 10.0459C32.5638 9.72428 32.8939 9.47038 33.3086 9.28418C33.7275 9.09798 34.1867 9.00488 34.686 9.00488C35.4774 9.00488 36.0973 9.20378 36.5459 9.60156C36.9945 9.99512 37.2272 10.5389 37.2441 11.2329V14.394C37.2441 15.0246 37.3245 15.526 37.4854 15.8984V16H36.2539ZM34.3052 15.105C34.6733 15.105 35.0225 15.0098 35.3525 14.8193C35.6826 14.6289 35.9217 14.3813 36.0698 14.0767V12.6675H35.1494C33.7106 12.6675 32.9912 13.0885 32.9912 13.9307C32.9912 14.2988 33.1139 14.5866 33.3594 14.7939C33.6048 15.0013 33.9201 15.105 34.3052 15.105ZM43.3252 15.3208C42.8682 15.8582 42.1974 16.127 41.313 16.127C40.5809 16.127 40.0223 15.9154 39.6372 15.4922C39.2563 15.0648 39.0638 14.4342 39.0596 13.6006V9.13184H40.2339V13.5688C40.2339 14.6099 40.6571 15.1304 41.5034 15.1304C42.4006 15.1304 42.9972 14.7961 43.2935 14.1274V9.13184H44.4678V16H43.3506L43.3252 15.3208ZM50.2568 14.1782C50.2568 13.8608 50.1362 13.6154 49.895 13.4419C49.658 13.2642 49.2412 13.1118 48.6445 12.9849C48.0521 12.8579 47.5802 12.7056 47.229 12.5278C46.882 12.3501 46.6239 12.1385 46.4546 11.8931C46.2896 11.6476 46.207 11.3556 46.207 11.0171C46.207 10.4543 46.444 9.97819 46.918 9.58887C47.3962 9.19954 48.0055 9.00488 48.7461 9.00488C49.5247 9.00488 50.1553 9.20589 50.6377 9.60791C51.1243 10.0099 51.3677 10.5241 51.3677 11.1504H50.187C50.187 10.8288 50.0495 10.5516 49.7744 10.3188C49.5036 10.0861 49.1608 9.96973 48.7461 9.96973C48.3187 9.96973 47.9844 10.0628 47.7432 10.249C47.502 10.4352 47.3813 10.6785 47.3813 10.979C47.3813 11.2625 47.4935 11.4762 47.7178 11.6201C47.9421 11.764 48.3462 11.9015 48.9302 12.0327C49.5184 12.1639 49.9945 12.3205 50.3584 12.5024C50.7223 12.6844 50.991 12.9045 51.1646 13.1626C51.3423 13.4165 51.4312 13.7275 51.4312 14.0957C51.4312 14.7093 51.1857 15.2023 50.6948 15.5747C50.2039 15.9429 49.5671 16.127 48.7842 16.127C48.234 16.127 47.7474 16.0296 47.3242 15.835C46.901 15.6403 46.5688 15.3695 46.3276 15.0225C46.0907 14.6712 45.9722 14.2925 45.9722 13.8862H47.1465C47.1676 14.2798 47.3242 14.5929 47.6162 14.8257C47.9124 15.0542 48.3018 15.1685 48.7842 15.1685C49.2285 15.1685 49.584 15.0796 49.8506 14.9019C50.1214 14.7199 50.2568 14.4787 50.2568 14.1782ZM55.811 16.127C54.88 16.127 54.1226 15.8223 53.5386 15.2129C52.9546 14.5993 52.6626 13.7804 52.6626 12.7563V12.5405C52.6626 11.8592 52.7917 11.252 53.0498 10.7188C53.3122 10.1813 53.6761 9.76237 54.1416 9.46191C54.6113 9.15723 55.1191 9.00488 55.665 9.00488C56.5579 9.00488 57.252 9.29899 57.7471 9.88721C58.2422 10.4754 58.4897 11.3175 58.4897 12.4136V12.9023H53.8369C53.8538 13.5794 54.0506 14.1274 54.4272 14.5464C54.8081 14.9611 55.2905 15.1685 55.8745 15.1685C56.2892 15.1685 56.6405 15.0838 56.9282 14.9146C57.216 14.7453 57.4678 14.521 57.6836 14.2417L58.4009 14.8003C57.8254 15.6847 56.9621 16.127 55.811 16.127ZM55.665 9.96973C55.1911 9.96973 54.7933 10.1432 54.4717 10.4902C54.1501 10.833 53.9512 11.3154 53.875 11.9375H57.3154V11.8486C57.2816 11.252 57.1208 10.7907 56.833 10.4648C56.5452 10.1348 56.1559 9.96973 55.665 9.96973Z" fill="#F7F8FC"/>
</svg>
