<svg width="23" height="29" viewBox="0 0 23 29" fill="none" xmlns="http://www.w3.org/2000/svg">
<path d="M8.49609 29H13.5938V23.4771L22.0898 18.3795V13.5938H0V18.3795L8.49609 23.4771V29ZM1.69922 17.4174V15.293H20.3906V17.4174L11.8945 22.515V27.3008H10.1953V22.515L1.69922 17.4174Z" fill="white"/>
<path d="M10.1953 6.79688C12.0692 6.79688 13.5938 5.27234 13.5938 3.39844C13.5938 1.52454 12.0692 0 10.1953 0C8.32141 0 6.79688 1.52454 6.79688 3.39844C6.79688 5.27234 8.32141 6.79688 10.1953 6.79688ZM10.1953 1.69922C11.1323 1.69922 11.8945 2.46149 11.8945 3.39844C11.8945 4.33539 11.1323 5.09766 10.1953 5.09766C9.25836 5.09766 8.49609 4.33539 8.49609 3.39844C8.49609 2.46149 9.25836 1.69922 10.1953 1.69922Z" fill="white"/>
<path d="M11.8945 9.3457C11.8945 10.7511 13.0379 11.8945 14.4434 11.8945C15.8488 11.8945 16.9922 10.7511 16.9922 9.3457C16.9922 7.94028 15.8488 6.79688 14.4434 6.79688C13.0379 6.79688 11.8945 7.94028 11.8945 9.3457ZM14.4434 8.49609C14.9118 8.49609 15.293 8.87723 15.293 9.3457C15.293 9.81418 14.9118 10.1953 14.4434 10.1953C13.9749 10.1953 13.5938 9.81418 13.5938 9.3457C13.5938 8.87723 13.9749 8.49609 14.4434 8.49609Z" fill="white"/>
<path d="M4.24805 11.8945C5.65347 11.8945 6.79688 10.7511 6.79688 9.3457C6.79688 7.94028 5.65347 6.79688 4.24805 6.79688C2.84262 6.79688 1.69922 7.94028 1.69922 9.3457C1.69922 10.7511 2.84262 11.8945 4.24805 11.8945ZM4.24805 8.49609C4.71652 8.49609 5.09766 8.87723 5.09766 9.3457C5.09766 9.81418 4.71652 10.1953 4.24805 10.1953C3.77957 10.1953 3.39844 9.81418 3.39844 9.3457C3.39844 8.87723 3.77957 8.49609 4.24805 8.49609Z" fill="white"/>
<path d="M17.8418 5.09766C19.2472 5.09766 20.3906 3.95425 20.3906 2.54883C20.3906 1.1434 19.2472 0 17.8418 0C16.4364 0 15.293 1.1434 15.293 2.54883C15.293 3.95425 16.4364 5.09766 17.8418 5.09766ZM17.8418 1.69922C18.3103 1.69922 18.6914 2.08035 18.6914 2.54883C18.6914 3.0173 18.3103 3.39844 17.8418 3.39844C17.3733 3.39844 16.9922 3.0173 16.9922 2.54883C16.9922 2.08035 17.3733 1.69922 17.8418 1.69922Z" fill="white"/>
</svg>
