<svg width="20" height="19" viewBox="0 0 20 19" fill="none" xmlns="http://www.w3.org/2000/svg">
<path d="M19.3757 14.8882C18.6123 14.1575 16.7632 13.0911 15.866 12.6613C14.6977 12.1023 14.6016 12.0566 13.6833 12.7047C13.0708 13.1372 12.6636 13.5236 11.9467 13.3784C11.2299 13.2331 9.67215 12.4142 8.30817 11.1227C6.94419 9.83109 6.03215 8.30841 5.87878 7.62974C5.72541 6.95107 6.13889 6.5688 6.58986 5.98558C7.22545 5.1635 7.17737 5.02649 6.63409 3.91668C6.21052 3.05349 5.05521 1.31342 4.28307 0.59182C3.45709 -0.183219 3.45709 -0.0462054 2.92487 0.163882C2.49157 0.337061 2.07588 0.547571 1.68301 0.792773C0.913759 1.27826 0.486826 1.68153 0.188261 2.28759C-0.110304 2.89364 -0.244442 4.31447 1.29742 6.97527C2.83929 9.63607 3.92104 10.9966 6.16004 13.1176C8.39904 15.2385 10.1207 16.379 12.6376 17.7199C15.7511 19.3763 16.9454 19.0535 17.5853 18.7703C18.2252 18.4871 18.6517 18.0852 19.1637 17.3545C19.4225 16.9819 19.6446 16.5875 19.8272 16.1762C20.0488 15.6724 20.1931 15.6724 19.3757 14.8882Z" fill="white"/>
</svg>
