<svg width="186" height="41" viewBox="0 0 186 41" fill="none" xmlns="http://www.w3.org/2000/svg">
<path d="M0 6C0 2.68629 2.68629 0 6 0H180C183.314 0 186 2.68629 186 6V35C186 38.3137 183.314 41 180 41H6.00001C2.6863 41 0 38.3137 0 35V6Z" fill="white"/>
<path d="M51.9395 23.4932V27H49.8887V17.0469H53.7715C54.5189 17.0469 55.1751 17.1836 55.7402 17.457C56.3099 17.7305 56.7474 18.1201 57.0527 18.626C57.3581 19.1273 57.5107 19.6992 57.5107 20.3418C57.5107 21.3171 57.1758 22.0872 56.5059 22.6523C55.8405 23.2129 54.9176 23.4932 53.7373 23.4932H51.9395ZM51.9395 21.832H53.7715C54.3138 21.832 54.7262 21.7044 55.0088 21.4492C55.2959 21.194 55.4395 20.8294 55.4395 20.3555C55.4395 19.8678 55.2959 19.4736 55.0088 19.1729C54.7217 18.8721 54.3252 18.7171 53.8193 18.708H51.9395V21.832ZM60.7236 20.4102C61.2477 19.7812 61.9062 19.4668 62.6992 19.4668C64.3034 19.4668 65.1169 20.3988 65.1396 22.2627V27H63.1641V22.3174C63.1641 21.8936 63.0729 21.5814 62.8906 21.3809C62.7083 21.1758 62.4053 21.0732 61.9814 21.0732C61.4027 21.0732 60.9834 21.2965 60.7236 21.7432V27H58.748V16.5H60.7236V20.4102ZM66.3223 23.2334C66.3223 22.4997 66.4635 21.8457 66.7461 21.2715C67.0286 20.6973 67.4342 20.2529 67.9629 19.9385C68.4961 19.624 69.1136 19.4668 69.8154 19.4668C70.8135 19.4668 71.627 19.7721 72.2559 20.3828C72.8893 20.9935 73.2425 21.8229 73.3154 22.8711L73.3291 23.377C73.3291 24.5117 73.0124 25.4232 72.3789 26.1113C71.7454 26.7949 70.8955 27.1367 69.8291 27.1367C68.7627 27.1367 67.9105 26.7949 67.2725 26.1113C66.639 25.4277 66.3223 24.498 66.3223 23.3223V23.2334ZM68.2979 23.377C68.2979 24.0788 68.43 24.6165 68.6943 24.9902C68.9587 25.3594 69.3369 25.5439 69.8291 25.5439C70.3076 25.5439 70.6813 25.3617 70.9502 24.9971C71.2191 24.6279 71.3535 24.04 71.3535 23.2334C71.3535 22.5452 71.2191 22.012 70.9502 21.6338C70.6813 21.2555 70.3031 21.0664 69.8154 21.0664C69.3324 21.0664 68.9587 21.2555 68.6943 21.6338C68.43 22.0075 68.2979 22.5885 68.2979 23.377ZM76.3643 19.6035L76.4258 20.458C76.9544 19.7972 77.6631 19.4668 78.5518 19.4668C79.3356 19.4668 79.9189 19.6969 80.3018 20.1572C80.6846 20.6175 80.8805 21.3057 80.8896 22.2217V27H78.9141V22.2695C78.9141 21.8503 78.8229 21.5472 78.6406 21.3604C78.4583 21.1689 78.1553 21.0732 77.7314 21.0732C77.1755 21.0732 76.7585 21.3102 76.4805 21.7842V27H74.5049V19.6035H76.3643ZM85.7979 27.1367C84.7132 27.1367 83.8291 26.804 83.1455 26.1387C82.4665 25.4733 82.127 24.5869 82.127 23.4795V23.2881C82.127 22.5452 82.2705 21.8822 82.5576 21.2988C82.8447 20.7109 83.2503 20.2598 83.7744 19.9453C84.3031 19.6263 84.9046 19.4668 85.5791 19.4668C86.5908 19.4668 87.3861 19.7858 87.9648 20.4238C88.5482 21.0618 88.8398 21.9665 88.8398 23.1377V23.9443H84.1299C84.1937 24.4274 84.3851 24.8148 84.7041 25.1064C85.0277 25.3981 85.4355 25.5439 85.9277 25.5439C86.6888 25.5439 87.2835 25.2682 87.7119 24.7168L88.6826 25.8037C88.3864 26.223 87.9854 26.5511 87.4795 26.7881C86.9736 27.0205 86.4131 27.1367 85.7979 27.1367ZM85.5723 21.0664C85.1803 21.0664 84.8613 21.1986 84.6152 21.4629C84.3737 21.7272 84.2188 22.1055 84.1504 22.5977H86.8984V22.4404C86.8893 22.0029 86.7708 21.6657 86.543 21.4287C86.3151 21.1872 85.9915 21.0664 85.5723 21.0664ZM95.6348 25.3525H99.9893V27H93.584V17.0469H95.6348V25.3525ZM103.127 27H101.145V19.6035H103.127V27ZM101.028 17.6895C101.028 17.3932 101.126 17.1494 101.322 16.958C101.523 16.7666 101.794 16.6709 102.136 16.6709C102.473 16.6709 102.742 16.7666 102.942 16.958C103.143 17.1494 103.243 17.3932 103.243 17.6895C103.243 17.9902 103.141 18.2363 102.936 18.4277C102.735 18.6191 102.468 18.7148 102.136 18.7148C101.803 18.7148 101.534 18.6191 101.329 18.4277C101.129 18.2363 101.028 17.9902 101.028 17.6895ZM108.767 24.9561C108.767 24.7145 108.646 24.5254 108.404 24.3887C108.167 24.2474 107.785 24.1221 107.256 24.0127C105.497 23.6436 104.617 22.8962 104.617 21.7705C104.617 21.1143 104.888 20.5674 105.431 20.1299C105.978 19.6878 106.691 19.4668 107.57 19.4668C108.509 19.4668 109.259 19.6878 109.819 20.1299C110.384 20.5719 110.667 21.1462 110.667 21.8525H108.691C108.691 21.57 108.6 21.3376 108.418 21.1553C108.236 20.9684 107.951 20.875 107.563 20.875C107.231 20.875 106.973 20.9502 106.791 21.1006C106.609 21.251 106.518 21.4424 106.518 21.6748C106.518 21.8936 106.62 22.0713 106.825 22.208C107.035 22.3402 107.386 22.4564 107.878 22.5566C108.37 22.6523 108.785 22.7617 109.122 22.8848C110.166 23.2676 110.688 23.9307 110.688 24.874C110.688 25.5485 110.398 26.0954 109.819 26.5146C109.241 26.9294 108.493 27.1367 107.577 27.1367C106.957 27.1367 106.406 27.0273 105.923 26.8086C105.444 26.5853 105.068 26.2822 104.795 25.8994C104.521 25.512 104.385 25.0951 104.385 24.6484H106.258C106.276 24.9993 106.406 25.2682 106.647 25.4551C106.889 25.6419 107.213 25.7354 107.618 25.7354C107.996 25.7354 108.281 25.6647 108.473 25.5234C108.669 25.3776 108.767 25.1885 108.767 24.9561ZM114.331 17.7852V19.6035H115.596V21.0527H114.331V24.7441C114.331 25.0176 114.383 25.2135 114.488 25.332C114.593 25.4505 114.794 25.5098 115.09 25.5098C115.309 25.5098 115.502 25.4938 115.671 25.4619V26.959C115.284 27.0775 114.885 27.1367 114.475 27.1367C113.089 27.1367 112.383 26.4372 112.355 25.0381V21.0527H111.275V19.6035H112.355V17.7852H114.331Z" fill="#3A485A"/>
<path d="M37.4382 25.3211C36.751 24.6672 35.0869 23.7131 34.2794 23.3286C33.228 22.8284 33.1414 22.7875 32.315 23.3674C31.7637 23.7544 31.3972 24.1001 30.752 23.9701C30.1069 23.8402 28.7049 23.1075 27.4774 21.9519C26.2498 20.7962 25.4289 19.4338 25.2909 18.8266C25.1529 18.2194 25.525 17.8773 25.9309 17.3555C26.5029 16.62 26.4596 16.4974 25.9707 15.5044C25.5895 14.7321 24.5497 13.1752 23.8548 12.5295C23.1114 11.8361 23.1114 11.9587 22.6324 12.1466C22.2424 12.3016 21.8683 12.4899 21.5147 12.7093C20.8224 13.1437 20.4381 13.5045 20.1694 14.0468C19.9007 14.5891 19.78 15.8603 21.1677 18.241C22.5554 20.6217 23.5289 21.8391 25.544 23.7368C27.5591 25.6345 29.1086 26.6549 31.3738 27.8546C34.176 29.3367 35.2509 29.0478 35.8268 28.7945C36.4027 28.5411 36.7865 28.1815 37.2474 27.5277C37.4803 27.1943 37.6802 26.8414 37.8445 26.4734C38.044 26.0227 38.1738 26.0227 37.4382 25.3211Z" fill="#3A485A"/>
<path d="M165.698 18H157.302C157.05 18 156.909 18.2453 157.065 18.4128L161.264 22.9036C161.384 23.0321 161.615 23.0321 161.736 22.9036L165.935 18.4128C166.091 18.2453 165.95 18 165.698 18Z" fill="#3A485A"/>
<path d="M6 1H180V-1H6V1ZM185 6V35H187V6H185ZM180 40H6.00001V42H180V40ZM1 35V6H-1V35H1ZM6.00001 40C3.23858 40 1 37.7614 1 35H-1C-1 38.866 2.13401 42 6.00001 42V40ZM185 35C185 37.7614 182.761 40 180 40V42C183.866 42 187 38.866 187 35H185ZM180 1C182.761 1 185 3.23858 185 6H187C187 2.13401 183.866 -1 180 -1V1ZM6 -1C2.13401 -1 -1 2.13401 -1 6H1C1 3.23858 3.23858 1 6 1V-1Z" fill="#E5E5E5"/>
</svg>
