<svg width="40" height="40" viewBox="0 0 40 40" fill="none" xmlns="http://www.w3.org/2000/svg">
<rect width="40" height="40" rx="20" fill="#F9F9F9"/>
<path d="M29.3757 25.8882C28.6123 25.1575 26.7632 24.0911 25.866 23.6613C24.6977 23.1023 24.6016 23.0566 23.6833 23.7047C23.0708 24.1372 22.6636 24.5236 21.9467 24.3784C21.2299 24.2331 19.6721 23.4142 18.3082 22.1227C16.9442 20.8311 16.0322 19.3084 15.8788 18.6297C15.7254 17.9511 16.1389 17.5688 16.5899 16.9856C17.2255 16.1635 17.1774 16.0265 16.6341 14.9167C16.2105 14.0535 15.0552 12.3134 14.2831 11.5918C13.4571 10.8168 13.4571 10.9538 12.9249 11.1639C12.4916 11.3371 12.0759 11.5476 11.683 11.7928C10.9138 12.2783 10.4868 12.6815 10.1883 13.2876C9.8897 13.8936 9.75556 15.3145 11.2974 17.9753C12.8393 20.6361 13.921 21.9966 16.16 24.1176C18.399 26.2385 20.1207 27.379 22.6376 28.7199C25.7511 30.3763 26.9454 30.0535 27.5853 29.7703C28.2252 29.4871 28.6517 29.0852 29.1637 28.3545C29.4225 27.9819 29.6446 27.5875 29.8272 27.1762C30.0488 26.6724 30.1931 26.6724 29.3757 25.8882Z" fill="#7A9FFF"/>
</svg>
