<svg width="160" height="41" viewBox="0 0 160 41" fill="none" xmlns="http://www.w3.org/2000/svg">
<path d="M0 6C0 2.68629 2.68629 0 6 0H154C157.314 0 160 2.68629 160 6V35C160 38.3137 157.314 41 154 41H6C2.6863 41 0 38.3137 0 35V6Z" fill="#3062FF"/>
<path d="M50.3757 25.8882C49.6123 25.1575 47.7632 24.0911 46.866 23.6613C45.6977 23.1023 45.6016 23.0566 44.6833 23.7047C44.0708 24.1372 43.6636 24.5236 42.9467 24.3784C42.2299 24.2331 40.6721 23.4142 39.3082 22.1227C37.9442 20.8311 37.0322 19.3084 36.8788 18.6297C36.7254 17.9511 37.1389 17.5688 37.5899 16.9856C38.2255 16.1635 38.1774 16.0265 37.6341 14.9167C37.2105 14.0535 36.0552 12.3134 35.2831 11.5918C34.4571 10.8168 34.4571 10.9538 33.9249 11.1639C33.4916 11.3371 33.0759 11.5476 32.683 11.7928C31.9138 12.2783 31.4868 12.6815 31.1883 13.2876C30.8897 13.8936 30.7556 15.3145 32.2974 17.9753C33.8393 20.6361 34.921 21.9966 37.16 24.1176C39.399 26.2385 41.1207 27.379 43.6376 28.7199C46.7511 30.3763 47.9454 30.0535 48.5853 29.7703C49.2252 29.4871 49.6517 29.0852 50.1637 28.3545C50.4225 27.9819 50.6446 27.5875 50.8272 27.1762C51.0488 26.6724 51.1931 26.6724 50.3757 25.8882Z" fill="white"/>
<path d="M63.4678 22.1035V26H62.1553V16.0469H65.8262C66.9154 16.0469 67.7676 16.3249 68.3828 16.8809C69.0026 17.4368 69.3125 18.1729 69.3125 19.0889C69.3125 20.055 69.0094 20.8001 68.4033 21.3242C67.8018 21.8438 66.9382 22.1035 65.8125 22.1035H63.4678ZM63.4678 21.0303H65.8262C66.528 21.0303 67.0658 20.8662 67.4395 20.5381C67.8132 20.2054 68 19.7269 68 19.1025C68 18.5101 67.8132 18.0361 67.4395 17.6807C67.0658 17.3252 66.5531 17.1406 65.9014 17.127H63.4678V21.0303ZM72.0537 19.499C72.6143 18.8109 73.3434 18.4668 74.2412 18.4668C75.8044 18.4668 76.5928 19.3486 76.6064 21.1123V26H75.3418V21.1055C75.3372 20.5723 75.2142 20.1781 74.9727 19.9229C74.7357 19.6676 74.3643 19.54 73.8584 19.54C73.4482 19.54 73.0882 19.6494 72.7783 19.8682C72.4684 20.0869 72.2269 20.374 72.0537 20.7295V26H70.7891V15.5H72.0537V19.499ZM78.165 22.2334C78.165 21.5088 78.3063 20.8571 78.5889 20.2783C78.876 19.6995 79.2725 19.2529 79.7783 18.9385C80.2887 18.624 80.8698 18.4668 81.5215 18.4668C82.5286 18.4668 83.3421 18.8154 83.9619 19.5127C84.5863 20.21 84.8984 21.1374 84.8984 22.2949V22.3838C84.8984 23.1038 84.7594 23.751 84.4814 24.3252C84.208 24.8949 83.8138 25.3392 83.2988 25.6582C82.7884 25.9772 82.2005 26.1367 81.5352 26.1367C80.5326 26.1367 79.7191 25.7881 79.0947 25.0908C78.4749 24.3936 78.165 23.4707 78.165 22.3223V22.2334ZM79.4365 22.3838C79.4365 23.2041 79.6257 23.8626 80.0039 24.3594C80.3867 24.8561 80.8971 25.1045 81.5352 25.1045C82.1777 25.1045 82.6882 24.8538 83.0664 24.3525C83.4447 23.8467 83.6338 23.1403 83.6338 22.2334C83.6338 21.4222 83.4401 20.766 83.0527 20.2646C82.6699 19.7588 82.1595 19.5059 81.5215 19.5059C80.8971 19.5059 80.3936 19.7542 80.0107 20.251C79.6279 20.7477 79.4365 21.4587 79.4365 22.3838ZM87.6807 18.6035L87.7217 19.5332C88.2868 18.8223 89.0251 18.4668 89.9365 18.4668C91.4997 18.4668 92.2881 19.3486 92.3018 21.1123V26H91.0371V21.1055C91.0326 20.5723 90.9095 20.1781 90.668 19.9229C90.431 19.6676 90.0596 19.54 89.5537 19.54C89.1436 19.54 88.7835 19.6494 88.4736 19.8682C88.1637 20.0869 87.9222 20.374 87.749 20.7295V26H86.4844V18.6035H87.6807ZM97.2783 26.1367C96.2757 26.1367 95.46 25.8086 94.8311 25.1523C94.2021 24.4915 93.8877 23.6097 93.8877 22.5068V22.2744C93.8877 21.5407 94.0267 20.8867 94.3047 20.3125C94.5872 19.7337 94.9792 19.2826 95.4805 18.959C95.9863 18.6309 96.5332 18.4668 97.1211 18.4668C98.0827 18.4668 98.8301 18.7835 99.3633 19.417C99.8965 20.0505 100.163 20.9574 100.163 22.1377V22.6641H95.1523C95.1706 23.3932 95.3825 23.9834 95.7881 24.4346C96.1982 24.8812 96.7178 25.1045 97.3467 25.1045C97.7933 25.1045 98.1715 25.0133 98.4814 24.8311C98.7913 24.6488 99.0625 24.4072 99.2949 24.1064L100.067 24.708C99.4476 25.6605 98.5179 26.1367 97.2783 26.1367ZM97.1211 19.5059C96.6107 19.5059 96.1823 19.6927 95.8359 20.0664C95.4896 20.4355 95.2754 20.9551 95.1934 21.625H98.8984V21.5293C98.862 20.8867 98.6888 20.39 98.3789 20.0391C98.069 19.6836 97.6497 19.5059 97.1211 19.5059ZM112.625 22.8418C112.502 23.8945 112.112 24.708 111.456 25.2822C110.804 25.8519 109.936 26.1367 108.852 26.1367C107.676 26.1367 106.732 25.7152 106.021 24.8721C105.315 24.029 104.962 22.901 104.962 21.4883V20.5312C104.962 19.6061 105.126 18.7926 105.454 18.0908C105.787 17.389 106.256 16.8512 106.862 16.4775C107.468 16.0993 108.17 15.9102 108.968 15.9102C110.025 15.9102 110.873 16.2064 111.511 16.7988C112.149 17.3867 112.52 18.2025 112.625 19.2461H111.306C111.192 18.4531 110.943 17.8789 110.561 17.5234C110.182 17.168 109.651 16.9902 108.968 16.9902C108.129 16.9902 107.471 17.3001 106.992 17.9199C106.518 18.5397 106.281 19.4215 106.281 20.5654V21.5293C106.281 22.6094 106.507 23.4684 106.958 24.1064C107.409 24.7445 108.04 25.0635 108.852 25.0635C109.581 25.0635 110.139 24.8994 110.526 24.5713C110.918 24.2386 111.178 23.6621 111.306 22.8418H112.625ZM118.791 26C118.718 25.8542 118.659 25.5944 118.613 25.2207C118.025 25.8314 117.324 26.1367 116.508 26.1367C115.779 26.1367 115.179 25.9316 114.71 25.5215C114.245 25.1068 114.013 24.5827 114.013 23.9492C114.013 23.179 114.304 22.582 114.888 22.1582C115.476 21.7298 116.3 21.5156 117.362 21.5156H118.593V20.9346C118.593 20.4925 118.461 20.1416 118.196 19.8818C117.932 19.6175 117.542 19.4854 117.027 19.4854C116.576 19.4854 116.198 19.5993 115.893 19.8271C115.587 20.055 115.435 20.3307 115.435 20.6543H114.163C114.163 20.2852 114.293 19.9297 114.553 19.5879C114.817 19.2415 115.173 18.9681 115.619 18.7676C116.07 18.5671 116.565 18.4668 117.103 18.4668C117.955 18.4668 118.622 18.681 119.105 19.1094C119.589 19.5332 119.839 20.1188 119.857 20.8662V24.2705C119.857 24.9495 119.944 25.4896 120.117 25.8906V26H118.791ZM116.692 25.0361C117.089 25.0361 117.465 24.9336 117.82 24.7285C118.176 24.5234 118.433 24.2568 118.593 23.9287V22.4111H117.602C116.052 22.4111 115.277 22.8646 115.277 23.7715C115.277 24.168 115.41 24.4779 115.674 24.7012C115.938 24.9245 116.278 25.0361 116.692 25.0361ZM123.214 26H121.949V15.5H123.214V26ZM126.618 26H125.354V15.5H126.618V26Z" fill="white"/>
</svg>
