<svg width="7" height="10" viewBox="0 0 7 10" fill="none" xmlns="http://www.w3.org/2000/svg">
<path d="M1.38826e-06 0.808973V9.18989C1.38826e-06 9.82898 0.600283 10.2173 1.06257 9.86943L6.679 5.67897C6.77733 5.60601 6.85832 5.50507 6.91445 5.38556C6.97057 5.26604 7 5.13182 7 4.99539C7 4.85895 6.97057 4.72474 6.91445 4.60522C6.85832 4.4857 6.77733 4.38477 6.679 4.31181L1.06257 0.129438C0.958498 0.0505188 0.838189 0.00599508 0.714334 0.000564152C0.590479 -0.00486678 0.46767 0.0289963 0.358862 0.0985812C0.250054 0.168166 0.159282 0.270893 0.096121 0.395924C0.0329602 0.520956 -0.00024745 0.663657 1.38826e-06 0.808973Z" fill="#0046FE"/>
</svg>
