<svg width="20" height="20" viewBox="0 0 20 20" fill="none" xmlns="http://www.w3.org/2000/svg">
<path d="M18.3329 13.3335C18.1486 13.3335 17.9996 13.4828 17.9996 13.6668V19.3335H15.6663C15.482 19.3335 15.333 19.4828 15.333 19.6668C15.333 19.8508 15.482 20.0001 15.6663 20.0001H18.333C18.5173 20.0001 18.6663 19.8508 18.6663 19.6668V13.6668C18.6663 13.4828 18.5172 13.3335 18.3329 13.3335Z" fill="#3A485A"/>
<path d="M17.3336 16.3335V13.6668C17.3336 13.4828 17.1846 13.3335 17.0003 13.3335H15.0003C14.816 13.3335 14.667 13.4828 14.667 13.6668V16.3335C14.667 16.5175 14.816 16.6668 15.0003 16.6668H17.0003C17.1846 16.6668 17.3336 16.5175 17.3336 16.3335ZM16.667 16.0001H15.3337V14.0001H16.667V16.0001Z" fill="#3A485A"/>
<path d="M13.0002 5.6668C13.1846 5.6668 13.3336 5.51746 13.3336 5.33348V3.66681C13.3336 3.48283 13.1846 3.3335 13.0002 3.3335H3.00031C2.81598 3.3335 2.66699 3.48283 2.66699 3.66681V15.3334C2.66699 15.5174 2.81598 15.6667 3.00031 15.6667C3.18464 15.6667 3.33363 15.5174 3.33363 15.3334V14.6667H3.66695C3.85128 14.6667 4.00026 14.5174 4.00026 14.3334C4.00026 14.1494 3.85128 14.0001 3.66695 14.0001H3.33363V12.0001H4.66694V13.3334C4.66694 13.5174 4.81592 13.6667 5.00026 13.6667C5.18459 13.6667 5.33357 13.5174 5.33357 13.3334V12.0001H6.66688C6.85122 12.0001 7.0002 11.8508 7.0002 11.6668C7.18454 11.6668 7.33352 11.5175 7.33352 11.3335V9.33349H8.66683C8.66683 9.51747 8.81581 9.6668 9.00015 9.6668C9.18448 9.6668 9.33347 9.51747 9.33347 9.33349C9.5178 9.33349 9.66678 9.18415 9.66678 9.00017C9.66678 8.81619 9.5178 8.66685 9.33347 8.66685V6.66687H10.6668V7.33354C10.6668 7.51752 10.8158 7.66686 11.0001 7.66686C11.1844 7.66686 11.3334 7.51752 11.3334 7.33354V6.66679H12.0001C12.1844 6.66679 12.3334 6.51745 12.3334 6.33347C12.3334 6.14949 12.1844 6.00015 12.0001 6.00015H11.3334V4.00017H12.6667V5.33348C12.6669 5.51746 12.8159 5.6668 13.0002 5.6668ZM4.66698 11.3334H3.33363V9.33345H4.66694V11.3334H4.66698ZM4.66698 8.66677H3.33363V6.66679H4.66694V8.66677H4.66698ZM4.66698 6.00012H3.33363V4.00013H4.66694V6.00012H4.66698ZM6.66696 11.3334H5.33365V9.33345H6.66696V11.3334ZM6.66696 8.66677H5.33365V6.66679H6.66696V8.66677ZM6.66696 6.00012H5.33365V4.00013H6.66696V6.00012ZM8.66695 8.66677H7.33364V6.66679H8.66695V8.66677ZM8.66695 6.00012H7.33364V4.00013H8.66695V6.00012ZM10.6669 6.00012H9.33362V4.00013H10.6669V6.00012Z" fill="#3A485A"/>
<path d="M1.66681 16.9998C1.85115 16.9998 2.00013 16.8505 2.00013 16.6665V2.66662H4.33343C4.51777 2.66662 4.66675 2.51728 4.66675 2.3333V1.33331H7.00005C7.18439 1.33331 7.33337 1.18397 7.33337 0.999992V0.666635H8.66668V0.999953C8.66668 1.18394 8.81566 1.33327 9 1.33327H11.3333V1.99995H5.66678C5.48245 1.99995 5.33346 2.14928 5.33346 2.33326C5.33346 2.51725 5.48245 2.66658 5.66678 2.66658H14V3.99989C14 4.18387 14.149 4.33321 14.3334 4.33321C14.5177 4.33321 14.6667 4.18387 14.6667 3.99989V2.3333C14.6667 2.14932 14.5177 1.99998 14.3334 1.99998H12.0001V0.999992C12.0001 0.816009 11.8511 0.666674 11.6667 0.666674H9.33343V0.333318C9.33343 0.149335 9.18445 0 9.00011 0H7.00013C6.8158 0 6.66681 0.149335 6.66681 0.333318V0.666635H4.33351C4.14918 0.666635 4.00019 0.81597 4.00019 0.999953V1.99995H1.66681C1.48248 1.99995 1.3335 2.14928 1.3335 2.33326V16.6665C1.33346 16.8505 1.48248 16.9998 1.66681 16.9998Z" fill="#3A485A"/>
<path d="M19.6665 7.33338H17.3332V7.00007C17.3332 6.81608 17.1842 6.66675 16.9999 6.66675H15.6666C15.4823 6.66675 15.3333 6.81608 15.3333 7.00007V7.66674C15.3333 7.85072 15.4823 8.00006 15.6666 8.00006C15.8509 8.00006 15.9999 7.85072 15.9999 7.66674V7.33342H16.6666V7.66674C16.6666 7.85072 16.8156 8.00006 16.9999 8.00006H19.3332V12.5287L14.2356 7.43108C14.1052 7.30077 13.8946 7.30077 13.7643 7.43108C13.6339 7.56143 13.6339 7.77209 13.7643 7.9024L19.4309 13.569C19.4945 13.6327 19.5798 13.6667 19.6665 13.6667C19.7095 13.6667 19.7528 13.6583 19.7942 13.6413C19.9189 13.5896 19.9998 13.468 19.9998 13.3333V7.6667C19.9998 7.48268 19.8509 7.33338 19.6665 7.33338Z" fill="#3A485A"/>
<path d="M14.333 18.6665H10.9997C10.8154 18.6665 10.6664 18.8159 10.6664 18.9999V19.3332H7.33314V14.6666C7.33314 14.4826 7.18416 14.3333 6.99982 14.3333C6.81549 14.3333 6.6665 14.4826 6.6665 14.6666V19.6665C6.6665 19.8505 6.81549 19.9998 6.99982 19.9998H10.9998C11.1841 19.9998 11.3331 19.8505 11.3331 19.6665V19.3332H13.9998V19.6665C13.9998 19.8505 14.1487 19.9998 14.3331 19.9998C14.5174 19.9998 14.6664 19.8505 14.6664 19.6665V18.9999C14.6664 18.8159 14.5174 18.6665 14.333 18.6665Z" fill="#3A485A"/>
<path d="M19.9023 0.098466C19.772 -0.0318455 19.5613 -0.0318455 19.4309 0.098466L0.0977336 19.4317C-0.0325779 19.562 -0.0325779 19.7727 0.0977336 19.903C0.162733 19.968 0.248084 20.0007 0.333396 20.0007C0.418747 20.0007 0.504059 19.968 0.569058 19.903L19.9023 0.56983C20.0326 0.439479 20.0326 0.228817 19.9023 0.098466Z" fill="#3A485A"/>
<path d="M13.6668 18.0001C13.8511 18.0001 14.0001 17.8508 14.0001 17.6668V13.6668C14.0001 13.4828 13.8511 13.3335 13.6668 13.3335H11.6668C11.4825 13.3335 11.3335 13.4828 11.3335 13.6668V17.6668C11.3335 17.8508 11.4825 18.0001 11.6668 18.0001C11.8511 18.0001 12.0001 17.8508 12.0001 17.6668V14.0001H13.3334V15.3334H13.0001C12.8158 15.3334 12.6668 15.4828 12.6668 15.6668C12.6668 15.8507 12.8158 16.0001 13.0001 16.0001H13.3334V17.6667C13.3335 17.8508 13.4825 18.0001 13.6668 18.0001Z" fill="#3A485A"/>
<path d="M8.33332 13.3335C8.14898 13.3335 8 13.4828 8 13.6668V16.3335C8 16.5175 8.14898 16.6668 8.33332 16.6668H10.3333C10.5176 16.6668 10.6666 16.5175 10.6666 16.3335V13.6668C10.6666 13.4828 10.5176 13.3335 10.3333 13.3335H8.33332ZM9.99995 16.0001H8.66664V14.0001H9.99995V16.0001Z" fill="#3A485A"/>
</svg>
