<svg width="22" height="22" viewBox="0 0 22 22" fill="none" xmlns="http://www.w3.org/2000/svg">
<path d="M20.7777 0H11C10.3278 0 9.77777 0.549997 9.77777 1.22222V3.18998L9.78999 3.20221L15.9011 8.70218C16.6711 9.38662 17.1111 10.3888 17.1111 11.4277V12.2222H19.5555V14.6666H17.1111V17.111H19.5555V19.5555H17.1111V21.9999H20.7777C21.4499 21.9999 21.9999 21.4499 21.9999 20.7777V1.22222C21.9999 0.549997 21.4499 0 20.7777 0ZM14.6666 4.88886H12.2222V2.44443H14.6666V4.88886ZM19.5555 9.77773H17.1111V7.33329H19.5555V9.77773ZM19.5555 4.88886H17.1111V2.44443H19.5555V4.88886Z" fill="white"/>
<path d="M14.6667 20.7773V11.4274C14.6663 11.2568 14.6302 11.0882 14.5607 10.9325C14.4912 10.7767 14.3899 10.6372 14.2633 10.5229L8.15226 5.02296C7.93074 4.815 7.63718 4.70109 7.33337 4.70518C7.04004 4.70518 6.74671 4.81518 6.51449 5.02296L0.403408 10.5229C0.274953 10.6357 0.172402 10.7749 0.102785 10.931C0.0331679 11.0871 -0.00186889 11.2565 7.68187e-05 11.4274V20.7773C7.68187e-05 21.4495 0.550074 21.9995 1.22229 21.9995H3.66672C4.33894 21.9995 4.88894 21.4495 4.88894 20.7773V15.8885H9.7778V20.7773C9.7778 21.4495 10.3278 21.9995 11 21.9995H13.4445C14.1167 21.9995 14.6667 21.4495 14.6667 20.7773Z" fill="white"/>
</svg>
