<svg width="20" height="20" viewBox="0 0 20 20" fill="none" xmlns="http://www.w3.org/2000/svg">
<g clip-path="url(#clip0)">
<path d="M19.0442 12.6216L17.3775 10.9549C17.215 10.7924 16.9508 10.7924 16.7883 10.9549L10.1217 17.6216C10.0442 17.6999 10 17.8057 10 17.9166V19.5832C10 19.8132 10.1867 19.9999 10.4167 19.9999H12.0834C12.1934 19.9999 12.2992 19.9557 12.3775 19.8774L17.375 14.8799C17.3759 14.8791 17.3767 14.8791 17.3775 14.8782C17.3784 14.8774 17.3784 14.8766 17.3792 14.8757L19.0442 13.2107C19.2067 13.0482 19.2067 12.7841 19.0442 12.6216ZM11.9109 19.1666H10.8334V18.0891L15.4167 13.5057L16.4942 14.5832L11.9109 19.1666ZM17.0825 13.9941L16.005 12.9166L17.0833 11.8382L18.1608 12.9157L17.0825 13.9941Z" fill="white"/>
<path d="M15.4173 0H2.08398C1.3948 0 0.833984 0.56082 0.833984 1.25V17.0833C0.833984 17.7725 1.3948 18.3333 2.08398 18.3333H8.75066C8.98066 18.3333 9.16734 18.1466 9.16734 17.9166C9.16734 17.6866 8.98066 17.5 8.75066 17.5H2.08398C1.85398 17.5 1.6673 17.3133 1.6673 17.0833V1.25C1.6673 1.02 1.85398 0.83332 2.08398 0.83332H3.33398V1.74332C2.8498 1.91582 2.50066 2.37414 2.50066 2.91664C2.50066 3.60582 3.06148 4.16664 3.75066 4.16664C4.43984 4.16664 5.00066 3.60582 5.00066 2.91664C5.00066 2.37414 4.65148 1.91582 4.16734 1.74332V0.83332H6.66734V1.74332C6.18316 1.91582 5.83402 2.37414 5.83402 2.91664C5.83402 3.60582 6.39484 4.16664 7.08402 4.16664C7.7732 4.16664 8.33402 3.60582 8.33402 2.91664C8.33402 2.37414 7.98484 1.91582 7.5007 1.74332V0.83332H10.0007V1.74332C9.51652 1.91582 9.16738 2.37414 9.16738 2.91664C9.16738 3.60582 9.7282 4.16664 10.4174 4.16664C11.1066 4.16664 11.6674 3.60582 11.6674 2.91664C11.6674 2.37414 11.3182 1.91582 10.8341 1.74332V0.83332H13.3341V1.74332C12.8499 1.91582 12.5007 2.37414 12.5007 2.91664C12.5007 3.60582 13.0616 4.16664 13.7507 4.16664C14.4399 4.16664 15.0007 3.60582 15.0007 2.91664C15.0007 2.37414 14.6516 1.91582 14.1674 1.74332V0.83332H15.4174C15.6474 0.83332 15.8341 1.02 15.8341 1.25V9.58332C15.8341 9.81332 16.0208 10 16.2508 10C16.4808 10 16.6675 9.81332 16.6675 9.58332V1.25C16.6673 0.56082 16.1065 0 15.4173 0ZM3.75066 3.33332C3.52066 3.33332 3.33398 3.14664 3.33398 2.91664C3.33398 2.68664 3.52066 2.5 3.75066 2.5C3.98066 2.5 4.16734 2.68668 4.16734 2.91668C4.16734 3.14668 3.98066 3.33332 3.75066 3.33332ZM7.50066 2.91668C7.50066 3.14668 7.31398 3.33336 7.08398 3.33336C6.85398 3.33336 6.6673 3.14668 6.6673 2.91668C6.6673 2.68668 6.85398 2.5 7.08398 2.5C7.31398 2.5 7.50066 2.68668 7.50066 2.91668ZM10.4173 3.33332C10.1873 3.33332 10.0006 3.14664 10.0006 2.91664C10.0006 2.68664 10.1873 2.5 10.4173 2.5C10.6473 2.5 10.834 2.68668 10.834 2.91668C10.834 3.14668 10.6473 3.33332 10.4173 3.33332ZM13.7507 3.33332C13.5207 3.33332 13.334 3.14664 13.334 2.91664C13.334 2.68664 13.5207 2.5 13.7507 2.5C13.9807 2.5 14.1673 2.68668 14.1673 2.91668C14.1673 3.14668 13.9807 3.33332 13.7507 3.33332Z" fill="white"/>
</g>
<defs>
<clipPath id="clip0">
<rect width="20" height="20" fill="white"/>
</clipPath>
</defs>
</svg>
