<svg width="23" height="18" viewBox="0 0 23 18" fill="none" xmlns="http://www.w3.org/2000/svg">
<path d="M10.3109 14.8499H7.47283C7.26878 14.8499 7.10184 14.6829 7.10184 14.4789V12.7167C7.10184 12.2715 6.7494 11.919 6.30421 11.919C5.85902 11.919 5.50658 12.2715 5.50658 12.7167V14.4789C5.50658 14.6829 5.33964 14.8499 5.13559 14.8499H2.33461C2.13057 14.8499 1.96362 14.6829 1.96362 14.4789V9.7302C1.96362 9.39631 2.13057 9.08097 2.39026 8.89547L6.11871 6.20579C6.24856 6.11304 6.41551 6.11304 6.54535 6.20579L10.2738 8.89547C10.5335 9.08097 10.7004 9.39631 10.7004 9.7302V14.4974C10.6819 14.6829 10.515 14.8499 10.3109 14.8499ZM7.84382 14.1264H9.95846V9.7302C9.95846 9.63745 9.90282 9.5447 9.82862 9.48906L6.32276 6.94777L2.8169 9.47051C2.7427 9.52616 2.68705 9.6189 2.68705 9.71165V14.1079H4.8017V12.7167C4.8017 11.8819 5.48803 11.1956 6.32276 11.1956C7.15749 11.1956 7.84382 11.8819 7.84382 12.7167V14.1264Z" fill="white"/>
<path fill-rule="evenodd" clip-rule="evenodd" d="M19.125 7.3125C19.125 7.62311 18.8731 7.875 18.5625 7.875H12.375C12.0644 7.875 11.8125 7.62311 11.8125 7.3125C11.8125 7.00189 12.0644 6.75 12.375 6.75H18.5625C18.8731 6.75 19.125 7.00189 19.125 7.3125Z" fill="white"/>
<path fill-rule="evenodd" clip-rule="evenodd" d="M19.125 10.6875C19.125 10.9981 18.8731 11.25 18.5625 11.25H12.375C12.0644 11.25 11.8125 10.9981 11.8125 10.6875C11.8125 10.3769 12.0644 10.125 12.375 10.125H18.5625C18.8731 10.125 19.125 10.3769 19.125 10.6875Z" fill="white"/>
<path fill-rule="evenodd" clip-rule="evenodd" d="M19.125 14.0623C19.125 14.3729 18.8731 14.6248 18.5625 14.6248H12.375C12.0644 14.6248 11.8125 14.3729 11.8125 14.0623C11.8125 13.7516 12.0644 13.4998 12.375 13.4998H18.5625C18.8731 13.4998 19.125 13.7516 19.125 14.0623Z" fill="white"/>
<path fill-rule="evenodd" clip-rule="evenodd" d="M7.875 0C6.94302 0 6.1875 0.755516 6.1875 1.6875H2.8125C1.2592 1.6875 0 2.9467 0 4.5V15.1875C0 16.7408 1.2592 18 2.8125 18H19.6875C21.2408 18 22.5 16.7408 22.5 15.1875V4.5C22.5 2.9467 21.2408 1.6875 19.6875 1.6875H16.3125C16.3125 0.755516 15.5569 0 14.625 0H7.875ZM16.3125 2.8125C16.3125 3.74448 15.5569 4.5 14.625 4.5H7.875C6.94302 4.5 6.1875 3.74448 6.1875 2.8125H2.8125C1.88052 2.8125 1.125 3.56802 1.125 4.5V15.1875C1.125 16.1194 1.88052 16.875 2.8125 16.875H19.6875C20.6194 16.875 21.375 16.1194 21.375 15.1875V4.5C21.375 3.56802 20.6194 2.8125 19.6875 2.8125H16.3125ZM7.3125 1.6875C7.3125 1.37684 7.56434 1.125 7.875 1.125H14.625C14.9356 1.125 15.1875 1.37684 15.1875 1.6875V2.8125C15.1875 3.12316 14.9356 3.375 14.625 3.375H7.875C7.56434 3.375 7.3125 3.12316 7.3125 2.8125V1.6875Z" fill="white"/>
<path fill-rule="evenodd" clip-rule="evenodd" d="M7.875 0C6.94302 0 6.1875 0.755516 6.1875 1.6875H2.8125C1.2592 1.6875 0 2.9467 0 4.5V15.1875C0 16.7408 1.2592 18 2.8125 18H19.6875C21.2408 18 22.5 16.7408 22.5 15.1875V4.5C22.5 2.9467 21.2408 1.6875 19.6875 1.6875H16.3125C16.3125 0.755516 15.5569 0 14.625 0H7.875ZM16.3125 2.8125C16.3125 3.74448 15.5569 4.5 14.625 4.5H7.875C6.94302 4.5 6.1875 3.74448 6.1875 2.8125H2.8125C1.88052 2.8125 1.125 3.56802 1.125 4.5V15.1875C1.125 16.1194 1.88052 16.875 2.8125 16.875H19.6875C20.6194 16.875 21.375 16.1194 21.375 15.1875V4.5C21.375 3.56802 20.6194 2.8125 19.6875 2.8125H16.3125ZM7.3125 1.6875C7.3125 1.37684 7.56434 1.125 7.875 1.125H14.625C14.9356 1.125 15.1875 1.37684 15.1875 1.6875V2.8125C15.1875 3.12316 14.9356 3.375 14.625 3.375H7.875C7.56434 3.375 7.3125 3.12316 7.3125 2.8125V1.6875Z" fill="white"/>
</svg>
