<svg width="24" height="24" viewBox="0 0 24 24" fill="none" xmlns="http://www.w3.org/2000/svg">
<path d="M18.5454 8.1817C18.8467 8.1817 19.0909 7.9375 19.0909 7.63626C19.0909 7.33502 18.8467 7.09082 18.5454 7.09082C18.2442 7.09082 18 7.33502 18 7.63626C18 7.9375 18.2442 8.1817 18.5454 8.1817Z" fill="white"/>
<path d="M18.5454 10.3638C18.8467 10.3638 19.0909 10.1196 19.0909 9.81839C19.0909 9.51715 18.8467 9.27295 18.5454 9.27295C18.2442 9.27295 18 9.51715 18 9.81839C18 10.1196 18.2442 10.3638 18.5454 10.3638Z" fill="white"/>
<path d="M18.5454 12.5455C18.8467 12.5455 19.0909 12.3013 19.0909 12C19.0909 11.6988 18.8467 11.4546 18.5454 11.4546C18.2442 11.4546 18 11.6988 18 12C18 12.3013 18.2442 12.5455 18.5454 12.5455Z" fill="white"/>
<path d="M15.6135 8.84667L12.8862 6.66487C12.6871 6.50559 12.404 6.50559 12.2049 6.66487L9.47761 8.84667C9.29654 8.99123 9.22726 9.23446 9.30362 9.45323C9.37997 9.67195 9.58618 9.81815 9.81797 9.81815V12.5454C9.81797 12.8465 10.0623 13.0909 10.3634 13.0909H14.7271C15.0287 13.0909 15.2725 12.8465 15.2725 12.5454V9.81815C15.5043 9.81815 15.7105 9.67195 15.7869 9.45323C15.8633 9.23451 15.794 8.99123 15.6135 8.84667ZM14.1816 9.27267V11.9999H10.9089V9.27267C10.9089 9.2181 10.9007 9.16631 10.886 9.11667L12.5453 7.78959L14.2045 9.11667C14.1898 9.16631 14.1816 9.21815 14.1816 9.27267Z" fill="white"/>
<path d="M22.909 2.1818H4.909V1.63636C4.909 0.734203 4.17485 0 3.27264 0C2.37049 0 1.63629 0.734203 1.63629 1.63636V22.9091H1.09085C0.78977 22.9091 0.54541 23.1534 0.54541 23.4545C0.54541 23.7556 0.78977 24 1.09085 24H14.7272C15.0288 24 15.2726 23.7556 15.2726 23.4545C15.2726 23.1534 15.0288 22.9091 14.7272 22.9091H13.0358C12.7821 21.666 11.6808 20.7273 10.3636 20.7273C10.033 20.7273 9.70413 20.7906 9.39213 20.9116C8.67157 20.106 7.63849 19.6364 6.54541 19.6364C4.62597 19.6364 3.03705 21.0616 2.77085 22.9091H2.72721V1.63636C2.72721 1.3358 2.97213 1.09092 3.27264 1.09092C3.57316 1.09092 3.81808 1.33584 3.81808 1.63636V18.5454C3.81808 18.8465 4.06244 19.0909 4.36352 19.0909C4.6646 19.0909 4.90896 18.8465 4.90896 18.5454V3.27272H9.2726V4.36364H8.72716C7.82496 4.36364 7.0908 5.09784 7.0908 6V13.6364C7.0908 14.5386 7.825 15.2727 8.72716 15.2727H20.7272C21.6294 15.2727 22.3635 14.5385 22.3635 13.6364V6C22.3635 5.0978 21.6293 4.36364 20.7272 4.36364H20.1817V3.27272H22.909C23.2106 3.27272 23.4544 3.02836 23.4544 2.72728C23.4544 2.4262 23.2106 2.1818 22.909 2.1818ZM6.54536 20.7273C7.43936 20.7273 8.27772 21.1675 8.78829 21.9055C8.95249 22.1422 9.27208 22.2115 9.51972 22.0615C9.7848 21.9 10.069 21.8182 10.3635 21.8182C11.0737 21.8182 11.6737 22.2758 11.8995 22.9091H3.87321C4.12685 21.666 5.22864 20.7273 6.54536 20.7273ZM20.7272 5.45456C21.0283 5.45456 21.2726 5.69948 21.2726 6V13.6364C21.2726 13.9369 21.0283 14.1818 20.7272 14.1818H8.72721C8.42664 14.1818 8.18177 13.9369 8.18177 13.6364V6C8.18177 5.69944 8.42669 5.45456 8.72721 5.45456H17.4545C17.7561 5.45456 17.9999 5.2102 17.9999 4.90912C17.9999 4.60805 17.7561 4.36369 17.4545 4.36369H10.3636V3.27272H19.0908V4.90908C19.0908 5.21016 19.3346 5.45452 19.6363 5.45452H20.7272V5.45456Z" fill="white"/>
</svg>
