<svg width="15" height="18" viewBox="0 0 15 18" fill="none" xmlns="http://www.w3.org/2000/svg">
<path d="M5.00011 3.74854H4.25012V4.49852H5.00011V3.74854Z" fill="#7A9FFF"/>
<path d="M3.50035 3.74854H2.75037V4.49852H3.50035V3.74854Z" fill="#7A9FFF"/>
<path d="M6.50001 2.25H2.75V2.99999H6.50001V2.25Z" fill="#7A9FFF"/>
<path d="M14.6401 3.10988L11.6401 0.109863C11.5698 0.0395508 11.4744 0 11.375 0H1.625C1.00368 0 0.5 0.503683 0.5 1.125V13.125H1.24999V1.125C1.24999 0.917894 1.41789 0.749988 1.625 0.749988H11.2197L14 3.53025V5.625H14.75V3.375C14.75 3.27554 14.7105 3.1802 14.6401 3.10988Z" fill="#7A9FFF"/>
<path d="M14 10.5V16.875C14 17.0821 13.8321 17.25 13.625 17.25H1.625C1.41789 17.25 1.24999 17.0821 1.24999 16.875V16.125H0.5V16.875C0.5 17.4963 1.00368 18 1.625 18H13.625C14.2463 18 14.75 17.4963 14.75 16.875V10.5H14Z" fill="#7A9FFF"/>
<path d="M13.7349 6.86011L9.71974 10.8752H6.12498C6.02553 10.8753 5.93018 10.9148 5.85987 10.9851L2.59474 14.2502H0.875V15.0002H2.74999C2.84944 15.0002 2.94479 14.9607 3.0151 14.8904L6.28023 11.6252H9.87499C9.97445 11.6252 10.0698 11.5857 10.1401 11.5154L14.2651 7.39037L13.7349 6.86011Z" fill="#7A9FFF"/>
<path d="M14.0002 6.7511H11.7502V7.50109H13.6252V9.37607H14.3753V7.12607C14.3753 6.919 14.2073 6.7511 14.0002 6.7511Z" fill="#7A9FFF"/>
<path d="M12.1246 3.00111C11.9175 3.00111 11.7496 2.8332 11.7496 2.6261V0.376099H10.9996V2.6261C10.9996 3.24741 11.5033 3.7511 12.1246 3.7511H12.8746V3.00111H12.1246Z" fill="#7A9FFF"/>
</svg>
