<svg width="20" height="20" viewBox="0 0 20 20" fill="none" xmlns="http://www.w3.org/2000/svg">
<g clip-path="url(#clip0)">
<path fill-rule="evenodd" clip-rule="evenodd" d="M14.9999 2.00024H4.99997V3.00024H14.9999V2.00024ZM17.9999 3.00024C18.5522 3.00024 18.9999 3.44796 18.9999 4.00023V18.0002C18.9999 18.5525 18.5522 19.0002 17.9999 19.0002H1.99999C1.44771 19.0002 0.999995 18.5525 0.999995 18.0002V4.00023C0.999995 3.44796 1.44771 3.00024 1.99999 3.00024V2.00024C0.895425 2.00024 0 2.89567 0 4.00023V18.0002C0 19.1048 0.895425 20.0002 1.99999 20.0002H17.9999C19.1045 20.0002 19.9999 19.1048 19.9999 18.0002V4.00023C19.9999 2.89567 19.1045 2.00024 17.9999 2.00024V3.00024Z" fill="#3A485A"/>
<path d="M16 1.5C16 1.22386 16.2239 1 16.5 1C16.7761 1 17 1.22386 17 1.5V3.49999C17 3.77613 16.7761 3.99998 16.5 3.99998C16.2239 3.99998 16 3.77613 16 3.49999V1.5Z" fill="#3A485A"/>
<path d="M3 1.5C3 1.22386 3.22386 1 3.5 1C3.77614 1 4 1.22386 4 1.5V3.49999C4 3.77613 3.77614 3.99998 3.5 3.99998C3.22386 3.99998 3 3.77613 3 3.49999V1.5Z" fill="#3A485A"/>
<path fill-rule="evenodd" clip-rule="evenodd" d="M19.0004 6.99975H1.00049V5.99976H19.0004V6.99975Z" fill="#3A485A"/>
<path fill-rule="evenodd" clip-rule="evenodd" d="M10.9995 10.0002H8.99951V11.0002H10.9995V10.0002ZM8.99951 9.00024C8.44721 9.00024 7.99951 9.44794 7.99951 10.0002V11.0002C7.99951 11.5525 8.44721 12.0002 8.99951 12.0002H10.9995C11.5518 12.0002 11.9995 11.5525 11.9995 11.0002V10.0002C11.9995 9.44794 11.5518 9.00024 10.9995 9.00024H8.99951Z" fill="#3A485A"/>
<path fill-rule="evenodd" clip-rule="evenodd" d="M17 10.0002H15V11.0002H17V10.0002ZM15 9.00024C14.4477 9.00024 14 9.44794 14 10.0002V11.0002C14 11.5525 14.4477 12.0002 15 12.0002H17C17.5523 12.0002 18 11.5525 18 11.0002V10.0002C18 9.44794 17.5523 9.00024 17 9.00024H15Z" fill="#3A485A"/>
<path fill-rule="evenodd" clip-rule="evenodd" d="M10.9995 15H8.99951V16H10.9995V15ZM8.99951 14C8.44721 14 7.99951 14.4477 7.99951 15V16C7.99951 16.5523 8.44721 17 8.99951 17H10.9995C11.5518 17 11.9995 16.5523 11.9995 16V15C11.9995 14.4477 11.5518 14 10.9995 14H8.99951Z" fill="#3A485A"/>
<path fill-rule="evenodd" clip-rule="evenodd" d="M17 15H15V16H17V15ZM15 14C14.4477 14 14 14.4477 14 15V16C14 16.5523 14.4477 17 15 17H17C17.5523 17 18 16.5523 18 16V15C18 14.4477 17.5523 14 17 14H15Z" fill="#3A485A"/>
<path d="M4.8646 8.31519C4.64831 8.31519 4.47297 8.47264 4.47297 8.66685V9.20397C4.28608 9.2118 4.09219 9.23374 3.89298 9.27505C3.16846 9.42519 2.62591 9.94552 2.47709 10.633C2.33219 11.3025 2.60764 11.9671 3.17885 12.3262C3.48897 12.5211 3.9312 12.7278 4.47297 12.9565V15.9741C3.95381 15.9581 3.64724 15.8777 3.1 15.5562C2.91891 15.4498 2.67625 15.4954 2.55787 15.6579C2.43944 15.8205 2.4902 16.0384 2.67119 16.1447C3.37519 16.5583 3.82306 16.6588 4.47297 16.6772V17.3111C4.47297 17.5053 4.64831 17.6627 4.8646 17.6627C5.08089 17.6627 5.25623 17.5053 5.25623 17.3111V16.6552C6.41229 16.5096 7.09509 15.7556 7.26808 15.0104C7.48761 14.0651 6.9399 13.1794 5.87272 12.754C5.6756 12.6754 5.46646 12.592 5.25618 12.5065V9.97178C5.80431 10.0868 6.17339 10.3093 6.17929 10.3129C6.35673 10.4229 6.60001 10.3834 6.72324 10.2243C6.84674 10.0649 6.80288 9.84565 6.62534 9.73476C6.59186 9.71384 6.05047 9.38238 5.25618 9.25227V8.66685C5.25623 8.47264 5.08089 8.31519 4.8646 8.31519ZM5.55492 13.3968C6.42393 13.7433 6.61353 14.3833 6.50127 14.8669C6.39255 15.335 5.97125 15.8083 5.25618 15.9406V13.2773C5.35393 13.3166 5.45315 13.3563 5.55492 13.3968ZM3.62803 11.7501C3.31002 11.5501 3.16005 11.1644 3.246 10.7673C3.33629 10.3501 3.64401 10.0485 4.06911 9.96043C4.20676 9.93192 4.34174 9.91556 4.47297 9.90857V12.1761C4.13418 12.0258 3.83356 11.8792 3.62803 11.7501Z" fill="#3A485A"/>
</g>
<defs>
<clipPath id="clip0">
<rect width="20" height="20" fill="white"/>
</clipPath>
</defs>
</svg>
