<svg width="24" height="24" viewBox="0 0 24 24" fill="none" xmlns="http://www.w3.org/2000/svg">
<path d="M23.6188 2.35611V0.369586C23.6188 0.161694 23.4571 0 23.2492 0H0.75069C0.542797 0 0.381104 0.161694 0.381104 0.369586V23.6304C0.381104 23.8383 0.542797 24 0.75069 24H2.89891C3.1068 24 3.2685 23.8383 3.2685 23.6304V2.7257H8.05002V4.85082H7.07985C6.04039 4.85082 5.18572 5.70549 5.18572 6.74495V13.1434C5.18572 14.1829 6.04039 15.0375 7.07985 15.0375H21.7247C22.7642 15.0375 23.6188 14.1829 23.6188 13.1434V6.72185C23.6188 5.68239 22.7642 4.82772 21.7247 4.82772H20.7545V2.7026H23.2492V2.7257C23.4571 2.7257 23.6188 2.564 23.6188 2.35611ZM21.7247 5.56689C22.3715 5.56689 22.8797 6.09817 22.8797 6.72185V13.1434C22.8797 13.7902 22.3484 14.2984 21.7247 14.2984H7.05675C6.40998 14.2984 5.9018 13.7671 5.9018 13.1434V6.72185C5.9018 6.07507 6.43308 5.56689 7.05675 5.56689H21.7247ZM8.74299 4.85082V2.7257H20.0154V4.85082H8.74299ZM22.8797 1.98653H20.7545C20.7314 1.82483 20.5928 1.68624 20.4081 1.68624C20.2233 1.68624 20.0847 1.82483 20.0616 1.98653H8.74299C8.71989 1.82483 8.5813 1.68624 8.3965 1.68624C8.21171 1.68624 8.07311 1.82483 8.05002 1.98653H2.89891C2.69102 1.98653 2.52932 2.14822 2.52932 2.35611V23.2608H1.12028V0.716073H22.8797V1.98653Z" fill="#818C9B"/>
<path d="M11.1224 9.95573C11.03 9.81713 10.9145 9.72474 10.7759 9.63234C10.6373 9.56304 10.4063 9.47065 10.106 9.40135C9.80572 9.33205 9.59783 9.26276 9.52853 9.19346C9.45924 9.14726 9.43614 9.07796 9.43614 9.00867C9.43614 8.93937 9.45924 8.87007 9.52853 8.82387C9.62093 8.75457 9.78262 8.70838 9.96742 8.70838C10.1522 8.70838 10.2677 8.75457 10.3601 8.82387C10.4525 8.89317 10.4987 9.00867 10.5218 9.17036L11.1455 9.14726C11.1455 8.87007 11.03 8.63908 10.8452 8.45429C10.6373 8.29259 10.3601 8.2002 9.96742 8.2002C9.73643 8.2002 9.52853 8.24639 9.34374 8.31569C9.18205 8.38499 9.04345 8.50048 8.95106 8.63908C8.85866 8.77767 8.81246 8.91627 8.81246 9.07796C8.81246 9.33205 8.90486 9.53995 9.08965 9.70164C9.22825 9.81713 9.45924 9.93263 9.80572 10.0019C10.0598 10.0712 10.2446 10.1174 10.3139 10.1405C10.4294 10.1867 10.4987 10.2329 10.5449 10.2791C10.5911 10.3253 10.6142 10.3946 10.6142 10.4639C10.6604 10.5563 10.5911 10.6487 10.4987 10.7411C10.4063 10.8335 10.2446 10.8797 10.0367 10.8797C9.85192 10.8797 9.69023 10.8335 9.57473 10.7411C9.45924 10.6487 9.38994 10.487 9.34374 10.2791L8.74316 10.3484C8.78936 10.6949 8.90486 10.9721 9.11275 11.1338C9.32064 11.3186 9.62093 11.411 10.0136 11.411C10.2908 11.411 10.4987 11.3648 10.6835 11.2955C10.8683 11.2262 11.0069 11.1107 11.0993 10.949C11.1917 10.7873 11.2379 10.6256 11.2379 10.4408C11.2379 10.2329 11.1917 10.0712 11.1224 9.95573Z" fill="#818C9B"/>
<path d="M13.3862 8.22339H12.7163L11.5151 11.3418H12.185L12.416 10.6257H13.6634L13.9405 11.3418H14.6335L13.3862 8.22339ZM12.6239 10.1175L13.0397 8.96256L13.4786 10.1175H12.6239Z" fill="#818C9B"/>
<path d="M15.6036 10.8101V8.24609H14.9568V11.3414H17.1512V10.8101H15.6036Z" fill="#818C9B"/>
<path d="M18.237 10.8105V9.97892H19.7846V9.44764H18.237V8.75467H19.9232V8.22339H17.6133V11.3418H19.9694V10.8105H18.237Z" fill="#818C9B"/>
</svg>
