<svg width="24" height="24" viewBox="0 0 24 24" fill="none" xmlns="http://www.w3.org/2000/svg">
<path d="M21.0402 7.90308C20.8769 7.59661 20.5599 7.40625 20.2127 7.40625H17.5497C17.3274 6.15586 16.2332 5.20312 14.9199 5.20312C13.6066 5.20312 12.5123 6.15586 12.29 7.40625H9.5921C9.8037 7.08244 9.92726 6.69609 9.92726 6.28125C9.92726 5.14397 9.00204 4.21875 7.86476 4.21875C6.72748 4.21875 5.80226 5.14397 5.80226 6.28125C5.80226 6.69609 5.92582 7.08244 6.13741 7.40625H3.93776C3.59055 7.40625 3.27354 7.59661 3.11032 7.90308C2.94715 8.2095 2.96608 8.57883 3.15982 8.86692L9.45026 18.2211V23.5312C9.45026 23.6893 9.5299 23.8367 9.66213 23.9233C9.73962 23.9741 9.8291 24 9.91906 24C9.98252 24 10.0462 23.9871 10.1062 23.961L14.4187 22.083C14.5897 22.0086 14.7003 21.8398 14.7003 21.6533V18.2211L20.9907 8.86688C21.1844 8.57883 21.2034 8.2095 21.0402 7.90308ZM14.9199 6.14062C15.7138 6.14062 16.3843 6.67702 16.5894 7.40625H13.2504C13.4554 6.67702 14.126 6.14062 14.9199 6.14062ZM7.8648 5.15625C8.4851 5.15625 8.98981 5.66095 8.98981 6.28125C8.98981 6.90155 8.4851 7.40625 7.8648 7.40625C7.24451 7.40625 6.7398 6.90155 6.7398 6.28125C6.7398 5.66095 7.24451 5.15625 7.8648 5.15625ZM13.8425 17.8165C13.7905 17.8938 13.7627 17.9849 13.7627 18.0781V21.3462L10.3877 22.8158V18.5468H12.0812C12.3401 18.5468 12.5499 18.337 12.5499 18.0781C12.5499 17.8192 12.3401 17.6093 12.0812 17.6093H10.1686L5.45098 10.5938H14.9199C15.1788 10.5938 15.3886 10.3839 15.3886 10.125C15.3886 9.86611 15.1788 9.65625 14.9199 9.65625H4.82055L3.93794 8.34375H20.2127L13.8425 17.8165Z" fill="#3A485A"/>
<path d="M13.6749 0C12.5376 0 11.6124 0.925219 11.6124 2.0625C11.6124 3.19978 12.5377 4.125 13.6749 4.125C14.8122 4.125 15.7374 3.19978 15.7374 2.0625C15.7374 0.925219 14.8122 0 13.6749 0ZM13.6749 3.1875C13.0546 3.1875 12.5499 2.6828 12.5499 2.0625C12.5499 1.4422 13.0546 0.9375 13.6749 0.9375C14.2952 0.9375 14.7999 1.4422 14.7999 2.0625C14.7999 2.6828 14.2952 3.1875 13.6749 3.1875Z" fill="#3A485A"/>
<path d="M17.3356 9.79359C17.2484 9.70641 17.1274 9.65625 17.0042 9.65625C16.8804 9.65625 16.7595 9.70641 16.6727 9.79359C16.5851 9.88078 16.5354 10.0017 16.5354 10.125C16.5354 10.2483 16.5851 10.3692 16.6727 10.4564C16.7599 10.5436 16.8804 10.5938 17.0042 10.5938C17.1274 10.5938 17.2479 10.5436 17.3356 10.4564C17.4227 10.3692 17.4729 10.2483 17.4729 10.125C17.4729 10.0017 17.4227 9.88078 17.3356 9.79359Z" fill="#3A485A"/>
</svg>
