<?xml version="1.0" encoding="utf-8"?>
<!-- Generator: Adobe Illustrator 22.1.0, SVG Export Plug-In . SVG Version: 6.00 Build 0)  -->
<svg version="1.1" id="Layer_1" xmlns="http://www.w3.org/2000/svg" xmlns:xlink="http://www.w3.org/1999/xlink" x="0px" y="0px"
	 viewBox="0 0 20 21" style="enable-background:new 0 0 20 21;" xml:space="preserve">
<style type="text/css">
	.st0{fill:#FFFFFF;}
</style>
<path class="st0" d="M19.8,4.7l-4-4c-0.1-0.1-0.1-0.1-0.2-0.1c-0.1,0-0.2,0-0.3,0H2c-0.5,0-1,0.2-1.4,0.6C0.2,1.5,0,2,0,2.5v16
	c0,0.5,0.2,1,0.6,1.4C1,20.3,1.5,20.5,2,20.5h16c0.5,0,1-0.2,1.4-0.6c0.4-0.4,0.6-0.9,0.6-1.4V5.2c0-0.1,0-0.2,0-0.3
	C19.9,4.8,19.9,4.8,19.8,4.7z M12.7,1.8v4H7.3v-4H12.7z M4.7,19.2v-4.7c0-0.2,0.1-0.3,0.2-0.5c0.1-0.1,0.3-0.2,0.5-0.2h9.3
	c0.2,0,0.3,0.1,0.5,0.2c0.1,0.1,0.2,0.3,0.2,0.5v4.7H4.7z M18.7,18.5c0,0.2-0.1,0.3-0.2,0.5s-0.3,0.2-0.5,0.2h-1.3v-4.7
	c0-0.5-0.2-1-0.6-1.4c-0.4-0.4-0.9-0.6-1.4-0.6H5.3c-0.5,0-1,0.2-1.4,0.6c-0.4,0.4-0.6,0.9-0.6,1.4v4.7H2c-0.2,0-0.3-0.1-0.5-0.2
	c-0.1-0.1-0.2-0.3-0.2-0.5v-16c0-0.2,0.1-0.3,0.2-0.5C1.7,1.9,1.8,1.8,2,1.8h4v4c0,0.4,0.1,0.7,0.4,0.9C6.6,7,7,7.2,7.3,7.2h5.3
	c0.4,0,0.7-0.1,0.9-0.4C13.9,6.5,14,6.2,14,5.8v-4h1.1l3.6,3.6V18.5z"/>
</svg>
