<svg width="104" height="40" viewBox="0 0 104 40" fill="none" xmlns="http://www.w3.org/2000/svg">
<rect width="104" height="40" rx="6" fill="#3062FF"/>
<path d="M55.9453 23.0156C55.9453 22.5729 55.7891 22.2344 55.4766 22C55.1641 21.7604 54.6016 21.5104 53.7891 21.25C52.9766 20.9844 52.3333 20.724 51.8594 20.4688C50.5677 19.7708 49.9219 18.8307 49.9219 17.6484C49.9219 17.0339 50.0938 16.487 50.4375 16.0078C50.7865 15.5234 51.2839 15.1458 51.9297 14.875C52.5807 14.6042 53.3099 14.4688 54.1172 14.4688C54.9297 14.4688 55.6536 14.6172 56.2891 14.9141C56.9245 15.2057 57.4167 15.6198 57.7656 16.1562C58.1198 16.6927 58.2969 17.3021 58.2969 17.9844H55.9531C55.9531 17.4635 55.7891 17.0599 55.4609 16.7734C55.1328 16.4818 54.6719 16.3359 54.0781 16.3359C53.5052 16.3359 53.0599 16.4583 52.7422 16.7031C52.4245 16.9427 52.2656 17.2604 52.2656 17.6562C52.2656 18.026 52.4505 18.3359 52.8203 18.5859C53.1953 18.8359 53.7448 19.0703 54.4688 19.2891C55.8021 19.6901 56.7734 20.1875 57.3828 20.7812C57.9922 21.375 58.2969 22.1146 58.2969 23C58.2969 23.9844 57.9245 24.7578 57.1797 25.3203C56.4349 25.8776 55.4323 26.1562 54.1719 26.1562C53.2969 26.1562 52.5 25.9974 51.7812 25.6797C51.0625 25.3568 50.513 24.9167 50.1328 24.3594C49.7578 23.8021 49.5703 23.1562 49.5703 22.4219H51.9219C51.9219 23.6771 52.6719 24.3047 54.1719 24.3047C54.7292 24.3047 55.1641 24.1927 55.4766 23.9688C55.7891 23.7396 55.9453 23.4219 55.9453 23.0156ZM64.6406 26C64.5365 25.7969 64.4609 25.5443 64.4141 25.2422C63.8672 25.8516 63.1562 26.1562 62.2812 26.1562C61.4531 26.1562 60.7656 25.9167 60.2188 25.4375C59.6771 24.9583 59.4062 24.3542 59.4062 23.625C59.4062 22.7292 59.737 22.0417 60.3984 21.5625C61.0651 21.0833 62.026 20.8411 63.2812 20.8359H64.3203V20.3516C64.3203 19.9609 64.2188 19.6484 64.0156 19.4141C63.8177 19.1797 63.5026 19.0625 63.0703 19.0625C62.6901 19.0625 62.3906 19.1536 62.1719 19.3359C61.9583 19.5182 61.8516 19.7682 61.8516 20.0859H59.5938C59.5938 19.5964 59.7448 19.1432 60.0469 18.7266C60.349 18.3099 60.776 17.9844 61.3281 17.75C61.8802 17.5104 62.5 17.3906 63.1875 17.3906C64.2292 17.3906 65.0547 17.6536 65.6641 18.1797C66.2786 18.7005 66.5859 19.4349 66.5859 20.3828V24.0469C66.5911 24.849 66.7031 25.4557 66.9219 25.8672V26H64.6406ZM62.7734 24.4297C63.1068 24.4297 63.4141 24.3568 63.6953 24.2109C63.9766 24.0599 64.1849 23.8594 64.3203 23.6094V22.1562H63.4766C62.3464 22.1562 61.7448 22.5469 61.6719 23.3281L61.6641 23.4609C61.6641 23.7422 61.763 23.974 61.9609 24.1562C62.1589 24.3385 62.4297 24.4297 62.7734 24.4297ZM71.3594 23.2422L72.9297 17.5469H75.2891L72.4375 26H70.2812L67.4297 17.5469H69.7891L71.3594 23.2422ZM80.0703 26.1562C78.8307 26.1562 77.8203 25.776 77.0391 25.0156C76.263 24.2552 75.875 23.2422 75.875 21.9766V21.7578C75.875 20.9089 76.0391 20.151 76.3672 19.4844C76.6953 18.8125 77.1589 18.2969 77.7578 17.9375C78.362 17.5729 79.0495 17.3906 79.8203 17.3906C80.9766 17.3906 81.8854 17.7552 82.5469 18.4844C83.2135 19.2135 83.5469 20.2474 83.5469 21.5859V22.5078H78.1641C78.237 23.0599 78.4557 23.5026 78.8203 23.8359C79.1901 24.1693 79.6562 24.3359 80.2188 24.3359C81.0885 24.3359 81.7682 24.0208 82.2578 23.3906L83.3672 24.6328C83.0286 25.112 82.5703 25.487 81.9922 25.7578C81.4141 26.0234 80.7734 26.1562 80.0703 26.1562ZM79.8125 19.2188C79.3646 19.2188 79 19.3698 78.7188 19.6719C78.4427 19.974 78.2656 20.4062 78.1875 20.9688H81.3281V20.7891C81.3177 20.2891 81.1823 19.9036 80.9219 19.6328C80.6615 19.3568 80.2917 19.2188 79.8125 19.2188Z" fill="white"/>
<path d="M39.1937 14.5563L35.4437 10.8063C35.3853 10.7483 35.3161 10.7025 35.2399 10.6714C35.1638 10.6403 35.0823 10.6245 35 10.625H22.5C22.0027 10.625 21.5258 10.8226 21.1742 11.1742C20.8225 11.5258 20.625 12.0027 20.625 12.5V27.5C20.625 27.9973 20.8225 28.4742 21.1742 28.8258C21.5258 29.1775 22.0027 29.375 22.5 29.375H37.5C37.9973 29.375 38.4742 29.1775 38.8258 28.8258C39.1775 28.4742 39.375 27.9973 39.375 27.5V15C39.3755 14.9178 39.3597 14.8362 39.3286 14.7601C39.2975 14.6839 39.2517 14.6147 39.1937 14.5563ZM32.5 11.875V15.625H27.5V11.875H32.5ZM25 28.125V23.75C25 23.5842 25.0658 23.4253 25.1831 23.3081C25.3003 23.1909 25.4592 23.125 25.625 23.125H34.375C34.5408 23.125 34.6997 23.1909 34.8169 23.3081C34.9342 23.4253 35 23.5842 35 23.75V28.125H25ZM38.125 27.5C38.125 27.6658 38.0592 27.8247 37.9419 27.942C37.8247 28.0592 37.6658 28.125 37.5 28.125H36.25V23.75C36.25 23.2527 36.0525 22.7758 35.7008 22.4242C35.3492 22.0726 34.8723 21.875 34.375 21.875H25.625C25.1277 21.875 24.6508 22.0726 24.2992 22.4242C23.9475 22.7758 23.75 23.2527 23.75 23.75V28.125H22.5C22.3342 28.125 22.1753 28.0592 22.0581 27.942C21.9408 27.8247 21.875 27.6658 21.875 27.5V12.5C21.875 12.3342 21.9408 12.1753 22.0581 12.0581C22.1753 11.9409 22.3342 11.875 22.5 11.875H26.25V15.625C26.25 15.9565 26.3817 16.2745 26.6161 16.5089C26.8505 16.7433 27.1685 16.875 27.5 16.875H32.5C32.8315 16.875 33.1495 16.7433 33.3839 16.5089C33.6183 16.2745 33.75 15.9565 33.75 15.625V11.875H34.7437L38.125 15.2563V27.5Z" fill="white"/>
</svg>
