<svg width="20" height="21" viewBox="0 0 20 21" fill="none" xmlns="http://www.w3.org/2000/svg">
<path d="M19.8067 4.69334L15.8067 0.693344C15.7444 0.631557 15.6705 0.582673 15.5893 0.549497C15.508 0.516321 15.4211 0.499504 15.3333 0.500011H2C1.46957 0.500011 0.960859 0.710725 0.585786 1.0858C0.210714 1.46087 0 1.96958 0 2.50001V18.5C0 19.0304 0.210714 19.5391 0.585786 19.9142C0.960859 20.2893 1.46957 20.5 2 20.5H18C18.5304 20.5 19.0391 20.2893 19.4142 19.9142C19.7893 19.5391 20 19.0304 20 18.5V5.16668C20.0005 5.07894 19.9837 4.99196 19.9505 4.91074C19.9173 4.82951 19.8684 4.75564 19.8067 4.69334ZM12.6667 1.83334V5.83334H7.33333V1.83334H12.6667ZM4.66666 19.1667V14.5C4.66666 14.3232 4.7369 14.1536 4.86193 14.0286C4.98695 13.9036 5.15652 13.8333 5.33333 13.8333H14.6667C14.8435 13.8333 15.013 13.9036 15.1381 14.0286C15.2631 14.1536 15.3333 14.3232 15.3333 14.5V19.1667H4.66666ZM18.6667 18.5C18.6667 18.6768 18.5964 18.8464 18.4714 18.9714C18.3464 19.0964 18.1768 19.1667 18 19.1667H16.6667V14.5C16.6667 13.9696 16.4559 13.4609 16.0809 13.0858C15.7058 12.7107 15.1971 12.5 14.6667 12.5H5.33333C4.8029 12.5 4.29419 12.7107 3.91912 13.0858C3.54404 13.4609 3.33333 13.9696 3.33333 14.5V19.1667H2C1.82319 19.1667 1.65362 19.0964 1.52859 18.9714C1.40357 18.8464 1.33333 18.6768 1.33333 18.5V2.50001C1.33333 2.3232 1.40357 2.15363 1.52859 2.02861C1.65362 1.90358 1.82319 1.83334 2 1.83334H6V5.83334C6 6.18696 6.14047 6.5261 6.39052 6.77615C6.64057 7.0262 6.97971 7.16667 7.33333 7.16667H12.6667C13.0203 7.16667 13.3594 7.0262 13.6095 6.77615C13.8595 6.5261 14 6.18696 14 5.83334V1.83334H15.06L18.6667 5.44001V18.5Z" fill="#0046FE"/>
</svg>
