<svg width="160" height="41" viewBox="0 0 160 41" fill="none" xmlns="http://www.w3.org/2000/svg">
<path d="M0 6C0 2.68629 2.68629 0 6 0H154C157.314 0 160 2.68629 160 6V35C160 38.3137 157.314 41 154 41H6C2.6863 41 0 38.3137 0 35V6Z" fill="#3062FF"/>
<path d="M47.0879 21.5635C45.9622 21.2399 45.1419 20.8434 44.627 20.374C44.1165 19.9001 43.8613 19.3167 43.8613 18.624C43.8613 17.8402 44.1735 17.193 44.7979 16.6826C45.4268 16.1676 46.2425 15.9102 47.2451 15.9102C47.9287 15.9102 48.5371 16.0423 49.0703 16.3066C49.6081 16.571 50.0228 16.9355 50.3145 17.4004C50.6107 17.8652 50.7588 18.3734 50.7588 18.9248H49.4395C49.4395 18.3232 49.248 17.8516 48.8652 17.5098C48.4824 17.1634 47.9424 16.9902 47.2451 16.9902C46.598 16.9902 46.0921 17.1338 45.7275 17.4209C45.3675 17.7035 45.1875 18.0977 45.1875 18.6035C45.1875 19.0091 45.3584 19.3532 45.7002 19.6357C46.0465 19.9137 46.6322 20.1689 47.457 20.4014C48.2865 20.6338 48.9336 20.8913 49.3984 21.1738C49.8678 21.4518 50.2142 21.7777 50.4375 22.1514C50.6654 22.5251 50.7793 22.9648 50.7793 23.4707C50.7793 24.2773 50.4648 24.9245 49.8359 25.4121C49.207 25.8952 48.3662 26.1367 47.3135 26.1367C46.6299 26.1367 45.9919 26.0068 45.3994 25.7471C44.807 25.4827 44.349 25.1227 44.0254 24.667C43.7064 24.2113 43.5469 23.694 43.5469 23.1152H44.8662C44.8662 23.7168 45.0872 24.193 45.5293 24.5439C45.9759 24.8903 46.5706 25.0635 47.3135 25.0635C48.0062 25.0635 48.5371 24.9222 48.9062 24.6396C49.2754 24.3571 49.46 23.972 49.46 23.4844C49.46 22.9967 49.2891 22.6208 48.9473 22.3564C48.6055 22.0876 47.9857 21.8232 47.0879 21.5635ZM55.2363 25.1045C55.6875 25.1045 56.0817 24.9678 56.4189 24.6943C56.7562 24.4209 56.943 24.0791 56.9795 23.6689H58.1758C58.153 24.0928 58.0072 24.4961 57.7383 24.8789C57.4694 25.2617 57.1094 25.5671 56.6582 25.7949C56.2116 26.0228 55.7376 26.1367 55.2363 26.1367C54.2292 26.1367 53.4271 25.8018 52.8301 25.1318C52.2376 24.4574 51.9414 23.5368 51.9414 22.3701V22.1582C51.9414 21.4382 52.0736 20.7979 52.3379 20.2373C52.6022 19.6768 52.9805 19.2415 53.4727 18.9316C53.9694 18.6217 54.555 18.4668 55.2295 18.4668C56.0589 18.4668 56.7471 18.7152 57.2939 19.2119C57.8454 19.7087 58.1393 20.3535 58.1758 21.1465H56.9795C56.943 20.668 56.7607 20.276 56.4326 19.9707C56.109 19.6608 55.708 19.5059 55.2295 19.5059C54.5869 19.5059 54.0879 19.7383 53.7324 20.2031C53.3815 20.6634 53.2061 21.3311 53.2061 22.2061V22.4453C53.2061 23.2975 53.3815 23.9538 53.7324 24.4141C54.0833 24.8743 54.5846 25.1045 55.2363 25.1045ZM60.8623 19.499C61.4229 18.8109 62.152 18.4668 63.0498 18.4668C64.613 18.4668 65.4014 19.3486 65.415 21.1123V26H64.1504V21.1055C64.1458 20.5723 64.0228 20.1781 63.7812 19.9229C63.5443 19.6676 63.1729 19.54 62.667 19.54C62.2568 19.54 61.8968 19.6494 61.5869 19.8682C61.277 20.0869 61.0355 20.374 60.8623 20.7295V26H59.5977V15.5H60.8623V19.499ZM70.3779 26.1367C69.3753 26.1367 68.5596 25.8086 67.9307 25.1523C67.3018 24.4915 66.9873 23.6097 66.9873 22.5068V22.2744C66.9873 21.5407 67.1263 20.8867 67.4043 20.3125C67.6868 19.7337 68.0788 19.2826 68.5801 18.959C69.0859 18.6309 69.6328 18.4668 70.2207 18.4668C71.1823 18.4668 71.9297 18.7835 72.4629 19.417C72.9961 20.0505 73.2627 20.9574 73.2627 22.1377V22.6641H68.252C68.2702 23.3932 68.4821 23.9834 68.8877 24.4346C69.2979 24.8812 69.8174 25.1045 70.4463 25.1045C70.8929 25.1045 71.2712 25.0133 71.5811 24.8311C71.891 24.6488 72.1621 24.4072 72.3945 24.1064L73.167 24.708C72.5472 25.6605 71.6175 26.1367 70.3779 26.1367ZM70.2207 19.5059C69.7103 19.5059 69.2819 19.6927 68.9355 20.0664C68.5892 20.4355 68.375 20.9551 68.293 21.625H71.998V21.5293C71.9616 20.8867 71.7884 20.39 71.4785 20.0391C71.1686 19.6836 70.7493 19.5059 70.2207 19.5059ZM74.4248 22.2402C74.4248 21.1055 74.6937 20.194 75.2314 19.5059C75.7692 18.8132 76.4733 18.4668 77.3438 18.4668C78.2096 18.4668 78.8955 18.763 79.4014 19.3555V15.5H80.666V26H79.5039L79.4424 25.207C78.9365 25.8268 78.2324 26.1367 77.3301 26.1367C76.4733 26.1367 75.7738 25.7858 75.2314 25.084C74.6937 24.3822 74.4248 23.4661 74.4248 22.3359V22.2402ZM75.6895 22.3838C75.6895 23.2223 75.8626 23.8786 76.209 24.3525C76.5553 24.8265 77.0339 25.0635 77.6445 25.0635C78.4466 25.0635 79.0322 24.7035 79.4014 23.9834V20.5859C79.0231 19.8887 78.4421 19.54 77.6582 19.54C77.0384 19.54 76.5553 19.7793 76.209 20.2578C75.8626 20.7363 75.6895 21.445 75.6895 22.3838ZM87.2012 25.2686C86.709 25.8473 85.9867 26.1367 85.0342 26.1367C84.2458 26.1367 83.6442 25.9089 83.2295 25.4531C82.8193 24.9928 82.612 24.3138 82.6074 23.416V18.6035H83.8721V23.3818C83.8721 24.5029 84.3278 25.0635 85.2393 25.0635C86.2054 25.0635 86.848 24.7035 87.167 23.9834V18.6035H88.4316V26H87.2285L87.2012 25.2686ZM91.7334 26H90.4688V15.5H91.7334V26ZM96.833 26.1367C95.8304 26.1367 95.0146 25.8086 94.3857 25.1523C93.7568 24.4915 93.4424 23.6097 93.4424 22.5068V22.2744C93.4424 21.5407 93.5814 20.8867 93.8594 20.3125C94.1419 19.7337 94.5339 19.2826 95.0352 18.959C95.541 18.6309 96.0879 18.4668 96.6758 18.4668C97.6374 18.4668 98.3848 18.7835 98.918 19.417C99.4512 20.0505 99.7178 20.9574 99.7178 22.1377V22.6641H94.707C94.7253 23.3932 94.9372 23.9834 95.3428 24.4346C95.7529 24.8812 96.2725 25.1045 96.9014 25.1045C97.348 25.1045 97.7262 25.0133 98.0361 24.8311C98.346 24.6488 98.6172 24.4072 98.8496 24.1064L99.6221 24.708C99.0023 25.6605 98.0726 26.1367 96.833 26.1367ZM96.6758 19.5059C96.1654 19.5059 95.737 19.6927 95.3906 20.0664C95.0443 20.4355 94.8301 20.9551 94.748 21.625H98.4531V21.5293C98.4167 20.8867 98.2435 20.39 97.9336 20.0391C97.6237 19.6836 97.2044 19.5059 96.6758 19.5059ZM106.554 16.0469L109.808 24.168L113.062 16.0469H114.764V26H113.451V22.124L113.574 17.9404L110.307 26H109.302L106.041 17.9609L106.171 22.124V26H104.858V16.0469H106.554ZM119.952 26.1367C118.95 26.1367 118.134 25.8086 117.505 25.1523C116.876 24.4915 116.562 23.6097 116.562 22.5068V22.2744C116.562 21.5407 116.701 20.8867 116.979 20.3125C117.261 19.7337 117.653 19.2826 118.154 18.959C118.66 18.6309 119.207 18.4668 119.795 18.4668C120.757 18.4668 121.504 18.7835 122.037 19.417C122.57 20.0505 122.837 20.9574 122.837 22.1377V22.6641H117.826C117.844 23.3932 118.056 23.9834 118.462 24.4346C118.872 24.8812 119.392 25.1045 120.021 25.1045C120.467 25.1045 120.845 25.0133 121.155 24.8311C121.465 24.6488 121.736 24.4072 121.969 24.1064L122.741 24.708C122.121 25.6605 121.192 26.1367 119.952 26.1367ZM119.795 19.5059C119.285 19.5059 118.856 19.6927 118.51 20.0664C118.163 20.4355 117.949 20.9551 117.867 21.625H121.572V21.5293C121.536 20.8867 121.363 20.39 121.053 20.0391C120.743 19.6836 120.324 19.5059 119.795 19.5059ZM127.376 26.1367C126.373 26.1367 125.558 25.8086 124.929 25.1523C124.3 24.4915 123.985 23.6097 123.985 22.5068V22.2744C123.985 21.5407 124.124 20.8867 124.402 20.3125C124.685 19.7337 125.077 19.2826 125.578 18.959C126.084 18.6309 126.631 18.4668 127.219 18.4668C128.18 18.4668 128.928 18.7835 129.461 19.417C129.994 20.0505 130.261 20.9574 130.261 22.1377V22.6641H125.25C125.268 23.3932 125.48 23.9834 125.886 24.4346C126.296 24.8812 126.815 25.1045 127.444 25.1045C127.891 25.1045 128.269 25.0133 128.579 24.8311C128.889 24.6488 129.16 24.4072 129.393 24.1064L130.165 24.708C129.545 25.6605 128.616 26.1367 127.376 26.1367ZM127.219 19.5059C126.708 19.5059 126.28 19.6927 125.934 20.0664C125.587 20.4355 125.373 20.9551 125.291 21.625H128.996V21.5293C128.96 20.8867 128.786 20.39 128.477 20.0391C128.167 19.6836 127.747 19.5059 127.219 19.5059ZM133.446 16.8125V18.6035H134.827V19.5811H133.446V24.168C133.446 24.4642 133.508 24.6875 133.631 24.8379C133.754 24.9837 133.964 25.0566 134.26 25.0566C134.406 25.0566 134.606 25.0293 134.861 24.9746V26C134.529 26.0911 134.205 26.1367 133.891 26.1367C133.326 26.1367 132.899 25.9658 132.612 25.624C132.325 25.2822 132.182 24.7969 132.182 24.168V19.5811H130.835V18.6035H132.182V16.8125H133.446ZM137.685 26H136.42V18.6035H137.685V26ZM136.317 16.6416C136.317 16.4365 136.379 16.2633 136.502 16.1221C136.63 15.9808 136.816 15.9102 137.062 15.9102C137.309 15.9102 137.495 15.9808 137.623 16.1221C137.751 16.2633 137.814 16.4365 137.814 16.6416C137.814 16.8467 137.751 17.0176 137.623 17.1543C137.495 17.291 137.309 17.3594 137.062 17.3594C136.816 17.3594 136.63 17.291 136.502 17.1543C136.379 17.0176 136.317 16.8467 136.317 16.6416ZM140.911 18.6035L140.952 19.5332C141.517 18.8223 142.256 18.4668 143.167 18.4668C144.73 18.4668 145.519 19.3486 145.532 21.1123V26H144.268V21.1055C144.263 20.5723 144.14 20.1781 143.898 19.9229C143.661 19.6676 143.29 19.54 142.784 19.54C142.374 19.54 142.014 19.6494 141.704 19.8682C141.394 20.0869 141.153 20.374 140.979 20.7295V26H139.715V18.6035H140.911ZM147.139 22.2402C147.139 21.0872 147.405 20.1712 147.938 19.4922C148.472 18.8086 149.178 18.4668 150.058 18.4668C150.96 18.4668 151.664 18.7858 152.17 19.4238L152.231 18.6035H153.387V25.8223C153.387 26.7793 153.102 27.5335 152.532 28.085C151.967 28.6364 151.206 28.9121 150.249 28.9121C149.716 28.9121 149.194 28.7982 148.684 28.5703C148.173 28.3424 147.784 28.0303 147.515 27.6338L148.171 26.875C148.713 27.5449 149.376 27.8799 150.16 27.8799C150.775 27.8799 151.254 27.7067 151.596 27.3604C151.942 27.014 152.115 26.5264 152.115 25.8975V25.2617C151.609 25.8451 150.919 26.1367 150.044 26.1367C149.178 26.1367 148.476 25.7881 147.938 25.0908C147.405 24.3936 147.139 23.4434 147.139 22.2402ZM148.41 22.3838C148.41 23.2178 148.581 23.874 148.923 24.3525C149.265 24.8265 149.743 25.0635 150.358 25.0635C151.156 25.0635 151.742 24.7012 152.115 23.9766V20.5996C151.728 19.8932 151.147 19.54 150.372 19.54C149.757 19.54 149.276 19.7793 148.93 20.2578C148.583 20.7363 148.41 21.445 148.41 22.3838Z" fill="white"/>
<path d="M23.0156 19.7812C23.5334 19.7812 23.9531 19.3615 23.9531 18.8437C23.9531 18.326 23.5334 17.9062 23.0156 17.9062C22.4979 17.9062 22.0781 18.326 22.0781 18.8437C22.0781 19.3615 22.4979 19.7812 23.0156 19.7812Z" fill="white"/>
<path d="M23.0156 23.8594C23.5334 23.8594 23.9531 23.4396 23.9531 22.9219C23.9531 22.4041 23.5334 21.9844 23.0156 21.9844C22.4979 21.9844 22.0781 22.4041 22.0781 22.9219C22.0781 23.4396 22.4979 23.8594 23.0156 23.8594Z" fill="white"/>
<path d="M27.0937 19.7812C27.6115 19.7812 28.0312 19.3615 28.0312 18.8437C28.0312 18.326 27.6115 17.9062 27.0937 17.9062C26.576 17.9062 26.1562 18.326 26.1562 18.8437C26.1562 19.3615 26.576 19.7812 27.0937 19.7812Z" fill="white"/>
<path d="M32.0625 20.7188C32.5802 20.7188 33 20.299 33 19.7812V14.625C33 12.5573 31.3177 10.875 29.25 10.875H28.0312V9.9375C28.0312 9.41972 27.6115 9 27.0937 9C26.5759 9 26.1562 9.41972 26.1562 9.9375V10.875H21.8906V9.9375C21.8906 9.41972 21.4709 9 20.9531 9C20.4353 9 20.0156 9.41972 20.0156 9.9375V10.875H15.7969V9.9375C15.7969 9.41972 15.3771 9 14.8594 9C14.3416 9 13.9219 9.41972 13.9219 9.9375V10.875H12.75C10.6822 10.875 9 12.5573 9 14.625V29.25C9 31.3177 10.6822 33 12.75 33H24.5625C24.5944 33 24.6259 32.9984 24.657 32.9952C24.6879 32.9983 24.7189 33 24.7497 33C24.9997 33 25.245 32.9 25.4253 32.7128L32.7377 25.119C32.9986 24.8482 33.0723 24.4478 32.9252 24.1018C32.7781 23.7559 32.4384 23.5312 32.0625 23.5312H27.5625C25.4947 23.5312 23.8125 25.2135 23.8125 27.2812V31.125H12.75C11.7161 31.125 10.875 30.2839 10.875 29.25V14.625C10.875 13.5911 11.7161 12.75 12.75 12.75H13.9219V13.6875C13.9219 14.2053 14.3416 14.625 14.8594 14.625C15.3771 14.625 15.7969 14.2053 15.7969 13.6875V12.75H20.0156V13.6875C20.0156 14.2053 20.4353 14.625 20.9531 14.625C21.4709 14.625 21.8906 14.2053 21.8906 13.6875V12.75H26.1562V13.6875C26.1562 14.2053 26.5759 14.625 27.0937 14.625C27.6115 14.625 28.0312 14.2053 28.0312 13.6875V12.75H29.25C30.2838 12.75 31.125 13.5911 31.125 14.625V19.7812C31.125 20.299 31.5447 20.7188 32.0625 20.7188ZM25.6875 27.2812C25.6875 26.2474 26.5286 25.4062 27.5625 25.4062H29.8582L25.6875 29.7374V27.2812Z" fill="white"/>
<path d="M14.8594 19.7812C15.3771 19.7812 15.7969 19.3615 15.7969 18.8437C15.7969 18.326 15.3771 17.9062 14.8594 17.9062C14.3416 17.9062 13.9219 18.326 13.9219 18.8437C13.9219 19.3615 14.3416 19.7812 14.8594 19.7812Z" fill="white"/>
<path d="M18.9375 23.8594C19.4553 23.8594 19.875 23.4396 19.875 22.9219C19.875 22.4041 19.4553 21.9844 18.9375 21.9844C18.4197 21.9844 18 22.4041 18 22.9219C18 23.4396 18.4197 23.8594 18.9375 23.8594Z" fill="white"/>
<path d="M14.8594 27.9375C15.3771 27.9375 15.7969 27.5178 15.7969 27C15.7969 26.4822 15.3771 26.0625 14.8594 26.0625C14.3416 26.0625 13.9219 26.4822 13.9219 27C13.9219 27.5178 14.3416 27.9375 14.8594 27.9375Z" fill="white"/>
<path d="M14.8594 23.8594C15.3771 23.8594 15.7969 23.4396 15.7969 22.9219C15.7969 22.4041 15.3771 21.9844 14.8594 21.9844C14.3416 21.9844 13.9219 22.4041 13.9219 22.9219C13.9219 23.4396 14.3416 23.8594 14.8594 23.8594Z" fill="white"/>
<path d="M18.9375 27.9375C19.4553 27.9375 19.875 27.5178 19.875 27C19.875 26.4822 19.4553 26.0625 18.9375 26.0625C18.4197 26.0625 18 26.4822 18 27C18 27.5178 18.4197 27.9375 18.9375 27.9375Z" fill="white"/>
<path d="M18.9375 19.7812C19.4553 19.7812 19.875 19.3615 19.875 18.8437C19.875 18.326 19.4553 17.9062 18.9375 17.9062C18.4197 17.9062 18 18.326 18 18.8437C18 19.3615 18.4197 19.7812 18.9375 19.7812Z" fill="white"/>
</svg>
