<svg width="18" height="16" viewBox="0 0 18 16" fill="none" xmlns="http://www.w3.org/2000/svg">
<path fill-rule="evenodd" clip-rule="evenodd" d="M12.6386 10.3188L17.1089 14.6227C17.266 14.7741 17.3542 14.9793 17.3542 15.1933C17.3541 15.4074 17.2657 15.6126 17.1085 15.7639C16.9512 15.9151 16.738 16.0001 16.5157 16C16.2934 15.9999 16.0803 15.9148 15.9232 15.7635L11.4529 11.4595C10.1165 12.4561 8.43603 12.925 6.75331 12.771C5.07058 12.617 3.512 11.8516 2.39463 10.6305C1.27726 9.40935 0.685032 7.82428 0.738428 6.1977C0.791824 4.57112 1.48683 3.02522 2.68206 1.87448C3.87729 0.72374 5.48297 0.054605 7.17244 0.00319699C8.86191 -0.048211 10.5083 0.52197 11.7766 1.59775C13.0449 2.67352 13.8399 4.17409 13.9999 5.79417C14.1599 7.41426 13.6728 9.03217 12.6377 10.3188H12.6386ZM7.38304 11.1996C8.70527 11.1996 9.97334 10.6939 10.9083 9.7937C11.8433 8.89354 12.3685 7.67267 12.3685 6.39966C12.3685 5.12665 11.8433 3.90577 10.9083 3.00562C9.97334 2.10546 8.70527 1.59976 7.38304 1.59976C6.0608 1.59976 4.79273 2.10546 3.85777 3.00562C2.92281 3.90577 2.39755 5.12665 2.39755 6.39966C2.39755 7.67267 2.92281 8.89354 3.85777 9.7937C4.79273 10.6939 6.0608 11.1996 7.38304 11.1996Z" fill="#3A485A"/>
</svg>
