<svg width="17" height="21" viewBox="0 0 17 21" fill="none" xmlns="http://www.w3.org/2000/svg">
<path d="M12.6068 11.6831C10.5174 12.3652 9.96525 15.0446 12.0276 16.3599C12.5202 16.6522 12.374 16.9932 12.374 16.9932L11.9139 16.82C11.8056 16.7821 11.6866 16.82 11.6108 16.9066L11.3672 17.2043H0C0 17.2043 0 14.8605 0 13.5614C0 12.2623 0.584599 11.6994 1.25039 11.2934C1.91077 10.8874 4.30871 9.53418 4.30871 9.53418L5.58075 13.5614L6.32774 11.7427C6.30068 11.7102 6.27361 11.6777 6.25196 11.6344L5.8514 10.8279C5.55369 10.2325 5.98673 9.53418 6.65252 9.53418C7.17216 9.53418 7.54566 9.95639 7.54566 10.4273C7.54566 10.5626 7.51318 10.698 7.44822 10.8279L7.04767 11.6344C7.02601 11.6777 6.99895 11.7102 6.97188 11.7427L7.773 13.5614L9.04504 9.53418C11.692 10.817 12.6068 11.6831 12.6068 11.6831Z" fill="#3062FF"/>
<path d="M15.3018 15.3588C14.9337 15.1531 14.5386 14.9961 14.1489 14.8392C13.9215 14.7471 13.705 14.6389 13.5155 14.4873C13.1421 14.1896 13.2124 13.7024 13.6509 13.5076C13.7754 13.4534 13.9053 13.4372 14.0406 13.4264C14.5494 13.3993 15.0366 13.4913 15.4967 13.7133C15.724 13.8269 15.7998 13.789 15.881 13.5509C15.9622 13.2965 16.0326 13.0421 16.1084 12.7876C16.1571 12.6144 16.0975 12.5008 15.9351 12.4304C15.6374 12.3005 15.3343 12.2085 15.0149 12.1543C14.5981 12.0894 14.5981 12.0894 14.5981 11.6672C14.5981 11.0771 14.5981 11.0771 14.0027 11.0771C13.9161 11.0771 13.8295 11.0771 13.7483 11.0771C13.4722 11.0826 13.4235 11.1313 13.4181 11.4128C13.4127 11.5372 13.4181 11.6617 13.4181 11.7862C13.4181 12.1543 13.4127 12.1489 13.0609 12.2788C12.2056 12.5928 11.6751 13.172 11.6156 14.1084C11.5669 14.9366 11.9999 15.4941 12.6765 15.9001C13.0933 16.1491 13.5589 16.3006 14.0027 16.4955C14.1759 16.5713 14.3437 16.6579 14.4845 16.7824C14.9121 17.1342 14.8309 17.7188 14.3275 17.9408C14.0568 18.0599 13.77 18.0869 13.4777 18.0544C13.023 18.0003 12.5899 17.8812 12.1785 17.6647C11.9404 17.5402 11.87 17.5727 11.7888 17.8325C11.7184 18.0544 11.6589 18.2818 11.5939 18.5091C11.5128 18.8123 11.5398 18.8826 11.8321 19.0288C12.2002 19.2074 12.5953 19.2994 13.0013 19.3644C13.3153 19.4131 13.3261 19.4293 13.3315 19.7541C13.3315 19.9003 13.3315 20.0518 13.3369 20.198C13.3369 20.3874 13.4289 20.4957 13.6238 20.4957C13.8403 20.5011 14.0623 20.5011 14.2788 20.4957C14.4574 20.4903 14.5494 20.3928 14.5494 20.2142C14.5494 20.0139 14.5602 19.8082 14.5494 19.6025C14.5386 19.3969 14.6306 19.2886 14.8255 19.2345C15.2856 19.11 15.6699 18.8664 15.973 18.4983C16.8012 17.4915 16.4818 16.0083 15.3018 15.3588Z" fill="#3062FF"/>
<path d="M3.49084 5.45285V3.64493C3.49084 1.90737 4.89821 0.5 6.63577 0.5C7.50184 0.5 8.29213 0.851842 8.86049 1.4202C9.42885 1.98856 9.7807 2.77344 9.7807 3.64493V5.45285C9.7807 7.19041 8.37333 8.59778 6.63577 8.59778C4.89821 8.59778 3.49084 7.19041 3.49084 5.45285Z" fill="#3062FF"/>
</svg>
