<svg width="24" height="24" viewBox="0 0 24 24" fill="none" xmlns="http://www.w3.org/2000/svg">
<path d="M19.4458 12.3516H20.491C20.6545 13.1609 21.3712 13.7721 22.2279 13.7721C23.205 13.7721 24 12.9772 24 12C24 11.0228 23.205 10.2279 22.2279 10.2279C21.3711 10.2279 20.6545 10.8391 20.4909 11.6484H19.4457C19.3621 9.85767 18.644 8.22998 17.5112 6.98597L19.3939 5.10333C19.7645 5.37319 20.2201 5.53298 20.7127 5.53298C21.9509 5.53298 22.9583 4.52559 22.9583 3.28734C22.9583 2.04909 21.9509 1.04175 20.7127 1.04175C19.4744 1.04175 18.4671 2.04914 18.4671 3.28734C18.4671 3.77986 18.6268 4.23553 18.8967 4.60612L17.014 6.48877C15.77 5.35598 14.1423 4.63781 12.3516 4.55428V3.50906C13.1609 3.34552 13.7721 2.62889 13.7721 1.77211C13.7721 0.794953 12.9772 0 12 0C11.0228 0 10.2279 0.794953 10.2279 1.77211C10.2279 2.62889 10.8391 3.34552 11.6484 3.50906V4.55423C9.85767 4.63781 8.22998 5.35594 6.98597 6.48872L5.10342 4.60622C5.37333 4.23558 5.53312 3.77986 5.53312 3.28734C5.53312 2.53959 5.16277 1.84327 4.54242 1.42467C4.38136 1.31611 4.16287 1.35848 4.05436 1.51945C3.94575 1.68042 3.98817 1.89891 4.14909 2.00752C4.57547 2.29519 4.82995 2.77364 4.82995 3.28734C4.82995 4.13794 4.13789 4.83 3.2873 4.83C2.4367 4.83 1.74469 4.13794 1.74469 3.28734C1.74469 2.60044 2.2057 1.98989 2.8658 1.80263C3.05259 1.74961 3.16106 1.55522 3.10805 1.36842C3.05503 1.18163 2.86055 1.0733 2.67389 1.12617C1.71277 1.39889 1.04156 2.28759 1.04156 3.28734C1.04156 4.52569 2.049 5.53312 3.28734 5.53312C3.77991 5.53312 4.23562 5.37333 4.60622 5.10342L6.48877 6.98592C5.35594 8.22994 4.63781 9.85763 4.55423 11.6484H3.50906C3.34552 10.8391 2.62889 10.2278 1.77211 10.2278C0.794953 10.2279 0 11.0228 0 12C0 12.9772 0.794953 13.7721 1.77211 13.7721C2.62889 13.7721 3.34552 13.1609 3.50906 12.3516H4.55428C4.63786 14.1423 5.35598 15.77 6.48881 17.014L4.60612 18.8967C4.23553 18.6268 3.77986 18.467 3.28734 18.467C2.04909 18.467 1.04175 19.4744 1.04175 20.7127C1.04175 21.9509 2.04909 22.9583 3.28734 22.9583C4.52559 22.9583 5.53294 21.9509 5.53294 20.7127C5.53294 20.2201 5.37319 19.7645 5.10328 19.3939L6.98597 17.5112C8.22998 18.644 9.85767 19.3622 11.6484 19.4457V20.4909C10.8391 20.6544 10.2279 21.3711 10.2279 22.2278C10.2279 23.205 11.0228 24 12 24C12.9772 24 13.7721 23.205 13.7721 22.2279C13.7721 21.3711 13.1609 20.6545 12.3516 20.4909V19.4458C14.1423 19.3622 15.77 18.6441 17.014 17.5113L18.8966 19.3938C18.6267 19.7644 18.4669 20.2201 18.4669 20.7127C18.4669 21.951 19.4743 22.9584 20.7127 22.9584C21.951 22.9584 22.9584 21.951 22.9584 20.7127C22.9584 20.4696 22.9197 20.2302 22.8434 20.001C22.7819 19.8168 22.5827 19.7173 22.3987 19.7786C22.2145 19.84 22.1149 20.0391 22.1763 20.2233C22.2287 20.3806 22.2554 20.5453 22.2554 20.7126C22.2554 21.5632 21.5633 22.2553 20.7127 22.2553C19.8621 22.2553 19.17 21.5632 19.17 20.7126C19.17 19.862 19.8621 19.17 20.7127 19.17C20.9074 19.17 21.0972 19.2058 21.2769 19.2764C21.4575 19.3474 21.6617 19.2585 21.7327 19.0778C21.8038 18.8971 21.7148 18.693 21.5341 18.622C21.2722 18.519 20.9958 18.4668 20.7127 18.4668C20.2202 18.4668 19.7645 18.6266 19.3939 18.8965L17.5113 17.014C18.644 15.77 19.3622 14.1423 19.4458 12.3516ZM22.2279 10.931C22.8173 10.931 23.2969 11.4105 23.2969 12C23.2969 12.5895 22.8173 13.069 22.2279 13.069C21.6384 13.069 21.1589 12.5895 21.1589 12C21.1589 11.4105 21.6385 10.931 22.2279 10.931ZM20.7127 1.74487C21.5632 1.74487 22.2551 2.43684 22.2551 3.28734C22.2551 4.13789 21.5632 4.82986 20.7127 4.82986C19.8622 4.82986 19.1702 4.13789 19.1702 3.28734C19.1702 2.4368 19.8622 1.74487 20.7127 1.74487ZM10.931 1.77211C10.931 1.18266 11.4106 0.703125 12 0.703125C12.5894 0.703125 13.069 1.18266 13.069 1.77211C13.069 2.36156 12.5894 2.84109 12 2.84109C11.4106 2.84109 10.931 2.36152 10.931 1.77211ZM1.77211 13.069C1.18266 13.069 0.703125 12.5895 0.703125 12C0.703125 11.4105 1.18266 10.931 1.77211 10.931C2.36156 10.931 2.84105 11.4105 2.84105 12C2.84105 12.5895 2.36152 13.069 1.77211 13.069ZM12 5.24887C15.7226 5.24887 18.7511 8.27742 18.7511 12C18.7511 15.7226 15.7226 18.7511 12 18.7511C8.27742 18.7511 5.24887 15.7226 5.24887 12C5.24887 8.27738 8.27742 5.24887 12 5.24887ZM3.28734 22.2551C2.4368 22.2551 1.74487 21.5632 1.74487 20.7127C1.74487 19.8621 2.43684 19.1701 3.28734 19.1701C4.13784 19.1701 4.82981 19.8621 4.82981 20.7127C4.82981 21.5632 4.13784 22.2551 3.28734 22.2551ZM13.069 22.2279C13.069 22.8173 12.5894 23.2969 12 23.2969C11.4106 23.2969 10.931 22.8173 10.931 22.2279C10.931 21.6384 11.4106 21.1589 12 21.1589C12.5894 21.1589 13.069 21.6385 13.069 22.2279Z" fill="#818C9B"/>
<path d="M8.02261 16.3292H10.008C10.0091 16.3292 10.0101 16.3293 10.0112 16.3293C10.0123 16.3293 10.0133 16.3292 10.0144 16.3292H11.1796C11.3739 16.3292 11.5312 16.1717 11.5312 15.9776C11.5312 15.7834 11.3739 15.626 11.1796 15.626H10.3628V15.0307C10.3628 14.8366 10.2054 14.6792 10.0112 14.6792C9.81699 14.6792 9.65963 14.8366 9.65963 15.0307V15.626H8.37418V13.8945C8.37418 13.0439 9.066 12.3518 9.91632 12.3518H14.0835C14.9339 12.3518 15.6257 13.0439 15.6257 13.8945V15.626H14.3402V15.0307C14.3402 14.8366 14.1828 14.6792 13.9886 14.6792C13.7944 14.6792 13.6371 14.8366 13.6371 15.0307V15.626H12.8203C12.6261 15.626 12.4687 15.7834 12.4687 15.9776C12.4687 16.1717 12.6261 16.3292 12.8203 16.3292H13.9855C13.9866 16.3292 13.9877 16.3293 13.9887 16.3293C13.9898 16.3293 13.9908 16.3292 13.9919 16.3292H15.9773C16.1715 16.3292 16.3289 16.1717 16.3289 15.9776V13.8945C16.3289 12.6561 15.3217 11.6487 14.0836 11.6487H13.8226C14.3728 11.1508 14.7191 10.4314 14.7191 9.6327C14.7191 8.13335 13.4994 6.91357 12 6.91357C10.5007 6.91357 9.28088 8.13335 9.28088 9.6327C9.28088 10.4314 9.62719 11.1508 10.1774 11.6487H9.91641C8.67835 11.6487 7.67114 12.6561 7.67114 13.8945V15.9776C7.67105 16.1717 7.82846 16.3292 8.02261 16.3292ZM9.98396 9.6327C9.98396 8.5211 10.8883 7.6167 12 7.6167C13.1116 7.6167 14.016 8.52106 14.016 9.6327C14.016 10.7443 13.1116 11.6487 12 11.6487C10.8883 11.6487 9.98396 10.7443 9.98396 9.6327Z" fill="#818C9B"/>
</svg>
