<svg width="19" height="24" viewBox="0 0 19 24" fill="none" xmlns="http://www.w3.org/2000/svg">
<path d="M18.1617 7.90308C17.9985 7.59661 17.6815 7.40625 17.3343 7.40625H14.6713C14.449 6.15586 13.3547 5.20312 12.0415 5.20312C10.7282 5.20312 9.6339 6.15586 9.41157 7.40625H6.71368C6.92528 7.08244 7.04884 6.69609 7.04884 6.28125C7.04884 5.14397 6.12362 4.21875 4.98634 4.21875C3.84906 4.21875 2.92384 5.14397 2.92384 6.28125C2.92384 6.69609 3.0474 7.08244 3.259 7.40625H1.05934C0.712136 7.40625 0.39512 7.59661 0.231901 7.90308C0.0687295 8.2095 0.087667 8.57883 0.281401 8.86692L6.57184 18.2211V23.5312C6.57184 23.6893 6.65148 23.8367 6.78372 23.9233C6.8612 23.9741 6.95068 24 7.04064 24C7.10411 24 7.16781 23.9871 7.22776 23.961L11.5403 22.083C11.7113 22.0086 11.8218 21.8398 11.8218 21.6533V18.2211L18.1122 8.86688C18.306 8.57883 18.325 8.2095 18.1617 7.90308ZM12.0415 6.14062C12.8354 6.14062 13.5059 6.67702 13.7109 7.40625H10.372C10.577 6.67702 11.2476 6.14062 12.0415 6.14062ZM4.98639 5.15625C5.60668 5.15625 6.11139 5.66095 6.11139 6.28125C6.11139 6.90155 5.60668 7.40625 4.98639 7.40625C4.36609 7.40625 3.86139 6.90155 3.86139 6.28125C3.86139 5.66095 4.36609 5.15625 4.98639 5.15625ZM10.9641 17.8165C10.9121 17.8938 10.8843 17.9849 10.8843 18.0781V21.3462L7.50929 22.8158V18.5468H9.20275C9.46164 18.5468 9.6715 18.337 9.6715 18.0781C9.6715 17.8192 9.46164 17.6093 9.20275 17.6093H7.2902L2.57256 10.5938H12.0415C12.3003 10.5938 12.5102 10.3839 12.5102 10.125C12.5102 9.86611 12.3003 9.65625 12.0415 9.65625H1.94214L1.05953 8.34375H17.3342L10.9641 17.8165Z" fill="white"/>
<path d="M10.7964 0C9.6591 0 8.73389 0.925219 8.73389 2.0625C8.73389 3.19978 9.65915 4.125 10.7964 4.125C11.9337 4.125 12.8589 3.19978 12.8589 2.0625C12.8589 0.925219 11.9337 0 10.7964 0ZM10.7964 3.1875C10.1761 3.1875 9.67139 2.6828 9.67139 2.0625C9.67139 1.4422 10.1761 0.9375 10.7964 0.9375C11.4167 0.9375 11.9214 1.4422 11.9214 2.0625C11.9214 2.6828 11.4167 3.1875 10.7964 3.1875Z" fill="white"/>
<path d="M14.4571 9.79359C14.37 9.70641 14.249 9.65625 14.1257 9.65625C14.002 9.65625 13.881 9.70641 13.7943 9.79359C13.7067 9.88078 13.657 10.0017 13.657 10.125C13.657 10.2483 13.7067 10.3692 13.7943 10.4564C13.8815 10.5436 14.002 10.5938 14.1257 10.5938C14.249 10.5938 14.3695 10.5436 14.4571 10.4564C14.5443 10.3692 14.5945 10.2483 14.5945 10.125C14.5945 10.0017 14.5443 9.88078 14.4571 9.79359Z" fill="white"/>
</svg>
