<svg width="19" height="24" viewBox="0 0 19 24" fill="none" xmlns="http://www.w3.org/2000/svg">
<path d="M18.0402 7.90308C17.8769 7.59661 17.5599 7.40625 17.2127 7.40625H14.5497C14.3274 6.15586 13.2332 5.20312 11.9199 5.20312C10.6066 5.20312 9.51232 6.15586 9.28999 7.40625H6.5921C6.8037 7.08244 6.92726 6.69609 6.92726 6.28125C6.92726 5.14397 6.00204 4.21875 4.86476 4.21875C3.72748 4.21875 2.80226 5.14397 2.80226 6.28125C2.80226 6.69609 2.92582 7.08244 3.13741 7.40625H0.937757C0.590554 7.40625 0.273538 7.59661 0.110319 7.90308C-0.0528526 8.2095 -0.0339151 8.57883 0.159819 8.86692L6.45026 18.2211V23.5312C6.45026 23.6893 6.5299 23.8367 6.66213 23.9233C6.73962 23.9741 6.8291 24 6.91906 24C6.98252 24 7.04623 23.9871 7.10618 23.961L11.4187 22.083C11.5897 22.0086 11.7003 21.8398 11.7003 21.6533V18.2211L17.9907 8.86688C18.1844 8.57883 18.2034 8.2095 18.0402 7.90308ZM11.9199 6.14062C12.7138 6.14062 13.3843 6.67702 13.5894 7.40625H10.2504C10.4554 6.67702 11.126 6.14062 11.9199 6.14062ZM4.8648 5.15625C5.4851 5.15625 5.98981 5.66095 5.98981 6.28125C5.98981 6.90155 5.4851 7.40625 4.8648 7.40625C4.24451 7.40625 3.7398 6.90155 3.7398 6.28125C3.7398 5.66095 4.24451 5.15625 4.8648 5.15625ZM10.8425 17.8165C10.7905 17.8938 10.7627 17.9849 10.7627 18.0781V21.3462L7.38771 22.8158V18.5468H9.08117C9.34006 18.5468 9.54992 18.337 9.54992 18.0781C9.54992 17.8192 9.34006 17.6093 9.08117 17.6093H7.16862L2.45098 10.5938H11.9199C12.1788 10.5938 12.3886 10.3839 12.3886 10.125C12.3886 9.86611 12.1788 9.65625 11.9199 9.65625H1.82055L0.937944 8.34375H17.2127L10.8425 17.8165Z" fill="#3A485A"/>
<path d="M10.6749 0C9.53765 0 8.61243 0.925219 8.61243 2.0625C8.61243 3.19978 9.53769 4.125 10.6749 4.125C11.8122 4.125 12.7374 3.19978 12.7374 2.0625C12.7374 0.925219 11.8122 0 10.6749 0ZM10.6749 3.1875C10.0546 3.1875 9.54993 2.6828 9.54993 2.0625C9.54993 1.4422 10.0546 0.9375 10.6749 0.9375C11.2952 0.9375 11.7999 1.4422 11.7999 2.0625C11.7999 2.6828 11.2952 3.1875 10.6749 3.1875Z" fill="#3A485A"/>
<path d="M14.3356 9.79359C14.2484 9.70641 14.1274 9.65625 14.0042 9.65625C13.8804 9.65625 13.7595 9.70641 13.6727 9.79359C13.5851 9.88078 13.5354 10.0017 13.5354 10.125C13.5354 10.2483 13.5851 10.3692 13.6727 10.4564C13.7599 10.5436 13.8804 10.5938 14.0042 10.5938C14.1274 10.5938 14.2479 10.5436 14.3356 10.4564C14.4227 10.3692 14.4729 10.2483 14.4729 10.125C14.4729 10.0017 14.4227 9.88078 14.3356 9.79359Z" fill="#3A485A"/>
</svg>
