<svg width="24" height="24" viewBox="0 0 24 24" fill="none" xmlns="http://www.w3.org/2000/svg">
<path d="M8.99965 6.74652C10.321 6.88801 11.4909 6.94372 12.4769 6.91202C12.5848 6.90835 12.6919 6.9417 12.7786 7.00523C13.057 7.20935 13.5831 7.59315 13.98 7.87009C14.3657 8.13921 14.8046 8.06103 15.2291 7.98529C15.6454 7.91111 16.0386 7.84094 16.4116 8.06183C16.8434 8.31752 16.8911 8.61541 16.9634 9.06642C17.0086 9.34878 17.0599 9.66881 17.2234 9.99741C17.3882 10.3285 17.6232 10.4495 17.7914 10.4928C18.4124 10.6524 19.0749 10.0597 19.6555 9.68472C20.0093 9.45621 20.2578 9.09044 20.374 8.62695C20.4173 8.45467 20.5393 8.32214 20.7005 8.27235C20.9837 8.18494 21.2718 8.0541 21.557 7.88347C22.2108 7.49208 22.46 6.74648 22.5503 6.33687C22.5814 6.1959 22.7742 6.18257 22.8658 6.33267L23.2763 7.00476C23.3063 7.05388 23.3026 7.11718 23.267 7.1623C23.066 7.41748 22.6973 7.88314 22.4857 8.13497C22.319 8.33344 22.2415 8.60425 22.2614 8.91821C22.2754 9.13707 22.1803 9.34821 22.0069 9.48296C21.4269 9.93387 21.1273 10.586 20.9086 11.0622C20.8708 11.1445 20.8351 11.2224 20.8002 11.294C20.5536 11.7997 20.8182 12.4815 20.9848 13.042C21.0404 13.229 21.2364 13.3351 21.4222 13.2794C21.6083 13.2236 21.7141 13.0268 21.6586 12.8399C21.5431 12.4512 21.3206 11.8327 21.4317 11.6047C21.4695 11.5272 21.5071 11.4451 21.5471 11.3583C21.7458 10.9255 21.9933 10.3868 22.4371 10.0417C22.7954 9.76319 22.992 9.32636 22.9631 8.87309C22.9574 8.78355 22.9632 8.66185 23.0231 8.59055C23.2299 8.34427 23.5697 7.91634 23.8183 7.60074C24.0363 7.32404 24.0594 6.936 23.8756 6.63518L23.4651 5.96314C23.0431 5.27203 22.0312 5.42425 21.8637 6.18403C21.8108 6.42423 21.6398 7.01154 21.1971 7.27656C20.9601 7.41833 20.7236 7.52613 20.4939 7.59702C20.1017 7.71811 19.7944 8.04661 19.6922 8.45429C19.6193 8.74484 19.479 8.95885 19.2752 9.09049C18.89 9.33921 18.2158 9.8733 17.9658 9.80845C17.9275 9.79861 17.8893 9.75589 17.8522 9.68147C17.7369 9.44971 17.6983 9.20904 17.6576 8.95419C17.5767 8.44949 17.485 7.87749 16.7685 7.45323C16.1717 7.0999 15.5809 7.20512 15.1062 7.28975C14.7962 7.345 14.5284 7.39275 14.3811 7.28989C13.9901 7.0171 13.469 6.63702 13.1932 6.43469C12.9805 6.27875 12.7193 6.19774 12.4544 6.20598C11.5006 6.23659 10.3634 6.1822 9.07418 6.04411C8.88081 6.02329 8.70788 6.16392 8.6873 6.35792C8.66677 6.55187 8.80656 6.72585 8.99965 6.74652Z" fill="#3A485A"/>
<path d="M0.888924 13.2148C1.11717 13.4392 1.53208 13.9012 1.74602 14.4738C1.90723 14.9054 2.27376 15.2277 2.72646 15.3358C3.16358 15.4402 3.49754 15.5929 3.69217 15.7772C4.31559 16.3678 5.68632 16.5794 6.6968 16.5265C7.00052 16.5109 7.28544 16.6577 7.43933 16.9107C7.53918 17.0746 7.59857 17.2341 7.61601 17.3847C7.64733 17.6552 7.78575 17.8762 8.0057 18.0072C8.38761 18.2344 8.93954 18.1459 9.32885 17.9873C9.4234 17.9487 9.5338 17.9804 9.59769 18.0642C9.72102 18.2261 9.80142 18.4024 9.83662 18.5882C9.95747 19.2254 10.3836 19.7355 10.9765 19.9526C11.4596 20.1295 11.9728 19.7907 12.0015 19.2752C12.0372 18.6347 12.4021 18.5545 12.522 18.5282C13.193 18.3807 13.5727 18.1307 13.7732 17.9468C13.9371 17.7965 14.1265 17.6799 14.3364 17.6003C14.9778 17.3571 16.1825 17.0085 17.0447 17.4066C17.2622 17.5071 17.5047 17.5465 17.7458 17.5205C18.116 17.4807 18.4003 17.5338 18.4877 17.6595C18.5536 17.7541 18.6193 17.8868 18.6953 18.0406C18.9008 18.4562 19.1823 19.0253 19.7987 19.4647C20.2306 19.7725 20.8355 19.6703 21.1471 19.237L21.2513 19.092C21.5253 18.7108 21.5181 18.2212 21.2333 17.8737C20.6333 17.1416 20.2813 16.4853 20.2677 16.0734C20.2541 15.6642 20.61 15.2136 20.96 14.8268C21.0906 14.6825 21.0801 14.459 20.9364 14.3278C20.7927 14.1966 20.5704 14.2072 20.4397 14.3516C19.9948 14.8433 19.543 15.4352 19.5649 16.0969C19.5893 16.8311 20.1904 17.7126 20.6905 18.3227C20.8389 18.5039 20.6765 18.685 20.577 18.8233C20.4906 18.9436 20.3239 18.9728 20.2056 18.8885C19.7333 18.5519 19.5164 18.1132 19.3251 17.7262C19.2401 17.5545 19.16 17.3923 19.0639 17.2544C18.8152 16.8975 18.3339 16.7467 17.6707 16.818C17.5556 16.8306 17.4408 16.8121 17.3384 16.7648C16.2437 16.2591 14.832 16.6572 14.088 16.9394C13.7945 17.0508 13.529 17.2141 13.2991 17.4251C13.1871 17.5279 12.9176 17.7182 12.3718 17.8381C11.732 17.9788 11.3411 18.4882 11.2995 19.2358C11.2971 19.2786 11.2562 19.3033 11.2173 19.2889C10.854 19.1559 10.6025 18.8523 10.5273 18.4561C10.4715 18.1612 10.3466 17.8849 10.156 17.6349C9.90024 17.2992 9.45134 17.1749 9.06447 17.3327C8.76262 17.4557 8.47133 17.4632 8.36412 17.3994C8.34668 17.3891 8.32278 17.3748 8.31448 17.3032C8.28518 17.0502 8.19255 16.7941 8.03922 16.5422C7.7506 16.0678 7.22154 15.7916 6.6601 15.821C5.65243 15.874 4.56066 15.629 4.17458 15.2632C3.88643 14.9903 3.45394 14.7834 2.88917 14.6485C2.66448 14.5948 2.48331 14.4367 2.40436 14.2255C2.15578 13.5601 1.71049 13.0341 1.38071 12.7098C1.21191 12.5439 1.08876 12.3385 1.02459 12.1157C0.698509 10.9843 0.687774 9.46643 0.710463 8.66238C0.719041 8.35785 0.757902 8.05119 0.826015 7.75094L1.26211 5.82864C1.28114 5.74481 1.36463 5.69154 1.44948 5.71038C1.46139 5.71302 1.47025 5.71306 1.47273 5.72507C1.60174 6.34408 2.13946 6.56379 2.48143 6.37827C2.674 6.27386 2.81069 6.06003 2.89929 5.72456C2.9014 5.7165 2.90782 5.70897 2.91598 5.7108C3.58013 5.8618 5.3414 6.24456 7.34698 6.53633C7.53918 6.56408 7.7175 6.43046 7.74535 6.2374C7.77319 6.04435 7.63997 5.86514 7.44777 5.83717C5.46689 5.54893 3.72719 5.17092 3.07114 5.02176C2.69313 4.93581 2.31952 5.16503 2.21962 5.54337C2.20729 5.58995 2.1952 5.62768 2.1839 5.65801C2.15746 5.59414 2.10693 5.13202 1.59883 5.02011C1.13976 4.91866 0.681118 5.211 0.576488 5.67171L0.140391 7.59406C0.0621066 7.93919 0.0174328 8.29196 0.00754173 8.6425C-0.0162718 9.48777 -0.00352124 11.0885 0.349135 12.3123C0.446967 12.6517 0.633584 12.9638 0.888924 13.2148Z" fill="#3A485A"/>
</svg>
