<svg width="9" height="10" viewBox="0 0 9 10" fill="none" xmlns="http://www.w3.org/2000/svg">
<path d="M2.87036 0.5H0.665357C0.29789 0.5 0 0.797891 0 1.16536V8.83464C0 9.20211 0.29789 9.5 0.665357 9.5H2.87036C3.23782 9.5 3.53571 9.20211 3.53571 8.83464V1.16536C3.53571 0.797891 3.23782 0.5 2.87036 0.5Z" fill="white"/>
<path d="M8.33465 0.5H6.12965C5.76218 0.5 5.46429 0.797891 5.46429 1.16536V8.83464C5.46429 9.20211 5.76218 9.5 6.12965 9.5H8.33465C8.70212 9.5 9.00001 9.20211 9.00001 8.83464V1.16536C9.00001 0.797891 8.70212 0.5 8.33465 0.5Z" fill="white"/>
</svg>
