<svg width="18" height="19" viewBox="0 0 18 19" fill="none" xmlns="http://www.w3.org/2000/svg">
<path d="M18 12.6817C18 10.448 16.7186 8.45454 14.7994 7.48486C14.7398 11.7676 11.2676 15.2398 6.98486 15.2994C7.95454 17.2186 9.94801 18.5 12.1817 18.5C13.2289 18.5 14.2474 18.2211 15.1422 17.6912L17.9746 18.4746L17.1912 15.6422C17.7211 14.7474 18 13.7289 18 12.6817Z" fill="white"/>
<path d="M13.7461 7.37305C13.7461 3.58318 10.6629 0.5 6.87305 0.5C3.08318 0.5 0 3.58318 0 7.37305C0 8.60818 0.328766 9.81078 0.953064 10.8666L0.0252686 14.2207L3.37953 13.293C4.43532 13.9173 5.63791 14.2461 6.87305 14.2461C10.6629 14.2461 13.7461 11.1629 13.7461 7.37305ZM5.81836 5.77344H4.76367C4.76367 4.61026 5.70987 3.66406 6.87305 3.66406C8.03622 3.66406 8.98242 4.61026 8.98242 5.77344C8.98242 6.36382 8.73248 6.93126 8.29646 7.33006L7.40039 8.15019V8.97266H6.3457V7.68575L7.58441 6.55196C7.80579 6.3494 7.92773 6.07295 7.92773 5.77344C7.92773 5.19185 7.45464 4.71875 6.87305 4.71875C6.29146 4.71875 5.81836 5.19185 5.81836 5.77344ZM6.3457 10.0273H7.40039V11.082H6.3457V10.0273Z" fill="white"/>
</svg>
