<svg width="22" height="22" viewBox="0 0 22 22" fill="none" xmlns="http://www.w3.org/2000/svg">
<path fill-rule="evenodd" clip-rule="evenodd" d="M11.4562 0.328756C11.695 0.0999409 12.0254 -0.0189672 12.3626 0.00246944L20.3725 0.513987C20.958 0.551413 21.4245 0.998147 21.4634 1.55917L21.9974 9.23253C22.0199 9.55538 21.8958 9.87196 21.6568 10.1008L10.5437 20.747C10.0862 21.1852 9.34434 21.1852 8.88691 20.747L0.343163 12.5621C-0.114388 12.1239 -0.114388 11.4131 0.343163 10.9749L11.4562 0.328756ZM20.2945 1.6339L12.2846 1.12238L1.17148 11.7686L9.71535 19.9534L20.8285 9.30726L20.2945 1.6339Z" fill="white"/>
<path fill-rule="evenodd" clip-rule="evenodd" d="M14.6741 6.93758C15.1317 7.37591 15.8735 7.37591 16.3309 6.93758C16.7884 6.49926 16.7884 5.78865 16.3309 5.35044C15.8735 4.91212 15.1317 4.91212 14.6741 5.35044C14.2166 5.78877 14.2166 6.49938 14.6741 6.93758ZM13.8457 7.73121C14.7608 8.60787 16.2443 8.60787 17.1593 7.73121C18.0743 6.85468 18.0743 5.43347 17.1593 4.55681C16.2442 3.68028 14.7607 3.68028 13.8457 4.55681C12.9307 5.43347 12.9307 6.85468 13.8457 7.73121Z" fill="white"/>
</svg>
