<svg width="22" height="18" viewBox="0 0 22 18" fill="none" xmlns="http://www.w3.org/2000/svg">
<path d="M5.99885 0.147051C5.95095 0.100441 5.89403 0.0634582 5.83135 0.0382239C5.76868 0.0129896 5.70148 0 5.63362 0C5.56575 0 5.49856 0.0129896 5.43588 0.0382239C5.37321 0.0634582 5.31628 0.100441 5.26838 0.147051L2.53213 2.78479L1.55674 1.86318C1.50883 1.81657 1.45191 1.77959 1.38924 1.75436C1.32656 1.72912 1.25937 1.71613 1.1915 1.71613C1.12364 1.71613 1.05644 1.72912 0.993767 1.75436C0.931092 1.77959 0.87417 1.81657 0.826267 1.86318L0.151657 2.51814C0.103587 2.56459 0.0654458 2.61978 0.0394211 2.68055C0.0133965 2.74132 0 2.80648 0 2.87228C0 2.93808 0.0133965 3.00324 0.0394211 3.06401C0.0654458 3.12478 0.103587 3.17998 0.151657 3.22642L2.19654 5.20129C2.29861 5.29537 2.43406 5.34783 2.57488 5.34783C2.71571 5.34783 2.85115 5.29537 2.95322 5.20129L3.62311 4.5505L6.72545 1.54279C6.82211 1.44899 6.87673 1.32202 6.87746 1.18942C6.87818 1.05682 6.82495 0.929291 6.72932 0.834504L5.99885 0.147051ZM5.99885 6.77952C5.95095 6.73291 5.89403 6.69592 5.83135 6.67069C5.76868 6.64545 5.70148 6.63246 5.63362 6.63246C5.56575 6.63246 5.49856 6.64545 5.43588 6.67069C5.37321 6.69592 5.31628 6.73291 5.26838 6.77952L2.53213 9.43433L1.55674 8.51356C1.50883 8.46695 1.45191 8.42997 1.38924 8.40474C1.32656 8.3795 1.25937 8.36651 1.1915 8.36651C1.12364 8.36651 1.05644 8.3795 0.993767 8.40474C0.931092 8.42997 0.87417 8.46695 0.826267 8.51356L0.151657 9.16727C0.103587 9.21372 0.0654458 9.26891 0.0394211 9.32968C0.0133965 9.39045 0 9.45561 0 9.52141C0 9.58721 0.0133965 9.65237 0.0394211 9.71314C0.0654458 9.77391 0.103587 9.82911 0.151657 9.87555L2.19139 11.8546C2.29338 11.9486 2.42876 12.0011 2.56951 12.0011C2.71027 12.0011 2.84564 11.9486 2.94764 11.8546L3.62225 11.2009L6.72459 8.19192C6.82088 8.09877 6.87532 7.97251 6.87604 7.84063C6.87677 7.70875 6.82372 7.58193 6.72846 7.4878L5.99885 6.77952ZM2.74998 14.0003C1.61174 14.0003 0.662126 14.896 0.662126 16.0001C0.662126 17.1042 1.6126 18 2.74998 18C3.29699 18 3.8216 17.7893 4.20839 17.4143C4.59518 17.0392 4.81248 16.5305 4.81248 16.0001C4.81248 15.4697 4.59518 14.9611 4.20839 14.586C3.8216 14.211 3.29699 14.0003 2.74998 14.0003ZM21.3125 14.6669H8.93749C8.75515 14.6669 8.58028 14.7371 8.45135 14.8621C8.32242 14.9872 8.24999 15.1567 8.24999 15.3335V16.6668C8.24999 16.8436 8.32242 17.0131 8.45135 17.1381C8.58028 17.2631 8.75515 17.3334 8.93749 17.3334H21.3125C21.4948 17.3334 21.6697 17.2631 21.7986 17.1381C21.9276 17.0131 22 16.8436 22 16.6668V15.3335C22 15.1567 21.9276 14.9872 21.7986 14.8621C21.6697 14.7371 21.4948 14.6669 21.3125 14.6669ZM21.3125 1.33447H8.93749C8.75515 1.33447 8.58028 1.4047 8.45135 1.52972C8.32242 1.65473 8.24999 1.82429 8.24999 2.00109V3.33433C8.24999 3.51113 8.32242 3.68069 8.45135 3.80571C8.58028 3.93072 8.75515 4.00096 8.93749 4.00096H21.3125C21.4948 4.00096 21.6697 3.93072 21.7986 3.80571C21.9276 3.68069 22 3.51113 22 3.33433V2.00109C22 1.82429 21.9276 1.65473 21.7986 1.52972C21.6697 1.4047 21.4948 1.33447 21.3125 1.33447ZM21.3125 8.00068H8.93749C8.75515 8.00068 8.58028 8.07092 8.45135 8.19593C8.32242 8.32095 8.24999 8.4905 8.24999 8.6673V10.0005C8.24999 10.1773 8.32242 10.3469 8.45135 10.4719C8.58028 10.5969 8.75515 10.6672 8.93749 10.6672H21.3125C21.4948 10.6672 21.6697 10.5969 21.7986 10.4719C21.9276 10.3469 22 10.1773 22 10.0005V8.6673C22 8.4905 21.9276 8.32095 21.7986 8.19593C21.6697 8.07092 21.4948 8.00068 21.3125 8.00068Z" fill="white"/>
</svg>
