<svg width="84" height="22" viewBox="0 0 84 22" fill="none" xmlns="http://www.w3.org/2000/svg">
<path d="M46.7754 6.33887H42.8555V17H40.2188V6.33887H36.3516V4.20312H46.7754V6.33887ZM52.1543 17C52.0371 16.7715 51.9521 16.4873 51.8994 16.1475C51.2842 16.833 50.4844 17.1758 49.5 17.1758C48.5684 17.1758 47.7949 16.9062 47.1797 16.3672C46.5703 15.8281 46.2656 15.1484 46.2656 14.3281C46.2656 13.3203 46.6377 12.5469 47.3818 12.0078C48.1318 11.4688 49.2129 11.1963 50.625 11.1904H51.7939V10.6455C51.7939 10.2061 51.6797 9.85449 51.4512 9.59082C51.2285 9.32715 50.874 9.19531 50.3877 9.19531C49.96 9.19531 49.623 9.29785 49.377 9.50293C49.1367 9.70801 49.0166 9.98926 49.0166 10.3467H46.4766C46.4766 9.7959 46.6465 9.28613 46.9863 8.81738C47.3262 8.34863 47.8066 7.98242 48.4277 7.71875C49.0488 7.44922 49.7461 7.31445 50.5195 7.31445C51.6914 7.31445 52.6201 7.61035 53.3057 8.20215C53.9971 8.78809 54.3428 9.61426 54.3428 10.6807V14.8027C54.3486 15.7051 54.4746 16.3877 54.7207 16.8506V17H52.1543ZM50.0537 15.2334C50.4287 15.2334 50.7744 15.1514 51.0908 14.9873C51.4072 14.8174 51.6416 14.5918 51.7939 14.3105V12.6758H50.8447C49.5732 12.6758 48.8965 13.1152 48.8145 13.9941L48.8057 14.1436C48.8057 14.46 48.917 14.7207 49.1396 14.9258C49.3623 15.1309 49.667 15.2334 50.0537 15.2334ZM61.4443 14.3721C61.4443 14.0615 61.2891 13.8184 60.9785 13.6426C60.6738 13.4609 60.1816 13.2998 59.502 13.1592C57.2402 12.6846 56.1094 11.7236 56.1094 10.2764C56.1094 9.43262 56.458 8.72949 57.1553 8.16699C57.8584 7.59863 58.7754 7.31445 59.9062 7.31445C61.1133 7.31445 62.0771 7.59863 62.7979 8.16699C63.5244 8.73535 63.8877 9.47363 63.8877 10.3818H61.3477C61.3477 10.0186 61.2305 9.71973 60.9961 9.48535C60.7617 9.24512 60.3955 9.125 59.8975 9.125C59.4697 9.125 59.1387 9.22168 58.9043 9.41504C58.6699 9.6084 58.5527 9.85449 58.5527 10.1533C58.5527 10.4346 58.6846 10.6631 58.9482 10.8389C59.2178 11.0088 59.6689 11.1582 60.3018 11.2871C60.9346 11.4102 61.4678 11.5508 61.9014 11.709C63.2432 12.2012 63.9141 13.0537 63.9141 14.2666C63.9141 15.1338 63.542 15.8369 62.7979 16.376C62.0537 16.9092 61.0928 17.1758 59.915 17.1758C59.1182 17.1758 58.4092 17.0352 57.7881 16.7539C57.1729 16.4668 56.6895 16.0771 56.3379 15.585C55.9863 15.0869 55.8105 14.5508 55.8105 13.9766H58.2188C58.2422 14.4277 58.4092 14.7734 58.7197 15.0137C59.0303 15.2539 59.4463 15.374 59.9678 15.374C60.4541 15.374 60.8203 15.2832 61.0664 15.1016C61.3184 14.9141 61.4443 14.6709 61.4443 14.3721ZM69.0117 13.1855L68.0977 14.0996V17H65.5576V3.5H68.0977V10.9795L68.5898 10.3467L71.0244 7.49023H74.0742L70.6377 11.4541L74.373 17H71.4551L69.0117 13.1855ZM80.3232 14.3721C80.3232 14.0615 80.168 13.8184 79.8574 13.6426C79.5527 13.4609 79.0605 13.2998 78.3809 13.1592C76.1191 12.6846 74.9883 11.7236 74.9883 10.2764C74.9883 9.43262 75.3369 8.72949 76.0342 8.16699C76.7373 7.59863 77.6543 7.31445 78.7852 7.31445C79.9922 7.31445 80.9561 7.59863 81.6768 8.16699C82.4033 8.73535 82.7666 9.47363 82.7666 10.3818H80.2266C80.2266 10.0186 80.1094 9.71973 79.875 9.48535C79.6406 9.24512 79.2744 9.125 78.7764 9.125C78.3486 9.125 78.0176 9.22168 77.7832 9.41504C77.5488 9.6084 77.4316 9.85449 77.4316 10.1533C77.4316 10.4346 77.5635 10.6631 77.8271 10.8389C78.0967 11.0088 78.5479 11.1582 79.1807 11.2871C79.8135 11.4102 80.3467 11.5508 80.7803 11.709C82.1221 12.2012 82.793 13.0537 82.793 14.2666C82.793 15.1338 82.4209 15.8369 81.6768 16.376C80.9326 16.9092 79.9717 17.1758 78.7939 17.1758C77.9971 17.1758 77.2881 17.0352 76.667 16.7539C76.0518 16.4668 75.5684 16.0771 75.2168 15.585C74.8652 15.0869 74.6895 14.5508 74.6895 13.9766H77.0977C77.1211 14.4277 77.2881 14.7734 77.5986 15.0137C77.9092 15.2539 78.3252 15.374 78.8467 15.374C79.333 15.374 79.6992 15.2832 79.9453 15.1016C80.1973 14.9141 80.3232 14.6709 80.3232 14.3721Z" fill="#1C1C1C"/>
<path d="M5.99885 2.14705C5.95095 2.10044 5.89403 2.06346 5.83135 2.03822C5.76868 2.01299 5.70148 2 5.63362 2C5.56575 2 5.49856 2.01299 5.43588 2.03822C5.37321 2.06346 5.31628 2.10044 5.26838 2.14705L2.53213 4.78479L1.55674 3.86318C1.50883 3.81657 1.45191 3.77959 1.38924 3.75436C1.32656 3.72912 1.25937 3.71613 1.1915 3.71613C1.12364 3.71613 1.05644 3.72912 0.993767 3.75436C0.931092 3.77959 0.87417 3.81657 0.826267 3.86318L0.151657 4.51814C0.103587 4.56459 0.0654458 4.61978 0.0394211 4.68055C0.0133965 4.74132 0 4.80648 0 4.87228C0 4.93808 0.0133965 5.00324 0.0394211 5.06401C0.0654458 5.12478 0.103587 5.17998 0.151657 5.22642L2.19654 7.20129C2.29861 7.29537 2.43406 7.34783 2.57488 7.34783C2.71571 7.34783 2.85115 7.29537 2.95322 7.20129L3.62311 6.5505L6.72545 3.54279C6.82211 3.44899 6.87673 3.32202 6.87746 3.18942C6.87818 3.05682 6.82495 2.92929 6.72932 2.8345L5.99885 2.14705ZM5.99885 8.77952C5.95095 8.73291 5.89403 8.69592 5.83135 8.67069C5.76868 8.64545 5.70148 8.63246 5.63362 8.63246C5.56575 8.63246 5.49856 8.64545 5.43588 8.67069C5.37321 8.69592 5.31628 8.73291 5.26838 8.77952L2.53213 11.4343L1.55674 10.5136C1.50883 10.467 1.45191 10.43 1.38924 10.4047C1.32656 10.3795 1.25937 10.3665 1.1915 10.3665C1.12364 10.3665 1.05644 10.3795 0.993767 10.4047C0.931092 10.43 0.87417 10.467 0.826267 10.5136L0.151657 11.1673C0.103587 11.2137 0.0654458 11.2689 0.0394211 11.3297C0.0133965 11.3905 0 11.4556 0 11.5214C0 11.5872 0.0133965 11.6524 0.0394211 11.7131C0.0654458 11.7739 0.103587 11.8291 0.151657 11.8756L2.19139 13.8546C2.29338 13.9486 2.42876 14.0011 2.56951 14.0011C2.71027 14.0011 2.84564 13.9486 2.94764 13.8546L3.62225 13.2009L6.72459 10.1919C6.82088 10.0988 6.87532 9.97251 6.87604 9.84063C6.87677 9.70875 6.82372 9.58193 6.72846 9.4878L5.99885 8.77952ZM2.74998 16.0003C1.61174 16.0003 0.662126 16.896 0.662126 18.0001C0.662126 19.1042 1.6126 20 2.74998 20C3.29699 20 3.8216 19.7893 4.20839 19.4143C4.59518 19.0392 4.81248 18.5305 4.81248 18.0001C4.81248 17.4697 4.59518 16.9611 4.20839 16.586C3.8216 16.211 3.29699 16.0003 2.74998 16.0003ZM21.3125 16.6669H8.93749C8.75515 16.6669 8.58028 16.7371 8.45135 16.8621C8.32242 16.9872 8.24999 17.1567 8.24999 17.3335V18.6668C8.24999 18.8436 8.32242 19.0131 8.45135 19.1381C8.58028 19.2631 8.75515 19.3334 8.93749 19.3334H21.3125C21.4948 19.3334 21.6697 19.2631 21.7986 19.1381C21.9276 19.0131 22 18.8436 22 18.6668V17.3335C22 17.1567 21.9276 16.9872 21.7986 16.8621C21.6697 16.7371 21.4948 16.6669 21.3125 16.6669ZM21.3125 3.33447H8.93749C8.75515 3.33447 8.58028 3.4047 8.45135 3.52972C8.32242 3.65473 8.24999 3.82429 8.24999 4.00109V5.33433C8.24999 5.51113 8.32242 5.68069 8.45135 5.80571C8.58028 5.93072 8.75515 6.00096 8.93749 6.00096H21.3125C21.4948 6.00096 21.6697 5.93072 21.7986 5.80571C21.9276 5.68069 22 5.51113 22 5.33433V4.00109C22 3.82429 21.9276 3.65473 21.7986 3.52972C21.6697 3.4047 21.4948 3.33447 21.3125 3.33447ZM21.3125 10.0007H8.93749C8.75515 10.0007 8.58028 10.0709 8.45135 10.1959C8.32242 10.3209 8.24999 10.4905 8.24999 10.6673V12.0005C8.24999 12.1773 8.32242 12.3469 8.45135 12.4719C8.58028 12.5969 8.75515 12.6672 8.93749 12.6672H21.3125C21.4948 12.6672 21.6697 12.5969 21.7986 12.4719C21.9276 12.3469 22 12.1773 22 12.0005V10.6673C22 10.4905 21.9276 10.3209 21.7986 10.1959C21.6697 10.0709 21.4948 10.0007 21.3125 10.0007Z" fill="#3062FF"/>
</svg>
