<svg width="160" height="41" viewBox="0 0 160 41" fill="none" xmlns="http://www.w3.org/2000/svg">
<path d="M0 6C0 2.68629 2.68629 0 6 0H154C157.314 0 160 2.68629 160 6V35C160 38.3137 157.314 41 154 41H6C2.6863 41 0 38.3137 0 35V6Z" fill="#3062FF"/>
<path d="M61.0322 17.127H57.833V26H56.5273V17.127H53.335V16.0469H61.0322V17.127ZM64.6963 26.1367C63.6937 26.1367 62.8779 25.8086 62.249 25.1523C61.6201 24.4915 61.3057 23.6097 61.3057 22.5068V22.2744C61.3057 21.5407 61.4447 20.8867 61.7227 20.3125C62.0052 19.7337 62.3971 19.2826 62.8984 18.959C63.4043 18.6309 63.9512 18.4668 64.5391 18.4668C65.5007 18.4668 66.248 18.7835 66.7812 19.417C67.3145 20.0505 67.5811 20.9574 67.5811 22.1377V22.6641H62.5703C62.5885 23.3932 62.8005 23.9834 63.2061 24.4346C63.6162 24.8812 64.1357 25.1045 64.7646 25.1045C65.2113 25.1045 65.5895 25.0133 65.8994 24.8311C66.2093 24.6488 66.4805 24.4072 66.7129 24.1064L67.4854 24.708C66.8656 25.6605 65.9359 26.1367 64.6963 26.1367ZM64.5391 19.5059C64.0286 19.5059 63.6003 19.6927 63.2539 20.0664C62.9076 20.4355 62.6934 20.9551 62.6113 21.625H66.3164V21.5293C66.2799 20.8867 66.1068 20.39 65.7969 20.0391C65.487 19.6836 65.0677 19.5059 64.5391 19.5059ZM71.5322 21.3037L73.1729 18.6035H74.6494L72.2295 22.2607L74.7246 26H73.2617L71.5527 23.2314L69.8438 26H68.374L70.8691 22.2607L68.4492 18.6035H69.9121L71.5322 21.3037ZM77.7119 16.8125V18.6035H79.0928V19.5811H77.7119V24.168C77.7119 24.4642 77.7734 24.6875 77.8965 24.8379C78.0195 24.9837 78.2292 25.0566 78.5254 25.0566C78.6712 25.0566 78.8717 25.0293 79.127 24.9746V26C78.7943 26.0911 78.4707 26.1367 78.1562 26.1367C77.5911 26.1367 77.165 25.9658 76.8779 25.624C76.5908 25.2822 76.4473 24.7969 76.4473 24.168V19.5811H75.1006V18.6035H76.4473V16.8125H77.7119ZM85.9424 16.0469L89.1963 24.168L92.4502 16.0469H94.1523V26H92.8398V22.124L92.9629 17.9404L89.6953 26H88.6904L85.4297 17.9609L85.5596 22.124V26H84.2471V16.0469H85.9424ZM99.3408 26.1367C98.3382 26.1367 97.5225 25.8086 96.8936 25.1523C96.2646 24.4915 95.9502 23.6097 95.9502 22.5068V22.2744C95.9502 21.5407 96.0892 20.8867 96.3672 20.3125C96.6497 19.7337 97.0417 19.2826 97.543 18.959C98.0488 18.6309 98.5957 18.4668 99.1836 18.4668C100.145 18.4668 100.893 18.7835 101.426 19.417C101.959 20.0505 102.226 20.9574 102.226 22.1377V22.6641H97.2148C97.2331 23.3932 97.445 23.9834 97.8506 24.4346C98.2607 24.8812 98.7803 25.1045 99.4092 25.1045C99.8558 25.1045 100.234 25.0133 100.544 24.8311C100.854 24.6488 101.125 24.4072 101.357 24.1064L102.13 24.708C101.51 25.6605 100.58 26.1367 99.3408 26.1367ZM99.1836 19.5059C98.6732 19.5059 98.2448 19.6927 97.8984 20.0664C97.5521 20.4355 97.3379 20.9551 97.2559 21.625H100.961V21.5293C100.924 20.8867 100.751 20.39 100.441 20.0391C100.132 19.6836 99.7122 19.5059 99.1836 19.5059ZM108.002 24.0381C108.002 23.6963 107.872 23.432 107.612 23.2451C107.357 23.0537 106.908 22.8896 106.266 22.7529C105.628 22.6162 105.119 22.4521 104.741 22.2607C104.368 22.0693 104.09 21.8415 103.907 21.5771C103.729 21.3128 103.641 20.9984 103.641 20.6338C103.641 20.0277 103.896 19.515 104.406 19.0957C104.921 18.6764 105.577 18.4668 106.375 18.4668C107.214 18.4668 107.893 18.6833 108.412 19.1162C108.936 19.5492 109.198 20.1029 109.198 20.7773H107.927C107.927 20.431 107.779 20.1325 107.482 19.8818C107.191 19.6312 106.822 19.5059 106.375 19.5059C105.915 19.5059 105.555 19.6061 105.295 19.8066C105.035 20.0072 104.905 20.2692 104.905 20.5928C104.905 20.8981 105.026 21.1283 105.268 21.2832C105.509 21.4382 105.944 21.5863 106.573 21.7275C107.207 21.8688 107.719 22.0374 108.111 22.2334C108.503 22.4294 108.793 22.6663 108.979 22.9443C109.171 23.2178 109.267 23.5527 109.267 23.9492C109.267 24.61 109.002 25.141 108.474 25.542C107.945 25.9385 107.259 26.1367 106.416 26.1367C105.824 26.1367 105.299 26.0319 104.844 25.8223C104.388 25.6126 104.03 25.321 103.771 24.9473C103.515 24.569 103.388 24.1611 103.388 23.7236H104.652C104.675 24.1475 104.844 24.4847 105.158 24.7354C105.477 24.9814 105.896 25.1045 106.416 25.1045C106.895 25.1045 107.277 25.0088 107.564 24.8174C107.856 24.6214 108.002 24.3617 108.002 24.0381ZM115.221 24.0381C115.221 23.6963 115.091 23.432 114.831 23.2451C114.576 23.0537 114.127 22.8896 113.484 22.7529C112.846 22.6162 112.338 22.4521 111.96 22.2607C111.586 22.0693 111.308 21.8415 111.126 21.5771C110.948 21.3128 110.859 20.9984 110.859 20.6338C110.859 20.0277 111.115 19.515 111.625 19.0957C112.14 18.6764 112.796 18.4668 113.594 18.4668C114.432 18.4668 115.111 18.6833 115.631 19.1162C116.155 19.5492 116.417 20.1029 116.417 20.7773H115.146C115.146 20.431 114.997 20.1325 114.701 19.8818C114.41 19.6312 114.04 19.5059 113.594 19.5059C113.133 19.5059 112.773 19.6061 112.514 19.8066C112.254 20.0072 112.124 20.2692 112.124 20.5928C112.124 20.8981 112.245 21.1283 112.486 21.2832C112.728 21.4382 113.163 21.5863 113.792 21.7275C114.425 21.8688 114.938 22.0374 115.33 22.2334C115.722 22.4294 116.011 22.6663 116.198 22.9443C116.39 23.2178 116.485 23.5527 116.485 23.9492C116.485 24.61 116.221 25.141 115.692 25.542C115.164 25.9385 114.478 26.1367 113.635 26.1367C113.042 26.1367 112.518 26.0319 112.062 25.8223C111.607 25.6126 111.249 25.321 110.989 24.9473C110.734 24.569 110.606 24.1611 110.606 23.7236H111.871C111.894 24.1475 112.062 24.4847 112.377 24.7354C112.696 24.9814 113.115 25.1045 113.635 25.1045C114.113 25.1045 114.496 25.0088 114.783 24.8174C115.075 24.6214 115.221 24.3617 115.221 24.0381ZM122.699 26C122.626 25.8542 122.567 25.5944 122.521 25.2207C121.934 25.8314 121.232 26.1367 120.416 26.1367C119.687 26.1367 119.088 25.9316 118.618 25.5215C118.153 25.1068 117.921 24.5827 117.921 23.9492C117.921 23.179 118.213 22.582 118.796 22.1582C119.384 21.7298 120.209 21.5156 121.271 21.5156H122.501V20.9346C122.501 20.4925 122.369 20.1416 122.104 19.8818C121.84 19.6175 121.451 19.4854 120.936 19.4854C120.484 19.4854 120.106 19.5993 119.801 19.8271C119.495 20.055 119.343 20.3307 119.343 20.6543H118.071C118.071 20.2852 118.201 19.9297 118.461 19.5879C118.725 19.2415 119.081 18.9681 119.527 18.7676C119.979 18.5671 120.473 18.4668 121.011 18.4668C121.863 18.4668 122.531 18.681 123.014 19.1094C123.497 19.5332 123.747 20.1188 123.766 20.8662V24.2705C123.766 24.9495 123.852 25.4896 124.025 25.8906V26H122.699ZM120.601 25.0361C120.997 25.0361 121.373 24.9336 121.729 24.7285C122.084 24.5234 122.341 24.2568 122.501 23.9287V22.4111H121.51C119.96 22.4111 119.186 22.8646 119.186 23.7715C119.186 24.168 119.318 24.4779 119.582 24.7012C119.846 24.9245 120.186 25.0361 120.601 25.0361ZM125.447 22.2402C125.447 21.0872 125.714 20.1712 126.247 19.4922C126.78 18.8086 127.487 18.4668 128.366 18.4668C129.269 18.4668 129.973 18.7858 130.479 19.4238L130.54 18.6035H131.695V25.8223C131.695 26.7793 131.41 27.5335 130.841 28.085C130.276 28.6364 129.515 28.9121 128.558 28.9121C128.024 28.9121 127.503 28.7982 126.992 28.5703C126.482 28.3424 126.092 28.0303 125.823 27.6338L126.479 26.875C127.022 27.5449 127.685 27.8799 128.469 27.8799C129.084 27.8799 129.562 27.7067 129.904 27.3604C130.251 27.014 130.424 26.5264 130.424 25.8975V25.2617C129.918 25.8451 129.228 26.1367 128.353 26.1367C127.487 26.1367 126.785 25.7881 126.247 25.0908C125.714 24.3936 125.447 23.4434 125.447 22.2402ZM126.719 22.3838C126.719 23.2178 126.89 23.874 127.231 24.3525C127.573 24.8265 128.052 25.0635 128.667 25.0635C129.465 25.0635 130.05 24.7012 130.424 23.9766V20.5996C130.036 19.8932 129.455 19.54 128.681 19.54C128.065 19.54 127.585 19.7793 127.238 20.2578C126.892 20.7363 126.719 21.445 126.719 22.3838ZM136.679 26.1367C135.676 26.1367 134.86 25.8086 134.231 25.1523C133.603 24.4915 133.288 23.6097 133.288 22.5068V22.2744C133.288 21.5407 133.427 20.8867 133.705 20.3125C133.988 19.7337 134.38 19.2826 134.881 18.959C135.387 18.6309 135.934 18.4668 136.521 18.4668C137.483 18.4668 138.23 18.7835 138.764 19.417C139.297 20.0505 139.563 20.9574 139.563 22.1377V22.6641H134.553C134.571 23.3932 134.783 23.9834 135.188 24.4346C135.599 24.8812 136.118 25.1045 136.747 25.1045C137.194 25.1045 137.572 25.0133 137.882 24.8311C138.192 24.6488 138.463 24.4072 138.695 24.1064L139.468 24.708C138.848 25.6605 137.918 26.1367 136.679 26.1367ZM136.521 19.5059C136.011 19.5059 135.583 19.6927 135.236 20.0664C134.89 20.4355 134.676 20.9551 134.594 21.625H138.299V21.5293C138.262 20.8867 138.089 20.39 137.779 20.0391C137.469 19.6836 137.05 19.5059 136.521 19.5059Z" fill="white"/>
<path d="M43 20.28C43 21.96 42.464 23.5167 41.3919 24.95C40.3198 26.3833 38.8609 27.5133 37.0153 28.34C35.1696 29.1667 33.1612 29.58 30.9898 29.58C29.3342 29.58 27.7464 29.32 26.2265 28.8L26.2672 28.86L19 31C19.5971 30.2133 20.0755 29.37 20.4351 28.47C20.7947 27.57 21.0085 26.8667 21.0763 26.36L21.1578 25.6C19.7193 24 19 22.2267 19 20.28C19 18.6 19.536 17.0467 20.6081 15.62C21.6802 14.1933 23.1357 13.0667 24.9746 12.24C26.8134 11.4133 28.8185 11 30.9898 11C33.1612 11 35.1696 11.4133 37.0153 12.24C38.8609 13.0667 40.3198 14.1933 41.3919 15.62C42.464 17.0467 43 18.6 43 20.28ZM37.9109 20.28C37.9109 19.8933 37.7684 19.56 37.4835 19.28C37.1985 19 36.8524 18.86 36.4453 18.86C36.0517 18.86 35.7125 19 35.4275 19.28C35.1425 19.56 35 19.8933 35 20.28C35 20.68 35.1425 21.02 35.4275 21.3C35.7125 21.58 36.0517 21.72 36.4453 21.72C36.8524 21.72 37.1985 21.58 37.4835 21.3C37.7684 21.02 37.9109 20.68 37.9109 20.28ZM32.8219 20.28C32.8219 19.8933 32.6794 19.56 32.3944 19.28C32.1094 19 31.7634 18.86 31.3562 18.86C30.9627 18.86 30.6234 19 30.3384 19.28C30.0534 19.56 29.9109 19.8933 29.9109 20.28C29.9109 20.68 30.0534 21.02 30.3384 21.3C30.6234 21.58 30.9627 21.72 31.3562 21.72C31.7634 21.72 32.1094 21.58 32.3944 21.3C32.6794 21.02 32.8219 20.68 32.8219 20.28ZM27.7328 20.28C27.7328 19.8933 27.5903 19.56 27.3053 19.28C27.0204 19 26.6743 18.86 26.2672 18.86C25.8736 18.86 25.5344 19 25.2494 19.28C24.9644 19.56 24.8219 19.8933 24.8219 20.28C24.8219 20.68 24.9644 21.02 25.2494 21.3C25.5344 21.58 25.8736 21.72 26.2672 21.72C26.6743 21.72 27.0204 21.58 27.3053 21.3C27.5903 21.02 27.7328 20.68 27.7328 20.28Z" fill="white"/>
</svg>
