<svg width="24" height="24" viewBox="0 0 24 24" fill="none" xmlns="http://www.w3.org/2000/svg">
<path d="M12.25 12C11.836 12 11.5 11.664 11.5 11.25V10.5H4.5V11.25C4.5 11.664 4.164 12 3.75 12C3.336 12 3 11.664 3 11.25V9.75C3 9.336 3.336 9 3.75 9H12.25C12.664 9 13 9.336 13 9.75V11.25C13 11.664 12.664 12 12.25 12Z" fill="#3A485A"/>
<path d="M8.00009 18.7502C7.58609 18.7502 7.25009 18.4142 7.25009 18.0002V10.0002C7.25009 9.5862 7.58609 9.2502 8.00009 9.2502C8.41409 9.2502 8.75009 9.5862 8.75009 10.0002V18.0002C8.75009 18.4142 8.41409 18.7502 8.00009 18.7502Z" fill="#3A485A"/>
<path d="M9.25 19.0002H6.75C6.336 19.0002 6 18.6642 6 18.2502C6 17.8362 6.336 17.5002 6.75 17.5002H9.25C9.664 17.5002 10 17.8362 10 18.2502C10 18.6642 9.664 19.0002 9.25 19.0002Z" fill="#3A485A"/>
<path d="M20.25 10.5H15.75C15.336 10.5 15 10.164 15 9.75C15 9.336 15.336 9 15.75 9H20.25C20.664 9 21 9.336 21 9.75C21 10.164 20.664 10.5 20.25 10.5Z" fill="#3A485A"/>
<path d="M20.25 14.5002H15.75C15.336 14.5002 15 14.1642 15 13.7502C15 13.3362 15.336 13.0002 15.75 13.0002H20.25C20.664 13.0002 21 13.3362 21 13.7502C21 14.1642 20.664 14.5002 20.25 14.5002Z" fill="#3A485A"/>
<path d="M20.25 18.4998H15.75C15.336 18.4998 15 18.1638 15 17.7498C15 17.3358 15.336 16.9998 15.75 16.9998H20.25C20.664 16.9998 21 17.3358 21 17.7498C21 18.1638 20.664 18.4998 20.25 18.4998Z" fill="#3A485A"/>
<path d="M21.25 23.0002H2.75C1.233 23.0002 0 21.7672 0 20.2502V3.7502C0 2.2332 1.233 1.0002 2.75 1.0002H21.25C22.767 1.0002 24 2.2332 24 3.7502V20.2502C24 21.7672 22.767 23.0002 21.25 23.0002ZM2.75 2.5002C2.061 2.5002 1.5 3.0612 1.5 3.7502V20.2502C1.5 20.9392 2.061 21.5002 2.75 21.5002H21.25C21.939 21.5002 22.5 20.9392 22.5 20.2502V3.7502C22.5 3.0612 21.939 2.5002 21.25 2.5002H2.75Z" fill="#3A485A"/>
<path d="M23.25 6H0.75C0.336 6 0 5.664 0 5.25C0 4.836 0.336 4.5 0.75 4.5H23.25C23.664 4.5 24 4.836 24 5.25C24 5.664 23.664 6 23.25 6Z" fill="#3A485A"/>
</svg>
