<svg width="20" height="16" viewBox="0 0 20 16" fill="none" xmlns="http://www.w3.org/2000/svg">
<path d="M17.9452 3.90079C17.9585 4.07239 17.9585 4.24301 17.9585 4.41364C17.9585 9.63527 13.8337 15.6522 6.29554 15.6522C3.97313 15.6522 1.81559 15.004 0 13.8783C0.329737 13.9146 0.647262 13.9273 0.99023 13.9273C2.83533 13.9316 4.62818 13.3371 6.07979 12.2397C5.22432 12.2248 4.39505 11.9529 3.70775 11.4619C3.02046 10.9709 2.50945 10.2853 2.24608 9.50093C2.49949 9.53722 2.75392 9.56173 3.02056 9.56173C3.38795 9.56173 3.75738 9.5127 4.10035 9.42739C3.17195 9.24678 2.33714 8.76191 1.73786 8.05524C1.13857 7.34856 0.811819 6.4637 0.813149 5.55112V5.50209C1.35966 5.79529 1.99369 5.97866 2.66538 6.00317C2.10268 5.64289 1.64128 5.154 1.32235 4.58013C1.00342 4.00626 0.836875 3.36524 0.837574 2.71427C0.837574 1.98079 1.0401 1.30811 1.39528 0.721715C2.42534 1.94257 3.71006 2.94134 5.16623 3.65334C6.6224 4.36535 8.21755 4.7747 9.84836 4.8549C9.78526 4.56072 9.74659 4.25576 9.74659 3.94982C9.74632 3.43105 9.85217 2.91731 10.0581 2.43798C10.264 1.95865 10.5659 1.52313 10.9467 1.1563C11.3274 0.789474 11.7794 0.498543 12.2769 0.300137C12.7743 0.101732 13.3075 -0.000257286 13.8459 4.87415e-07C15.0265 4.87415e-07 16.092 0.476567 16.841 1.24731C17.7588 1.07631 18.6389 0.753507 19.4423 0.293197C19.1364 1.20595 18.4956 1.97991 17.6399 2.47011C18.4539 2.38066 19.2494 2.17441 20 1.85822C19.4394 2.64573 18.7447 3.3363 17.9452 3.90079Z" fill="#818C9B"/>
</svg>
