<svg width="20" height="16" viewBox="0 0 20 16" fill="none" xmlns="http://www.w3.org/2000/svg">
<path d="M17.9452 3.73825C17.9585 3.90271 17.9585 4.06622 17.9585 4.22973C17.9585 9.2338 13.8337 15 6.29554 15C3.97313 15 1.81559 14.3788 0 13.3C0.329737 13.3348 0.647262 13.347 0.99023 13.347C2.83533 13.3511 4.62818 12.7814 6.07979 11.7297C5.22432 11.7154 4.39505 11.4548 3.70775 10.9843C3.02046 10.5137 2.50945 9.85675 2.24608 9.10506C2.49949 9.13983 2.75392 9.16333 3.02056 9.16333C3.38795 9.16333 3.75738 9.11634 4.10035 9.03458C3.17195 8.8615 2.33714 8.39683 1.73786 7.7196C1.13857 7.04237 0.811819 6.19438 0.813149 5.31982V5.27284C1.35966 5.55382 1.99369 5.72954 2.66538 5.75304C2.10268 5.40777 1.64128 4.93925 1.32235 4.38929C1.00342 3.83933 0.836875 3.22502 0.837574 2.60118C0.837574 1.89826 1.0401 1.2536 1.39528 0.691643C2.42534 1.86163 3.71006 2.81878 5.16623 3.50112C6.6224 4.18346 8.21755 4.57576 9.84836 4.65261C9.78526 4.37069 9.74659 4.07844 9.74659 3.78524C9.74632 3.28809 9.85217 2.79576 10.0581 2.3364C10.264 1.87704 10.5659 1.45966 10.9467 1.10812C11.3274 0.75658 11.7794 0.47777 12.2769 0.287632C12.7743 0.0974931 13.3075 -0.000246566 13.8459 4.67106e-07C15.0265 4.67106e-07 16.092 0.45671 16.841 1.19534C17.7588 1.03147 18.6389 0.722111 19.4423 0.28098C19.1364 1.1557 18.4956 1.89742 17.6399 2.36718C18.4539 2.28146 19.2494 2.08381 20 1.78079C19.4394 2.53549 18.7447 3.19729 17.9452 3.73825Z" fill="white"/>
</svg>
