<svg width="24" height="24" viewBox="0 0 24 24" fill="none" xmlns="http://www.w3.org/2000/svg">
<path d="M4.125 3H5.25V4.5C5.25 4.79837 5.36853 5.08452 5.5795 5.2955C5.79048 5.50647 6.07663 5.625 6.375 5.625C6.67337 5.625 6.95952 5.50647 7.1705 5.2955C7.38147 5.08452 7.5 4.79837 7.5 4.5V3.75H6.75V4.5C6.75 4.59946 6.71049 4.69484 6.64017 4.76516C6.56984 4.83549 6.47446 4.875 6.375 4.875C6.27554 4.875 6.18016 4.83549 6.10983 4.76516C6.03951 4.69484 6 4.59946 6 4.5V2.25C6 2.05109 6.07902 1.86032 6.21967 1.71967C6.36032 1.57902 6.55109 1.5 6.75 1.5C6.94891 1.5 7.13968 1.57902 7.28033 1.71967C7.42098 1.86032 7.5 2.05109 7.5 2.25H6.75V3H15.75V5.25C15.75 5.34946 15.7895 5.44484 15.8598 5.51516C15.9302 5.58549 16.0255 5.625 16.125 5.625H18.375V10.125H19.125V5.25C19.125 5.20075 19.1153 5.15199 19.0965 5.10649C19.0776 5.06099 19.05 5.01965 19.0152 4.98483L16.3902 2.35983C16.3553 2.32501 16.314 2.29738 16.2685 2.27854C16.223 2.2597 16.1742 2.25 16.125 2.25H8.25C8.25 1.85218 8.09196 1.47064 7.81066 1.18934C7.52936 0.908035 7.14782 0.75 6.75 0.75C6.35218 0.75 5.97064 0.908035 5.68934 1.18934C5.40804 1.47064 5.25 1.85218 5.25 2.25H3.75C3.65054 2.25 3.55516 2.28951 3.48484 2.35984C3.41451 2.43016 3.375 2.52554 3.375 2.625V11.625H4.125V3ZM16.5 3.5303L17.8447 4.875H16.5V3.5303Z" fill="white"/>
<path d="M18.375 21.375H15.75V22.125H18.75C18.8495 22.125 18.9448 22.0855 19.0152 22.0152C19.0855 21.9448 19.125 21.8495 19.125 21.75V16.875H18.375V21.375Z" fill="white"/>
<path d="M7.875 18C7.77554 18 7.68016 18.0395 7.60983 18.1098C7.53951 18.1802 7.5 18.2755 7.5 18.375V20.25C7.5 20.3495 7.53951 20.4448 7.60983 20.5152C7.68016 20.5855 7.77554 20.625 7.875 20.625H10.125C10.2245 20.625 10.3198 20.5855 10.3902 20.5152C10.4605 20.4448 10.5 20.3495 10.5 20.25V18.375C10.5 18.2755 10.4605 18.1802 10.3902 18.1098C10.3198 18.0395 10.2245 18 10.125 18H7.875ZM9.75 19.875H8.25V18.75H9.75V19.875Z" fill="white"/>
<path d="M4.875 15.75H5.625V16.5H4.875V15.75Z" fill="white"/>
<path d="M14.25 20.25C14.25 19.3182 13.7347 18.375 12.75 18.375C11.7653 18.375 11.25 19.3182 11.25 20.25C11.25 20.4602 11.169 20.5507 10.9859 20.7352C10.7808 20.9417 10.5 21.2245 10.5 21.7608C10.4989 22.0217 10.5707 22.2777 10.7073 22.5H6.75V17.625C6.75 17.5255 6.71049 17.4302 6.64017 17.3598C6.56984 17.2895 6.47446 17.25 6.375 17.25H4.125C4.02554 17.25 3.93016 17.2895 3.85984 17.3598C3.78951 17.4302 3.75 17.5255 3.75 17.625V22.5H2.625V15.8781L7.125 13.9093L11.625 15.8781V18H12.375V16.2062L12.9747 16.4687C13.0318 16.4937 13.0942 16.504 13.1563 16.4988C13.2183 16.4936 13.2782 16.4731 13.3303 16.4389C13.3824 16.4048 13.4253 16.3583 13.4549 16.3035C13.4845 16.2486 13.5 16.1873 13.5 16.125V14.25C13.5 14.1771 13.4787 14.1058 13.4388 14.0448C13.3989 13.9837 13.3421 13.9357 13.2753 13.9064L7.27533 11.2815C7.22793 11.2607 7.17674 11.25 7.125 11.25C7.07326 11.25 7.02207 11.2607 6.97467 11.2815L0.974672 13.9064C0.907881 13.9357 0.851058 13.9837 0.811155 14.0448C0.771252 14.1058 0.750001 14.1771 0.75 14.25V16.125C0.75 16.1873 0.765521 16.2486 0.795158 16.3034C0.824796 16.3582 0.867618 16.4047 0.919755 16.4388C0.971892 16.4729 1.0317 16.4935 1.09378 16.4987C1.15586 16.5039 1.21826 16.4935 1.27533 16.4685L1.875 16.2062V22.5H0.75V23.25H13.5C13.7993 23.25 14.1573 23.1153 14.4342 22.8984C14.6102 22.7656 14.7529 22.5937 14.8511 22.3963C14.9493 22.1988 15.0003 21.9813 15 21.7608C15 21.2245 14.7192 20.9417 14.5141 20.7352C14.3309 20.5507 14.25 20.4602 14.25 20.25ZM1.5 15.5516V14.4952L7.125 12.0343L12.75 14.4952V15.5516L12.375 15.3876V15.375H12.3463L7.27533 13.1564C7.22793 13.1357 7.17674 13.125 7.125 13.125C7.07326 13.125 7.02207 13.1357 6.97467 13.1564L1.90369 15.375H1.875V15.3876L1.5 15.5516ZM4.5 18H6V22.5H4.5V18ZM13.5 22.5H12C11.7935 22.5 11.25 22.2727 11.25 21.7608C11.25 21.5428 11.3322 21.4508 11.5181 21.2635C11.7215 21.0587 12 20.7782 12 20.25C12 19.3601 12.4906 19.125 12.75 19.125C13.3433 19.125 13.5 19.8609 13.5 20.25C13.5 20.7782 13.7785 21.0587 13.9818 21.2635C14.1677 21.451 14.25 21.5428 14.25 21.7608C14.25 22.2727 13.7063 22.5 13.5 22.5Z" fill="white"/>
<path d="M21.9588 10.8039L22.8452 9.4932C22.9287 9.37084 22.9873 9.23318 23.0175 9.08814C23.0476 8.94309 23.0489 8.79352 23.0211 8.64799C22.9933 8.50246 22.9371 8.36385 22.8556 8.24012C22.7741 8.11639 22.669 8.00997 22.5463 7.92698C22.4236 7.84398 22.2856 7.78605 22.1405 7.7565C21.9953 7.72694 21.8457 7.72636 21.7003 7.75477C21.5549 7.78318 21.4165 7.84004 21.2932 7.92207C21.1698 8.0041 21.0638 8.10969 20.9814 8.23277L14.8891 17.2411C14.8566 17.2894 14.8358 17.3445 14.8282 17.4022L14.6092 19.0649C14.6001 19.1339 14.6104 19.2041 14.639 19.2676C14.6675 19.3311 14.7132 19.3854 14.7709 19.4244C14.8286 19.4634 14.896 19.4856 14.9656 19.4885C15.0351 19.4913 15.1041 19.4748 15.1648 19.4406L16.6264 18.6183C16.6771 18.5897 16.7204 18.5497 16.7529 18.5015L21.5258 11.4442L22.042 12.0197L20.5254 14.2623L21.1466 14.6824L22.8273 12.1973C22.8741 12.128 22.8965 12.0451 22.8908 11.9617C22.8851 11.8782 22.8516 11.7991 22.7958 11.7369L21.9588 10.8039ZM21.6026 8.65291C21.6301 8.61189 21.6654 8.57671 21.7065 8.54937C21.7476 8.52204 21.7938 8.50309 21.8422 8.49363C21.8907 8.48417 21.9406 8.48437 21.9889 8.49422C22.0373 8.50408 22.0833 8.52339 22.1242 8.55106C22.1651 8.57872 22.2001 8.6142 22.2273 8.65544C22.2544 8.69668 22.2732 8.74288 22.2825 8.79138C22.2917 8.83989 22.2913 8.88975 22.2812 8.93809C22.2712 8.98644 22.2517 9.03232 22.2238 9.0731L21.4425 10.2284L20.9263 9.6529L21.6026 8.65291ZM16.1814 18.0081L15.4506 18.4192L15.5601 17.5879L16.5609 16.1081L17.1822 16.5282L16.1814 18.0081ZM17.6023 15.907L16.981 15.4868L20.4934 10.2931L21.0095 10.8687L17.6023 15.907Z" fill="white"/>
<path d="M6.375 6.75H7.125V7.5H6.375V6.75Z" fill="white"/>
<path d="M7.875 6.75H16.875V7.5H7.875V6.75Z" fill="white"/>
<path d="M5.625 8.25H16.875V9H5.625V8.25Z" fill="white"/>
<path d="M5.625 9.75H16.875V10.5H5.625V9.75Z" fill="white"/>
<path d="M11.25 11.25H16.875V12H11.25V11.25Z" fill="white"/>
<path d="M14.25 12.75H15.375V13.5H14.25V12.75Z" fill="white"/>
</svg>
