<svg width="24" height="24" viewBox="0 0 24 24" fill="none" xmlns="http://www.w3.org/2000/svg">
<path d="M18.2657 7.8283C18.0518 6.55747 17.4226 5.3977 16.4602 4.51758C15.3909 3.53876 14.0008 3 12.5532 3C11.4345 3 10.3446 3.32079 9.41106 3.92535C8.63377 4.4271 7.98807 5.1057 7.53157 5.90356C7.33416 5.86654 7.12852 5.84598 6.92289 5.84598C5.17499 5.84598 3.752 7.26897 3.752 9.01686C3.752 9.24306 3.77668 9.46103 3.81781 9.67489C2.68682 10.4974 2 11.8217 2 13.2324C2 14.3716 2.42361 15.4779 3.19679 16.3539C3.99054 17.2505 5.03928 17.781 6.15793 17.8427C6.17027 17.8427 6.17849 17.8427 6.19083 17.8427H9.72774C10.0362 17.8427 10.283 17.5959 10.283 17.2875C10.283 16.979 10.0362 16.7323 9.72774 16.7323H6.20728C4.52519 16.6294 3.11043 15.0296 3.11043 13.2283C3.11043 12.0644 3.73555 10.9786 4.74316 10.3905C4.97759 10.2548 5.07629 9.971 4.98581 9.71602C4.90356 9.49393 4.86243 9.25951 4.86243 9.00864C4.86243 7.87353 5.78779 6.94818 6.92289 6.94818C7.16554 6.94818 7.40407 6.98931 7.62616 7.07156C7.89759 7.17027 8.19782 7.04688 8.3212 6.78779C9.09027 5.15505 10.7518 4.1022 12.5573 4.1022C14.9838 4.1022 16.9866 5.92001 17.2169 8.33004C17.2416 8.58092 17.4308 8.78244 17.6776 8.82357C19.5077 9.13613 20.8896 10.8264 20.8896 12.7553C20.8896 14.7993 19.2815 16.576 17.2992 16.7282H14.2681C13.9597 16.7282 13.7129 16.9749 13.7129 17.2834C13.7129 17.5918 13.9597 17.8386 14.2681 17.8386H17.3198C17.3321 17.8386 17.3444 17.8386 17.3609 17.8386C18.6153 17.7481 19.7874 17.1723 20.6593 16.21C21.527 15.2558 22 14.0302 22 12.7553C21.9959 10.4481 20.4207 8.39585 18.2657 7.8283Z" fill="#0046FE"/>
<path d="M15.3334 13.5281C15.5513 13.3101 15.5513 12.9605 15.3334 12.7425L12.3928 9.80196C12.29 9.69914 12.146 9.63745 12.0021 9.63745C11.8581 9.63745 11.7142 9.69503 11.6114 9.80196L8.6708 12.7425C8.45283 12.9605 8.45283 13.3101 8.6708 13.5281C8.77773 13.635 8.92168 13.6926 9.06151 13.6926C9.20134 13.6926 9.34528 13.6391 9.45221 13.5281L11.4469 11.5334V20.7006C11.4469 21.009 11.6936 21.2558 12.0021 21.2558C12.3105 21.2558 12.5573 21.009 12.5573 20.7006V11.5334L14.5519 13.5281C14.7658 13.746 15.1154 13.746 15.3334 13.5281Z" fill="#0046FE"/>
</svg>
