<svg width="22" height="15" viewBox="0 0 22 15" fill="none" xmlns="http://www.w3.org/2000/svg">
<path d="M10.7327 7.03287C12.5367 7.03287 13.9992 5.57044 13.9992 3.76644C13.9992 1.96243 12.5367 0.5 10.7327 0.5C8.92874 0.5 7.46631 1.96243 7.46631 3.76644C7.46631 5.57044 8.92874 7.03287 10.7327 7.03287Z" fill="white"/>
<path d="M17.2653 8.89938C18.5538 8.89938 19.5984 7.8548 19.5984 6.56624C19.5984 5.27768 18.5538 4.23309 17.2653 4.23309C15.9767 4.23309 14.9321 5.27768 14.9321 6.56624C14.9321 7.8548 15.9767 8.89938 17.2653 8.89938Z" fill="white"/>
<path d="M4.26576 8.89938C5.55432 8.89938 6.5989 7.8548 6.5989 6.56624C6.5989 5.27768 5.55432 4.23309 4.26576 4.23309C2.9772 4.23309 1.93262 5.27768 1.93262 6.56624C1.93262 7.8548 2.9772 8.89938 4.26576 8.89938Z" fill="white"/>
<path d="M10.7327 7.96613C7.3879 7.96613 4.6665 10.6875 4.6665 14.0324C4.6665 14.2899 4.87557 14.499 5.13315 14.499H16.3323C16.5899 14.499 16.799 14.2899 16.799 14.0324C16.799 10.6875 14.0776 7.96613 10.7327 7.96613Z" fill="white"/>
<path d="M5.07042 9.93343C4.78484 9.87276 4.49458 9.83264 4.19969 9.83264C1.88426 9.83264 0 11.7169 0 14.0323C0 14.2899 0.209066 14.499 0.466646 14.499H3.81891C3.76664 14.3525 3.73304 14.1966 3.73304 14.0323C3.73304 12.5008 4.23328 11.0869 5.07042 9.93343Z" fill="white"/>
<path d="M17.2653 9.83264C16.9704 9.83264 16.6801 9.87276 16.3945 9.93343C17.2317 11.0869 17.7319 12.5008 17.7319 14.0323C17.7319 14.1966 17.6983 14.3524 17.646 14.499H20.9983C21.2559 14.499 21.465 14.2899 21.465 14.0323C21.465 11.7169 19.5807 9.83264 17.2653 9.83264Z" fill="white"/>
</svg>
