<svg width="80" height="52" viewBox="0 0 80 52" fill="none" xmlns="http://www.w3.org/2000/svg">
<path d="M39.9999 24.2667C46.7009 24.2667 52.1332 18.8344 52.1332 12.1333C52.1332 5.43229 46.7009 0 39.9999 0C33.2988 0 27.8665 5.43229 27.8665 12.1333C27.8665 18.8344 33.2988 24.2667 39.9999 24.2667Z" fill="#0046FE"/>
<path d="M64.2666 31.2002C69.0531 31.2002 72.9332 27.32 72.9332 22.5336C72.9332 17.7472 69.0531 13.867 64.2666 13.867C59.4802 13.867 55.6001 17.7472 55.6001 22.5336C55.6001 27.32 59.4802 31.2002 64.2666 31.2002Z" fill="#0046FE"/>
<path d="M15.9796 31.2002C20.766 31.2002 24.6462 27.32 24.6462 22.5336C24.6462 17.7472 20.766 13.867 15.9796 13.867C11.1932 13.867 7.31302 17.7472 7.31302 22.5336C7.31302 27.32 11.1932 31.2002 15.9796 31.2002Z" fill="#0046FE"/>
<path d="M39.9999 27.7331C27.5754 27.7331 17.4666 37.8419 17.4666 50.2664C17.4666 51.2232 18.2432 51.9998 19.2 51.9998H60.7999C61.7567 51.9998 62.5332 51.2232 62.5332 50.2664C62.5332 37.8419 52.4245 27.7331 39.9999 27.7331Z" fill="#0046FE"/>
<path d="M18.9678 35.0415C17.907 34.8161 16.8288 34.6671 15.7334 34.6671C7.1326 34.6671 0.133423 41.6662 0.133423 50.267C0.133423 51.2238 0.910008 52.0004 1.8668 52.0004H14.319C14.1248 51.4562 14 50.8772 14 50.267C14 44.5782 15.8582 39.3262 18.9678 35.0415Z" fill="#0046FE"/>
<path d="M64.2666 34.6671C63.1712 34.6671 62.093 34.8161 61.0322 35.0415C64.1418 39.3262 66 44.5782 66 50.267C66 50.8772 65.8752 51.456 65.681 52.0004H78.1332C79.09 52.0004 79.8666 51.2238 79.8666 50.267C79.8666 41.6662 72.8674 34.6671 64.2666 34.6671Z" fill="#0046FE"/>
</svg>
