<svg width="24" height="20" viewBox="0 0 24 20" fill="none" xmlns="http://www.w3.org/2000/svg">
<path d="M21.375 0.25H10.4839C10.3844 0.25 10.289 0.289509 10.2187 0.359835C10.1484 0.430161 10.1089 0.525544 10.1089 0.625C10.1089 0.724456 10.1484 0.819839 10.2187 0.890165C10.289 0.960491 10.3844 1 10.4839 1H21.375C21.6733 1.00033 21.9592 1.11896 22.1701 1.32987C22.381 1.54077 22.4997 1.82673 22.5 2.125V5.5H1.5V2.125C1.50033 1.82673 1.61896 1.54077 1.82987 1.32987C2.04077 1.11896 2.32673 1.00033 2.625 1H6.75C6.84946 1 6.94484 0.960491 7.01517 0.890165C7.08549 0.819839 7.125 0.724456 7.125 0.625C7.125 0.525544 7.08549 0.430161 7.01517 0.359835C6.94484 0.289509 6.84946 0.25 6.75 0.25H2.625C2.1279 0.250586 1.65133 0.448318 1.29982 0.799822C0.948318 1.15133 0.750586 1.6279 0.75 2.125V17.875C0.750586 18.3721 0.948318 18.8487 1.29982 19.2002C1.65133 19.5517 2.1279 19.7494 2.625 19.75H21.375C21.8721 19.7494 22.3487 19.5517 22.7002 19.2002C23.0517 18.8487 23.2494 18.3721 23.25 17.875V2.125C23.2494 1.6279 23.0517 1.15133 22.7002 0.799822C22.3487 0.448318 21.8721 0.250586 21.375 0.25ZM21.375 19H2.625C2.32673 18.9997 2.04077 18.881 1.82987 18.6701C1.61896 18.4592 1.50033 18.1733 1.5 17.875V6.25H22.5V17.875C22.4997 18.1733 22.381 18.4592 22.1701 18.6701C21.9592 18.881 21.6733 18.9997 21.375 19Z" fill="#818C9B"/>
<path d="M8.21802 1H8.99989C9.09935 1 9.19473 0.960491 9.26506 0.890165C9.33538 0.819839 9.37489 0.724456 9.37489 0.625C9.37489 0.525544 9.33538 0.430161 9.26506 0.359835C9.19473 0.289509 9.09935 0.25 8.99989 0.25H8.21802C8.11856 0.25 8.02318 0.289509 7.95285 0.359835C7.88253 0.430161 7.84302 0.525544 7.84302 0.625C7.84302 0.724456 7.88253 0.819839 7.95285 0.890165C8.02318 0.960491 8.11856 1 8.21802 1Z" fill="#818C9B"/>
<path d="M17.2499 12.6248C17.2495 12.0707 17.1609 11.5202 16.9874 10.994C16.9845 10.9861 16.9824 10.9783 16.9789 10.9707C16.6323 9.92402 15.9646 9.01323 15.0708 8.36769C14.177 7.72215 13.1025 7.37469 12 7.37469C10.8975 7.37469 9.82296 7.72215 8.92916 8.36769C8.03537 9.01323 7.36773 9.92402 7.02113 10.9707C7.01768 10.9782 7.01554 10.986 7.01261 10.9938C6.66246 12.0529 6.66246 13.1965 7.01261 14.2556C7.01554 14.2635 7.01768 14.2712 7.02113 14.2788C7.36773 15.3254 8.03537 16.2362 8.92916 16.8817C9.82296 17.5273 10.8975 17.8747 12 17.8747C13.1025 17.8747 14.177 17.5273 15.0708 16.8817C15.9646 16.2362 16.6323 15.3254 16.9789 14.2788C16.9824 14.2713 16.9845 14.2634 16.9874 14.2555C17.1609 13.7293 17.2495 13.1788 17.2499 12.6248ZM11.9999 17.1248C11.5299 17.1248 10.9204 16.16 10.6456 14.4998H13.3542C13.0795 16.16 12.47 17.1248 11.9999 17.1248ZM10.5519 13.7498C10.5195 13.397 10.4999 13.0233 10.4999 12.6248C10.4999 12.2262 10.5195 11.8525 10.5519 11.4998H13.448C13.4804 11.8525 13.4999 12.2262 13.4999 12.6248C13.4999 13.0233 13.4804 13.397 13.448 13.7498H10.5519ZM7.49993 12.6248C7.50139 12.245 7.55115 11.867 7.64801 11.4998H9.80295C9.7692 11.8724 9.74993 12.2498 9.74993 12.6248C9.74993 12.9998 9.76909 13.3771 9.80295 13.7498H7.64801C7.55115 13.3825 7.50139 13.0045 7.49993 12.6248ZM11.9999 8.12475C12.47 8.12475 13.0795 9.08951 13.3542 10.7498H10.6456C10.9204 9.08951 11.5299 8.12475 11.9999 8.12475ZM14.1969 11.4998H16.3518C16.5493 12.2368 16.5493 13.0127 16.3518 13.7498H14.1969C14.2307 13.3771 14.2499 12.9998 14.2499 12.6248C14.2499 12.2498 14.2308 11.8724 14.1969 11.4998ZM16.0854 10.7498H14.1065C13.9977 9.9008 13.734 9.07903 13.3285 8.3253C13.9321 8.51399 14.4894 8.82729 14.9643 9.24492C15.4392 9.66255 15.8211 10.1752 16.0854 10.7498ZM10.6714 8.3253C10.2659 9.07903 10.0021 9.9008 9.89333 10.7498H7.91441C8.17871 10.1752 8.56067 9.66255 9.03558 9.24492C9.51048 8.82729 10.0678 8.51399 10.6714 8.3253ZM7.91441 14.4998H9.89333C10.0021 15.3487 10.2659 16.1705 10.6714 16.9242C10.0678 16.7355 9.51048 16.4222 9.03558 16.0046C8.56067 15.587 8.17871 15.0743 7.91441 14.4998ZM13.3285 16.9242C13.734 16.1705 13.9977 15.3487 14.1065 14.4998H16.0854C15.8211 15.0743 15.4392 15.587 14.9643 16.0046C14.4894 16.4222 13.9321 16.7355 13.3285 16.9242Z" fill="#818C9B"/>
<path d="M21.375 3.25C21.375 2.95333 21.287 2.66332 21.1222 2.41665C20.9574 2.16997 20.7231 1.97771 20.449 1.86418C20.1749 1.75065 19.8733 1.72094 19.5824 1.77882C19.2914 1.8367 19.0241 1.97956 18.8143 2.18934C18.6046 2.39912 18.4617 2.66639 18.4038 2.95737C18.3459 3.24834 18.3756 3.54994 18.4892 3.82403C18.6027 4.09812 18.795 4.33238 19.0416 4.49721C19.2883 4.66203 19.5783 4.75 19.875 4.75C20.2727 4.74958 20.654 4.59142 20.9352 4.3102C21.2164 4.02899 21.3746 3.6477 21.375 3.25ZM19.125 3.25C19.125 3.10167 19.169 2.95666 19.2514 2.83332C19.3338 2.70999 19.4509 2.61386 19.588 2.55709C19.725 2.50033 19.8758 2.48547 20.0213 2.51441C20.1668 2.54335 20.3005 2.61478 20.4053 2.71967C20.5102 2.82456 20.5817 2.9582 20.6106 3.10368C20.6395 3.24917 20.6247 3.39997 20.5679 3.53701C20.5112 3.67406 20.415 3.79119 20.2917 3.8736C20.1684 3.95601 20.0233 4 19.875 4C19.6762 3.99977 19.4855 3.92068 19.3449 3.78008C19.2043 3.63948 19.1252 3.44884 19.125 3.25Z" fill="#818C9B"/>
<path d="M17.625 3.25C17.625 2.95333 17.537 2.66332 17.3722 2.41665C17.2074 2.16997 16.9731 1.97771 16.699 1.86418C16.4249 1.75065 16.1233 1.72094 15.8324 1.77882C15.5414 1.8367 15.2741 1.97956 15.0643 2.18934C14.8546 2.39912 14.7117 2.66639 14.6538 2.95737C14.5959 3.24834 14.6256 3.54994 14.7392 3.82403C14.8527 4.09812 15.045 4.33238 15.2916 4.49721C15.5383 4.66203 15.8283 4.75 16.125 4.75C16.5227 4.74958 16.904 4.59142 17.1852 4.3102C17.4664 4.02899 17.6246 3.6477 17.625 3.25ZM15.375 3.25C15.375 3.10167 15.419 2.95666 15.5014 2.83332C15.5838 2.70999 15.7009 2.61386 15.838 2.55709C15.975 2.50033 16.1258 2.48547 16.2713 2.51441C16.4168 2.54335 16.5505 2.61478 16.6553 2.71967C16.7602 2.82456 16.8317 2.9582 16.8606 3.10368C16.8895 3.24917 16.8747 3.39997 16.8179 3.53701C16.7612 3.67406 16.665 3.79119 16.5417 3.8736C16.4184 3.95601 16.2733 4 16.125 4C15.9262 3.99977 15.7355 3.92068 15.5949 3.78008C15.4543 3.63948 15.3752 3.44884 15.375 3.25Z" fill="#818C9B"/>
<path d="M2.625 3.25C2.62542 3.6477 2.78359 4.02899 3.0648 4.3102C3.34601 4.59141 3.7273 4.74958 4.125 4.75H12.375C12.7728 4.75 13.1544 4.59196 13.4357 4.31066C13.717 4.02936 13.875 3.64782 13.875 3.25C13.875 2.85218 13.717 2.47064 13.4357 2.18934C13.1544 1.90804 12.7728 1.75 12.375 1.75H4.125C3.7273 1.75042 3.34601 1.90859 3.0648 2.1898C2.78359 2.47101 2.62542 2.8523 2.625 3.25ZM13.125 3.25C13.1248 3.44884 13.0457 3.63947 12.9051 3.78008C12.7645 3.92068 12.5738 3.99977 12.375 4H4.125C3.92609 4 3.73532 3.92098 3.59467 3.78033C3.45402 3.63968 3.375 3.44891 3.375 3.25C3.375 3.05109 3.45402 2.86032 3.59467 2.71967C3.73532 2.57902 3.92609 2.5 4.125 2.5H12.375C12.5738 2.50023 12.7645 2.57932 12.9051 2.71992C13.0457 2.86053 13.1248 3.05116 13.125 3.25Z" fill="#818C9B"/>
</svg>
