<svg width="24" height="24" viewBox="0 0 24 24" fill="none" xmlns="http://www.w3.org/2000/svg">
<path d="M21.6562 8.0625C21.7795 8.0625 21.9005 8.01234 21.9876 7.92511C22.0748 7.83797 22.125 7.71703 22.125 7.59375C22.125 7.47047 22.0748 7.34953 21.9876 7.26234C21.9005 7.17516 21.7795 7.125 21.6562 7.125C21.533 7.125 21.412 7.17511 21.3248 7.26234C21.2377 7.34958 21.1875 7.47047 21.1875 7.59375C21.1875 7.71703 21.2376 7.83797 21.3248 7.92511C21.412 8.01234 21.533 8.0625 21.6562 8.0625Z" fill="#B1BAC9"/>
<path d="M9.21084 20.7969H9.20386C8.94501 20.7969 8.73511 21.0068 8.73511 21.2656C8.73511 21.5245 8.94501 21.7344 9.20386 21.7344H9.21084C9.46969 21.7344 9.67959 21.5245 9.67959 21.2656C9.67959 21.0068 9.46969 20.7969 9.21084 20.7969Z" fill="#B1BAC9"/>
<path d="M24 18.8246V3.28125C24 2.50584 23.3692 1.875 22.5938 1.875H20.9881V1.59375C20.9881 0.714938 20.2732 0 19.3943 0C18.5155 0 17.8006 0.714938 17.8006 1.59375V1.875H13.5878V1.59375C13.5878 0.714938 12.8729 0 11.994 0C11.1152 0 10.4003 0.714938 10.4003 1.59375V1.875H6.1875V1.59375C6.1875 0.714938 5.47256 0 4.59375 0C3.71494 0 3 0.714938 3 1.59375V1.875H1.40625C0.630844 1.875 0 2.50584 0 3.28125V22.5938C0 23.3692 0.630844 24 1.40625 24H18.8246C18.954 24 19.0711 23.9475 19.1559 23.8628C19.1559 23.8627 19.156 23.8628 19.156 23.8627L23.8627 19.156C23.9475 19.0712 24 18.954 24 18.8246ZM18.7381 1.59375C18.7381 1.23188 19.0325 0.9375 19.3943 0.9375C19.7562 0.9375 20.0506 1.23188 20.0506 1.59375V3.89062C20.0506 4.2525 19.7562 4.54688 19.3943 4.54688C19.0325 4.54688 18.7381 4.2525 18.7381 3.89062V1.59375ZM11.3378 1.59375C11.3378 1.23188 11.6322 0.9375 11.994 0.9375C12.3559 0.9375 12.6503 1.23188 12.6503 1.59375V3.89062C12.6503 4.2525 12.3559 4.54688 11.994 4.54688C11.6322 4.54688 11.3378 4.2525 11.3378 3.89062V1.59375ZM3.9375 1.59375C3.9375 1.23188 4.23187 0.9375 4.59375 0.9375C4.95563 0.9375 5.25 1.23188 5.25 1.59375V3.89062C5.25 4.2525 4.95563 4.54688 4.59375 4.54688C4.23187 4.54688 3.9375 4.2525 3.9375 3.89062V1.59375ZM0.9375 22.5938V21.7344H7.33594C7.59478 21.7344 7.80469 21.5245 7.80469 21.2656C7.80469 21.0068 7.59478 20.7969 7.33594 20.7969H0.9375V8.0625H19.7812C20.0401 8.0625 20.25 7.85259 20.25 7.59375C20.25 7.33491 20.0401 7.125 19.7812 7.125H0.9375V3.28125C0.9375 3.02278 1.14778 2.8125 1.40625 2.8125H3V3.89062C3 4.76944 3.71494 5.48438 4.59375 5.48438C5.47256 5.48438 6.1875 4.76944 6.1875 3.89062V2.8125H10.4003V3.89062C10.4003 4.76944 11.1152 5.48438 11.994 5.48438C12.8729 5.48438 13.5878 4.76944 13.5878 3.89062V2.8125H17.8006V3.89062C17.8006 4.76944 18.5155 5.48438 19.3943 5.48438C20.2732 5.48438 20.9881 4.76944 20.9881 3.89062V2.8125H22.5938C22.8522 2.8125 23.0625 3.02278 23.0625 3.28125V18.3558H19.7621C18.9867 18.3558 18.3558 18.9867 18.3558 19.7621V23.0625H1.40625C1.14778 23.0625 0.9375 22.8522 0.9375 22.5938ZM19.2933 22.3995V19.762C19.2933 19.5036 19.5036 19.2933 19.7621 19.2933H22.3996L19.2933 22.3995Z" fill="#B1BAC9"/>
<path d="M9.19009 16.4303V14.8125V13.1947C9.19009 12.691 8.78031 12.2812 8.27664 12.2812H6.24634C5.98749 12.2812 5.77759 12.4912 5.77759 12.75C5.77759 13.0088 5.98749 13.2188 6.24634 13.2188H8.25259V14.3438H6.24634C5.98749 14.3438 5.77759 14.5537 5.77759 14.8125C5.77759 15.0713 5.98749 15.2812 6.24634 15.2812H8.25259V16.4062H6.24634C5.98749 16.4062 5.77759 16.6162 5.77759 16.875C5.77759 17.1338 5.98749 17.3438 6.24634 17.3438H8.27664C8.78026 17.3438 9.19009 16.934 9.19009 16.4303Z" fill="#B1BAC9"/>
<path d="M13.2589 13.2188C13.5178 13.2188 13.7277 13.0088 13.7277 12.75C13.7277 12.4912 13.5178 12.2812 13.2589 12.2812H11.2286C10.725 12.2812 10.3152 12.691 10.3152 13.1947V14.8125V16.4303C10.3152 16.934 10.725 17.3438 11.2286 17.3438H12.8142C13.3179 17.3438 13.7276 16.934 13.7276 16.4303V15.2573C13.7276 14.7536 13.3179 14.3438 12.8142 14.3438H12.1246H11.2527V13.2188H13.2589V13.2188ZM12.1246 15.2812H12.7902V16.4062H11.2527V15.2812H12.1246Z" fill="#B1BAC9"/>
<path d="M17.3521 14.3437H16.5593H15.7906V13.2187H17.7968C18.0557 13.2187 18.2656 13.0088 18.2656 12.75C18.2656 12.4912 18.0557 12.2812 17.7968 12.2812H15.7665C15.2629 12.2812 14.8531 12.691 14.8531 13.1947V14.3677C14.8531 14.8714 15.2629 15.2812 15.7665 15.2812H16.5593H17.328V16.4062H15.3218C15.0629 16.4062 14.853 16.6161 14.853 16.875C14.853 17.1338 15.0629 17.3437 15.3218 17.3437H17.3521C17.8557 17.3437 18.2655 16.9339 18.2655 16.4302V15.2572C18.2655 14.7535 17.8557 14.3437 17.3521 14.3437Z" fill="#B1BAC9"/>
</svg>
