<svg width="24" height="24" viewBox="0 0 24 24" fill="none" xmlns="http://www.w3.org/2000/svg">
<path d="M0 0V23.9998H1.5V1.49999H24V0H0Z" fill="#3A485A"/>
<path d="M5.24976 22.5001H3.74976V24H5.24976V22.5001Z" fill="#3A485A"/>
<path d="M9.00025 22.5001H7.50024V24H9.00025V22.5001Z" fill="#3A485A"/>
<path d="M12.7498 22.5001H11.2498V24H12.7498V22.5001Z" fill="#3A485A"/>
<path d="M16.5002 22.5001H15.0002V24H16.5002V22.5001Z" fill="#3A485A"/>
<path d="M20.25 22.5001H18.75V24H20.25V22.5001Z" fill="#3A485A"/>
<path d="M23.9998 18.7501H22.4998V20.2501H23.9998V18.7501Z" fill="#3A485A"/>
<path d="M23.9998 15.0001H22.4998V16.5001H23.9998V15.0001Z" fill="#3A485A"/>
<path d="M23.9998 11.2501H22.4998V12.7501H23.9998V11.2501Z" fill="#3A485A"/>
<path d="M23.9998 7.50012H22.4998V9.00011H23.9998V7.50012Z" fill="#3A485A"/>
<path d="M23.9998 3.75012H22.4998V5.25011H23.9998V3.75012Z" fill="#3A485A"/>
<path d="M23.9998 22.5001H22.4998V24H23.9998V22.5001Z" fill="#3A485A"/>
<path d="M17.7977 7.30414H14.3593C13.8846 7.30414 13.4998 7.68896 13.4998 8.16372V15.8999H15.2189V13.3212H17.7977C18.7471 13.3212 19.5168 12.5515 19.5168 11.602V9.02329C19.5168 8.07384 18.7471 7.30414 17.7977 7.30414ZM17.7977 11.602H15.2189V9.02329H17.7977V11.602Z" fill="#3A485A"/>
<path d="M12.184 7.30414H10.4648V15.8999H12.184V7.30414Z" fill="#3A485A"/>
<path d="M8.74566 7.43498C8.60856 7.34929 8.45002 7.304 8.28837 7.30432H3.13086V9.02348H6.74111L3.30278 14.5849C3.05065 14.9872 3.17233 15.5176 3.57457 15.7698C3.69969 15.8483 3.84292 15.8931 3.99044 15.9001H9.14795V14.1809H5.5377L9.01901 8.61948C9.27066 8.21693 9.14827 7.68662 8.74566 7.43498Z" fill="#3A485A"/>
</svg>
