<svg width="15" height="24" viewBox="0 0 15 24" fill="none" xmlns="http://www.w3.org/2000/svg">
<path d="M12.5 0H2.5C1.12202 0 0 1.07714 0 2.4V21.6C0 22.9238 1.12202 24 2.5 24H12.5C13.879 24 15 22.9238 15 21.6V2.4C15 1.07714 13.879 0 12.5 0ZM14 21.6C14 22.3939 13.327 23.04 12.5 23.04H2.5C1.673 23.04 1 22.3939 1 21.6V2.4C1 1.60608 1.673 0.96 2.5 0.96H12.5C13.327 0.96 14 1.60608 14 2.4V21.6Z" fill="#818C9B"/>
<path d="M8.49927 1.91992H6.49927C6.22324 1.91992 5.99927 2.13498 5.99927 2.39992C5.99927 2.66486 6.22329 2.87992 6.49927 2.87992H8.49927C8.77524 2.87992 8.99927 2.66486 8.99927 2.39992C8.99927 2.13498 8.77524 1.91992 8.49927 1.91992Z" fill="#818C9B"/>
<path d="M7.50025 21.1201C7.22427 21.1201 7.00024 21.3352 7.00024 21.6001C7.00024 21.8651 7.22427 22.0801 7.50025 22.0801C7.77622 22.0801 8.00025 21.8651 8.00025 21.6001C8.00025 21.3352 7.77622 21.1201 7.50025 21.1201Z" fill="#818C9B"/>
<path d="M14.5 3.83984H0.5C0.223974 3.83984 0 4.05491 0 4.31984C0 4.58483 0.223974 4.79984 0.5 4.79984H14.5C14.776 4.79984 15 4.58478 15 4.31984C15 4.05491 14.776 3.83984 14.5 3.83984Z" fill="#818C9B"/>
<path d="M14.5 19.1997H0.5C0.223974 19.1997 0 19.4148 0 19.6797C0 19.9446 0.223974 20.1597 0.5 20.1597H14.5C14.776 20.1597 15 19.9446 15 19.6797C15 19.4148 14.776 19.1997 14.5 19.1997Z" fill="#818C9B"/>
</svg>
