<svg width="197" height="33" viewBox="0 0 197 33" fill="none" xmlns="http://www.w3.org/2000/svg">
<path d="M10.0789 8.97477C11.3416 8.97477 12.4073 9.30066 13.2762 9.95245C14.1549 10.6181 14.7685 11.5498 15.0151 12.5932H19.3975C19.0025 10.4127 18.0031 8.68864 16.3995 7.42091C14.7958 6.15318 12.7295 5.51988 10.2005 5.521C8.17244 5.521 6.3889 5.92864 4.8499 6.74393C3.33259 7.53613 2.09042 8.73219 1.27516 10.1859C0.432181 11.6665 0.0112779 13.3844 0.0124536 15.3397C0.0136293 17.2951 0.428069 19.0253 1.25577 20.5305C2.0445 21.9968 3.27193 23.2075 4.78289 24.0095C6.3113 24.8259 8.07486 25.2335 10.0736 25.2324C12.6272 25.2324 14.72 24.5991 16.3518 23.3325C17.9837 22.0659 18.9972 20.3171 19.3922 18.0863H15.0539C14.8348 19.1437 14.2339 20.0946 13.3555 20.7741C12.4879 21.4382 11.3956 21.7702 10.0789 21.7702C8.36585 21.7702 6.99027 21.175 5.95212 19.9845C4.91397 18.7941 4.39373 17.2452 4.39137 15.3381C4.39137 13.4566 4.91162 11.9268 5.95212 10.7487C6.99262 9.57056 8.3682 8.97925 10.0789 8.97477Z" fill="#3A485A"/>
<path d="M37.4247 6.75264C35.8587 5.92616 34.0622 5.51235 32.0353 5.51123C30.0084 5.51011 28.2113 5.92392 26.6441 6.75264C25.1043 7.55564 23.8422 8.76711 23.0112 10.24C22.1553 11.7317 21.7273 13.4429 21.7273 15.3736C21.7273 17.3301 22.1553 19.0542 23.0112 20.5459C23.8402 22.0134 25.1035 23.2167 26.6441 24.0064C28.2101 24.8228 30.0072 25.2304 32.0353 25.2293C34.0634 25.2282 35.8599 24.8206 37.4247 24.0064C38.9653 23.2167 40.2286 22.0134 41.0576 20.5459C41.9124 19.0542 42.3403 17.3301 42.3415 15.3736C42.3415 13.4429 41.9136 11.7317 41.0576 10.24C40.2266 8.76711 38.9645 7.55564 37.4247 6.75264ZM36.3578 19.9832C35.2655 21.1747 33.8247 21.77 32.0353 21.7688C30.2459 21.7677 28.8109 21.1725 27.7304 19.9832C26.6511 18.7905 26.1115 17.254 26.1115 15.3736C26.1115 13.4933 26.6511 11.9574 27.7304 10.7658C28.8097 9.57423 30.2447 8.97901 32.0353 8.98013C33.8259 8.98125 35.2667 9.57647 36.3578 10.7658C37.4512 11.9574 37.9979 13.4933 37.9979 15.3736C37.9979 17.254 37.4512 18.7905 36.3578 19.9832Z" fill="#3A485A"/>
<path d="M61.5326 6.69904C60.0258 5.89434 58.3218 5.48508 56.5946 5.51306C53.8305 5.51306 51.632 6.54169 49.9989 8.59895L49.4857 5.7432H45.7822V32.5217H50.0465V22.2914C50.7228 23.2083 51.6333 23.946 52.6919 24.4349C53.797 24.9624 55.1003 25.2256 56.6017 25.2244C58.3339 25.2531 60.0414 24.8303 61.5396 24.0015C62.9949 23.1799 64.1734 21.9793 64.9362 20.541C65.7522 19.0493 66.1602 17.3252 66.1602 15.3688C66.1602 13.363 65.7522 11.6143 64.9362 10.1226C64.1777 8.68881 62.9943 7.49848 61.5326 6.69904ZM60.1711 19.9967C59.0777 21.1995 57.6492 21.8009 55.8857 21.8009C54.1221 21.8009 52.7007 21.1995 51.6214 19.9967C50.5421 18.7929 50.0018 17.225 50.0007 15.2932C50.0007 13.4117 50.5409 11.8881 51.6214 10.7223C52.7018 9.55647 54.1233 8.97356 55.8857 8.97356C57.6492 8.97356 59.0777 9.56263 60.1711 10.7408C61.2645 11.9189 61.8106 13.4616 61.8095 15.3688C61.8095 17.2502 61.2633 18.7929 60.1711 19.9967Z" fill="#3A485A"/>
<path d="M76.1057 6.50933C75.1799 7.02663 74.4054 7.75737 73.8536 8.63435L73.3792 5.73828H69.5894V24.9978H73.8536V15.3302C73.8536 13.6504 74.2487 12.2651 75.0388 11.1743C75.8288 10.0835 77.1056 9.53811 78.8692 9.53811H80.765V5.73828H79.8162C78.2643 5.73828 77.0275 5.9953 76.1057 6.50933Z" fill="#3A485A"/>
<path d="M97.4875 6.75264C95.9214 5.92616 94.1244 5.51235 92.0963 5.51123C90.0682 5.51011 88.2717 5.92392 86.7068 6.75264C85.1667 7.55517 83.9045 8.76676 83.0739 10.24C82.2168 11.7317 81.7889 13.4429 81.79 15.3736C81.79 17.3301 82.218 19.0542 83.0739 20.5459C83.9025 22.0138 85.1658 23.2172 86.7068 24.0064C88.2729 24.8228 90.0694 25.2304 92.0963 25.2293C94.1232 25.2282 95.9203 24.8206 97.4875 24.0064C99.0281 23.2167 100.291 22.0134 101.12 20.5459C101.975 19.0542 102.403 17.3301 102.404 15.3736C102.404 13.4429 101.976 11.7317 101.12 10.24C100.289 8.76711 99.0273 7.55564 97.4875 6.75264ZM96.4293 19.9764C95.3348 21.168 93.8904 21.7632 92.0963 21.7621C90.3022 21.761 88.8678 21.168 87.7932 19.9832C86.7116 18.7905 86.1713 17.254 86.1725 15.3736C86.1737 13.4933 86.7139 11.9574 87.7932 10.7658C88.8725 9.57423 90.3069 8.97901 92.0963 8.98013C93.8857 8.98125 95.3271 9.57647 96.4205 10.7658C97.5139 11.9574 98.0606 13.4933 98.0606 15.3736C98.0606 17.254 97.5139 18.7905 96.4205 19.9832L96.4293 19.9764Z" fill="#3A485A"/>
<path d="M121.594 6.69904C120.087 5.89434 118.383 5.48508 116.656 5.51306C113.891 5.51306 111.692 6.54169 110.06 8.59895L109.547 5.7432H105.838V32.5217H110.104V22.2914C110.781 23.2083 111.691 23.946 112.75 24.4349C113.855 24.9624 115.158 25.2256 116.659 25.2244C118.392 25.2531 120.099 24.8303 121.597 24.0015C123.053 23.1799 124.231 21.9793 124.994 20.541C125.809 19.0493 126.217 17.3252 126.218 15.3688C126.218 13.363 125.81 11.6143 124.994 10.1226C124.236 8.68927 123.054 7.499 121.594 6.69904ZM120.231 19.9967C119.141 21.1995 117.714 21.8009 115.95 21.8009C114.187 21.8009 112.764 21.1995 111.683 19.9967C110.603 18.7929 110.064 17.225 110.064 15.2932C110.064 13.4117 110.603 11.8881 111.683 10.7223C112.762 9.55647 114.184 8.97412 115.95 8.97524C117.714 8.97524 119.142 9.5643 120.234 10.7424C121.326 11.9206 121.873 13.4627 121.874 15.3688C121.873 17.2502 121.326 18.7929 120.232 19.9967H120.231Z" fill="#3A485A"/>
<path d="M143.887 6.64009C142.4 5.88752 140.682 5.51123 138.734 5.51123C136.811 5.51123 135.107 5.91887 133.619 6.73416C132.136 7.54541 130.929 8.74687 130.143 10.1947C129.315 11.6886 128.9 13.4244 128.9 15.4022C128.9 17.3575 129.328 19.0755 130.184 20.556C131.018 22.0145 132.281 23.21 133.817 23.9963C135.383 24.8127 137.219 25.2204 139.326 25.2192C141.748 25.2192 143.769 24.5927 145.388 23.3395C146.973 22.1406 148.035 20.4247 148.37 18.5234H144.104C143.86 19.5392 143.226 20.4314 142.326 21.0247C141.431 21.6137 140.326 21.9088 139.011 21.9099C137.351 21.9099 136.021 21.4205 135.021 20.4417C134.022 19.463 133.469 18.1342 133.362 16.4555V16.2287H148.606C148.684 15.718 148.724 15.2026 148.724 14.6866C148.698 12.832 148.258 11.2149 147.402 9.83517C146.567 8.47764 145.349 7.37059 143.887 6.64009ZM133.521 13.2637C133.677 11.9098 134.265 10.8252 135.284 10.0099C136.292 9.19723 137.577 8.76298 138.898 8.78862C140.398 8.78862 141.642 9.18059 142.629 9.96452C143.617 10.7484 144.205 11.8454 144.393 13.2553L133.521 13.2637Z" fill="#3A485A"/>
<path d="M158.675 6.50933C157.75 7.0272 156.976 7.75784 156.425 8.63435L155.95 5.73828H152.16V24.9978H156.425V15.3302C156.425 13.6504 156.82 12.2651 157.61 11.1743C158.4 10.0835 159.677 9.53811 161.44 9.53811H163.336V5.73828H162.387C160.835 5.73828 159.598 5.9953 158.675 6.50933Z" fill="#3A485A"/>
<path d="M170.798 20.9544C170.483 20.6397 170.325 20.1066 170.325 19.3552V9.31136H175.221V5.73832H170.325V0.362793H166.059V19.7684C166.059 21.5491 166.494 22.8661 167.363 23.7194C168.231 24.5728 169.627 24.9989 171.549 24.9978H175.657V21.4248H172.417C171.653 21.4248 171.115 21.2669 170.798 20.9544Z" fill="#3A485A"/>
<path d="M192.437 5.73828L186.948 20.5966L181.304 5.73828H176.763L184.662 25.149L183.831 26.9968C183.489 27.8233 183.161 28.3575 182.844 28.5943C182.526 28.8312 181.962 28.9521 181.147 28.9521H178.149V32.5252H182.734C183.71 32.5252 184.487 32.3689 185.066 32.0565C185.67 31.7188 186.172 31.2394 186.526 30.6639C187.037 29.8158 187.473 28.9286 187.829 28.0114L197 5.74332L192.437 5.73828Z" fill="#3A485A"/>
</svg>
