<svg width="20" height="20" viewBox="0 0 20 20" fill="none" xmlns="http://www.w3.org/2000/svg">
<path d="M16.2114 8.67171C15.8878 8.67171 15.6255 8.93406 15.6255 9.25767V17.8517C15.6255 18.3902 15.1874 18.8283 14.6489 18.8283H2.1485C1.61001 18.8283 1.17191 18.3902 1.17191 17.8517V5.35129C1.17191 4.8128 1.61001 4.3747 2.1485 4.3747H10.7425C11.0661 4.3747 11.3285 4.11235 11.3285 3.78875C11.3285 3.46514 11.0661 3.20279 10.7425 3.20279H2.1485C0.963819 3.20279 0 4.16661 0 5.35129V17.8517C0 19.0364 0.963819 20.0002 2.1485 20.0002H14.6489C15.8336 20.0002 16.7974 19.0364 16.7974 17.8517V9.25767C16.7974 8.93406 16.535 8.67171 16.2114 8.67171Z" fill="white"/>
<path d="M19.6002 1.50475L18.4953 0.399828C17.9622 -0.133235 17.0949 -0.133235 16.5617 0.399828L7.72267 9.23893C7.64087 9.32073 7.58513 9.42492 7.56239 9.53836L7.00991 12.3006C6.97151 12.4927 7.03163 12.6913 7.17019 12.8298C7.28117 12.9408 7.43067 13.0015 7.5845 13.0015C7.62275 13.0015 7.66118 12.9977 7.69939 12.9901L10.4616 12.4376C10.5751 12.4149 10.6792 12.3591 10.761 12.2773L19.6002 3.43828C19.6002 3.43828 19.6002 3.43828 19.6002 3.43824C20.1333 2.90522 20.1333 2.03785 19.6002 1.50475ZM10.0579 11.3233L8.33148 11.6686L8.6768 9.9422L15.8712 2.74771L17.2523 4.12885L10.0579 11.3233ZM18.7715 2.60962L18.081 3.30019L16.6998 1.91906L17.3904 1.22853C17.4665 1.15235 17.5904 1.15231 17.6666 1.22849L18.7715 2.3334C18.8477 2.40954 18.8477 2.53349 18.7715 2.60962Z" fill="white"/>
</svg>
