<svg width="23" height="18" viewBox="0 0 23 18" fill="none" xmlns="http://www.w3.org/2000/svg">
<path d="M22.4589 2.35416C22.3612 1.70084 22.0326 1.10415 21.5327 0.672263C21.0329 0.240376 20.3948 0.00187676 19.7342 0H2.76814C2.10754 0.00187676 1.46948 0.240376 0.969618 0.672263C0.469756 1.10415 0.141182 1.70084 0.043457 2.35416L11.2512 9.60638L22.4589 2.35416Z" fill="#818C9B"/>
<path d="M11.657 11.1302C11.5356 11.2087 11.3942 11.2504 11.2497 11.2504C11.1052 11.2504 10.9638 11.2087 10.8425 11.1302L0 4.11501V15.2333C0.000794075 15.9669 0.292538 16.6701 0.81122 17.1888C1.3299 17.7074 2.03316 17.9992 2.76668 18H19.7328C20.4663 17.9992 21.1696 17.7074 21.6882 17.1888C22.2069 16.6701 22.4987 15.9669 22.4995 15.2333V4.11426L11.657 11.1302Z" fill="#818C9B"/>
</svg>
