<svg width="18" height="20" viewBox="0 0 18 20" fill="none" xmlns="http://www.w3.org/2000/svg">
<path d="M13.6288 3.04053H8.48504C8.33579 3.04053 8.21484 3.16151 8.21484 3.31072C8.21484 3.45994 8.33579 3.58092 8.48504 3.58092H13.6288C13.778 3.58092 13.899 3.45994 13.899 3.31072C13.899 3.16151 13.778 3.04053 13.6288 3.04053Z" fill="#3A485A"/>
<path d="M13.6288 4.30151H8.48504C8.33579 4.30151 8.21484 4.42249 8.21484 4.57171C8.21484 4.72092 8.33579 4.8419 8.48504 4.8419H13.6288C13.778 4.8419 13.899 4.72092 13.899 4.57171C13.899 4.42246 13.778 4.30151 13.6288 4.30151Z" fill="#3A485A"/>
<path d="M16.8208 5.84563H16.7849V5.19861C16.7849 4.76789 16.4345 4.41746 16.0038 4.41746H15.7469V3.94257C15.7469 3.79335 15.626 3.67237 15.4767 3.67237C15.3275 3.67237 15.2066 3.79335 15.2066 3.94257V5.84563H6.90731V1.73103C6.90731 1.6127 7.00358 1.51646 7.12188 1.51646H14.992C15.1103 1.51646 15.2066 1.61273 15.2066 1.73103V2.67944C15.2066 2.82866 15.3275 2.94964 15.4768 2.94964C15.626 2.94964 15.747 2.82866 15.747 2.67944V1.73103C15.7469 1.31472 15.4083 0.976074 14.992 0.976074H7.12188C6.70561 0.976074 6.36696 1.31472 6.36696 1.73103V4.4175H6.11009C5.80154 4.4175 5.53427 4.59734 5.40741 4.8577C5.16316 4.63947 4.84121 4.5065 4.48868 4.5065H2.65738C1.91004 4.5065 1.29989 5.10354 1.27783 5.84566H1.17916C0.528967 5.84566 0 6.37463 0 7.02482V16.506C0 17.1562 0.528967 17.6852 1.17916 17.6852H1.27783C1.29989 18.4272 1.91004 19.0243 2.65738 19.0243H4.48864C5.23602 19.0243 5.84617 18.4272 5.86823 17.6851H16.8208C17.471 17.6851 18 17.1561 18 16.5059V7.02475C18 6.3746 17.471 5.84563 16.8208 5.84563ZM15.7469 4.95785H16.0038C16.1365 4.95785 16.2445 5.06586 16.2445 5.19861V5.84563H15.7469V4.95785H15.7469ZM6.11005 4.95785H6.36692V5.84563H5.86926V5.19861C5.86929 5.06582 5.9773 4.95785 6.11005 4.95785ZM0.540353 16.5059V7.02475C0.540353 6.67253 0.826938 6.38598 1.17916 6.38598H1.27677V6.90645C1.27677 8.16877 1.44988 8.97396 1.53871 9.72944V13.7924C1.19781 15.4812 1.2932 16.6798 1.27677 17.1447H1.17916C0.826938 17.1447 0.540353 16.8582 0.540353 16.5059ZM5.3289 17.6436C5.3289 18.107 4.95194 18.4839 4.48864 18.4839H2.65738C2.19405 18.4839 1.81716 18.107 1.81716 17.6436C1.84225 16.7893 1.71962 15.6088 2.07364 13.8736C2.07727 13.8558 2.0791 13.8377 2.0791 13.8196V9.71115C2.0791 9.69899 2.07829 9.68679 2.07663 9.67474C1.9883 8.92676 1.81716 8.12784 1.81716 6.90645V5.88708C1.81716 5.42375 2.19409 5.04682 2.65738 5.04682H4.48864C4.95197 5.04682 5.3289 5.42375 5.3289 5.88708V6.11582V6.90649C5.3289 8.12312 5.16111 8.89821 5.06943 9.67477C5.06777 9.68683 5.06696 9.69902 5.06696 9.71118V13.8195C5.06696 13.8377 5.06879 13.8558 5.07242 13.8735C5.42616 15.6077 5.30359 16.7821 5.3289 17.6436ZM17.4596 16.5059C17.4596 16.8582 17.173 17.1447 16.8208 17.1447H5.86929C5.85364 16.7026 5.94857 15.4833 5.60735 13.7924V9.72944C5.69664 8.97005 5.86929 8.17289 5.86929 6.90645V6.38598H16.8208C17.1731 6.38598 17.4596 6.67253 17.4596 7.02475V16.5059H17.4596Z" fill="#3A485A"/>
<path d="M14.6887 7.59302H7.42514C7.07862 7.59302 6.79669 7.87491 6.79669 8.22146V9.9163C6.79669 10.2628 7.07862 10.5447 7.42514 10.5447H8.68819C8.83744 10.5447 8.95838 10.4238 8.95838 10.2745C8.95838 10.1253 8.83744 10.0044 8.68819 10.0044H7.42514C7.37656 10.0044 7.33704 9.96484 7.33704 9.9163V8.22146C7.33704 8.17289 7.37656 8.13341 7.42514 8.13341H14.6887C14.7373 8.13341 14.7768 8.17292 14.7768 8.22146V9.9163C14.7768 9.96487 14.7373 10.0044 14.6887 10.0044H9.95135C9.8021 10.0044 9.68116 10.1253 9.68116 10.2745C9.68116 10.4238 9.8021 10.5447 9.95135 10.5447H14.6887C15.0352 10.5447 15.3171 10.2628 15.3171 9.9163V8.22146C15.3172 7.87495 15.0353 7.59302 14.6887 7.59302Z" fill="#3A485A"/>
<path d="M8.03317 11.4238H7.3221C7.03238 11.4238 6.79669 11.6595 6.79669 11.9492V12.6335C6.79669 12.9232 7.03241 13.1589 7.3221 13.1589H8.03317C8.32289 13.1589 8.55854 12.9232 8.55854 12.6335V11.9492C8.55854 11.6595 8.32286 11.4238 8.03317 11.4238ZM8.01819 12.6185H7.33708V11.9642H8.01819V12.6185Z" fill="#3A485A"/>
<path d="M10.286 11.4238H9.57491C9.28518 11.4238 9.0495 11.6595 9.0495 11.9492V12.6335C9.0495 12.9232 9.28522 13.1589 9.57491 13.1589H10.286C10.5757 13.1589 10.8114 12.9232 10.8114 12.6335V11.9492C10.8114 11.6595 10.5757 11.4238 10.286 11.4238ZM10.271 12.6185H9.58989V11.9642H10.271V12.6185Z" fill="#3A485A"/>
<path d="M12.5388 11.4238H11.8278C11.5381 11.4238 11.3024 11.6595 11.3024 11.9492V12.6335C11.3024 12.9232 11.5381 13.1589 11.8278 13.1589H12.5388C12.8286 13.1589 13.0643 12.9232 13.0643 12.6335V11.9492C13.0643 11.6595 12.8286 11.4238 12.5388 11.4238ZM12.5239 12.6185H11.8428V11.9642H12.5239V12.6185Z" fill="#3A485A"/>
<path d="M14.7917 11.4238H14.0807C13.7909 11.4238 13.5553 11.6595 13.5553 11.9492V12.6335C13.5553 12.9232 13.791 13.1589 14.0807 13.1589H14.7917C15.0815 13.1589 15.3171 12.9232 15.3171 12.6335V11.9492C15.3172 11.6595 15.0815 11.4238 14.7917 11.4238ZM14.7768 12.6185H14.0957V11.9642H14.7768V12.6185Z" fill="#3A485A"/>
<path d="M8.03317 13.9932H7.3221C7.03238 13.9932 6.79669 14.2288 6.79669 14.5186V15.2028C6.79669 15.4925 7.03241 15.7282 7.3221 15.7282H8.03317C8.32289 15.7282 8.55854 15.4925 8.55854 15.2028V14.5186C8.55854 14.2289 8.32286 13.9932 8.03317 13.9932ZM8.01819 15.1879H7.33708V14.5336H8.01819V15.1879Z" fill="#3A485A"/>
<path d="M10.286 13.9932H9.57491C9.28518 13.9932 9.0495 14.2288 9.0495 14.5186V15.2028C9.0495 15.4925 9.28522 15.7282 9.57491 15.7282H10.286C10.5757 15.7282 10.8114 15.4925 10.8114 15.2028V14.5186C10.8114 14.2289 10.5757 13.9932 10.286 13.9932ZM10.271 15.1879H9.58989V14.5336H10.271V15.1879Z" fill="#3A485A"/>
<path d="M12.5388 13.9932H11.8278C11.5381 13.9932 11.3024 14.2288 11.3024 14.5186V15.2028C11.3024 15.4925 11.5381 15.7282 11.8278 15.7282H12.5388C12.8286 15.7282 13.0643 15.4925 13.0643 15.2028V14.5186C13.0643 14.2289 12.8286 13.9932 12.5388 13.9932ZM12.5239 15.1879H11.8428V14.5336H12.5239V15.1879Z" fill="#3A485A"/>
<path d="M14.7917 13.9932H14.0807C13.7909 13.9932 13.5553 14.2288 13.5553 14.5186V15.2028C13.5553 15.4925 13.791 15.7282 14.0807 15.7282H14.7917C15.0815 15.7282 15.3171 15.4925 15.3171 15.2028V14.5186C15.3172 14.2289 15.0815 13.9932 14.7917 13.9932ZM14.7768 15.1879H14.0957V14.5336H14.7768V15.1879Z" fill="#3A485A"/>
</svg>
