<svg width="20" height="16" viewBox="0 0 20 16" fill="none" xmlns="http://www.w3.org/2000/svg">
<path d="M19.9627 2.09267C19.8758 1.51191 19.5837 0.981503 19.1394 0.597589C18.6951 0.213676 18.1279 0.0016683 17.5407 0H2.45935C1.87214 0.0016683 1.30496 0.213676 0.860628 0.597589C0.416295 0.981503 0.124222 1.51191 0.0373535 2.09267L10 8.53933L19.9627 2.09267Z" fill="#3A485A"/>
<path d="M10.362 9.8934C10.2541 9.96315 10.1284 10.0002 10 10.0002C9.87156 10.0002 9.74586 9.96315 9.638 9.8934L0 3.65741V13.5407C0.000705862 14.1928 0.26004 14.8179 0.721102 15.279C1.18216 15.74 1.80729 15.9994 2.45933 16.0001H17.5407C18.1927 15.9994 18.8178 15.74 19.2789 15.279C19.74 14.8179 19.9993 14.1928 20 13.5407V3.65674L10.362 9.8934Z" fill="#3A485A"/>
</svg>
