<svg width="24" height="24" viewBox="0 0 24 24" fill="none" xmlns="http://www.w3.org/2000/svg">
<path fill-rule="evenodd" clip-rule="evenodd" d="M12.4976 0.374373C12.7582 0.113808 13.1186 -0.021599 13.4865 0.00281209L22.2246 0.585306C22.8633 0.627924 23.3722 1.13665 23.4146 1.77551L23.9971 10.5136C24.0217 10.8812 23.8863 11.2418 23.6256 11.5023L11.5022 23.6257C11.0032 24.1247 10.1938 24.1247 9.69481 23.6257L0.374359 14.3051C-0.124786 13.8061 -0.124786 12.9968 0.374359 12.4978L12.4976 0.374373ZM22.1395 1.86062L13.4014 1.27812L1.27797 13.4015L10.5986 22.7221L22.722 10.5987L22.1395 1.86062Z" fill="white"/>
<path fill-rule="evenodd" clip-rule="evenodd" d="M16.0081 7.90016C16.5072 8.39931 17.3164 8.39931 17.8154 7.90016C18.3146 7.40102 18.3146 6.59181 17.8154 6.0928C17.3164 5.59365 16.5072 5.59365 16.0081 6.0928C15.5089 6.59194 15.5089 7.40115 16.0081 7.90016ZM15.1043 8.80391C16.1026 9.8022 17.721 9.8022 18.7192 8.80391C19.7173 7.80575 19.7173 6.18734 18.7192 5.18905C17.7209 4.19089 16.1025 4.19089 15.1043 5.18905C14.1062 6.18734 14.1062 7.80575 15.1043 8.80391Z" fill="white"/>
</svg>
