<svg width="24" height="24" viewBox="0 0 24 24" fill="none" xmlns="http://www.w3.org/2000/svg">
<path d="M13.936 14.0145C13.8273 13.9781 13.1402 13.6612 13.5695 12.3257H13.5634C14.6825 11.1461 15.5378 9.24812 15.5378 7.37949C15.5378 4.50624 13.6707 3 11.5007 3C9.32931 3 7.47243 4.50554 7.47243 7.37949C7.47243 9.25582 8.32293 11.1615 9.44895 12.3383C9.88788 13.5164 9.10301 13.9536 8.93892 14.0152C6.66636 14.8561 4 16.3889 4 17.9022V18.4695C4 20.5313 7.90656 21 11.5219 21C15.1427 21 19 20.5313 19 18.4695V17.9022C19 16.3435 16.3206 14.8225 13.936 14.0145Z" fill="#3A485A"/>
</svg>
