<svg width="40" height="48" viewBox="0 0 40 48" fill="none" xmlns="http://www.w3.org/2000/svg">
<path d="M33.6275 27.8113C33.6257 30.4254 32.5349 32.9319 30.5947 34.7807C28.6544 36.6295 26.0233 37.6693 23.279 37.672H21.5542V42.594H18.1082V35.6142C18.1082 35.5302 18.1082 35.4462 18.1082 35.3605C18.1082 35.038 18.0853 34.7121 18.0553 34.3862H23.279C25.0894 34.3586 26.8158 33.6542 28.0859 32.425C29.3559 31.1957 30.0677 29.5402 30.0677 27.8155C30.0677 26.0908 29.3559 24.4352 28.0859 23.2059C26.8158 21.9767 25.0894 21.2723 23.279 21.2447H3.44776V47.521H0V17.9556H23.279C26.0224 17.9582 28.6527 18.9974 30.5928 20.8451C32.5329 22.6928 33.6243 25.198 33.6275 27.8113Z" fill="#3062FF"/>
<path d="M39.6629 0.713867V47.5196H16.3839C13.6417 47.5173 11.0124 46.4792 9.07269 44.6328C7.13299 42.7865 6.04131 40.2826 6.03711 37.6706C6.03711 37.6706 6.03711 31.7693 7.13933 29.4108V29.3973C7.21164 29.2461 7.291 29.0966 7.37389 28.9505C8.01157 27.8087 8.98557 26.8693 10.1762 26.2476C11.3825 25.6093 12.7786 25.2901 14.3646 25.2901C16.1599 25.2901 17.6578 25.6989 18.8582 26.5164C18.9816 26.597 19.1016 26.6844 19.2109 26.7768C20.4677 27.7679 21.2507 29.1174 21.56 30.8252H18.1351C17.941 30.0118 17.4614 29.2859 16.7754 28.7674C16.5435 28.5939 16.29 28.4483 16.0206 28.334C15.4691 28.1052 14.8727 27.9907 14.2712 27.998C12.932 27.998 11.8557 28.4589 11.0421 29.3805C10.9028 29.5384 10.7881 29.7165 10.6612 29.8845C9.57128 31.3107 9.48663 34.5058 9.48663 35.6145V37.6706C9.48572 38.3143 9.58497 38.9545 9.78115 39.5705C10.2112 40.92 11.085 42.1023 12.2737 42.9431C13.4625 43.7839 14.9033 44.2387 16.3839 44.2405H36.2134V5.63079L21.5564 11.4128V16.3113H18.1087V9.21728L39.6629 0.713867Z" fill="#3062FF"/>
</svg>
